G04 #@! TF.GenerationSoftware,KiCad,Pcbnew,(5.1.0)-1*
G04 #@! TF.CreationDate,2019-08-21T11:10:36-04:00*
G04 #@! TF.ProjectId,Famicom Expansion to NES Controller,46616d69-636f-46d2-9045-7870616e7369,rev?*
G04 #@! TF.SameCoordinates,Original*
G04 #@! TF.FileFunction,Soldermask,Top*
G04 #@! TF.FilePolarity,Negative*
%FSLAX46Y46*%
G04 Gerber Fmt 4.6, Leading zero omitted, Abs format (unit mm)*
G04 Created by KiCad (PCBNEW (5.1.0)-1) date 2019-08-21 11:10:36*
%MOMM*%
%LPD*%
G04 APERTURE LIST*
%ADD10C,0.100000*%
G04 APERTURE END LIST*
D10*
G36*
X155195285Y-72718234D02*
G01*
X155291981Y-72737468D01*
X155474151Y-72812926D01*
X155638100Y-72922473D01*
X155777527Y-73061900D01*
X155887074Y-73225849D01*
X155962532Y-73408019D01*
X156001000Y-73601410D01*
X156001000Y-73798590D01*
X155962532Y-73991981D01*
X155887074Y-74174151D01*
X155777527Y-74338100D01*
X155638100Y-74477527D01*
X155474151Y-74587074D01*
X155291981Y-74662532D01*
X155195285Y-74681766D01*
X155098591Y-74701000D01*
X154901409Y-74701000D01*
X154804715Y-74681766D01*
X154708019Y-74662532D01*
X154525849Y-74587074D01*
X154361900Y-74477527D01*
X154222473Y-74338100D01*
X154112926Y-74174151D01*
X154037468Y-73991981D01*
X153999000Y-73798590D01*
X153999000Y-73601410D01*
X154037468Y-73408019D01*
X154112926Y-73225849D01*
X154222473Y-73061900D01*
X154361900Y-72922473D01*
X154525849Y-72812926D01*
X154708019Y-72737468D01*
X154804715Y-72718234D01*
X154901409Y-72699000D01*
X155098591Y-72699000D01*
X155195285Y-72718234D01*
X155195285Y-72718234D01*
G37*
G36*
X166541806Y-69121298D02*
G01*
X166648129Y-69142447D01*
X166948592Y-69266903D01*
X167219001Y-69447585D01*
X167448965Y-69677549D01*
X167629647Y-69947958D01*
X167754103Y-70248421D01*
X167817550Y-70567391D01*
X167817550Y-70892609D01*
X167754103Y-71211579D01*
X167629647Y-71512042D01*
X167448965Y-71782451D01*
X167219001Y-72012415D01*
X166948592Y-72193097D01*
X166648129Y-72317553D01*
X166541806Y-72338702D01*
X166329161Y-72381000D01*
X166003939Y-72381000D01*
X165791294Y-72338702D01*
X165684971Y-72317553D01*
X165384508Y-72193097D01*
X165114099Y-72012415D01*
X164884135Y-71782451D01*
X164703453Y-71512042D01*
X164578997Y-71211579D01*
X164515550Y-70892609D01*
X164515550Y-70567391D01*
X164578997Y-70248421D01*
X164703453Y-69947958D01*
X164884135Y-69677549D01*
X165114099Y-69447585D01*
X165384508Y-69266903D01*
X165684971Y-69142447D01*
X165791294Y-69121298D01*
X166003939Y-69079000D01*
X166329161Y-69079000D01*
X166541806Y-69121298D01*
X166541806Y-69121298D01*
G37*
G36*
X144208706Y-69121298D02*
G01*
X144315029Y-69142447D01*
X144615492Y-69266903D01*
X144885901Y-69447585D01*
X145115865Y-69677549D01*
X145296547Y-69947958D01*
X145421003Y-70248421D01*
X145484450Y-70567391D01*
X145484450Y-70892609D01*
X145421003Y-71211579D01*
X145296547Y-71512042D01*
X145115865Y-71782451D01*
X144885901Y-72012415D01*
X144615492Y-72193097D01*
X144315029Y-72317553D01*
X144208706Y-72338702D01*
X143996061Y-72381000D01*
X143670839Y-72381000D01*
X143458194Y-72338702D01*
X143351871Y-72317553D01*
X143051408Y-72193097D01*
X142780999Y-72012415D01*
X142551035Y-71782451D01*
X142370353Y-71512042D01*
X142245897Y-71211579D01*
X142182450Y-70892609D01*
X142182450Y-70567391D01*
X142245897Y-70248421D01*
X142370353Y-69947958D01*
X142551035Y-69677549D01*
X142780999Y-69447585D01*
X143051408Y-69266903D01*
X143351871Y-69142447D01*
X143458194Y-69121298D01*
X143670839Y-69079000D01*
X143996061Y-69079000D01*
X144208706Y-69121298D01*
X144208706Y-69121298D01*
G37*
G36*
X162415780Y-69412365D02*
G01*
X162541981Y-69437468D01*
X162724151Y-69512926D01*
X162888100Y-69622473D01*
X163027527Y-69761900D01*
X163137074Y-69925849D01*
X163212532Y-70108019D01*
X163251000Y-70301410D01*
X163251000Y-70498590D01*
X163212532Y-70691981D01*
X163137074Y-70874151D01*
X163027527Y-71038100D01*
X162888100Y-71177527D01*
X162724151Y-71287074D01*
X162541981Y-71362532D01*
X162445285Y-71381766D01*
X162348591Y-71401000D01*
X162151409Y-71401000D01*
X162054715Y-71381766D01*
X161958019Y-71362532D01*
X161775849Y-71287074D01*
X161611900Y-71177527D01*
X161472473Y-71038100D01*
X161362926Y-70874151D01*
X161287468Y-70691981D01*
X161249000Y-70498590D01*
X161249000Y-70301410D01*
X161287468Y-70108019D01*
X161362926Y-69925849D01*
X161472473Y-69761900D01*
X161611900Y-69622473D01*
X161775849Y-69512926D01*
X161958019Y-69437468D01*
X162084220Y-69412365D01*
X162151409Y-69399000D01*
X162348591Y-69399000D01*
X162415780Y-69412365D01*
X162415780Y-69412365D01*
G37*
G36*
X147915780Y-69412365D02*
G01*
X148041981Y-69437468D01*
X148224151Y-69512926D01*
X148388100Y-69622473D01*
X148527527Y-69761900D01*
X148637074Y-69925849D01*
X148712532Y-70108019D01*
X148751000Y-70301410D01*
X148751000Y-70498590D01*
X148712532Y-70691981D01*
X148637074Y-70874151D01*
X148527527Y-71038100D01*
X148388100Y-71177527D01*
X148224151Y-71287074D01*
X148041981Y-71362532D01*
X147945285Y-71381766D01*
X147848591Y-71401000D01*
X147651409Y-71401000D01*
X147554715Y-71381766D01*
X147458019Y-71362532D01*
X147275849Y-71287074D01*
X147111900Y-71177527D01*
X146972473Y-71038100D01*
X146862926Y-70874151D01*
X146787468Y-70691981D01*
X146749000Y-70498590D01*
X146749000Y-70301410D01*
X146787468Y-70108019D01*
X146862926Y-69925849D01*
X146972473Y-69761900D01*
X147111900Y-69622473D01*
X147275849Y-69512926D01*
X147458019Y-69437468D01*
X147584220Y-69412365D01*
X147651409Y-69399000D01*
X147848591Y-69399000D01*
X147915780Y-69412365D01*
X147915780Y-69412365D01*
G37*
G36*
X176447564Y-67585389D02*
G01*
X176638833Y-67664615D01*
X176638835Y-67664616D01*
X176810973Y-67779635D01*
X176957365Y-67926027D01*
X177072385Y-68098167D01*
X177151611Y-68289436D01*
X177192000Y-68492484D01*
X177192000Y-68699516D01*
X177151611Y-68902564D01*
X177078529Y-69079000D01*
X177072384Y-69093835D01*
X176957365Y-69265973D01*
X176810973Y-69412365D01*
X176638835Y-69527384D01*
X176638834Y-69527385D01*
X176638833Y-69527385D01*
X176447564Y-69606611D01*
X176244516Y-69647000D01*
X176037484Y-69647000D01*
X175834436Y-69606611D01*
X175643167Y-69527385D01*
X175643166Y-69527385D01*
X175643165Y-69527384D01*
X175471027Y-69412365D01*
X175324635Y-69265973D01*
X175209616Y-69093835D01*
X175203471Y-69079000D01*
X175130389Y-68902564D01*
X175090000Y-68699516D01*
X175090000Y-68492484D01*
X175130389Y-68289436D01*
X175209615Y-68098167D01*
X175324635Y-67926027D01*
X175471027Y-67779635D01*
X175643165Y-67664616D01*
X175643167Y-67664615D01*
X175834436Y-67585389D01*
X176037484Y-67545000D01*
X176244516Y-67545000D01*
X176447564Y-67585389D01*
X176447564Y-67585389D01*
G37*
G36*
X134165564Y-67585389D02*
G01*
X134356833Y-67664615D01*
X134356835Y-67664616D01*
X134528973Y-67779635D01*
X134675365Y-67926027D01*
X134790385Y-68098167D01*
X134869611Y-68289436D01*
X134910000Y-68492484D01*
X134910000Y-68699516D01*
X134869611Y-68902564D01*
X134796529Y-69079000D01*
X134790384Y-69093835D01*
X134675365Y-69265973D01*
X134528973Y-69412365D01*
X134356835Y-69527384D01*
X134356834Y-69527385D01*
X134356833Y-69527385D01*
X134165564Y-69606611D01*
X133962516Y-69647000D01*
X133755484Y-69647000D01*
X133552436Y-69606611D01*
X133361167Y-69527385D01*
X133361166Y-69527385D01*
X133361165Y-69527384D01*
X133189027Y-69412365D01*
X133042635Y-69265973D01*
X132927616Y-69093835D01*
X132921471Y-69079000D01*
X132848389Y-68902564D01*
X132808000Y-68699516D01*
X132808000Y-68492484D01*
X132848389Y-68289436D01*
X132927615Y-68098167D01*
X133042635Y-67926027D01*
X133189027Y-67779635D01*
X133361165Y-67664616D01*
X133361167Y-67664615D01*
X133552436Y-67585389D01*
X133755484Y-67545000D01*
X133962516Y-67545000D01*
X134165564Y-67585389D01*
X134165564Y-67585389D01*
G37*
G36*
X129847564Y-67585389D02*
G01*
X130038833Y-67664615D01*
X130038835Y-67664616D01*
X130210973Y-67779635D01*
X130357365Y-67926027D01*
X130472385Y-68098167D01*
X130551611Y-68289436D01*
X130592000Y-68492484D01*
X130592000Y-68699516D01*
X130551611Y-68902564D01*
X130478529Y-69079000D01*
X130472384Y-69093835D01*
X130357365Y-69265973D01*
X130210973Y-69412365D01*
X130038835Y-69527384D01*
X130038834Y-69527385D01*
X130038833Y-69527385D01*
X129847564Y-69606611D01*
X129644516Y-69647000D01*
X129437484Y-69647000D01*
X129234436Y-69606611D01*
X129043167Y-69527385D01*
X129043166Y-69527385D01*
X129043165Y-69527384D01*
X128871027Y-69412365D01*
X128724635Y-69265973D01*
X128609616Y-69093835D01*
X128603471Y-69079000D01*
X128530389Y-68902564D01*
X128490000Y-68699516D01*
X128490000Y-68492484D01*
X128530389Y-68289436D01*
X128609615Y-68098167D01*
X128724635Y-67926027D01*
X128871027Y-67779635D01*
X129043165Y-67664616D01*
X129043167Y-67664615D01*
X129234436Y-67585389D01*
X129437484Y-67545000D01*
X129644516Y-67545000D01*
X129847564Y-67585389D01*
X129847564Y-67585389D01*
G37*
G36*
X180765564Y-67585389D02*
G01*
X180956833Y-67664615D01*
X180956835Y-67664616D01*
X181128973Y-67779635D01*
X181275365Y-67926027D01*
X181390385Y-68098167D01*
X181469611Y-68289436D01*
X181510000Y-68492484D01*
X181510000Y-68699516D01*
X181469611Y-68902564D01*
X181396529Y-69079000D01*
X181390384Y-69093835D01*
X181275365Y-69265973D01*
X181128973Y-69412365D01*
X180956835Y-69527384D01*
X180956834Y-69527385D01*
X180956833Y-69527385D01*
X180765564Y-69606611D01*
X180562516Y-69647000D01*
X180355484Y-69647000D01*
X180152436Y-69606611D01*
X179961167Y-69527385D01*
X179961166Y-69527385D01*
X179961165Y-69527384D01*
X179789027Y-69412365D01*
X179642635Y-69265973D01*
X179527616Y-69093835D01*
X179521471Y-69079000D01*
X179448389Y-68902564D01*
X179408000Y-68699516D01*
X179408000Y-68492484D01*
X179448389Y-68289436D01*
X179527615Y-68098167D01*
X179642635Y-67926027D01*
X179789027Y-67779635D01*
X179961165Y-67664616D01*
X179961167Y-67664615D01*
X180152436Y-67585389D01*
X180355484Y-67545000D01*
X180562516Y-67545000D01*
X180765564Y-67585389D01*
X180765564Y-67585389D01*
G37*
G36*
X180765564Y-63521389D02*
G01*
X180950085Y-63597820D01*
X180956835Y-63600616D01*
X181103228Y-63698433D01*
X181128973Y-63715635D01*
X181275365Y-63862027D01*
X181390385Y-64034167D01*
X181469611Y-64225436D01*
X181510000Y-64428484D01*
X181510000Y-64635516D01*
X181469611Y-64838564D01*
X181431508Y-64930553D01*
X181390384Y-65029835D01*
X181275365Y-65201973D01*
X181128973Y-65348365D01*
X180956835Y-65463384D01*
X180956834Y-65463385D01*
X180956833Y-65463385D01*
X180765564Y-65542611D01*
X180562516Y-65583000D01*
X180355484Y-65583000D01*
X180152436Y-65542611D01*
X179961167Y-65463385D01*
X179961166Y-65463385D01*
X179961165Y-65463384D01*
X179789027Y-65348365D01*
X179642635Y-65201973D01*
X179527616Y-65029835D01*
X179486492Y-64930553D01*
X179448389Y-64838564D01*
X179408000Y-64635516D01*
X179408000Y-64428484D01*
X179448389Y-64225436D01*
X179527615Y-64034167D01*
X179642635Y-63862027D01*
X179789027Y-63715635D01*
X179814772Y-63698433D01*
X179961165Y-63600616D01*
X179967915Y-63597820D01*
X180152436Y-63521389D01*
X180355484Y-63481000D01*
X180562516Y-63481000D01*
X180765564Y-63521389D01*
X180765564Y-63521389D01*
G37*
G36*
X129847564Y-63521389D02*
G01*
X130032085Y-63597820D01*
X130038835Y-63600616D01*
X130185228Y-63698433D01*
X130210973Y-63715635D01*
X130357365Y-63862027D01*
X130472385Y-64034167D01*
X130551611Y-64225436D01*
X130592000Y-64428484D01*
X130592000Y-64635516D01*
X130551611Y-64838564D01*
X130513508Y-64930553D01*
X130472384Y-65029835D01*
X130357365Y-65201973D01*
X130210973Y-65348365D01*
X130038835Y-65463384D01*
X130038834Y-65463385D01*
X130038833Y-65463385D01*
X129847564Y-65542611D01*
X129644516Y-65583000D01*
X129437484Y-65583000D01*
X129234436Y-65542611D01*
X129043167Y-65463385D01*
X129043166Y-65463385D01*
X129043165Y-65463384D01*
X128871027Y-65348365D01*
X128724635Y-65201973D01*
X128609616Y-65029835D01*
X128568492Y-64930553D01*
X128530389Y-64838564D01*
X128490000Y-64635516D01*
X128490000Y-64428484D01*
X128530389Y-64225436D01*
X128609615Y-64034167D01*
X128724635Y-63862027D01*
X128871027Y-63715635D01*
X128896772Y-63698433D01*
X129043165Y-63600616D01*
X129049915Y-63597820D01*
X129234436Y-63521389D01*
X129437484Y-63481000D01*
X129644516Y-63481000D01*
X129847564Y-63521389D01*
X129847564Y-63521389D01*
G37*
G36*
X134165564Y-63521389D02*
G01*
X134350085Y-63597820D01*
X134356835Y-63600616D01*
X134503228Y-63698433D01*
X134528973Y-63715635D01*
X134675365Y-63862027D01*
X134790385Y-64034167D01*
X134869611Y-64225436D01*
X134910000Y-64428484D01*
X134910000Y-64635516D01*
X134869611Y-64838564D01*
X134831508Y-64930553D01*
X134790384Y-65029835D01*
X134675365Y-65201973D01*
X134528973Y-65348365D01*
X134356835Y-65463384D01*
X134356834Y-65463385D01*
X134356833Y-65463385D01*
X134165564Y-65542611D01*
X133962516Y-65583000D01*
X133755484Y-65583000D01*
X133552436Y-65542611D01*
X133361167Y-65463385D01*
X133361166Y-65463385D01*
X133361165Y-65463384D01*
X133189027Y-65348365D01*
X133042635Y-65201973D01*
X132927616Y-65029835D01*
X132886492Y-64930553D01*
X132848389Y-64838564D01*
X132808000Y-64635516D01*
X132808000Y-64428484D01*
X132848389Y-64225436D01*
X132927615Y-64034167D01*
X133042635Y-63862027D01*
X133189027Y-63715635D01*
X133214772Y-63698433D01*
X133361165Y-63600616D01*
X133367915Y-63597820D01*
X133552436Y-63521389D01*
X133755484Y-63481000D01*
X133962516Y-63481000D01*
X134165564Y-63521389D01*
X134165564Y-63521389D01*
G37*
G36*
X176447564Y-63521389D02*
G01*
X176632085Y-63597820D01*
X176638835Y-63600616D01*
X176785228Y-63698433D01*
X176810973Y-63715635D01*
X176957365Y-63862027D01*
X177072385Y-64034167D01*
X177151611Y-64225436D01*
X177192000Y-64428484D01*
X177192000Y-64635516D01*
X177151611Y-64838564D01*
X177113508Y-64930553D01*
X177072384Y-65029835D01*
X176957365Y-65201973D01*
X176810973Y-65348365D01*
X176638835Y-65463384D01*
X176638834Y-65463385D01*
X176638833Y-65463385D01*
X176447564Y-65542611D01*
X176244516Y-65583000D01*
X176037484Y-65583000D01*
X175834436Y-65542611D01*
X175643167Y-65463385D01*
X175643166Y-65463385D01*
X175643165Y-65463384D01*
X175471027Y-65348365D01*
X175324635Y-65201973D01*
X175209616Y-65029835D01*
X175168492Y-64930553D01*
X175130389Y-64838564D01*
X175090000Y-64635516D01*
X175090000Y-64428484D01*
X175130389Y-64225436D01*
X175209615Y-64034167D01*
X175324635Y-63862027D01*
X175471027Y-63715635D01*
X175496772Y-63698433D01*
X175643165Y-63600616D01*
X175649915Y-63597820D01*
X175834436Y-63521389D01*
X176037484Y-63481000D01*
X176244516Y-63481000D01*
X176447564Y-63521389D01*
X176447564Y-63521389D01*
G37*
G36*
X163388170Y-62530385D02*
G01*
X163395283Y-62553834D01*
X163406834Y-62575445D01*
X163422379Y-62594387D01*
X163441321Y-62609932D01*
X163462932Y-62621483D01*
X163486381Y-62628596D01*
X163689487Y-62668996D01*
X163926253Y-62767068D01*
X163926255Y-62767069D01*
X164139339Y-62909447D01*
X164320553Y-63090661D01*
X164462932Y-63303747D01*
X164561004Y-63540513D01*
X164611000Y-63791861D01*
X164611000Y-64048139D01*
X164561004Y-64299487D01*
X164462932Y-64536253D01*
X164462931Y-64536255D01*
X164320553Y-64749339D01*
X164139339Y-64930553D01*
X163926255Y-65072931D01*
X163926254Y-65072932D01*
X163926253Y-65072932D01*
X163689487Y-65171004D01*
X163438139Y-65221000D01*
X163181861Y-65221000D01*
X162930513Y-65171004D01*
X162693747Y-65072932D01*
X162693746Y-65072932D01*
X162693745Y-65072931D01*
X162480661Y-64930553D01*
X162299447Y-64749339D01*
X162157069Y-64536255D01*
X162157068Y-64536253D01*
X162058996Y-64299487D01*
X162047597Y-64242180D01*
X162040484Y-64218731D01*
X162028933Y-64197120D01*
X162013388Y-64178179D01*
X161994446Y-64162633D01*
X161972835Y-64151082D01*
X161949386Y-64143969D01*
X161925000Y-64141567D01*
X161900614Y-64143969D01*
X161877165Y-64151082D01*
X161855554Y-64162633D01*
X161836613Y-64178178D01*
X161821067Y-64197120D01*
X161809516Y-64218731D01*
X161802403Y-64242180D01*
X161791004Y-64299487D01*
X161692932Y-64536253D01*
X161692931Y-64536255D01*
X161550553Y-64749339D01*
X161369339Y-64930553D01*
X161156255Y-65072931D01*
X161156254Y-65072932D01*
X161156253Y-65072932D01*
X160919487Y-65171004D01*
X160668139Y-65221000D01*
X160411861Y-65221000D01*
X160160513Y-65171004D01*
X159923747Y-65072932D01*
X159923746Y-65072932D01*
X159923745Y-65072931D01*
X159710661Y-64930553D01*
X159529447Y-64749339D01*
X159387069Y-64536255D01*
X159387068Y-64536253D01*
X159288996Y-64299487D01*
X159277597Y-64242180D01*
X159270484Y-64218731D01*
X159258933Y-64197120D01*
X159243388Y-64178179D01*
X159224446Y-64162633D01*
X159202835Y-64151082D01*
X159179386Y-64143969D01*
X159155000Y-64141567D01*
X159130614Y-64143969D01*
X159107165Y-64151082D01*
X159085554Y-64162633D01*
X159066613Y-64178178D01*
X159051067Y-64197120D01*
X159039516Y-64218731D01*
X159032403Y-64242180D01*
X159021004Y-64299487D01*
X158922932Y-64536253D01*
X158922931Y-64536255D01*
X158780553Y-64749339D01*
X158599339Y-64930553D01*
X158386255Y-65072931D01*
X158386254Y-65072932D01*
X158386253Y-65072932D01*
X158149487Y-65171004D01*
X157898139Y-65221000D01*
X157641861Y-65221000D01*
X157390513Y-65171004D01*
X157153747Y-65072932D01*
X157153746Y-65072932D01*
X157153745Y-65072931D01*
X156940661Y-64930553D01*
X156759447Y-64749339D01*
X156617069Y-64536255D01*
X156617068Y-64536253D01*
X156518996Y-64299487D01*
X156507597Y-64242180D01*
X156500484Y-64218731D01*
X156488933Y-64197120D01*
X156473388Y-64178179D01*
X156454446Y-64162633D01*
X156432835Y-64151082D01*
X156409386Y-64143969D01*
X156385000Y-64141567D01*
X156360614Y-64143969D01*
X156337165Y-64151082D01*
X156315554Y-64162633D01*
X156296613Y-64178178D01*
X156281067Y-64197120D01*
X156269516Y-64218731D01*
X156262403Y-64242180D01*
X156251004Y-64299487D01*
X156152932Y-64536253D01*
X156152931Y-64536255D01*
X156010553Y-64749339D01*
X155829339Y-64930553D01*
X155616255Y-65072931D01*
X155616254Y-65072932D01*
X155616253Y-65072932D01*
X155379487Y-65171004D01*
X155128139Y-65221000D01*
X154871861Y-65221000D01*
X154620513Y-65171004D01*
X154383747Y-65072932D01*
X154383746Y-65072932D01*
X154383745Y-65072931D01*
X154170661Y-64930553D01*
X153989447Y-64749339D01*
X153847069Y-64536255D01*
X153847068Y-64536253D01*
X153748996Y-64299487D01*
X153737597Y-64242180D01*
X153730484Y-64218731D01*
X153718933Y-64197120D01*
X153703388Y-64178179D01*
X153684446Y-64162633D01*
X153662835Y-64151082D01*
X153639386Y-64143969D01*
X153615000Y-64141567D01*
X153590614Y-64143969D01*
X153567165Y-64151082D01*
X153545554Y-64162633D01*
X153526613Y-64178178D01*
X153511067Y-64197120D01*
X153499516Y-64218731D01*
X153492403Y-64242180D01*
X153481004Y-64299487D01*
X153382932Y-64536253D01*
X153382931Y-64536255D01*
X153240553Y-64749339D01*
X153059339Y-64930553D01*
X152846255Y-65072931D01*
X152846254Y-65072932D01*
X152846253Y-65072932D01*
X152609487Y-65171004D01*
X152358139Y-65221000D01*
X152101861Y-65221000D01*
X151850513Y-65171004D01*
X151613747Y-65072932D01*
X151613746Y-65072932D01*
X151613745Y-65072931D01*
X151400661Y-64930553D01*
X151219447Y-64749339D01*
X151077069Y-64536255D01*
X151077068Y-64536253D01*
X150978996Y-64299487D01*
X150967597Y-64242180D01*
X150960484Y-64218731D01*
X150948933Y-64197120D01*
X150933388Y-64178179D01*
X150914446Y-64162633D01*
X150892835Y-64151082D01*
X150869386Y-64143969D01*
X150845000Y-64141567D01*
X150820614Y-64143969D01*
X150797165Y-64151082D01*
X150775554Y-64162633D01*
X150756613Y-64178178D01*
X150741067Y-64197120D01*
X150729516Y-64218731D01*
X150722403Y-64242180D01*
X150711004Y-64299487D01*
X150612932Y-64536253D01*
X150612931Y-64536255D01*
X150470553Y-64749339D01*
X150289339Y-64930553D01*
X150076255Y-65072931D01*
X150076254Y-65072932D01*
X150076253Y-65072932D01*
X149839487Y-65171004D01*
X149588139Y-65221000D01*
X149331861Y-65221000D01*
X149080513Y-65171004D01*
X148843747Y-65072932D01*
X148843746Y-65072932D01*
X148843745Y-65072931D01*
X148630661Y-64930553D01*
X148449447Y-64749339D01*
X148307069Y-64536255D01*
X148307068Y-64536253D01*
X148208996Y-64299487D01*
X148197597Y-64242180D01*
X148190484Y-64218731D01*
X148178933Y-64197120D01*
X148163388Y-64178179D01*
X148144446Y-64162633D01*
X148122835Y-64151082D01*
X148099386Y-64143969D01*
X148075000Y-64141567D01*
X148050614Y-64143969D01*
X148027165Y-64151082D01*
X148005554Y-64162633D01*
X147986613Y-64178178D01*
X147971067Y-64197120D01*
X147959516Y-64218731D01*
X147952403Y-64242180D01*
X147941004Y-64299487D01*
X147842932Y-64536253D01*
X147842931Y-64536255D01*
X147700553Y-64749339D01*
X147519339Y-64930553D01*
X147306255Y-65072931D01*
X147306254Y-65072932D01*
X147306253Y-65072932D01*
X147069487Y-65171004D01*
X146818139Y-65221000D01*
X146561861Y-65221000D01*
X146310513Y-65171004D01*
X146073747Y-65072932D01*
X146073746Y-65072932D01*
X146073745Y-65072931D01*
X145860661Y-64930553D01*
X145679447Y-64749339D01*
X145537069Y-64536255D01*
X145537068Y-64536253D01*
X145438996Y-64299487D01*
X145389000Y-64048139D01*
X145389000Y-63791861D01*
X145438996Y-63540513D01*
X145537068Y-63303747D01*
X145679447Y-63090661D01*
X145860661Y-62909447D01*
X146073745Y-62767069D01*
X146073747Y-62767068D01*
X146310513Y-62668996D01*
X146561861Y-62619000D01*
X146818139Y-62619000D01*
X147069487Y-62668996D01*
X147306253Y-62767068D01*
X147306255Y-62767069D01*
X147519339Y-62909447D01*
X147700553Y-63090661D01*
X147842932Y-63303747D01*
X147941004Y-63540513D01*
X147952403Y-63597820D01*
X147959516Y-63621269D01*
X147971067Y-63642880D01*
X147986612Y-63661821D01*
X148005554Y-63677367D01*
X148027165Y-63688918D01*
X148050614Y-63696031D01*
X148075000Y-63698433D01*
X148099386Y-63696031D01*
X148122835Y-63688918D01*
X148144446Y-63677367D01*
X148163387Y-63661822D01*
X148178933Y-63642880D01*
X148190484Y-63621269D01*
X148197597Y-63597820D01*
X148208996Y-63540513D01*
X148307068Y-63303747D01*
X148449447Y-63090661D01*
X148630661Y-62909447D01*
X148843745Y-62767069D01*
X148843747Y-62767068D01*
X149080513Y-62668996D01*
X149331861Y-62619000D01*
X149588139Y-62619000D01*
X149839487Y-62668996D01*
X150076253Y-62767068D01*
X150076255Y-62767069D01*
X150289339Y-62909447D01*
X150470553Y-63090661D01*
X150612932Y-63303747D01*
X150711004Y-63540513D01*
X150722403Y-63597820D01*
X150729516Y-63621269D01*
X150741067Y-63642880D01*
X150756612Y-63661821D01*
X150775554Y-63677367D01*
X150797165Y-63688918D01*
X150820614Y-63696031D01*
X150845000Y-63698433D01*
X150869386Y-63696031D01*
X150892835Y-63688918D01*
X150914446Y-63677367D01*
X150933387Y-63661822D01*
X150948933Y-63642880D01*
X150960484Y-63621269D01*
X150967597Y-63597820D01*
X150978996Y-63540513D01*
X151077068Y-63303747D01*
X151219447Y-63090661D01*
X151400661Y-62909447D01*
X151613745Y-62767069D01*
X151613747Y-62767068D01*
X151850513Y-62668996D01*
X152101861Y-62619000D01*
X152358139Y-62619000D01*
X152609487Y-62668996D01*
X152846253Y-62767068D01*
X152846255Y-62767069D01*
X153059339Y-62909447D01*
X153240553Y-63090661D01*
X153382932Y-63303747D01*
X153481004Y-63540513D01*
X153492403Y-63597820D01*
X153499516Y-63621269D01*
X153511067Y-63642880D01*
X153526612Y-63661821D01*
X153545554Y-63677367D01*
X153567165Y-63688918D01*
X153590614Y-63696031D01*
X153615000Y-63698433D01*
X153639386Y-63696031D01*
X153662835Y-63688918D01*
X153684446Y-63677367D01*
X153703387Y-63661822D01*
X153718933Y-63642880D01*
X153730484Y-63621269D01*
X153737597Y-63597820D01*
X153748996Y-63540513D01*
X153847068Y-63303747D01*
X153989447Y-63090661D01*
X154170661Y-62909447D01*
X154383745Y-62767069D01*
X154383747Y-62767068D01*
X154620513Y-62668996D01*
X154871861Y-62619000D01*
X155128139Y-62619000D01*
X155379487Y-62668996D01*
X155616253Y-62767068D01*
X155616255Y-62767069D01*
X155829339Y-62909447D01*
X156010553Y-63090661D01*
X156152932Y-63303747D01*
X156251004Y-63540513D01*
X156262403Y-63597820D01*
X156269516Y-63621269D01*
X156281067Y-63642880D01*
X156296612Y-63661821D01*
X156315554Y-63677367D01*
X156337165Y-63688918D01*
X156360614Y-63696031D01*
X156385000Y-63698433D01*
X156409386Y-63696031D01*
X156432835Y-63688918D01*
X156454446Y-63677367D01*
X156473387Y-63661822D01*
X156488933Y-63642880D01*
X156500484Y-63621269D01*
X156507597Y-63597820D01*
X156518996Y-63540513D01*
X156617068Y-63303747D01*
X156759447Y-63090661D01*
X156940661Y-62909447D01*
X157153745Y-62767069D01*
X157153747Y-62767068D01*
X157390513Y-62668996D01*
X157641861Y-62619000D01*
X157898139Y-62619000D01*
X158149487Y-62668996D01*
X158386253Y-62767068D01*
X158386255Y-62767069D01*
X158599339Y-62909447D01*
X158780553Y-63090661D01*
X158922932Y-63303747D01*
X159021004Y-63540513D01*
X159032403Y-63597820D01*
X159039516Y-63621269D01*
X159051067Y-63642880D01*
X159066612Y-63661821D01*
X159085554Y-63677367D01*
X159107165Y-63688918D01*
X159130614Y-63696031D01*
X159155000Y-63698433D01*
X159179386Y-63696031D01*
X159202835Y-63688918D01*
X159224446Y-63677367D01*
X159243387Y-63661822D01*
X159258933Y-63642880D01*
X159270484Y-63621269D01*
X159277597Y-63597820D01*
X159288996Y-63540513D01*
X159387068Y-63303747D01*
X159529447Y-63090661D01*
X159710661Y-62909447D01*
X159923745Y-62767069D01*
X159923747Y-62767068D01*
X160160513Y-62668996D01*
X160411861Y-62619000D01*
X160668139Y-62619000D01*
X160919487Y-62668996D01*
X161156253Y-62767068D01*
X161156255Y-62767069D01*
X161369339Y-62909447D01*
X161550553Y-63090661D01*
X161692932Y-63303747D01*
X161791004Y-63540513D01*
X161802403Y-63597820D01*
X161809516Y-63621269D01*
X161821067Y-63642880D01*
X161836612Y-63661821D01*
X161855554Y-63677367D01*
X161877165Y-63688918D01*
X161900614Y-63696031D01*
X161925000Y-63698433D01*
X161949386Y-63696031D01*
X161972835Y-63688918D01*
X161994446Y-63677367D01*
X162013387Y-63661822D01*
X162028933Y-63642880D01*
X162040484Y-63621269D01*
X162047597Y-63597820D01*
X162058996Y-63540513D01*
X162157068Y-63303747D01*
X162299447Y-63090661D01*
X162480661Y-62909447D01*
X162693745Y-62767069D01*
X162693747Y-62767068D01*
X162930513Y-62668996D01*
X163181861Y-62619000D01*
X163269001Y-62619000D01*
X163293387Y-62616598D01*
X163316836Y-62609485D01*
X163338447Y-62597934D01*
X163357389Y-62582389D01*
X163372934Y-62563447D01*
X163384485Y-62541836D01*
X163388118Y-62529859D01*
X163388170Y-62530385D01*
X163388170Y-62530385D01*
G37*
G36*
X145684487Y-59828996D02*
G01*
X145921253Y-59927068D01*
X145921255Y-59927069D01*
X146134339Y-60069447D01*
X146315553Y-60250661D01*
X146457932Y-60463747D01*
X146556004Y-60700513D01*
X146567403Y-60757820D01*
X146574516Y-60781269D01*
X146586067Y-60802880D01*
X146601612Y-60821821D01*
X146620554Y-60837367D01*
X146642165Y-60848918D01*
X146665614Y-60856031D01*
X146690000Y-60858433D01*
X146714386Y-60856031D01*
X146737835Y-60848918D01*
X146759446Y-60837367D01*
X146778387Y-60821822D01*
X146793933Y-60802880D01*
X146805484Y-60781269D01*
X146812597Y-60757820D01*
X146823996Y-60700513D01*
X146922068Y-60463747D01*
X147064447Y-60250661D01*
X147245661Y-60069447D01*
X147458745Y-59927069D01*
X147458747Y-59927068D01*
X147695513Y-59828996D01*
X147946861Y-59779000D01*
X148203139Y-59779000D01*
X148454487Y-59828996D01*
X148691253Y-59927068D01*
X148691255Y-59927069D01*
X148904339Y-60069447D01*
X149085553Y-60250661D01*
X149227932Y-60463747D01*
X149326004Y-60700513D01*
X149337403Y-60757820D01*
X149344516Y-60781269D01*
X149356067Y-60802880D01*
X149371612Y-60821821D01*
X149390554Y-60837367D01*
X149412165Y-60848918D01*
X149435614Y-60856031D01*
X149460000Y-60858433D01*
X149484386Y-60856031D01*
X149507835Y-60848918D01*
X149529446Y-60837367D01*
X149548387Y-60821822D01*
X149563933Y-60802880D01*
X149575484Y-60781269D01*
X149582597Y-60757820D01*
X149593996Y-60700513D01*
X149692068Y-60463747D01*
X149834447Y-60250661D01*
X150015661Y-60069447D01*
X150228745Y-59927069D01*
X150228747Y-59927068D01*
X150465513Y-59828996D01*
X150716861Y-59779000D01*
X150973139Y-59779000D01*
X151224487Y-59828996D01*
X151461253Y-59927068D01*
X151461255Y-59927069D01*
X151674339Y-60069447D01*
X151855553Y-60250661D01*
X151997932Y-60463747D01*
X152096004Y-60700513D01*
X152107403Y-60757820D01*
X152114516Y-60781269D01*
X152126067Y-60802880D01*
X152141612Y-60821821D01*
X152160554Y-60837367D01*
X152182165Y-60848918D01*
X152205614Y-60856031D01*
X152230000Y-60858433D01*
X152254386Y-60856031D01*
X152277835Y-60848918D01*
X152299446Y-60837367D01*
X152318387Y-60821822D01*
X152333933Y-60802880D01*
X152345484Y-60781269D01*
X152352597Y-60757820D01*
X152363996Y-60700513D01*
X152462068Y-60463747D01*
X152604447Y-60250661D01*
X152785661Y-60069447D01*
X152998745Y-59927069D01*
X152998747Y-59927068D01*
X153235513Y-59828996D01*
X153486861Y-59779000D01*
X153743139Y-59779000D01*
X153994487Y-59828996D01*
X154231253Y-59927068D01*
X154231255Y-59927069D01*
X154444339Y-60069447D01*
X154625553Y-60250661D01*
X154767932Y-60463747D01*
X154866004Y-60700513D01*
X154877403Y-60757820D01*
X154884516Y-60781269D01*
X154896067Y-60802880D01*
X154911612Y-60821821D01*
X154930554Y-60837367D01*
X154952165Y-60848918D01*
X154975614Y-60856031D01*
X155000000Y-60858433D01*
X155024386Y-60856031D01*
X155047835Y-60848918D01*
X155069446Y-60837367D01*
X155088387Y-60821822D01*
X155103933Y-60802880D01*
X155115484Y-60781269D01*
X155122597Y-60757820D01*
X155133996Y-60700513D01*
X155232068Y-60463747D01*
X155374447Y-60250661D01*
X155555661Y-60069447D01*
X155768745Y-59927069D01*
X155768747Y-59927068D01*
X156005513Y-59828996D01*
X156256861Y-59779000D01*
X156513139Y-59779000D01*
X156764487Y-59828996D01*
X157001253Y-59927068D01*
X157001255Y-59927069D01*
X157214339Y-60069447D01*
X157395553Y-60250661D01*
X157537932Y-60463747D01*
X157636004Y-60700513D01*
X157647403Y-60757820D01*
X157654516Y-60781269D01*
X157666067Y-60802880D01*
X157681612Y-60821821D01*
X157700554Y-60837367D01*
X157722165Y-60848918D01*
X157745614Y-60856031D01*
X157770000Y-60858433D01*
X157794386Y-60856031D01*
X157817835Y-60848918D01*
X157839446Y-60837367D01*
X157858387Y-60821822D01*
X157873933Y-60802880D01*
X157885484Y-60781269D01*
X157892597Y-60757820D01*
X157903996Y-60700513D01*
X158002068Y-60463747D01*
X158144447Y-60250661D01*
X158325661Y-60069447D01*
X158538745Y-59927069D01*
X158538747Y-59927068D01*
X158775513Y-59828996D01*
X159026861Y-59779000D01*
X159283139Y-59779000D01*
X159534487Y-59828996D01*
X159771253Y-59927068D01*
X159771255Y-59927069D01*
X159984339Y-60069447D01*
X160165553Y-60250661D01*
X160307932Y-60463747D01*
X160406004Y-60700513D01*
X160417403Y-60757820D01*
X160424516Y-60781269D01*
X160436067Y-60802880D01*
X160451612Y-60821821D01*
X160470554Y-60837367D01*
X160492165Y-60848918D01*
X160515614Y-60856031D01*
X160540000Y-60858433D01*
X160564386Y-60856031D01*
X160587835Y-60848918D01*
X160609446Y-60837367D01*
X160628387Y-60821822D01*
X160643933Y-60802880D01*
X160655484Y-60781269D01*
X160662597Y-60757820D01*
X160673996Y-60700513D01*
X160772068Y-60463747D01*
X160914447Y-60250661D01*
X161095661Y-60069447D01*
X161308745Y-59927069D01*
X161308747Y-59927068D01*
X161545513Y-59828996D01*
X161796861Y-59779000D01*
X162053139Y-59779000D01*
X162304487Y-59828996D01*
X162541253Y-59927068D01*
X162541255Y-59927069D01*
X162754339Y-60069447D01*
X162935553Y-60250661D01*
X163077932Y-60463747D01*
X163153517Y-60646224D01*
X163165068Y-60667835D01*
X163180614Y-60686777D01*
X163199555Y-60702322D01*
X163221166Y-60713873D01*
X163244615Y-60720986D01*
X163269001Y-60723388D01*
X163293387Y-60720986D01*
X163316836Y-60713873D01*
X163338447Y-60702322D01*
X163357389Y-60686776D01*
X163372934Y-60667835D01*
X163384485Y-60646224D01*
X163391598Y-60622775D01*
X163394000Y-60598389D01*
X163394000Y-59779000D01*
X165996000Y-59779000D01*
X165996000Y-62381000D01*
X163510767Y-62381000D01*
X163486381Y-62383402D01*
X163462932Y-62390515D01*
X163441321Y-62402066D01*
X163422379Y-62417611D01*
X163406834Y-62436553D01*
X163395283Y-62458164D01*
X163394000Y-62462394D01*
X163394000Y-61561611D01*
X163391598Y-61537225D01*
X163384485Y-61513776D01*
X163372934Y-61492165D01*
X163357389Y-61473223D01*
X163338447Y-61457678D01*
X163316836Y-61446127D01*
X163293387Y-61439014D01*
X163269001Y-61436612D01*
X163244615Y-61439014D01*
X163221166Y-61446127D01*
X163199555Y-61457678D01*
X163180613Y-61473223D01*
X163165068Y-61492165D01*
X163153517Y-61513776D01*
X163077932Y-61696253D01*
X163077931Y-61696255D01*
X162935553Y-61909339D01*
X162754339Y-62090553D01*
X162541255Y-62232931D01*
X162541254Y-62232932D01*
X162541253Y-62232932D01*
X162304487Y-62331004D01*
X162053139Y-62381000D01*
X161796861Y-62381000D01*
X161545513Y-62331004D01*
X161308747Y-62232932D01*
X161308746Y-62232932D01*
X161308745Y-62232931D01*
X161095661Y-62090553D01*
X160914447Y-61909339D01*
X160772069Y-61696255D01*
X160772068Y-61696253D01*
X160673996Y-61459487D01*
X160662597Y-61402180D01*
X160655484Y-61378731D01*
X160643933Y-61357120D01*
X160628388Y-61338179D01*
X160609446Y-61322633D01*
X160587835Y-61311082D01*
X160564386Y-61303969D01*
X160540000Y-61301567D01*
X160515614Y-61303969D01*
X160492165Y-61311082D01*
X160470554Y-61322633D01*
X160451613Y-61338178D01*
X160436067Y-61357120D01*
X160424516Y-61378731D01*
X160417403Y-61402180D01*
X160406004Y-61459487D01*
X160307932Y-61696253D01*
X160307931Y-61696255D01*
X160165553Y-61909339D01*
X159984339Y-62090553D01*
X159771255Y-62232931D01*
X159771254Y-62232932D01*
X159771253Y-62232932D01*
X159534487Y-62331004D01*
X159283139Y-62381000D01*
X159026861Y-62381000D01*
X158775513Y-62331004D01*
X158538747Y-62232932D01*
X158538746Y-62232932D01*
X158538745Y-62232931D01*
X158325661Y-62090553D01*
X158144447Y-61909339D01*
X158002069Y-61696255D01*
X158002068Y-61696253D01*
X157903996Y-61459487D01*
X157892597Y-61402180D01*
X157885484Y-61378731D01*
X157873933Y-61357120D01*
X157858388Y-61338179D01*
X157839446Y-61322633D01*
X157817835Y-61311082D01*
X157794386Y-61303969D01*
X157770000Y-61301567D01*
X157745614Y-61303969D01*
X157722165Y-61311082D01*
X157700554Y-61322633D01*
X157681613Y-61338178D01*
X157666067Y-61357120D01*
X157654516Y-61378731D01*
X157647403Y-61402180D01*
X157636004Y-61459487D01*
X157537932Y-61696253D01*
X157537931Y-61696255D01*
X157395553Y-61909339D01*
X157214339Y-62090553D01*
X157001255Y-62232931D01*
X157001254Y-62232932D01*
X157001253Y-62232932D01*
X156764487Y-62331004D01*
X156513139Y-62381000D01*
X156256861Y-62381000D01*
X156005513Y-62331004D01*
X155768747Y-62232932D01*
X155768746Y-62232932D01*
X155768745Y-62232931D01*
X155555661Y-62090553D01*
X155374447Y-61909339D01*
X155232069Y-61696255D01*
X155232068Y-61696253D01*
X155133996Y-61459487D01*
X155122597Y-61402180D01*
X155115484Y-61378731D01*
X155103933Y-61357120D01*
X155088388Y-61338179D01*
X155069446Y-61322633D01*
X155047835Y-61311082D01*
X155024386Y-61303969D01*
X155000000Y-61301567D01*
X154975614Y-61303969D01*
X154952165Y-61311082D01*
X154930554Y-61322633D01*
X154911613Y-61338178D01*
X154896067Y-61357120D01*
X154884516Y-61378731D01*
X154877403Y-61402180D01*
X154866004Y-61459487D01*
X154767932Y-61696253D01*
X154767931Y-61696255D01*
X154625553Y-61909339D01*
X154444339Y-62090553D01*
X154231255Y-62232931D01*
X154231254Y-62232932D01*
X154231253Y-62232932D01*
X153994487Y-62331004D01*
X153743139Y-62381000D01*
X153486861Y-62381000D01*
X153235513Y-62331004D01*
X152998747Y-62232932D01*
X152998746Y-62232932D01*
X152998745Y-62232931D01*
X152785661Y-62090553D01*
X152604447Y-61909339D01*
X152462069Y-61696255D01*
X152462068Y-61696253D01*
X152363996Y-61459487D01*
X152352597Y-61402180D01*
X152345484Y-61378731D01*
X152333933Y-61357120D01*
X152318388Y-61338179D01*
X152299446Y-61322633D01*
X152277835Y-61311082D01*
X152254386Y-61303969D01*
X152230000Y-61301567D01*
X152205614Y-61303969D01*
X152182165Y-61311082D01*
X152160554Y-61322633D01*
X152141613Y-61338178D01*
X152126067Y-61357120D01*
X152114516Y-61378731D01*
X152107403Y-61402180D01*
X152096004Y-61459487D01*
X151997932Y-61696253D01*
X151997931Y-61696255D01*
X151855553Y-61909339D01*
X151674339Y-62090553D01*
X151461255Y-62232931D01*
X151461254Y-62232932D01*
X151461253Y-62232932D01*
X151224487Y-62331004D01*
X150973139Y-62381000D01*
X150716861Y-62381000D01*
X150465513Y-62331004D01*
X150228747Y-62232932D01*
X150228746Y-62232932D01*
X150228745Y-62232931D01*
X150015661Y-62090553D01*
X149834447Y-61909339D01*
X149692069Y-61696255D01*
X149692068Y-61696253D01*
X149593996Y-61459487D01*
X149582597Y-61402180D01*
X149575484Y-61378731D01*
X149563933Y-61357120D01*
X149548388Y-61338179D01*
X149529446Y-61322633D01*
X149507835Y-61311082D01*
X149484386Y-61303969D01*
X149460000Y-61301567D01*
X149435614Y-61303969D01*
X149412165Y-61311082D01*
X149390554Y-61322633D01*
X149371613Y-61338178D01*
X149356067Y-61357120D01*
X149344516Y-61378731D01*
X149337403Y-61402180D01*
X149326004Y-61459487D01*
X149227932Y-61696253D01*
X149227931Y-61696255D01*
X149085553Y-61909339D01*
X148904339Y-62090553D01*
X148691255Y-62232931D01*
X148691254Y-62232932D01*
X148691253Y-62232932D01*
X148454487Y-62331004D01*
X148203139Y-62381000D01*
X147946861Y-62381000D01*
X147695513Y-62331004D01*
X147458747Y-62232932D01*
X147458746Y-62232932D01*
X147458745Y-62232931D01*
X147245661Y-62090553D01*
X147064447Y-61909339D01*
X146922069Y-61696255D01*
X146922068Y-61696253D01*
X146823996Y-61459487D01*
X146812597Y-61402180D01*
X146805484Y-61378731D01*
X146793933Y-61357120D01*
X146778388Y-61338179D01*
X146759446Y-61322633D01*
X146737835Y-61311082D01*
X146714386Y-61303969D01*
X146690000Y-61301567D01*
X146665614Y-61303969D01*
X146642165Y-61311082D01*
X146620554Y-61322633D01*
X146601613Y-61338178D01*
X146586067Y-61357120D01*
X146574516Y-61378731D01*
X146567403Y-61402180D01*
X146556004Y-61459487D01*
X146457932Y-61696253D01*
X146457931Y-61696255D01*
X146315553Y-61909339D01*
X146134339Y-62090553D01*
X145921255Y-62232931D01*
X145921254Y-62232932D01*
X145921253Y-62232932D01*
X145684487Y-62331004D01*
X145433139Y-62381000D01*
X145176861Y-62381000D01*
X144925513Y-62331004D01*
X144688747Y-62232932D01*
X144688746Y-62232932D01*
X144688745Y-62232931D01*
X144475661Y-62090553D01*
X144294447Y-61909339D01*
X144152069Y-61696255D01*
X144152068Y-61696253D01*
X144053996Y-61459487D01*
X144004000Y-61208139D01*
X144004000Y-60951861D01*
X144053996Y-60700513D01*
X144152068Y-60463747D01*
X144294447Y-60250661D01*
X144475661Y-60069447D01*
X144688745Y-59927069D01*
X144688747Y-59927068D01*
X144925513Y-59828996D01*
X145176861Y-59779000D01*
X145433139Y-59779000D01*
X145684487Y-59828996D01*
X145684487Y-59828996D01*
G37*
G36*
X134165564Y-59457389D02*
G01*
X134356833Y-59536615D01*
X134356835Y-59536616D01*
X134528973Y-59651635D01*
X134675365Y-59798027D01*
X134696059Y-59828997D01*
X134790385Y-59970167D01*
X134869611Y-60161436D01*
X134910000Y-60364484D01*
X134910000Y-60571516D01*
X134869611Y-60774564D01*
X134790385Y-60965833D01*
X134790384Y-60965835D01*
X134675365Y-61137973D01*
X134528973Y-61284365D01*
X134356835Y-61399384D01*
X134356834Y-61399385D01*
X134356833Y-61399385D01*
X134165564Y-61478611D01*
X133962516Y-61519000D01*
X133755484Y-61519000D01*
X133552436Y-61478611D01*
X133361167Y-61399385D01*
X133361166Y-61399385D01*
X133361165Y-61399384D01*
X133189027Y-61284365D01*
X133042635Y-61137973D01*
X132927616Y-60965835D01*
X132927615Y-60965833D01*
X132848389Y-60774564D01*
X132808000Y-60571516D01*
X132808000Y-60364484D01*
X132848389Y-60161436D01*
X132927615Y-59970167D01*
X133021942Y-59828997D01*
X133042635Y-59798027D01*
X133189027Y-59651635D01*
X133361165Y-59536616D01*
X133361167Y-59536615D01*
X133552436Y-59457389D01*
X133755484Y-59417000D01*
X133962516Y-59417000D01*
X134165564Y-59457389D01*
X134165564Y-59457389D01*
G37*
G36*
X180765564Y-59457389D02*
G01*
X180956833Y-59536615D01*
X180956835Y-59536616D01*
X181128973Y-59651635D01*
X181275365Y-59798027D01*
X181296059Y-59828997D01*
X181390385Y-59970167D01*
X181469611Y-60161436D01*
X181510000Y-60364484D01*
X181510000Y-60571516D01*
X181469611Y-60774564D01*
X181390385Y-60965833D01*
X181390384Y-60965835D01*
X181275365Y-61137973D01*
X181128973Y-61284365D01*
X180956835Y-61399384D01*
X180956834Y-61399385D01*
X180956833Y-61399385D01*
X180765564Y-61478611D01*
X180562516Y-61519000D01*
X180355484Y-61519000D01*
X180152436Y-61478611D01*
X179961167Y-61399385D01*
X179961166Y-61399385D01*
X179961165Y-61399384D01*
X179789027Y-61284365D01*
X179642635Y-61137973D01*
X179527616Y-60965835D01*
X179527615Y-60965833D01*
X179448389Y-60774564D01*
X179408000Y-60571516D01*
X179408000Y-60364484D01*
X179448389Y-60161436D01*
X179527615Y-59970167D01*
X179621942Y-59828997D01*
X179642635Y-59798027D01*
X179789027Y-59651635D01*
X179961165Y-59536616D01*
X179961167Y-59536615D01*
X180152436Y-59457389D01*
X180355484Y-59417000D01*
X180562516Y-59417000D01*
X180765564Y-59457389D01*
X180765564Y-59457389D01*
G37*
G36*
X176447564Y-59457389D02*
G01*
X176638833Y-59536615D01*
X176638835Y-59536616D01*
X176810973Y-59651635D01*
X176957365Y-59798027D01*
X176978059Y-59828997D01*
X177072385Y-59970167D01*
X177151611Y-60161436D01*
X177192000Y-60364484D01*
X177192000Y-60571516D01*
X177151611Y-60774564D01*
X177072385Y-60965833D01*
X177072384Y-60965835D01*
X176957365Y-61137973D01*
X176810973Y-61284365D01*
X176638835Y-61399384D01*
X176638834Y-61399385D01*
X176638833Y-61399385D01*
X176447564Y-61478611D01*
X176244516Y-61519000D01*
X176037484Y-61519000D01*
X175834436Y-61478611D01*
X175643167Y-61399385D01*
X175643166Y-61399385D01*
X175643165Y-61399384D01*
X175471027Y-61284365D01*
X175324635Y-61137973D01*
X175209616Y-60965835D01*
X175209615Y-60965833D01*
X175130389Y-60774564D01*
X175090000Y-60571516D01*
X175090000Y-60364484D01*
X175130389Y-60161436D01*
X175209615Y-59970167D01*
X175303942Y-59828997D01*
X175324635Y-59798027D01*
X175471027Y-59651635D01*
X175643165Y-59536616D01*
X175643167Y-59536615D01*
X175834436Y-59457389D01*
X176037484Y-59417000D01*
X176244516Y-59417000D01*
X176447564Y-59457389D01*
X176447564Y-59457389D01*
G37*
G36*
X129847564Y-59457389D02*
G01*
X130038833Y-59536615D01*
X130038835Y-59536616D01*
X130210973Y-59651635D01*
X130357365Y-59798027D01*
X130378059Y-59828997D01*
X130472385Y-59970167D01*
X130551611Y-60161436D01*
X130592000Y-60364484D01*
X130592000Y-60571516D01*
X130551611Y-60774564D01*
X130472385Y-60965833D01*
X130472384Y-60965835D01*
X130357365Y-61137973D01*
X130210973Y-61284365D01*
X130038835Y-61399384D01*
X130038834Y-61399385D01*
X130038833Y-61399385D01*
X129847564Y-61478611D01*
X129644516Y-61519000D01*
X129437484Y-61519000D01*
X129234436Y-61478611D01*
X129043167Y-61399385D01*
X129043166Y-61399385D01*
X129043165Y-61399384D01*
X128871027Y-61284365D01*
X128724635Y-61137973D01*
X128609616Y-60965835D01*
X128609615Y-60965833D01*
X128530389Y-60774564D01*
X128490000Y-60571516D01*
X128490000Y-60364484D01*
X128530389Y-60161436D01*
X128609615Y-59970167D01*
X128703942Y-59828997D01*
X128724635Y-59798027D01*
X128871027Y-59651635D01*
X129043165Y-59536616D01*
X129043167Y-59536615D01*
X129234436Y-59457389D01*
X129437484Y-59417000D01*
X129644516Y-59417000D01*
X129847564Y-59457389D01*
X129847564Y-59457389D01*
G37*
G36*
X180765564Y-55393389D02*
G01*
X180956833Y-55472615D01*
X180956835Y-55472616D01*
X181076264Y-55552416D01*
X181128973Y-55587635D01*
X181275365Y-55734027D01*
X181390385Y-55906167D01*
X181469611Y-56097436D01*
X181510000Y-56300484D01*
X181510000Y-56507516D01*
X181469611Y-56710564D01*
X181390385Y-56901833D01*
X181390384Y-56901835D01*
X181275365Y-57073973D01*
X181128973Y-57220365D01*
X180956835Y-57335384D01*
X180956834Y-57335385D01*
X180956833Y-57335385D01*
X180765564Y-57414611D01*
X180562516Y-57455000D01*
X180355484Y-57455000D01*
X180152436Y-57414611D01*
X179961167Y-57335385D01*
X179961166Y-57335385D01*
X179961165Y-57335384D01*
X179789027Y-57220365D01*
X179642635Y-57073973D01*
X179527616Y-56901835D01*
X179527615Y-56901833D01*
X179448389Y-56710564D01*
X179408000Y-56507516D01*
X179408000Y-56300484D01*
X179448389Y-56097436D01*
X179527615Y-55906167D01*
X179642635Y-55734027D01*
X179789027Y-55587635D01*
X179841736Y-55552416D01*
X179961165Y-55472616D01*
X179961167Y-55472615D01*
X180152436Y-55393389D01*
X180355484Y-55353000D01*
X180562516Y-55353000D01*
X180765564Y-55393389D01*
X180765564Y-55393389D01*
G37*
G36*
X134165564Y-55393389D02*
G01*
X134356833Y-55472615D01*
X134356835Y-55472616D01*
X134476264Y-55552416D01*
X134528973Y-55587635D01*
X134675365Y-55734027D01*
X134790385Y-55906167D01*
X134869611Y-56097436D01*
X134910000Y-56300484D01*
X134910000Y-56507516D01*
X134869611Y-56710564D01*
X134790385Y-56901833D01*
X134790384Y-56901835D01*
X134675365Y-57073973D01*
X134528973Y-57220365D01*
X134356835Y-57335384D01*
X134356834Y-57335385D01*
X134356833Y-57335385D01*
X134165564Y-57414611D01*
X133962516Y-57455000D01*
X133755484Y-57455000D01*
X133552436Y-57414611D01*
X133361167Y-57335385D01*
X133361166Y-57335385D01*
X133361165Y-57335384D01*
X133189027Y-57220365D01*
X133042635Y-57073973D01*
X132927616Y-56901835D01*
X132927615Y-56901833D01*
X132848389Y-56710564D01*
X132808000Y-56507516D01*
X132808000Y-56300484D01*
X132848389Y-56097436D01*
X132927615Y-55906167D01*
X133042635Y-55734027D01*
X133189027Y-55587635D01*
X133241736Y-55552416D01*
X133361165Y-55472616D01*
X133361167Y-55472615D01*
X133552436Y-55393389D01*
X133755484Y-55353000D01*
X133962516Y-55353000D01*
X134165564Y-55393389D01*
X134165564Y-55393389D01*
G37*
G36*
X166541806Y-52661298D02*
G01*
X166648129Y-52682447D01*
X166948592Y-52806903D01*
X167219001Y-52987585D01*
X167448965Y-53217549D01*
X167629647Y-53487958D01*
X167754103Y-53788421D01*
X167817550Y-54107391D01*
X167817550Y-54432609D01*
X167754103Y-54751579D01*
X167629647Y-55052042D01*
X167448965Y-55322451D01*
X167219001Y-55552415D01*
X166948592Y-55733097D01*
X166648129Y-55857553D01*
X166541806Y-55878702D01*
X166329161Y-55921000D01*
X166003939Y-55921000D01*
X165791294Y-55878702D01*
X165684971Y-55857553D01*
X165384508Y-55733097D01*
X165114099Y-55552415D01*
X164884135Y-55322451D01*
X164703453Y-55052042D01*
X164578997Y-54751579D01*
X164515550Y-54432609D01*
X164515550Y-54107391D01*
X164578997Y-53788421D01*
X164703453Y-53487958D01*
X164884135Y-53217549D01*
X165114099Y-52987585D01*
X165384508Y-52806903D01*
X165684971Y-52682447D01*
X165791294Y-52661298D01*
X166003939Y-52619000D01*
X166329161Y-52619000D01*
X166541806Y-52661298D01*
X166541806Y-52661298D01*
G37*
G36*
X144208706Y-52661298D02*
G01*
X144315029Y-52682447D01*
X144615492Y-52806903D01*
X144885901Y-52987585D01*
X145115865Y-53217549D01*
X145296547Y-53487958D01*
X145421003Y-53788421D01*
X145484450Y-54107391D01*
X145484450Y-54432609D01*
X145421003Y-54751579D01*
X145296547Y-55052042D01*
X145115865Y-55322451D01*
X144885901Y-55552415D01*
X144615492Y-55733097D01*
X144315029Y-55857553D01*
X144208706Y-55878702D01*
X143996061Y-55921000D01*
X143670839Y-55921000D01*
X143458194Y-55878702D01*
X143351871Y-55857553D01*
X143051408Y-55733097D01*
X142780999Y-55552415D01*
X142551035Y-55322451D01*
X142370353Y-55052042D01*
X142245897Y-54751579D01*
X142182450Y-54432609D01*
X142182450Y-54107391D01*
X142245897Y-53788421D01*
X142370353Y-53487958D01*
X142551035Y-53217549D01*
X142780999Y-52987585D01*
X143051408Y-52806903D01*
X143351871Y-52682447D01*
X143458194Y-52661298D01*
X143670839Y-52619000D01*
X143996061Y-52619000D01*
X144208706Y-52661298D01*
X144208706Y-52661298D01*
G37*
G36*
X147945285Y-53618234D02*
G01*
X148041981Y-53637468D01*
X148224151Y-53712926D01*
X148388100Y-53822473D01*
X148527527Y-53961900D01*
X148637074Y-54125849D01*
X148712532Y-54308019D01*
X148751000Y-54501410D01*
X148751000Y-54698590D01*
X148712532Y-54891981D01*
X148637074Y-55074151D01*
X148527527Y-55238100D01*
X148388100Y-55377527D01*
X148224151Y-55487074D01*
X148041981Y-55562532D01*
X147848591Y-55601000D01*
X147651409Y-55601000D01*
X147458019Y-55562532D01*
X147275849Y-55487074D01*
X147111900Y-55377527D01*
X146972473Y-55238100D01*
X146862926Y-55074151D01*
X146787468Y-54891981D01*
X146749000Y-54698590D01*
X146749000Y-54501410D01*
X146787468Y-54308019D01*
X146862926Y-54125849D01*
X146972473Y-53961900D01*
X147111900Y-53822473D01*
X147275849Y-53712926D01*
X147458019Y-53637468D01*
X147554715Y-53618234D01*
X147651409Y-53599000D01*
X147848591Y-53599000D01*
X147945285Y-53618234D01*
X147945285Y-53618234D01*
G37*
G36*
X162445285Y-53618234D02*
G01*
X162541981Y-53637468D01*
X162724151Y-53712926D01*
X162888100Y-53822473D01*
X163027527Y-53961900D01*
X163137074Y-54125849D01*
X163212532Y-54308019D01*
X163251000Y-54501410D01*
X163251000Y-54698590D01*
X163212532Y-54891981D01*
X163137074Y-55074151D01*
X163027527Y-55238100D01*
X162888100Y-55377527D01*
X162724151Y-55487074D01*
X162541981Y-55562532D01*
X162348591Y-55601000D01*
X162151409Y-55601000D01*
X161958019Y-55562532D01*
X161775849Y-55487074D01*
X161611900Y-55377527D01*
X161472473Y-55238100D01*
X161362926Y-55074151D01*
X161287468Y-54891981D01*
X161249000Y-54698590D01*
X161249000Y-54501410D01*
X161287468Y-54308019D01*
X161362926Y-54125849D01*
X161472473Y-53961900D01*
X161611900Y-53822473D01*
X161775849Y-53712926D01*
X161958019Y-53637468D01*
X162054715Y-53618234D01*
X162151409Y-53599000D01*
X162348591Y-53599000D01*
X162445285Y-53618234D01*
X162445285Y-53618234D01*
G37*
G36*
X155195285Y-50318234D02*
G01*
X155291981Y-50337468D01*
X155474151Y-50412926D01*
X155638100Y-50522473D01*
X155777527Y-50661900D01*
X155887074Y-50825849D01*
X155962532Y-51008019D01*
X156001000Y-51201410D01*
X156001000Y-51398590D01*
X155962532Y-51591981D01*
X155887074Y-51774151D01*
X155777527Y-51938100D01*
X155638100Y-52077527D01*
X155474151Y-52187074D01*
X155291981Y-52262532D01*
X155195285Y-52281766D01*
X155098591Y-52301000D01*
X154901409Y-52301000D01*
X154804715Y-52281766D01*
X154708019Y-52262532D01*
X154525849Y-52187074D01*
X154361900Y-52077527D01*
X154222473Y-51938100D01*
X154112926Y-51774151D01*
X154037468Y-51591981D01*
X153999000Y-51398590D01*
X153999000Y-51201410D01*
X154037468Y-51008019D01*
X154112926Y-50825849D01*
X154222473Y-50661900D01*
X154361900Y-50522473D01*
X154525849Y-50412926D01*
X154708019Y-50337468D01*
X154901409Y-50299000D01*
X155098591Y-50299000D01*
X155195285Y-50318234D01*
X155195285Y-50318234D01*
G37*
M02*
