G04 #@! TF.GenerationSoftware,KiCad,Pcbnew,(5.1.0)-1*
G04 #@! TF.CreationDate,2019-08-21T11:10:32-04:00*
G04 #@! TF.ProjectId,Famicom Expansion to NES Controller,46616d69-636f-46d2-9045-7870616e7369,rev?*
G04 #@! TF.SameCoordinates,Original*
G04 #@! TF.FileFunction,Copper,L2,Bot*
G04 #@! TF.FilePolarity,Positive*
%FSLAX46Y46*%
G04 Gerber Fmt 4.6, Leading zero omitted, Abs format (unit mm)*
G04 Created by KiCad (PCBNEW (5.1.0)-1) date 2019-08-21 11:10:32*
%MOMM*%
%LPD*%
G04 APERTURE LIST*
%ADD10C,1.900000*%
%ADD11R,0.300000X1.800000*%
%ADD12R,2.500000X2.500000*%
%ADD13C,2.500000*%
%ADD14C,2.000000*%
%ADD15C,0.800000*%
%ADD16C,0.250000*%
%ADD17C,0.254000*%
G04 APERTURE END LIST*
D10*
X162250000Y-70400000D03*
X147750000Y-70400000D03*
X155000000Y-73700000D03*
D11*
X159790000Y-68100000D03*
X159290000Y-68100000D03*
X158790000Y-68100000D03*
X158290000Y-68100000D03*
X157790000Y-68100000D03*
X157290000Y-68100000D03*
X156790000Y-68100000D03*
X156290000Y-68100000D03*
X155790000Y-68100000D03*
X155290000Y-68100000D03*
X154790000Y-68100000D03*
X154290000Y-68100000D03*
X153790000Y-68100000D03*
X153290000Y-68100000D03*
X152790000Y-68100000D03*
X152290000Y-68100000D03*
X151790000Y-68100000D03*
X151290000Y-68100000D03*
X150790000Y-68100000D03*
X159210000Y-56900000D03*
X158710000Y-56900000D03*
X158210000Y-56900000D03*
X157710000Y-56900000D03*
X157210000Y-56900000D03*
X156710000Y-56900000D03*
X156210000Y-56900000D03*
X155710000Y-56900000D03*
X155210000Y-56900000D03*
X154710000Y-56900000D03*
X154210000Y-56900000D03*
X153710000Y-56900000D03*
X153210000Y-56900000D03*
X152710000Y-56900000D03*
X152210000Y-56900000D03*
X151710000Y-56900000D03*
X151210000Y-56900000D03*
X150710000Y-56900000D03*
X150210000Y-56900000D03*
D10*
X155000000Y-51300000D03*
X162250000Y-54600000D03*
X147750000Y-54600000D03*
D12*
X164695000Y-61080000D03*
D13*
X161925000Y-61080000D03*
X159155000Y-61080000D03*
X156385000Y-61080000D03*
X153615000Y-61080000D03*
X150845000Y-61080000D03*
X148075000Y-61080000D03*
X145305000Y-61080000D03*
X163310000Y-63920000D03*
X160540000Y-63920000D03*
X157770000Y-63920000D03*
X155000000Y-63920000D03*
X152230000Y-63920000D03*
X149460000Y-63920000D03*
X146690000Y-63920000D03*
D14*
X176141000Y-60468000D03*
X176141000Y-64532000D03*
X176141000Y-68596000D03*
X180459000Y-68596000D03*
X180459000Y-64532000D03*
X180459000Y-60468000D03*
X180459000Y-56404000D03*
X129541000Y-60468000D03*
X129541000Y-64532000D03*
X129541000Y-68596000D03*
X133859000Y-68596000D03*
X133859000Y-64532000D03*
X133859000Y-60468000D03*
X133859000Y-56404000D03*
D15*
X128200000Y-62500000D03*
X157400000Y-70600000D03*
X138800000Y-64800000D03*
X141900000Y-64400000D03*
X154900000Y-54800000D03*
X138800000Y-68000000D03*
X136700000Y-64100000D03*
X139500000Y-61100000D03*
X136000000Y-60500000D03*
X178700000Y-72400000D03*
X155600000Y-58600000D03*
X144100000Y-64100000D03*
X152100000Y-54300000D03*
D16*
X150760000Y-73700000D02*
X147460000Y-70400000D01*
X154710000Y-73700000D02*
X150760000Y-73700000D01*
X157400000Y-70100000D02*
X157400000Y-70600000D01*
X157800000Y-69700000D02*
X157400000Y-70100000D01*
X157790000Y-69690000D02*
X157800000Y-69700000D01*
X157790000Y-68100000D02*
X157790000Y-69690000D01*
X154334315Y-54800000D02*
X154900000Y-54800000D01*
X153551410Y-54800000D02*
X154334315Y-54800000D01*
X152500000Y-55300000D02*
X153051410Y-55300000D01*
X153051410Y-55300000D02*
X153551410Y-54800000D01*
X152210000Y-55590000D02*
X152500000Y-55300000D01*
X152210000Y-56900000D02*
X152210000Y-55590000D01*
X156633502Y-51300000D02*
X155290000Y-51300000D01*
X160583502Y-51300000D02*
X156633502Y-51300000D01*
X162250000Y-52966498D02*
X160583502Y-51300000D01*
X162540000Y-54600000D02*
X162250000Y-54310000D01*
X162250000Y-54310000D02*
X162250000Y-52966498D01*
X156700000Y-58065685D02*
X156165685Y-58600000D01*
X156700000Y-56900000D02*
X156700000Y-58065685D01*
X156165685Y-58600000D02*
X155600000Y-58600000D01*
X154864999Y-59830001D02*
X153615000Y-61080000D01*
X155190001Y-59504999D02*
X154864999Y-59830001D01*
X156195001Y-59504999D02*
X155190001Y-59504999D01*
X157210000Y-56900000D02*
X157210000Y-58490000D01*
X157210000Y-58490000D02*
X156195001Y-59504999D01*
X139300000Y-63155000D02*
X134858999Y-67596001D01*
X143729999Y-60368023D02*
X142886978Y-60368023D01*
X158075023Y-53475023D02*
X151297797Y-53475023D01*
X149925023Y-54847797D02*
X149925023Y-55584801D01*
X144593023Y-59504999D02*
X143729999Y-60368023D01*
X151297797Y-53475023D02*
X149925023Y-54847797D01*
X148075000Y-59312234D02*
X148075000Y-61080000D01*
X142886978Y-60368023D02*
X140100000Y-63155000D01*
X158200000Y-53600000D02*
X158075023Y-53475023D01*
X134858999Y-67596001D02*
X133859000Y-68596000D01*
X149925023Y-55584801D02*
X148075000Y-57434824D01*
X148075000Y-61080000D02*
X146499999Y-59504999D01*
X148075000Y-57434824D02*
X148075000Y-59312234D01*
X158200000Y-57000000D02*
X158200000Y-53600000D01*
X140100000Y-63155000D02*
X139300000Y-63155000D01*
X146499999Y-59504999D02*
X144593023Y-59504999D01*
X132033999Y-69333999D02*
X132033999Y-62293001D01*
X132621001Y-69921001D02*
X132033999Y-69333999D01*
X134495001Y-69921001D02*
X132621001Y-69921001D01*
X135016002Y-69400000D02*
X134495001Y-69921001D01*
X161230000Y-66000000D02*
X142336410Y-66000000D01*
X163310000Y-63920000D02*
X161230000Y-66000000D01*
X132359001Y-61967999D02*
X133859000Y-60468000D01*
X142336410Y-66000000D02*
X139290400Y-69046010D01*
X132033999Y-62293001D02*
X132359001Y-61967999D01*
X139290400Y-69046010D02*
X135953990Y-69046010D01*
X135953990Y-69046010D02*
X135600000Y-69400000D01*
X135600000Y-69400000D02*
X135016002Y-69400000D01*
X143357201Y-59468001D02*
X134858999Y-59468001D01*
X144220221Y-58604981D02*
X143357201Y-59468001D01*
X145695021Y-58604980D02*
X144220221Y-58604981D01*
X147174980Y-57062023D02*
X147174980Y-57125022D01*
X149025002Y-55212002D02*
X147174980Y-57062023D01*
X149025002Y-54474997D02*
X149025002Y-55212002D01*
X154387996Y-52575004D02*
X150924995Y-52575005D01*
X150924995Y-52575005D02*
X149025002Y-54474997D01*
X159210000Y-56900000D02*
X159210000Y-53510000D01*
X147174980Y-57125022D02*
X145695021Y-58604980D01*
X159200000Y-53500000D02*
X159200000Y-53327178D01*
X134858999Y-59468001D02*
X133859000Y-60468000D01*
X159200000Y-53327178D02*
X158447823Y-52575001D01*
X159210000Y-53510000D02*
X159200000Y-53500000D01*
X158447823Y-52575001D02*
X154387999Y-52575001D01*
X154387999Y-52575001D02*
X154387996Y-52575004D01*
X153750001Y-65169999D02*
X155000000Y-63920000D01*
X153424999Y-65495001D02*
X153750001Y-65169999D01*
X145495001Y-65495001D02*
X153424999Y-65495001D01*
X144100000Y-64100000D02*
X145495001Y-65495001D01*
X138472988Y-59918012D02*
X134858999Y-63532001D01*
X149475013Y-55398401D02*
X147624991Y-57248423D01*
X147624991Y-57248423D02*
X147624991Y-57311421D01*
X158261423Y-53025012D02*
X151111396Y-53025014D01*
X144406622Y-59054990D02*
X143543600Y-59918012D01*
X147624991Y-57311421D02*
X145881422Y-59054989D01*
X143543600Y-59918012D02*
X138472988Y-59918012D01*
X151111396Y-53025014D02*
X149475013Y-54661397D01*
X158710000Y-53473589D02*
X158261423Y-53025012D01*
X158710000Y-56900000D02*
X158710000Y-53473589D01*
X134858999Y-63532001D02*
X133859000Y-64532000D01*
X145881422Y-59054989D02*
X144406622Y-59054990D01*
X149475013Y-54661397D02*
X149475013Y-55398401D01*
X181784001Y-65857001D02*
X181458999Y-65531999D01*
X151300000Y-71400000D02*
X151874988Y-71974988D01*
X181458999Y-65531999D02*
X180459000Y-64532000D01*
X181784001Y-71279589D02*
X181784001Y-65857001D01*
X151300000Y-68100000D02*
X151300000Y-71400000D01*
X151874988Y-71974988D02*
X155798401Y-71974988D01*
X155798401Y-71974988D02*
X157823413Y-74000000D01*
X157823413Y-74000000D02*
X179063590Y-74000000D01*
X179063590Y-74000000D02*
X181784001Y-71279589D01*
X151800000Y-71200000D02*
X151800000Y-68200000D01*
X152124977Y-71524977D02*
X151800000Y-71200000D01*
X155984801Y-71524977D02*
X152124977Y-71524977D01*
X157959824Y-73500000D02*
X155984801Y-71524977D01*
X180459000Y-68596000D02*
X175555000Y-73500000D01*
X175555000Y-73500000D02*
X157959824Y-73500000D01*
X181458999Y-61467999D02*
X180459000Y-60468000D01*
X184300000Y-64309000D02*
X181458999Y-61467999D01*
X184300000Y-69400000D02*
X184300000Y-64309000D01*
X150800000Y-71536411D02*
X151688588Y-72424999D01*
X150800000Y-68100000D02*
X150800000Y-71536411D01*
X151688588Y-72424999D02*
X155612001Y-72424999D01*
X155612001Y-72424999D02*
X157687002Y-74500000D01*
X157687002Y-74500000D02*
X179200000Y-74500000D01*
X179200000Y-74500000D02*
X184300000Y-69400000D01*
X152100000Y-54900000D02*
X151700000Y-55300000D01*
X152100000Y-54300000D02*
X152100000Y-54900000D01*
X151710000Y-55310000D02*
X151700000Y-55300000D01*
X151710000Y-56900000D02*
X151710000Y-55310000D01*
X174815999Y-61793001D02*
X176141000Y-60468000D01*
X174815999Y-72384001D02*
X174815999Y-61793001D01*
X174200000Y-73000000D02*
X174815999Y-72384001D01*
X159300000Y-73000000D02*
X174200000Y-73000000D01*
X158300000Y-68100000D02*
X158300000Y-72000000D01*
X158300000Y-72000000D02*
X159300000Y-73000000D01*
D17*
G36*
X184349545Y-50748909D02*
G01*
X184700208Y-50854780D01*
X185023625Y-51026744D01*
X185307484Y-51258254D01*
X185540965Y-51540486D01*
X185715183Y-51862695D01*
X185823502Y-52212614D01*
X185865000Y-52607443D01*
X185865001Y-72377711D01*
X185826091Y-72774545D01*
X185720220Y-73125206D01*
X185548257Y-73448623D01*
X185316748Y-73732482D01*
X185034514Y-73965965D01*
X184712304Y-74140184D01*
X184362385Y-74248502D01*
X183967557Y-74290000D01*
X180484801Y-74290000D01*
X184811004Y-69963798D01*
X184840001Y-69940001D01*
X184934974Y-69824276D01*
X185005546Y-69692247D01*
X185049003Y-69548986D01*
X185060000Y-69437333D01*
X185060000Y-69437324D01*
X185063676Y-69400001D01*
X185060000Y-69362678D01*
X185060000Y-64346322D01*
X185063676Y-64308999D01*
X185060000Y-64271676D01*
X185060000Y-64271667D01*
X185049003Y-64160014D01*
X185005546Y-64016753D01*
X184973221Y-63956278D01*
X184934974Y-63884723D01*
X184863799Y-63797997D01*
X184840001Y-63768999D01*
X184811003Y-63745201D01*
X182025177Y-60959376D01*
X182031168Y-60944912D01*
X182094000Y-60629033D01*
X182094000Y-60306967D01*
X182031168Y-59991088D01*
X181907918Y-59693537D01*
X181728987Y-59425748D01*
X181501252Y-59198013D01*
X181233463Y-59019082D01*
X180935912Y-58895832D01*
X180620033Y-58833000D01*
X180297967Y-58833000D01*
X179982088Y-58895832D01*
X179684537Y-59019082D01*
X179416748Y-59198013D01*
X179189013Y-59425748D01*
X179010082Y-59693537D01*
X178886832Y-59991088D01*
X178824000Y-60306967D01*
X178824000Y-60629033D01*
X178886832Y-60944912D01*
X179010082Y-61242463D01*
X179189013Y-61510252D01*
X179416748Y-61737987D01*
X179684537Y-61916918D01*
X179982088Y-62040168D01*
X180297967Y-62103000D01*
X180620033Y-62103000D01*
X180935912Y-62040168D01*
X180950376Y-62034177D01*
X183540001Y-64623803D01*
X183540000Y-69085198D01*
X182544001Y-70081197D01*
X182544001Y-65894323D01*
X182547677Y-65857000D01*
X182544001Y-65819677D01*
X182544001Y-65819668D01*
X182533004Y-65708015D01*
X182489547Y-65564754D01*
X182418975Y-65432725D01*
X182324002Y-65317000D01*
X182294998Y-65293197D01*
X182025177Y-65023376D01*
X182031168Y-65008912D01*
X182094000Y-64693033D01*
X182094000Y-64370967D01*
X182031168Y-64055088D01*
X181907918Y-63757537D01*
X181728987Y-63489748D01*
X181501252Y-63262013D01*
X181233463Y-63083082D01*
X180935912Y-62959832D01*
X180620033Y-62897000D01*
X180297967Y-62897000D01*
X179982088Y-62959832D01*
X179684537Y-63083082D01*
X179416748Y-63262013D01*
X179189013Y-63489748D01*
X179010082Y-63757537D01*
X178886832Y-64055088D01*
X178824000Y-64370967D01*
X178824000Y-64693033D01*
X178886832Y-65008912D01*
X179010082Y-65306463D01*
X179189013Y-65574252D01*
X179416748Y-65801987D01*
X179684537Y-65980918D01*
X179982088Y-66104168D01*
X180297967Y-66167000D01*
X180620033Y-66167000D01*
X180935912Y-66104168D01*
X180950376Y-66098177D01*
X181024002Y-66171803D01*
X181024002Y-67060320D01*
X180935912Y-67023832D01*
X180620033Y-66961000D01*
X180297967Y-66961000D01*
X179982088Y-67023832D01*
X179684537Y-67147082D01*
X179416748Y-67326013D01*
X179189013Y-67553748D01*
X179010082Y-67821537D01*
X178886832Y-68119088D01*
X178824000Y-68434967D01*
X178824000Y-68757033D01*
X178886832Y-69072912D01*
X178892823Y-69087375D01*
X175577870Y-72402329D01*
X175579675Y-72384002D01*
X175575999Y-72346679D01*
X175575999Y-70131680D01*
X175664088Y-70168168D01*
X175979967Y-70231000D01*
X176302033Y-70231000D01*
X176617912Y-70168168D01*
X176915463Y-70044918D01*
X177183252Y-69865987D01*
X177410987Y-69638252D01*
X177589918Y-69370463D01*
X177713168Y-69072912D01*
X177776000Y-68757033D01*
X177776000Y-68434967D01*
X177713168Y-68119088D01*
X177589918Y-67821537D01*
X177410987Y-67553748D01*
X177183252Y-67326013D01*
X176915463Y-67147082D01*
X176617912Y-67023832D01*
X176302033Y-66961000D01*
X175979967Y-66961000D01*
X175664088Y-67023832D01*
X175575999Y-67060320D01*
X175575999Y-66067680D01*
X175664088Y-66104168D01*
X175979967Y-66167000D01*
X176302033Y-66167000D01*
X176617912Y-66104168D01*
X176915463Y-65980918D01*
X177183252Y-65801987D01*
X177410987Y-65574252D01*
X177589918Y-65306463D01*
X177713168Y-65008912D01*
X177776000Y-64693033D01*
X177776000Y-64370967D01*
X177713168Y-64055088D01*
X177589918Y-63757537D01*
X177410987Y-63489748D01*
X177183252Y-63262013D01*
X176915463Y-63083082D01*
X176617912Y-62959832D01*
X176302033Y-62897000D01*
X175979967Y-62897000D01*
X175664088Y-62959832D01*
X175575999Y-62996320D01*
X175575999Y-62107802D01*
X175649624Y-62034177D01*
X175664088Y-62040168D01*
X175979967Y-62103000D01*
X176302033Y-62103000D01*
X176617912Y-62040168D01*
X176915463Y-61916918D01*
X177183252Y-61737987D01*
X177410987Y-61510252D01*
X177589918Y-61242463D01*
X177713168Y-60944912D01*
X177776000Y-60629033D01*
X177776000Y-60306967D01*
X177713168Y-59991088D01*
X177589918Y-59693537D01*
X177410987Y-59425748D01*
X177183252Y-59198013D01*
X176915463Y-59019082D01*
X176617912Y-58895832D01*
X176302033Y-58833000D01*
X175979967Y-58833000D01*
X175664088Y-58895832D01*
X175366537Y-59019082D01*
X175098748Y-59198013D01*
X174871013Y-59425748D01*
X174692082Y-59693537D01*
X174568832Y-59991088D01*
X174506000Y-60306967D01*
X174506000Y-60629033D01*
X174568832Y-60944912D01*
X174574823Y-60959376D01*
X174304997Y-61229202D01*
X174275999Y-61253000D01*
X174252201Y-61281998D01*
X174252200Y-61281999D01*
X174181025Y-61368725D01*
X174110453Y-61500755D01*
X174097419Y-61543724D01*
X174066997Y-61644015D01*
X174056263Y-61753000D01*
X174052323Y-61793001D01*
X174056000Y-61830333D01*
X174055999Y-72069199D01*
X173885199Y-72240000D01*
X167817317Y-72240000D01*
X167902588Y-72154729D01*
X168147181Y-71788669D01*
X168315660Y-71381925D01*
X168401550Y-70950128D01*
X168401550Y-70509872D01*
X168315660Y-70078075D01*
X168147181Y-69671331D01*
X167902588Y-69305271D01*
X167591279Y-68993962D01*
X167225219Y-68749369D01*
X166818475Y-68580890D01*
X166386678Y-68495000D01*
X165946422Y-68495000D01*
X165514625Y-68580890D01*
X165107881Y-68749369D01*
X164741821Y-68993962D01*
X164430512Y-69305271D01*
X164185919Y-69671331D01*
X164017440Y-70078075D01*
X163931550Y-70509872D01*
X163931550Y-70950128D01*
X164017440Y-71381925D01*
X164185919Y-71788669D01*
X164430512Y-72154729D01*
X164515783Y-72240000D01*
X159614802Y-72240000D01*
X159060000Y-71685199D01*
X159060000Y-71499752D01*
X161329853Y-71499752D01*
X161419579Y-71759042D01*
X161700671Y-71894935D01*
X162002873Y-71973379D01*
X162314573Y-71991359D01*
X162623791Y-71948184D01*
X162918644Y-71845513D01*
X163080421Y-71759042D01*
X163170147Y-71499752D01*
X162250000Y-70579605D01*
X161329853Y-71499752D01*
X159060000Y-71499752D01*
X159060000Y-70464573D01*
X160658641Y-70464573D01*
X160701816Y-70773791D01*
X160804487Y-71068644D01*
X160890958Y-71230421D01*
X161150248Y-71320147D01*
X162070395Y-70400000D01*
X162429605Y-70400000D01*
X163349752Y-71320147D01*
X163609042Y-71230421D01*
X163744935Y-70949329D01*
X163823379Y-70647127D01*
X163841359Y-70335427D01*
X163798184Y-70026209D01*
X163695513Y-69731356D01*
X163609042Y-69569579D01*
X163349752Y-69479853D01*
X162429605Y-70400000D01*
X162070395Y-70400000D01*
X161150248Y-69479853D01*
X160890958Y-69569579D01*
X160755065Y-69850671D01*
X160676621Y-70152873D01*
X160658641Y-70464573D01*
X159060000Y-70464573D01*
X159060000Y-69630193D01*
X159140000Y-69638072D01*
X159440000Y-69638072D01*
X159540000Y-69628223D01*
X159640000Y-69638072D01*
X159940000Y-69638072D01*
X160064482Y-69625812D01*
X160184180Y-69589502D01*
X160294494Y-69530537D01*
X160391185Y-69451185D01*
X160470537Y-69354494D01*
X160499532Y-69300248D01*
X161329853Y-69300248D01*
X162250000Y-70220395D01*
X163170147Y-69300248D01*
X163080421Y-69040958D01*
X162799329Y-68905065D01*
X162497127Y-68826621D01*
X162185427Y-68808641D01*
X161876209Y-68851816D01*
X161581356Y-68954487D01*
X161419579Y-69040958D01*
X161329853Y-69300248D01*
X160499532Y-69300248D01*
X160529502Y-69244180D01*
X160565812Y-69124482D01*
X160578072Y-69000000D01*
X160578072Y-67200000D01*
X160565812Y-67075518D01*
X160529502Y-66955820D01*
X160470537Y-66845506D01*
X160400364Y-66760000D01*
X161192678Y-66760000D01*
X161230000Y-66763676D01*
X161267322Y-66760000D01*
X161267333Y-66760000D01*
X161378986Y-66749003D01*
X161522247Y-66705546D01*
X161654276Y-66634974D01*
X161770001Y-66540001D01*
X161793804Y-66510997D01*
X162627283Y-65677519D01*
X162760166Y-65732561D01*
X163124344Y-65805000D01*
X163495656Y-65805000D01*
X163859834Y-65732561D01*
X164202882Y-65590466D01*
X164511618Y-65384175D01*
X164774175Y-65121618D01*
X164980466Y-64812882D01*
X165122561Y-64469834D01*
X165195000Y-64105656D01*
X165195000Y-63734344D01*
X165122561Y-63370166D01*
X164980466Y-63027118D01*
X164854809Y-62839059D01*
X164980750Y-62965000D01*
X165945000Y-62968072D01*
X166069482Y-62955812D01*
X166189180Y-62919502D01*
X166299494Y-62860537D01*
X166396185Y-62781185D01*
X166475537Y-62684494D01*
X166534502Y-62574180D01*
X166570812Y-62454482D01*
X166583072Y-62330000D01*
X166580000Y-61365750D01*
X166421250Y-61207000D01*
X164822000Y-61207000D01*
X164822000Y-61227000D01*
X164568000Y-61227000D01*
X164568000Y-61207000D01*
X164548000Y-61207000D01*
X164548000Y-60953000D01*
X164568000Y-60953000D01*
X164568000Y-59353750D01*
X164822000Y-59353750D01*
X164822000Y-60953000D01*
X166421250Y-60953000D01*
X166580000Y-60794250D01*
X166583072Y-59830000D01*
X166570812Y-59705518D01*
X166534502Y-59585820D01*
X166475537Y-59475506D01*
X166396185Y-59378815D01*
X166299494Y-59299463D01*
X166189180Y-59240498D01*
X166069482Y-59204188D01*
X165945000Y-59191928D01*
X164980750Y-59195000D01*
X164822000Y-59353750D01*
X164568000Y-59353750D01*
X164409250Y-59195000D01*
X163445000Y-59191928D01*
X163320518Y-59204188D01*
X163200820Y-59240498D01*
X163090506Y-59299463D01*
X162993815Y-59378815D01*
X162915225Y-59474577D01*
X162817882Y-59409534D01*
X162474834Y-59267439D01*
X162110656Y-59195000D01*
X161739344Y-59195000D01*
X161375166Y-59267439D01*
X161032118Y-59409534D01*
X160723382Y-59615825D01*
X160540000Y-59799207D01*
X160356618Y-59615825D01*
X160047882Y-59409534D01*
X159704834Y-59267439D01*
X159340656Y-59195000D01*
X158969344Y-59195000D01*
X158605166Y-59267439D01*
X158262118Y-59409534D01*
X157953382Y-59615825D01*
X157770000Y-59799207D01*
X157586618Y-59615825D01*
X157330266Y-59444536D01*
X157721003Y-59053799D01*
X157750001Y-59030001D01*
X157844974Y-58914276D01*
X157915546Y-58782247D01*
X157959003Y-58638986D01*
X157970000Y-58527333D01*
X157970000Y-58527324D01*
X157973676Y-58490001D01*
X157970000Y-58452678D01*
X157970000Y-58429208D01*
X158060000Y-58438072D01*
X158360000Y-58438072D01*
X158460000Y-58428223D01*
X158560000Y-58438072D01*
X158860000Y-58438072D01*
X158960000Y-58428223D01*
X159060000Y-58438072D01*
X159360000Y-58438072D01*
X159484482Y-58425812D01*
X159604180Y-58389502D01*
X159714494Y-58330537D01*
X159811185Y-58251185D01*
X159890537Y-58154494D01*
X159949502Y-58044180D01*
X159985812Y-57924482D01*
X159998072Y-57800000D01*
X159998072Y-57539413D01*
X179503192Y-57539413D01*
X179598956Y-57803814D01*
X179888571Y-57944704D01*
X180200108Y-58026384D01*
X180521595Y-58045718D01*
X180840675Y-58001961D01*
X181145088Y-57896795D01*
X181319044Y-57803814D01*
X181414808Y-57539413D01*
X180459000Y-56583605D01*
X179503192Y-57539413D01*
X159998072Y-57539413D01*
X159998072Y-56000000D01*
X159985812Y-55875518D01*
X159970000Y-55823393D01*
X159970000Y-55699752D01*
X161329853Y-55699752D01*
X161419579Y-55959042D01*
X161700671Y-56094935D01*
X162002873Y-56173379D01*
X162314573Y-56191359D01*
X162623791Y-56148184D01*
X162918644Y-56045513D01*
X163080421Y-55959042D01*
X163170147Y-55699752D01*
X162250000Y-54779605D01*
X161329853Y-55699752D01*
X159970000Y-55699752D01*
X159970000Y-54664573D01*
X160658641Y-54664573D01*
X160701816Y-54973791D01*
X160804487Y-55268644D01*
X160890958Y-55430421D01*
X161150248Y-55520147D01*
X162070395Y-54600000D01*
X162429605Y-54600000D01*
X163349752Y-55520147D01*
X163609042Y-55430421D01*
X163744935Y-55149329D01*
X163823379Y-54847127D01*
X163841359Y-54535427D01*
X163798184Y-54226209D01*
X163736782Y-54049872D01*
X163931550Y-54049872D01*
X163931550Y-54490128D01*
X164017440Y-54921925D01*
X164185919Y-55328669D01*
X164430512Y-55694729D01*
X164741821Y-56006038D01*
X165107881Y-56250631D01*
X165514625Y-56419110D01*
X165946422Y-56505000D01*
X166386678Y-56505000D01*
X166579752Y-56466595D01*
X178817282Y-56466595D01*
X178861039Y-56785675D01*
X178966205Y-57090088D01*
X179059186Y-57264044D01*
X179323587Y-57359808D01*
X180279395Y-56404000D01*
X180638605Y-56404000D01*
X181594413Y-57359808D01*
X181858814Y-57264044D01*
X181999704Y-56974429D01*
X182081384Y-56662892D01*
X182100718Y-56341405D01*
X182056961Y-56022325D01*
X181951795Y-55717912D01*
X181858814Y-55543956D01*
X181594413Y-55448192D01*
X180638605Y-56404000D01*
X180279395Y-56404000D01*
X179323587Y-55448192D01*
X179059186Y-55543956D01*
X178918296Y-55833571D01*
X178836616Y-56145108D01*
X178817282Y-56466595D01*
X166579752Y-56466595D01*
X166818475Y-56419110D01*
X167225219Y-56250631D01*
X167591279Y-56006038D01*
X167902588Y-55694729D01*
X168147181Y-55328669D01*
X168172067Y-55268587D01*
X179503192Y-55268587D01*
X180459000Y-56224395D01*
X181414808Y-55268587D01*
X181319044Y-55004186D01*
X181029429Y-54863296D01*
X180717892Y-54781616D01*
X180396405Y-54762282D01*
X180077325Y-54806039D01*
X179772912Y-54911205D01*
X179598956Y-55004186D01*
X179503192Y-55268587D01*
X168172067Y-55268587D01*
X168315660Y-54921925D01*
X168401550Y-54490128D01*
X168401550Y-54049872D01*
X168315660Y-53618075D01*
X168147181Y-53211331D01*
X167902588Y-52845271D01*
X167591279Y-52533962D01*
X167225219Y-52289369D01*
X166818475Y-52120890D01*
X166386678Y-52035000D01*
X165946422Y-52035000D01*
X165514625Y-52120890D01*
X165107881Y-52289369D01*
X164741821Y-52533962D01*
X164430512Y-52845271D01*
X164185919Y-53211331D01*
X164017440Y-53618075D01*
X163931550Y-54049872D01*
X163736782Y-54049872D01*
X163695513Y-53931356D01*
X163609042Y-53769579D01*
X163349752Y-53679853D01*
X162429605Y-54600000D01*
X162070395Y-54600000D01*
X161150248Y-53679853D01*
X160890958Y-53769579D01*
X160755065Y-54050671D01*
X160676621Y-54352873D01*
X160658641Y-54664573D01*
X159970000Y-54664573D01*
X159970000Y-53547322D01*
X159973676Y-53509999D01*
X159972716Y-53500248D01*
X161329853Y-53500248D01*
X162250000Y-54420395D01*
X163170147Y-53500248D01*
X163080421Y-53240958D01*
X162799329Y-53105065D01*
X162497127Y-53026621D01*
X162185427Y-53008641D01*
X161876209Y-53051816D01*
X161581356Y-53154487D01*
X161419579Y-53240958D01*
X161329853Y-53500248D01*
X159972716Y-53500248D01*
X159970000Y-53472677D01*
X159970000Y-53472667D01*
X159960000Y-53371137D01*
X159960000Y-53364501D01*
X159963676Y-53327178D01*
X159960000Y-53289855D01*
X159960000Y-53289846D01*
X159949003Y-53178193D01*
X159910668Y-53051816D01*
X159905546Y-53034931D01*
X159834974Y-52902901D01*
X159763799Y-52816175D01*
X159740001Y-52787177D01*
X159711002Y-52763379D01*
X159011625Y-52064002D01*
X158987824Y-52035000D01*
X158872099Y-51940027D01*
X158740070Y-51869455D01*
X158596809Y-51825998D01*
X158485156Y-51815001D01*
X158485145Y-51815001D01*
X158447823Y-51811325D01*
X158410501Y-51815001D01*
X156503846Y-51815001D01*
X156573379Y-51547127D01*
X156591359Y-51235427D01*
X156548184Y-50926209D01*
X156472898Y-50710000D01*
X183952721Y-50710000D01*
X184349545Y-50748909D01*
X184349545Y-50748909D01*
G37*
X184349545Y-50748909D02*
X184700208Y-50854780D01*
X185023625Y-51026744D01*
X185307484Y-51258254D01*
X185540965Y-51540486D01*
X185715183Y-51862695D01*
X185823502Y-52212614D01*
X185865000Y-52607443D01*
X185865001Y-72377711D01*
X185826091Y-72774545D01*
X185720220Y-73125206D01*
X185548257Y-73448623D01*
X185316748Y-73732482D01*
X185034514Y-73965965D01*
X184712304Y-74140184D01*
X184362385Y-74248502D01*
X183967557Y-74290000D01*
X180484801Y-74290000D01*
X184811004Y-69963798D01*
X184840001Y-69940001D01*
X184934974Y-69824276D01*
X185005546Y-69692247D01*
X185049003Y-69548986D01*
X185060000Y-69437333D01*
X185060000Y-69437324D01*
X185063676Y-69400001D01*
X185060000Y-69362678D01*
X185060000Y-64346322D01*
X185063676Y-64308999D01*
X185060000Y-64271676D01*
X185060000Y-64271667D01*
X185049003Y-64160014D01*
X185005546Y-64016753D01*
X184973221Y-63956278D01*
X184934974Y-63884723D01*
X184863799Y-63797997D01*
X184840001Y-63768999D01*
X184811003Y-63745201D01*
X182025177Y-60959376D01*
X182031168Y-60944912D01*
X182094000Y-60629033D01*
X182094000Y-60306967D01*
X182031168Y-59991088D01*
X181907918Y-59693537D01*
X181728987Y-59425748D01*
X181501252Y-59198013D01*
X181233463Y-59019082D01*
X180935912Y-58895832D01*
X180620033Y-58833000D01*
X180297967Y-58833000D01*
X179982088Y-58895832D01*
X179684537Y-59019082D01*
X179416748Y-59198013D01*
X179189013Y-59425748D01*
X179010082Y-59693537D01*
X178886832Y-59991088D01*
X178824000Y-60306967D01*
X178824000Y-60629033D01*
X178886832Y-60944912D01*
X179010082Y-61242463D01*
X179189013Y-61510252D01*
X179416748Y-61737987D01*
X179684537Y-61916918D01*
X179982088Y-62040168D01*
X180297967Y-62103000D01*
X180620033Y-62103000D01*
X180935912Y-62040168D01*
X180950376Y-62034177D01*
X183540001Y-64623803D01*
X183540000Y-69085198D01*
X182544001Y-70081197D01*
X182544001Y-65894323D01*
X182547677Y-65857000D01*
X182544001Y-65819677D01*
X182544001Y-65819668D01*
X182533004Y-65708015D01*
X182489547Y-65564754D01*
X182418975Y-65432725D01*
X182324002Y-65317000D01*
X182294998Y-65293197D01*
X182025177Y-65023376D01*
X182031168Y-65008912D01*
X182094000Y-64693033D01*
X182094000Y-64370967D01*
X182031168Y-64055088D01*
X181907918Y-63757537D01*
X181728987Y-63489748D01*
X181501252Y-63262013D01*
X181233463Y-63083082D01*
X180935912Y-62959832D01*
X180620033Y-62897000D01*
X180297967Y-62897000D01*
X179982088Y-62959832D01*
X179684537Y-63083082D01*
X179416748Y-63262013D01*
X179189013Y-63489748D01*
X179010082Y-63757537D01*
X178886832Y-64055088D01*
X178824000Y-64370967D01*
X178824000Y-64693033D01*
X178886832Y-65008912D01*
X179010082Y-65306463D01*
X179189013Y-65574252D01*
X179416748Y-65801987D01*
X179684537Y-65980918D01*
X179982088Y-66104168D01*
X180297967Y-66167000D01*
X180620033Y-66167000D01*
X180935912Y-66104168D01*
X180950376Y-66098177D01*
X181024002Y-66171803D01*
X181024002Y-67060320D01*
X180935912Y-67023832D01*
X180620033Y-66961000D01*
X180297967Y-66961000D01*
X179982088Y-67023832D01*
X179684537Y-67147082D01*
X179416748Y-67326013D01*
X179189013Y-67553748D01*
X179010082Y-67821537D01*
X178886832Y-68119088D01*
X178824000Y-68434967D01*
X178824000Y-68757033D01*
X178886832Y-69072912D01*
X178892823Y-69087375D01*
X175577870Y-72402329D01*
X175579675Y-72384002D01*
X175575999Y-72346679D01*
X175575999Y-70131680D01*
X175664088Y-70168168D01*
X175979967Y-70231000D01*
X176302033Y-70231000D01*
X176617912Y-70168168D01*
X176915463Y-70044918D01*
X177183252Y-69865987D01*
X177410987Y-69638252D01*
X177589918Y-69370463D01*
X177713168Y-69072912D01*
X177776000Y-68757033D01*
X177776000Y-68434967D01*
X177713168Y-68119088D01*
X177589918Y-67821537D01*
X177410987Y-67553748D01*
X177183252Y-67326013D01*
X176915463Y-67147082D01*
X176617912Y-67023832D01*
X176302033Y-66961000D01*
X175979967Y-66961000D01*
X175664088Y-67023832D01*
X175575999Y-67060320D01*
X175575999Y-66067680D01*
X175664088Y-66104168D01*
X175979967Y-66167000D01*
X176302033Y-66167000D01*
X176617912Y-66104168D01*
X176915463Y-65980918D01*
X177183252Y-65801987D01*
X177410987Y-65574252D01*
X177589918Y-65306463D01*
X177713168Y-65008912D01*
X177776000Y-64693033D01*
X177776000Y-64370967D01*
X177713168Y-64055088D01*
X177589918Y-63757537D01*
X177410987Y-63489748D01*
X177183252Y-63262013D01*
X176915463Y-63083082D01*
X176617912Y-62959832D01*
X176302033Y-62897000D01*
X175979967Y-62897000D01*
X175664088Y-62959832D01*
X175575999Y-62996320D01*
X175575999Y-62107802D01*
X175649624Y-62034177D01*
X175664088Y-62040168D01*
X175979967Y-62103000D01*
X176302033Y-62103000D01*
X176617912Y-62040168D01*
X176915463Y-61916918D01*
X177183252Y-61737987D01*
X177410987Y-61510252D01*
X177589918Y-61242463D01*
X177713168Y-60944912D01*
X177776000Y-60629033D01*
X177776000Y-60306967D01*
X177713168Y-59991088D01*
X177589918Y-59693537D01*
X177410987Y-59425748D01*
X177183252Y-59198013D01*
X176915463Y-59019082D01*
X176617912Y-58895832D01*
X176302033Y-58833000D01*
X175979967Y-58833000D01*
X175664088Y-58895832D01*
X175366537Y-59019082D01*
X175098748Y-59198013D01*
X174871013Y-59425748D01*
X174692082Y-59693537D01*
X174568832Y-59991088D01*
X174506000Y-60306967D01*
X174506000Y-60629033D01*
X174568832Y-60944912D01*
X174574823Y-60959376D01*
X174304997Y-61229202D01*
X174275999Y-61253000D01*
X174252201Y-61281998D01*
X174252200Y-61281999D01*
X174181025Y-61368725D01*
X174110453Y-61500755D01*
X174097419Y-61543724D01*
X174066997Y-61644015D01*
X174056263Y-61753000D01*
X174052323Y-61793001D01*
X174056000Y-61830333D01*
X174055999Y-72069199D01*
X173885199Y-72240000D01*
X167817317Y-72240000D01*
X167902588Y-72154729D01*
X168147181Y-71788669D01*
X168315660Y-71381925D01*
X168401550Y-70950128D01*
X168401550Y-70509872D01*
X168315660Y-70078075D01*
X168147181Y-69671331D01*
X167902588Y-69305271D01*
X167591279Y-68993962D01*
X167225219Y-68749369D01*
X166818475Y-68580890D01*
X166386678Y-68495000D01*
X165946422Y-68495000D01*
X165514625Y-68580890D01*
X165107881Y-68749369D01*
X164741821Y-68993962D01*
X164430512Y-69305271D01*
X164185919Y-69671331D01*
X164017440Y-70078075D01*
X163931550Y-70509872D01*
X163931550Y-70950128D01*
X164017440Y-71381925D01*
X164185919Y-71788669D01*
X164430512Y-72154729D01*
X164515783Y-72240000D01*
X159614802Y-72240000D01*
X159060000Y-71685199D01*
X159060000Y-71499752D01*
X161329853Y-71499752D01*
X161419579Y-71759042D01*
X161700671Y-71894935D01*
X162002873Y-71973379D01*
X162314573Y-71991359D01*
X162623791Y-71948184D01*
X162918644Y-71845513D01*
X163080421Y-71759042D01*
X163170147Y-71499752D01*
X162250000Y-70579605D01*
X161329853Y-71499752D01*
X159060000Y-71499752D01*
X159060000Y-70464573D01*
X160658641Y-70464573D01*
X160701816Y-70773791D01*
X160804487Y-71068644D01*
X160890958Y-71230421D01*
X161150248Y-71320147D01*
X162070395Y-70400000D01*
X162429605Y-70400000D01*
X163349752Y-71320147D01*
X163609042Y-71230421D01*
X163744935Y-70949329D01*
X163823379Y-70647127D01*
X163841359Y-70335427D01*
X163798184Y-70026209D01*
X163695513Y-69731356D01*
X163609042Y-69569579D01*
X163349752Y-69479853D01*
X162429605Y-70400000D01*
X162070395Y-70400000D01*
X161150248Y-69479853D01*
X160890958Y-69569579D01*
X160755065Y-69850671D01*
X160676621Y-70152873D01*
X160658641Y-70464573D01*
X159060000Y-70464573D01*
X159060000Y-69630193D01*
X159140000Y-69638072D01*
X159440000Y-69638072D01*
X159540000Y-69628223D01*
X159640000Y-69638072D01*
X159940000Y-69638072D01*
X160064482Y-69625812D01*
X160184180Y-69589502D01*
X160294494Y-69530537D01*
X160391185Y-69451185D01*
X160470537Y-69354494D01*
X160499532Y-69300248D01*
X161329853Y-69300248D01*
X162250000Y-70220395D01*
X163170147Y-69300248D01*
X163080421Y-69040958D01*
X162799329Y-68905065D01*
X162497127Y-68826621D01*
X162185427Y-68808641D01*
X161876209Y-68851816D01*
X161581356Y-68954487D01*
X161419579Y-69040958D01*
X161329853Y-69300248D01*
X160499532Y-69300248D01*
X160529502Y-69244180D01*
X160565812Y-69124482D01*
X160578072Y-69000000D01*
X160578072Y-67200000D01*
X160565812Y-67075518D01*
X160529502Y-66955820D01*
X160470537Y-66845506D01*
X160400364Y-66760000D01*
X161192678Y-66760000D01*
X161230000Y-66763676D01*
X161267322Y-66760000D01*
X161267333Y-66760000D01*
X161378986Y-66749003D01*
X161522247Y-66705546D01*
X161654276Y-66634974D01*
X161770001Y-66540001D01*
X161793804Y-66510997D01*
X162627283Y-65677519D01*
X162760166Y-65732561D01*
X163124344Y-65805000D01*
X163495656Y-65805000D01*
X163859834Y-65732561D01*
X164202882Y-65590466D01*
X164511618Y-65384175D01*
X164774175Y-65121618D01*
X164980466Y-64812882D01*
X165122561Y-64469834D01*
X165195000Y-64105656D01*
X165195000Y-63734344D01*
X165122561Y-63370166D01*
X164980466Y-63027118D01*
X164854809Y-62839059D01*
X164980750Y-62965000D01*
X165945000Y-62968072D01*
X166069482Y-62955812D01*
X166189180Y-62919502D01*
X166299494Y-62860537D01*
X166396185Y-62781185D01*
X166475537Y-62684494D01*
X166534502Y-62574180D01*
X166570812Y-62454482D01*
X166583072Y-62330000D01*
X166580000Y-61365750D01*
X166421250Y-61207000D01*
X164822000Y-61207000D01*
X164822000Y-61227000D01*
X164568000Y-61227000D01*
X164568000Y-61207000D01*
X164548000Y-61207000D01*
X164548000Y-60953000D01*
X164568000Y-60953000D01*
X164568000Y-59353750D01*
X164822000Y-59353750D01*
X164822000Y-60953000D01*
X166421250Y-60953000D01*
X166580000Y-60794250D01*
X166583072Y-59830000D01*
X166570812Y-59705518D01*
X166534502Y-59585820D01*
X166475537Y-59475506D01*
X166396185Y-59378815D01*
X166299494Y-59299463D01*
X166189180Y-59240498D01*
X166069482Y-59204188D01*
X165945000Y-59191928D01*
X164980750Y-59195000D01*
X164822000Y-59353750D01*
X164568000Y-59353750D01*
X164409250Y-59195000D01*
X163445000Y-59191928D01*
X163320518Y-59204188D01*
X163200820Y-59240498D01*
X163090506Y-59299463D01*
X162993815Y-59378815D01*
X162915225Y-59474577D01*
X162817882Y-59409534D01*
X162474834Y-59267439D01*
X162110656Y-59195000D01*
X161739344Y-59195000D01*
X161375166Y-59267439D01*
X161032118Y-59409534D01*
X160723382Y-59615825D01*
X160540000Y-59799207D01*
X160356618Y-59615825D01*
X160047882Y-59409534D01*
X159704834Y-59267439D01*
X159340656Y-59195000D01*
X158969344Y-59195000D01*
X158605166Y-59267439D01*
X158262118Y-59409534D01*
X157953382Y-59615825D01*
X157770000Y-59799207D01*
X157586618Y-59615825D01*
X157330266Y-59444536D01*
X157721003Y-59053799D01*
X157750001Y-59030001D01*
X157844974Y-58914276D01*
X157915546Y-58782247D01*
X157959003Y-58638986D01*
X157970000Y-58527333D01*
X157970000Y-58527324D01*
X157973676Y-58490001D01*
X157970000Y-58452678D01*
X157970000Y-58429208D01*
X158060000Y-58438072D01*
X158360000Y-58438072D01*
X158460000Y-58428223D01*
X158560000Y-58438072D01*
X158860000Y-58438072D01*
X158960000Y-58428223D01*
X159060000Y-58438072D01*
X159360000Y-58438072D01*
X159484482Y-58425812D01*
X159604180Y-58389502D01*
X159714494Y-58330537D01*
X159811185Y-58251185D01*
X159890537Y-58154494D01*
X159949502Y-58044180D01*
X159985812Y-57924482D01*
X159998072Y-57800000D01*
X159998072Y-57539413D01*
X179503192Y-57539413D01*
X179598956Y-57803814D01*
X179888571Y-57944704D01*
X180200108Y-58026384D01*
X180521595Y-58045718D01*
X180840675Y-58001961D01*
X181145088Y-57896795D01*
X181319044Y-57803814D01*
X181414808Y-57539413D01*
X180459000Y-56583605D01*
X179503192Y-57539413D01*
X159998072Y-57539413D01*
X159998072Y-56000000D01*
X159985812Y-55875518D01*
X159970000Y-55823393D01*
X159970000Y-55699752D01*
X161329853Y-55699752D01*
X161419579Y-55959042D01*
X161700671Y-56094935D01*
X162002873Y-56173379D01*
X162314573Y-56191359D01*
X162623791Y-56148184D01*
X162918644Y-56045513D01*
X163080421Y-55959042D01*
X163170147Y-55699752D01*
X162250000Y-54779605D01*
X161329853Y-55699752D01*
X159970000Y-55699752D01*
X159970000Y-54664573D01*
X160658641Y-54664573D01*
X160701816Y-54973791D01*
X160804487Y-55268644D01*
X160890958Y-55430421D01*
X161150248Y-55520147D01*
X162070395Y-54600000D01*
X162429605Y-54600000D01*
X163349752Y-55520147D01*
X163609042Y-55430421D01*
X163744935Y-55149329D01*
X163823379Y-54847127D01*
X163841359Y-54535427D01*
X163798184Y-54226209D01*
X163736782Y-54049872D01*
X163931550Y-54049872D01*
X163931550Y-54490128D01*
X164017440Y-54921925D01*
X164185919Y-55328669D01*
X164430512Y-55694729D01*
X164741821Y-56006038D01*
X165107881Y-56250631D01*
X165514625Y-56419110D01*
X165946422Y-56505000D01*
X166386678Y-56505000D01*
X166579752Y-56466595D01*
X178817282Y-56466595D01*
X178861039Y-56785675D01*
X178966205Y-57090088D01*
X179059186Y-57264044D01*
X179323587Y-57359808D01*
X180279395Y-56404000D01*
X180638605Y-56404000D01*
X181594413Y-57359808D01*
X181858814Y-57264044D01*
X181999704Y-56974429D01*
X182081384Y-56662892D01*
X182100718Y-56341405D01*
X182056961Y-56022325D01*
X181951795Y-55717912D01*
X181858814Y-55543956D01*
X181594413Y-55448192D01*
X180638605Y-56404000D01*
X180279395Y-56404000D01*
X179323587Y-55448192D01*
X179059186Y-55543956D01*
X178918296Y-55833571D01*
X178836616Y-56145108D01*
X178817282Y-56466595D01*
X166579752Y-56466595D01*
X166818475Y-56419110D01*
X167225219Y-56250631D01*
X167591279Y-56006038D01*
X167902588Y-55694729D01*
X168147181Y-55328669D01*
X168172067Y-55268587D01*
X179503192Y-55268587D01*
X180459000Y-56224395D01*
X181414808Y-55268587D01*
X181319044Y-55004186D01*
X181029429Y-54863296D01*
X180717892Y-54781616D01*
X180396405Y-54762282D01*
X180077325Y-54806039D01*
X179772912Y-54911205D01*
X179598956Y-55004186D01*
X179503192Y-55268587D01*
X168172067Y-55268587D01*
X168315660Y-54921925D01*
X168401550Y-54490128D01*
X168401550Y-54049872D01*
X168315660Y-53618075D01*
X168147181Y-53211331D01*
X167902588Y-52845271D01*
X167591279Y-52533962D01*
X167225219Y-52289369D01*
X166818475Y-52120890D01*
X166386678Y-52035000D01*
X165946422Y-52035000D01*
X165514625Y-52120890D01*
X165107881Y-52289369D01*
X164741821Y-52533962D01*
X164430512Y-52845271D01*
X164185919Y-53211331D01*
X164017440Y-53618075D01*
X163931550Y-54049872D01*
X163736782Y-54049872D01*
X163695513Y-53931356D01*
X163609042Y-53769579D01*
X163349752Y-53679853D01*
X162429605Y-54600000D01*
X162070395Y-54600000D01*
X161150248Y-53679853D01*
X160890958Y-53769579D01*
X160755065Y-54050671D01*
X160676621Y-54352873D01*
X160658641Y-54664573D01*
X159970000Y-54664573D01*
X159970000Y-53547322D01*
X159973676Y-53509999D01*
X159972716Y-53500248D01*
X161329853Y-53500248D01*
X162250000Y-54420395D01*
X163170147Y-53500248D01*
X163080421Y-53240958D01*
X162799329Y-53105065D01*
X162497127Y-53026621D01*
X162185427Y-53008641D01*
X161876209Y-53051816D01*
X161581356Y-53154487D01*
X161419579Y-53240958D01*
X161329853Y-53500248D01*
X159972716Y-53500248D01*
X159970000Y-53472677D01*
X159970000Y-53472667D01*
X159960000Y-53371137D01*
X159960000Y-53364501D01*
X159963676Y-53327178D01*
X159960000Y-53289855D01*
X159960000Y-53289846D01*
X159949003Y-53178193D01*
X159910668Y-53051816D01*
X159905546Y-53034931D01*
X159834974Y-52902901D01*
X159763799Y-52816175D01*
X159740001Y-52787177D01*
X159711002Y-52763379D01*
X159011625Y-52064002D01*
X158987824Y-52035000D01*
X158872099Y-51940027D01*
X158740070Y-51869455D01*
X158596809Y-51825998D01*
X158485156Y-51815001D01*
X158485145Y-51815001D01*
X158447823Y-51811325D01*
X158410501Y-51815001D01*
X156503846Y-51815001D01*
X156573379Y-51547127D01*
X156591359Y-51235427D01*
X156548184Y-50926209D01*
X156472898Y-50710000D01*
X183952721Y-50710000D01*
X184349545Y-50748909D01*
G36*
X153505065Y-50750671D02*
G01*
X153426621Y-51052873D01*
X153408641Y-51364573D01*
X153451816Y-51673791D01*
X153500988Y-51815005D01*
X150962327Y-51815006D01*
X150924995Y-51811329D01*
X150887662Y-51815006D01*
X150776060Y-51825998D01*
X150776009Y-51826003D01*
X150632748Y-51869459D01*
X150500718Y-51940031D01*
X150413992Y-52011206D01*
X150413987Y-52011211D01*
X150384994Y-52035005D01*
X150361200Y-52063998D01*
X148514005Y-53911193D01*
X148485001Y-53934996D01*
X148390028Y-54050722D01*
X148319456Y-54182751D01*
X148307526Y-54222079D01*
X147929605Y-54600000D01*
X147943748Y-54614143D01*
X147764143Y-54793748D01*
X147750000Y-54779605D01*
X146829853Y-55699752D01*
X146919579Y-55959042D01*
X147110743Y-56051459D01*
X146663983Y-56498219D01*
X146634979Y-56522022D01*
X146540006Y-56637748D01*
X146485523Y-56739677D01*
X145380220Y-57844980D01*
X144257563Y-57844982D01*
X144220221Y-57841304D01*
X144071235Y-57855978D01*
X143927974Y-57899435D01*
X143795945Y-57970007D01*
X143709218Y-58041182D01*
X143709213Y-58041187D01*
X143680220Y-58064981D01*
X143656426Y-58093974D01*
X143042400Y-58708001D01*
X134896321Y-58708001D01*
X134858998Y-58704325D01*
X134821675Y-58708001D01*
X134821666Y-58708001D01*
X134710013Y-58718998D01*
X134594734Y-58753967D01*
X134566752Y-58762455D01*
X134434722Y-58833027D01*
X134367789Y-58887958D01*
X134350721Y-58901966D01*
X134335912Y-58895832D01*
X134020033Y-58833000D01*
X133697967Y-58833000D01*
X133382088Y-58895832D01*
X133084537Y-59019082D01*
X132816748Y-59198013D01*
X132589013Y-59425748D01*
X132410082Y-59693537D01*
X132286832Y-59991088D01*
X132224000Y-60306967D01*
X132224000Y-60629033D01*
X132286832Y-60944912D01*
X132292823Y-60959376D01*
X131522997Y-61729202D01*
X131493999Y-61753000D01*
X131470201Y-61781998D01*
X131470200Y-61781999D01*
X131399025Y-61868725D01*
X131328453Y-62000755D01*
X131284997Y-62144016D01*
X131270323Y-62293001D01*
X131274000Y-62330333D01*
X131273999Y-69296676D01*
X131270323Y-69333999D01*
X131273999Y-69371321D01*
X131273999Y-69371331D01*
X131284996Y-69482984D01*
X131323467Y-69609809D01*
X131328453Y-69626245D01*
X131399025Y-69758275D01*
X131438201Y-69806010D01*
X131493998Y-69874000D01*
X131523001Y-69897802D01*
X132057201Y-70432003D01*
X132081000Y-70461002D01*
X132196725Y-70555975D01*
X132328754Y-70626547D01*
X132472015Y-70670004D01*
X132583668Y-70681001D01*
X132583677Y-70681001D01*
X132621000Y-70684677D01*
X132658323Y-70681001D01*
X134457679Y-70681001D01*
X134495001Y-70684677D01*
X134532323Y-70681001D01*
X134532334Y-70681001D01*
X134643987Y-70670004D01*
X134787248Y-70626547D01*
X134919277Y-70555975D01*
X134975453Y-70509872D01*
X141598450Y-70509872D01*
X141598450Y-70950128D01*
X141684340Y-71381925D01*
X141852819Y-71788669D01*
X142097412Y-72154729D01*
X142408721Y-72466038D01*
X142774781Y-72710631D01*
X143181525Y-72879110D01*
X143613322Y-72965000D01*
X144053578Y-72965000D01*
X144485375Y-72879110D01*
X144892119Y-72710631D01*
X145258179Y-72466038D01*
X145569488Y-72154729D01*
X145814081Y-71788669D01*
X145933754Y-71499752D01*
X146829853Y-71499752D01*
X146919579Y-71759042D01*
X147200671Y-71894935D01*
X147502873Y-71973379D01*
X147814573Y-71991359D01*
X148123791Y-71948184D01*
X148418644Y-71845513D01*
X148580421Y-71759042D01*
X148670147Y-71499752D01*
X147750000Y-70579605D01*
X146829853Y-71499752D01*
X145933754Y-71499752D01*
X145982560Y-71381925D01*
X146068450Y-70950128D01*
X146068450Y-70509872D01*
X146059440Y-70464573D01*
X146158641Y-70464573D01*
X146201816Y-70773791D01*
X146304487Y-71068644D01*
X146390958Y-71230421D01*
X146650248Y-71320147D01*
X147570395Y-70400000D01*
X147929605Y-70400000D01*
X148849752Y-71320147D01*
X149109042Y-71230421D01*
X149244935Y-70949329D01*
X149323379Y-70647127D01*
X149341359Y-70335427D01*
X149298184Y-70026209D01*
X149195513Y-69731356D01*
X149109042Y-69569579D01*
X148849752Y-69479853D01*
X147929605Y-70400000D01*
X147570395Y-70400000D01*
X146650248Y-69479853D01*
X146390958Y-69569579D01*
X146255065Y-69850671D01*
X146176621Y-70152873D01*
X146158641Y-70464573D01*
X146059440Y-70464573D01*
X145982560Y-70078075D01*
X145814081Y-69671331D01*
X145569488Y-69305271D01*
X145564465Y-69300248D01*
X146829853Y-69300248D01*
X147750000Y-70220395D01*
X148670147Y-69300248D01*
X148580421Y-69040958D01*
X148299329Y-68905065D01*
X147997127Y-68826621D01*
X147685427Y-68808641D01*
X147376209Y-68851816D01*
X147081356Y-68954487D01*
X146919579Y-69040958D01*
X146829853Y-69300248D01*
X145564465Y-69300248D01*
X145258179Y-68993962D01*
X144892119Y-68749369D01*
X144485375Y-68580890D01*
X144053578Y-68495000D01*
X143613322Y-68495000D01*
X143181525Y-68580890D01*
X142774781Y-68749369D01*
X142408721Y-68993962D01*
X142097412Y-69305271D01*
X141852819Y-69671331D01*
X141684340Y-70078075D01*
X141598450Y-70509872D01*
X134975453Y-70509872D01*
X135035002Y-70461002D01*
X135058804Y-70431999D01*
X135330804Y-70160000D01*
X135562678Y-70160000D01*
X135600000Y-70163676D01*
X135637322Y-70160000D01*
X135637333Y-70160000D01*
X135748986Y-70149003D01*
X135892247Y-70105546D01*
X136024276Y-70034974D01*
X136140001Y-69940001D01*
X136163803Y-69910998D01*
X136268791Y-69806010D01*
X139253078Y-69806010D01*
X139290400Y-69809686D01*
X139327722Y-69806010D01*
X139327733Y-69806010D01*
X139439386Y-69795013D01*
X139582647Y-69751556D01*
X139714676Y-69680984D01*
X139830401Y-69586011D01*
X139854204Y-69557007D01*
X142651212Y-66760000D01*
X150179636Y-66760000D01*
X150109463Y-66845506D01*
X150050498Y-66955820D01*
X150014188Y-67075518D01*
X150001928Y-67200000D01*
X150001928Y-69000000D01*
X150014188Y-69124482D01*
X150040000Y-69209574D01*
X150040001Y-71499079D01*
X150036324Y-71536411D01*
X150040001Y-71573744D01*
X150050998Y-71685397D01*
X150057780Y-71707754D01*
X150094454Y-71828657D01*
X150165026Y-71960687D01*
X150229320Y-72039028D01*
X150260000Y-72076412D01*
X150288998Y-72100210D01*
X151124788Y-72936001D01*
X151148587Y-72965000D01*
X151264312Y-73059973D01*
X151396341Y-73130545D01*
X151539602Y-73174002D01*
X151651255Y-73184999D01*
X151651264Y-73184999D01*
X151688587Y-73188675D01*
X151725910Y-73184999D01*
X153496154Y-73184999D01*
X153426621Y-73452873D01*
X153408641Y-73764573D01*
X153451816Y-74073791D01*
X153527102Y-74290000D01*
X126047279Y-74290000D01*
X125650455Y-74251091D01*
X125299794Y-74145220D01*
X124976377Y-73973257D01*
X124692518Y-73741748D01*
X124459035Y-73459514D01*
X124284816Y-73137304D01*
X124176498Y-72787385D01*
X124135000Y-72392557D01*
X124135000Y-68434967D01*
X127906000Y-68434967D01*
X127906000Y-68757033D01*
X127968832Y-69072912D01*
X128092082Y-69370463D01*
X128271013Y-69638252D01*
X128498748Y-69865987D01*
X128766537Y-70044918D01*
X129064088Y-70168168D01*
X129379967Y-70231000D01*
X129702033Y-70231000D01*
X130017912Y-70168168D01*
X130315463Y-70044918D01*
X130583252Y-69865987D01*
X130810987Y-69638252D01*
X130989918Y-69370463D01*
X131113168Y-69072912D01*
X131176000Y-68757033D01*
X131176000Y-68434967D01*
X131113168Y-68119088D01*
X130989918Y-67821537D01*
X130810987Y-67553748D01*
X130583252Y-67326013D01*
X130315463Y-67147082D01*
X130017912Y-67023832D01*
X129702033Y-66961000D01*
X129379967Y-66961000D01*
X129064088Y-67023832D01*
X128766537Y-67147082D01*
X128498748Y-67326013D01*
X128271013Y-67553748D01*
X128092082Y-67821537D01*
X127968832Y-68119088D01*
X127906000Y-68434967D01*
X124135000Y-68434967D01*
X124135000Y-64370967D01*
X127906000Y-64370967D01*
X127906000Y-64693033D01*
X127968832Y-65008912D01*
X128092082Y-65306463D01*
X128271013Y-65574252D01*
X128498748Y-65801987D01*
X128766537Y-65980918D01*
X129064088Y-66104168D01*
X129379967Y-66167000D01*
X129702033Y-66167000D01*
X130017912Y-66104168D01*
X130315463Y-65980918D01*
X130583252Y-65801987D01*
X130810987Y-65574252D01*
X130989918Y-65306463D01*
X131113168Y-65008912D01*
X131176000Y-64693033D01*
X131176000Y-64370967D01*
X131113168Y-64055088D01*
X130989918Y-63757537D01*
X130810987Y-63489748D01*
X130583252Y-63262013D01*
X130315463Y-63083082D01*
X130017912Y-62959832D01*
X129702033Y-62897000D01*
X129379967Y-62897000D01*
X129064088Y-62959832D01*
X128766537Y-63083082D01*
X128498748Y-63262013D01*
X128271013Y-63489748D01*
X128092082Y-63757537D01*
X127968832Y-64055088D01*
X127906000Y-64370967D01*
X124135000Y-64370967D01*
X124135000Y-60306967D01*
X127906000Y-60306967D01*
X127906000Y-60629033D01*
X127968832Y-60944912D01*
X128092082Y-61242463D01*
X128271013Y-61510252D01*
X128498748Y-61737987D01*
X128766537Y-61916918D01*
X129064088Y-62040168D01*
X129379967Y-62103000D01*
X129702033Y-62103000D01*
X130017912Y-62040168D01*
X130315463Y-61916918D01*
X130583252Y-61737987D01*
X130810987Y-61510252D01*
X130989918Y-61242463D01*
X131113168Y-60944912D01*
X131176000Y-60629033D01*
X131176000Y-60306967D01*
X131113168Y-59991088D01*
X130989918Y-59693537D01*
X130810987Y-59425748D01*
X130583252Y-59198013D01*
X130315463Y-59019082D01*
X130017912Y-58895832D01*
X129702033Y-58833000D01*
X129379967Y-58833000D01*
X129064088Y-58895832D01*
X128766537Y-59019082D01*
X128498748Y-59198013D01*
X128271013Y-59425748D01*
X128092082Y-59693537D01*
X127968832Y-59991088D01*
X127906000Y-60306967D01*
X124135000Y-60306967D01*
X124135000Y-57539413D01*
X132903192Y-57539413D01*
X132998956Y-57803814D01*
X133288571Y-57944704D01*
X133600108Y-58026384D01*
X133921595Y-58045718D01*
X134240675Y-58001961D01*
X134545088Y-57896795D01*
X134719044Y-57803814D01*
X134814808Y-57539413D01*
X133859000Y-56583605D01*
X132903192Y-57539413D01*
X124135000Y-57539413D01*
X124135000Y-56466595D01*
X132217282Y-56466595D01*
X132261039Y-56785675D01*
X132366205Y-57090088D01*
X132459186Y-57264044D01*
X132723587Y-57359808D01*
X133679395Y-56404000D01*
X134038605Y-56404000D01*
X134994413Y-57359808D01*
X135258814Y-57264044D01*
X135399704Y-56974429D01*
X135481384Y-56662892D01*
X135500718Y-56341405D01*
X135456961Y-56022325D01*
X135351795Y-55717912D01*
X135258814Y-55543956D01*
X134994413Y-55448192D01*
X134038605Y-56404000D01*
X133679395Y-56404000D01*
X132723587Y-55448192D01*
X132459186Y-55543956D01*
X132318296Y-55833571D01*
X132236616Y-56145108D01*
X132217282Y-56466595D01*
X124135000Y-56466595D01*
X124135000Y-55268587D01*
X132903192Y-55268587D01*
X133859000Y-56224395D01*
X134814808Y-55268587D01*
X134719044Y-55004186D01*
X134429429Y-54863296D01*
X134117892Y-54781616D01*
X133796405Y-54762282D01*
X133477325Y-54806039D01*
X133172912Y-54911205D01*
X132998956Y-55004186D01*
X132903192Y-55268587D01*
X124135000Y-55268587D01*
X124135000Y-54049872D01*
X141598450Y-54049872D01*
X141598450Y-54490128D01*
X141684340Y-54921925D01*
X141852819Y-55328669D01*
X142097412Y-55694729D01*
X142408721Y-56006038D01*
X142774781Y-56250631D01*
X143181525Y-56419110D01*
X143613322Y-56505000D01*
X144053578Y-56505000D01*
X144485375Y-56419110D01*
X144892119Y-56250631D01*
X145258179Y-56006038D01*
X145569488Y-55694729D01*
X145814081Y-55328669D01*
X145982560Y-54921925D01*
X146033750Y-54664573D01*
X146158641Y-54664573D01*
X146201816Y-54973791D01*
X146304487Y-55268644D01*
X146390958Y-55430421D01*
X146650248Y-55520147D01*
X147570395Y-54600000D01*
X146650248Y-53679853D01*
X146390958Y-53769579D01*
X146255065Y-54050671D01*
X146176621Y-54352873D01*
X146158641Y-54664573D01*
X146033750Y-54664573D01*
X146068450Y-54490128D01*
X146068450Y-54049872D01*
X145982560Y-53618075D01*
X145933755Y-53500248D01*
X146829853Y-53500248D01*
X147750000Y-54420395D01*
X148670147Y-53500248D01*
X148580421Y-53240958D01*
X148299329Y-53105065D01*
X147997127Y-53026621D01*
X147685427Y-53008641D01*
X147376209Y-53051816D01*
X147081356Y-53154487D01*
X146919579Y-53240958D01*
X146829853Y-53500248D01*
X145933755Y-53500248D01*
X145814081Y-53211331D01*
X145569488Y-52845271D01*
X145258179Y-52533962D01*
X144892119Y-52289369D01*
X144485375Y-52120890D01*
X144053578Y-52035000D01*
X143613322Y-52035000D01*
X143181525Y-52120890D01*
X142774781Y-52289369D01*
X142408721Y-52533962D01*
X142097412Y-52845271D01*
X141852819Y-53211331D01*
X141684340Y-53618075D01*
X141598450Y-54049872D01*
X124135000Y-54049872D01*
X124135000Y-52622279D01*
X124173909Y-52225455D01*
X124279780Y-51874792D01*
X124451744Y-51551375D01*
X124683254Y-51267516D01*
X124965486Y-51034035D01*
X125287695Y-50859817D01*
X125637614Y-50751498D01*
X126032443Y-50710000D01*
X153524727Y-50710000D01*
X153505065Y-50750671D01*
X153505065Y-50750671D01*
G37*
X153505065Y-50750671D02*
X153426621Y-51052873D01*
X153408641Y-51364573D01*
X153451816Y-51673791D01*
X153500988Y-51815005D01*
X150962327Y-51815006D01*
X150924995Y-51811329D01*
X150887662Y-51815006D01*
X150776060Y-51825998D01*
X150776009Y-51826003D01*
X150632748Y-51869459D01*
X150500718Y-51940031D01*
X150413992Y-52011206D01*
X150413987Y-52011211D01*
X150384994Y-52035005D01*
X150361200Y-52063998D01*
X148514005Y-53911193D01*
X148485001Y-53934996D01*
X148390028Y-54050722D01*
X148319456Y-54182751D01*
X148307526Y-54222079D01*
X147929605Y-54600000D01*
X147943748Y-54614143D01*
X147764143Y-54793748D01*
X147750000Y-54779605D01*
X146829853Y-55699752D01*
X146919579Y-55959042D01*
X147110743Y-56051459D01*
X146663983Y-56498219D01*
X146634979Y-56522022D01*
X146540006Y-56637748D01*
X146485523Y-56739677D01*
X145380220Y-57844980D01*
X144257563Y-57844982D01*
X144220221Y-57841304D01*
X144071235Y-57855978D01*
X143927974Y-57899435D01*
X143795945Y-57970007D01*
X143709218Y-58041182D01*
X143709213Y-58041187D01*
X143680220Y-58064981D01*
X143656426Y-58093974D01*
X143042400Y-58708001D01*
X134896321Y-58708001D01*
X134858998Y-58704325D01*
X134821675Y-58708001D01*
X134821666Y-58708001D01*
X134710013Y-58718998D01*
X134594734Y-58753967D01*
X134566752Y-58762455D01*
X134434722Y-58833027D01*
X134367789Y-58887958D01*
X134350721Y-58901966D01*
X134335912Y-58895832D01*
X134020033Y-58833000D01*
X133697967Y-58833000D01*
X133382088Y-58895832D01*
X133084537Y-59019082D01*
X132816748Y-59198013D01*
X132589013Y-59425748D01*
X132410082Y-59693537D01*
X132286832Y-59991088D01*
X132224000Y-60306967D01*
X132224000Y-60629033D01*
X132286832Y-60944912D01*
X132292823Y-60959376D01*
X131522997Y-61729202D01*
X131493999Y-61753000D01*
X131470201Y-61781998D01*
X131470200Y-61781999D01*
X131399025Y-61868725D01*
X131328453Y-62000755D01*
X131284997Y-62144016D01*
X131270323Y-62293001D01*
X131274000Y-62330333D01*
X131273999Y-69296676D01*
X131270323Y-69333999D01*
X131273999Y-69371321D01*
X131273999Y-69371331D01*
X131284996Y-69482984D01*
X131323467Y-69609809D01*
X131328453Y-69626245D01*
X131399025Y-69758275D01*
X131438201Y-69806010D01*
X131493998Y-69874000D01*
X131523001Y-69897802D01*
X132057201Y-70432003D01*
X132081000Y-70461002D01*
X132196725Y-70555975D01*
X132328754Y-70626547D01*
X132472015Y-70670004D01*
X132583668Y-70681001D01*
X132583677Y-70681001D01*
X132621000Y-70684677D01*
X132658323Y-70681001D01*
X134457679Y-70681001D01*
X134495001Y-70684677D01*
X134532323Y-70681001D01*
X134532334Y-70681001D01*
X134643987Y-70670004D01*
X134787248Y-70626547D01*
X134919277Y-70555975D01*
X134975453Y-70509872D01*
X141598450Y-70509872D01*
X141598450Y-70950128D01*
X141684340Y-71381925D01*
X141852819Y-71788669D01*
X142097412Y-72154729D01*
X142408721Y-72466038D01*
X142774781Y-72710631D01*
X143181525Y-72879110D01*
X143613322Y-72965000D01*
X144053578Y-72965000D01*
X144485375Y-72879110D01*
X144892119Y-72710631D01*
X145258179Y-72466038D01*
X145569488Y-72154729D01*
X145814081Y-71788669D01*
X145933754Y-71499752D01*
X146829853Y-71499752D01*
X146919579Y-71759042D01*
X147200671Y-71894935D01*
X147502873Y-71973379D01*
X147814573Y-71991359D01*
X148123791Y-71948184D01*
X148418644Y-71845513D01*
X148580421Y-71759042D01*
X148670147Y-71499752D01*
X147750000Y-70579605D01*
X146829853Y-71499752D01*
X145933754Y-71499752D01*
X145982560Y-71381925D01*
X146068450Y-70950128D01*
X146068450Y-70509872D01*
X146059440Y-70464573D01*
X146158641Y-70464573D01*
X146201816Y-70773791D01*
X146304487Y-71068644D01*
X146390958Y-71230421D01*
X146650248Y-71320147D01*
X147570395Y-70400000D01*
X147929605Y-70400000D01*
X148849752Y-71320147D01*
X149109042Y-71230421D01*
X149244935Y-70949329D01*
X149323379Y-70647127D01*
X149341359Y-70335427D01*
X149298184Y-70026209D01*
X149195513Y-69731356D01*
X149109042Y-69569579D01*
X148849752Y-69479853D01*
X147929605Y-70400000D01*
X147570395Y-70400000D01*
X146650248Y-69479853D01*
X146390958Y-69569579D01*
X146255065Y-69850671D01*
X146176621Y-70152873D01*
X146158641Y-70464573D01*
X146059440Y-70464573D01*
X145982560Y-70078075D01*
X145814081Y-69671331D01*
X145569488Y-69305271D01*
X145564465Y-69300248D01*
X146829853Y-69300248D01*
X147750000Y-70220395D01*
X148670147Y-69300248D01*
X148580421Y-69040958D01*
X148299329Y-68905065D01*
X147997127Y-68826621D01*
X147685427Y-68808641D01*
X147376209Y-68851816D01*
X147081356Y-68954487D01*
X146919579Y-69040958D01*
X146829853Y-69300248D01*
X145564465Y-69300248D01*
X145258179Y-68993962D01*
X144892119Y-68749369D01*
X144485375Y-68580890D01*
X144053578Y-68495000D01*
X143613322Y-68495000D01*
X143181525Y-68580890D01*
X142774781Y-68749369D01*
X142408721Y-68993962D01*
X142097412Y-69305271D01*
X141852819Y-69671331D01*
X141684340Y-70078075D01*
X141598450Y-70509872D01*
X134975453Y-70509872D01*
X135035002Y-70461002D01*
X135058804Y-70431999D01*
X135330804Y-70160000D01*
X135562678Y-70160000D01*
X135600000Y-70163676D01*
X135637322Y-70160000D01*
X135637333Y-70160000D01*
X135748986Y-70149003D01*
X135892247Y-70105546D01*
X136024276Y-70034974D01*
X136140001Y-69940001D01*
X136163803Y-69910998D01*
X136268791Y-69806010D01*
X139253078Y-69806010D01*
X139290400Y-69809686D01*
X139327722Y-69806010D01*
X139327733Y-69806010D01*
X139439386Y-69795013D01*
X139582647Y-69751556D01*
X139714676Y-69680984D01*
X139830401Y-69586011D01*
X139854204Y-69557007D01*
X142651212Y-66760000D01*
X150179636Y-66760000D01*
X150109463Y-66845506D01*
X150050498Y-66955820D01*
X150014188Y-67075518D01*
X150001928Y-67200000D01*
X150001928Y-69000000D01*
X150014188Y-69124482D01*
X150040000Y-69209574D01*
X150040001Y-71499079D01*
X150036324Y-71536411D01*
X150040001Y-71573744D01*
X150050998Y-71685397D01*
X150057780Y-71707754D01*
X150094454Y-71828657D01*
X150165026Y-71960687D01*
X150229320Y-72039028D01*
X150260000Y-72076412D01*
X150288998Y-72100210D01*
X151124788Y-72936001D01*
X151148587Y-72965000D01*
X151264312Y-73059973D01*
X151396341Y-73130545D01*
X151539602Y-73174002D01*
X151651255Y-73184999D01*
X151651264Y-73184999D01*
X151688587Y-73188675D01*
X151725910Y-73184999D01*
X153496154Y-73184999D01*
X153426621Y-73452873D01*
X153408641Y-73764573D01*
X153451816Y-74073791D01*
X153527102Y-74290000D01*
X126047279Y-74290000D01*
X125650455Y-74251091D01*
X125299794Y-74145220D01*
X124976377Y-73973257D01*
X124692518Y-73741748D01*
X124459035Y-73459514D01*
X124284816Y-73137304D01*
X124176498Y-72787385D01*
X124135000Y-72392557D01*
X124135000Y-68434967D01*
X127906000Y-68434967D01*
X127906000Y-68757033D01*
X127968832Y-69072912D01*
X128092082Y-69370463D01*
X128271013Y-69638252D01*
X128498748Y-69865987D01*
X128766537Y-70044918D01*
X129064088Y-70168168D01*
X129379967Y-70231000D01*
X129702033Y-70231000D01*
X130017912Y-70168168D01*
X130315463Y-70044918D01*
X130583252Y-69865987D01*
X130810987Y-69638252D01*
X130989918Y-69370463D01*
X131113168Y-69072912D01*
X131176000Y-68757033D01*
X131176000Y-68434967D01*
X131113168Y-68119088D01*
X130989918Y-67821537D01*
X130810987Y-67553748D01*
X130583252Y-67326013D01*
X130315463Y-67147082D01*
X130017912Y-67023832D01*
X129702033Y-66961000D01*
X129379967Y-66961000D01*
X129064088Y-67023832D01*
X128766537Y-67147082D01*
X128498748Y-67326013D01*
X128271013Y-67553748D01*
X128092082Y-67821537D01*
X127968832Y-68119088D01*
X127906000Y-68434967D01*
X124135000Y-68434967D01*
X124135000Y-64370967D01*
X127906000Y-64370967D01*
X127906000Y-64693033D01*
X127968832Y-65008912D01*
X128092082Y-65306463D01*
X128271013Y-65574252D01*
X128498748Y-65801987D01*
X128766537Y-65980918D01*
X129064088Y-66104168D01*
X129379967Y-66167000D01*
X129702033Y-66167000D01*
X130017912Y-66104168D01*
X130315463Y-65980918D01*
X130583252Y-65801987D01*
X130810987Y-65574252D01*
X130989918Y-65306463D01*
X131113168Y-65008912D01*
X131176000Y-64693033D01*
X131176000Y-64370967D01*
X131113168Y-64055088D01*
X130989918Y-63757537D01*
X130810987Y-63489748D01*
X130583252Y-63262013D01*
X130315463Y-63083082D01*
X130017912Y-62959832D01*
X129702033Y-62897000D01*
X129379967Y-62897000D01*
X129064088Y-62959832D01*
X128766537Y-63083082D01*
X128498748Y-63262013D01*
X128271013Y-63489748D01*
X128092082Y-63757537D01*
X127968832Y-64055088D01*
X127906000Y-64370967D01*
X124135000Y-64370967D01*
X124135000Y-60306967D01*
X127906000Y-60306967D01*
X127906000Y-60629033D01*
X127968832Y-60944912D01*
X128092082Y-61242463D01*
X128271013Y-61510252D01*
X128498748Y-61737987D01*
X128766537Y-61916918D01*
X129064088Y-62040168D01*
X129379967Y-62103000D01*
X129702033Y-62103000D01*
X130017912Y-62040168D01*
X130315463Y-61916918D01*
X130583252Y-61737987D01*
X130810987Y-61510252D01*
X130989918Y-61242463D01*
X131113168Y-60944912D01*
X131176000Y-60629033D01*
X131176000Y-60306967D01*
X131113168Y-59991088D01*
X130989918Y-59693537D01*
X130810987Y-59425748D01*
X130583252Y-59198013D01*
X130315463Y-59019082D01*
X130017912Y-58895832D01*
X129702033Y-58833000D01*
X129379967Y-58833000D01*
X129064088Y-58895832D01*
X128766537Y-59019082D01*
X128498748Y-59198013D01*
X128271013Y-59425748D01*
X128092082Y-59693537D01*
X127968832Y-59991088D01*
X127906000Y-60306967D01*
X124135000Y-60306967D01*
X124135000Y-57539413D01*
X132903192Y-57539413D01*
X132998956Y-57803814D01*
X133288571Y-57944704D01*
X133600108Y-58026384D01*
X133921595Y-58045718D01*
X134240675Y-58001961D01*
X134545088Y-57896795D01*
X134719044Y-57803814D01*
X134814808Y-57539413D01*
X133859000Y-56583605D01*
X132903192Y-57539413D01*
X124135000Y-57539413D01*
X124135000Y-56466595D01*
X132217282Y-56466595D01*
X132261039Y-56785675D01*
X132366205Y-57090088D01*
X132459186Y-57264044D01*
X132723587Y-57359808D01*
X133679395Y-56404000D01*
X134038605Y-56404000D01*
X134994413Y-57359808D01*
X135258814Y-57264044D01*
X135399704Y-56974429D01*
X135481384Y-56662892D01*
X135500718Y-56341405D01*
X135456961Y-56022325D01*
X135351795Y-55717912D01*
X135258814Y-55543956D01*
X134994413Y-55448192D01*
X134038605Y-56404000D01*
X133679395Y-56404000D01*
X132723587Y-55448192D01*
X132459186Y-55543956D01*
X132318296Y-55833571D01*
X132236616Y-56145108D01*
X132217282Y-56466595D01*
X124135000Y-56466595D01*
X124135000Y-55268587D01*
X132903192Y-55268587D01*
X133859000Y-56224395D01*
X134814808Y-55268587D01*
X134719044Y-55004186D01*
X134429429Y-54863296D01*
X134117892Y-54781616D01*
X133796405Y-54762282D01*
X133477325Y-54806039D01*
X133172912Y-54911205D01*
X132998956Y-55004186D01*
X132903192Y-55268587D01*
X124135000Y-55268587D01*
X124135000Y-54049872D01*
X141598450Y-54049872D01*
X141598450Y-54490128D01*
X141684340Y-54921925D01*
X141852819Y-55328669D01*
X142097412Y-55694729D01*
X142408721Y-56006038D01*
X142774781Y-56250631D01*
X143181525Y-56419110D01*
X143613322Y-56505000D01*
X144053578Y-56505000D01*
X144485375Y-56419110D01*
X144892119Y-56250631D01*
X145258179Y-56006038D01*
X145569488Y-55694729D01*
X145814081Y-55328669D01*
X145982560Y-54921925D01*
X146033750Y-54664573D01*
X146158641Y-54664573D01*
X146201816Y-54973791D01*
X146304487Y-55268644D01*
X146390958Y-55430421D01*
X146650248Y-55520147D01*
X147570395Y-54600000D01*
X146650248Y-53679853D01*
X146390958Y-53769579D01*
X146255065Y-54050671D01*
X146176621Y-54352873D01*
X146158641Y-54664573D01*
X146033750Y-54664573D01*
X146068450Y-54490128D01*
X146068450Y-54049872D01*
X145982560Y-53618075D01*
X145933755Y-53500248D01*
X146829853Y-53500248D01*
X147750000Y-54420395D01*
X148670147Y-53500248D01*
X148580421Y-53240958D01*
X148299329Y-53105065D01*
X147997127Y-53026621D01*
X147685427Y-53008641D01*
X147376209Y-53051816D01*
X147081356Y-53154487D01*
X146919579Y-53240958D01*
X146829853Y-53500248D01*
X145933755Y-53500248D01*
X145814081Y-53211331D01*
X145569488Y-52845271D01*
X145258179Y-52533962D01*
X144892119Y-52289369D01*
X144485375Y-52120890D01*
X144053578Y-52035000D01*
X143613322Y-52035000D01*
X143181525Y-52120890D01*
X142774781Y-52289369D01*
X142408721Y-52533962D01*
X142097412Y-52845271D01*
X141852819Y-53211331D01*
X141684340Y-53618075D01*
X141598450Y-54049872D01*
X124135000Y-54049872D01*
X124135000Y-52622279D01*
X124173909Y-52225455D01*
X124279780Y-51874792D01*
X124451744Y-51551375D01*
X124683254Y-51267516D01*
X124965486Y-51034035D01*
X125287695Y-50859817D01*
X125637614Y-50751498D01*
X126032443Y-50710000D01*
X153524727Y-50710000D01*
X153505065Y-50750671D01*
G36*
X155193748Y-73685858D02*
G01*
X155179605Y-73700000D01*
X155193748Y-73714143D01*
X155014143Y-73893748D01*
X155000000Y-73879605D01*
X154985858Y-73893748D01*
X154806253Y-73714143D01*
X154820395Y-73700000D01*
X154806253Y-73685858D01*
X154985858Y-73506253D01*
X155000000Y-73520395D01*
X155014143Y-73506253D01*
X155193748Y-73685858D01*
X155193748Y-73685858D01*
G37*
X155193748Y-73685858D02*
X155179605Y-73700000D01*
X155193748Y-73714143D01*
X155014143Y-73893748D01*
X155000000Y-73879605D01*
X154985858Y-73893748D01*
X154806253Y-73714143D01*
X154820395Y-73700000D01*
X154806253Y-73685858D01*
X154985858Y-73506253D01*
X155000000Y-73520395D01*
X155014143Y-73506253D01*
X155193748Y-73685858D01*
G36*
X181024001Y-70964787D02*
G01*
X178748789Y-73240000D01*
X176889801Y-73240000D01*
X179967625Y-70162177D01*
X179982088Y-70168168D01*
X180297967Y-70231000D01*
X180620033Y-70231000D01*
X180935912Y-70168168D01*
X181024001Y-70131680D01*
X181024001Y-70964787D01*
X181024001Y-70964787D01*
G37*
X181024001Y-70964787D02*
X178748789Y-73240000D01*
X176889801Y-73240000D01*
X179967625Y-70162177D01*
X179982088Y-70168168D01*
X180297967Y-70231000D01*
X180620033Y-70231000D01*
X180935912Y-70168168D01*
X181024001Y-70131680D01*
X181024001Y-70964787D01*
G36*
X157540001Y-71962668D02*
G01*
X157536324Y-72000000D01*
X157536510Y-72001884D01*
X156548605Y-71013980D01*
X156524802Y-70984976D01*
X156409077Y-70890003D01*
X156277048Y-70819431D01*
X156133787Y-70775974D01*
X156022134Y-70764977D01*
X156022123Y-70764977D01*
X155984801Y-70761301D01*
X155947479Y-70764977D01*
X152560000Y-70764977D01*
X152560000Y-69630193D01*
X152640000Y-69638072D01*
X152940000Y-69638072D01*
X153040000Y-69628223D01*
X153140000Y-69638072D01*
X153440000Y-69638072D01*
X153540000Y-69628223D01*
X153640000Y-69638072D01*
X153940000Y-69638072D01*
X154040000Y-69628223D01*
X154140000Y-69638072D01*
X154440000Y-69638072D01*
X154540000Y-69628223D01*
X154640000Y-69638072D01*
X154940000Y-69638072D01*
X155040000Y-69628223D01*
X155140000Y-69638072D01*
X155440000Y-69638072D01*
X155540000Y-69628223D01*
X155640000Y-69638072D01*
X155940000Y-69638072D01*
X156040000Y-69628223D01*
X156140000Y-69638072D01*
X156440000Y-69638072D01*
X156540000Y-69628223D01*
X156640000Y-69638072D01*
X156940000Y-69638072D01*
X157040000Y-69628223D01*
X157140000Y-69638072D01*
X157440000Y-69638072D01*
X157540000Y-69628223D01*
X157540001Y-71962668D01*
X157540001Y-71962668D01*
G37*
X157540001Y-71962668D02*
X157536324Y-72000000D01*
X157536510Y-72001884D01*
X156548605Y-71013980D01*
X156524802Y-70984976D01*
X156409077Y-70890003D01*
X156277048Y-70819431D01*
X156133787Y-70775974D01*
X156022134Y-70764977D01*
X156022123Y-70764977D01*
X155984801Y-70761301D01*
X155947479Y-70764977D01*
X152560000Y-70764977D01*
X152560000Y-69630193D01*
X152640000Y-69638072D01*
X152940000Y-69638072D01*
X153040000Y-69628223D01*
X153140000Y-69638072D01*
X153440000Y-69638072D01*
X153540000Y-69628223D01*
X153640000Y-69638072D01*
X153940000Y-69638072D01*
X154040000Y-69628223D01*
X154140000Y-69638072D01*
X154440000Y-69638072D01*
X154540000Y-69628223D01*
X154640000Y-69638072D01*
X154940000Y-69638072D01*
X155040000Y-69628223D01*
X155140000Y-69638072D01*
X155440000Y-69638072D01*
X155540000Y-69628223D01*
X155640000Y-69638072D01*
X155940000Y-69638072D01*
X156040000Y-69628223D01*
X156140000Y-69638072D01*
X156440000Y-69638072D01*
X156540000Y-69628223D01*
X156640000Y-69638072D01*
X156940000Y-69638072D01*
X157040000Y-69628223D01*
X157140000Y-69638072D01*
X157440000Y-69638072D01*
X157540000Y-69628223D01*
X157540001Y-71962668D01*
G36*
X143420000Y-61265656D02*
G01*
X143492439Y-61629834D01*
X143634534Y-61972882D01*
X143840825Y-62281618D01*
X144103382Y-62544175D01*
X144412118Y-62750466D01*
X144755166Y-62892561D01*
X145067880Y-62954763D01*
X145019534Y-63027118D01*
X144877439Y-63370166D01*
X144870212Y-63406501D01*
X144759774Y-63296063D01*
X144590256Y-63182795D01*
X144401898Y-63104774D01*
X144201939Y-63065000D01*
X143998061Y-63065000D01*
X143798102Y-63104774D01*
X143609744Y-63182795D01*
X143440226Y-63296063D01*
X143296063Y-63440226D01*
X143182795Y-63609744D01*
X143104774Y-63798102D01*
X143065000Y-63998061D01*
X143065000Y-64201939D01*
X143104774Y-64401898D01*
X143182795Y-64590256D01*
X143296063Y-64759774D01*
X143440226Y-64903937D01*
X143609744Y-65017205D01*
X143798102Y-65095226D01*
X143998061Y-65135000D01*
X144060199Y-65135000D01*
X144165199Y-65240000D01*
X142373735Y-65240000D01*
X142336410Y-65236324D01*
X142299085Y-65240000D01*
X142299077Y-65240000D01*
X142187424Y-65250997D01*
X142044163Y-65294454D01*
X141912134Y-65365026D01*
X141796409Y-65459999D01*
X141772611Y-65488997D01*
X138975599Y-68286010D01*
X135991312Y-68286010D01*
X135953989Y-68282334D01*
X135916666Y-68286010D01*
X135916657Y-68286010D01*
X135805004Y-68297007D01*
X135661743Y-68340464D01*
X135529714Y-68411036D01*
X135494000Y-68440346D01*
X135494000Y-68434967D01*
X135431168Y-68119088D01*
X135425177Y-68104624D01*
X139614802Y-63915000D01*
X140062677Y-63915000D01*
X140100000Y-63918676D01*
X140137322Y-63915000D01*
X140137333Y-63915000D01*
X140248986Y-63904003D01*
X140392247Y-63860546D01*
X140524276Y-63789974D01*
X140640001Y-63695001D01*
X140663803Y-63665998D01*
X143201781Y-61128023D01*
X143420000Y-61128023D01*
X143420000Y-61265656D01*
X143420000Y-61265656D01*
G37*
X143420000Y-61265656D02*
X143492439Y-61629834D01*
X143634534Y-61972882D01*
X143840825Y-62281618D01*
X144103382Y-62544175D01*
X144412118Y-62750466D01*
X144755166Y-62892561D01*
X145067880Y-62954763D01*
X145019534Y-63027118D01*
X144877439Y-63370166D01*
X144870212Y-63406501D01*
X144759774Y-63296063D01*
X144590256Y-63182795D01*
X144401898Y-63104774D01*
X144201939Y-63065000D01*
X143998061Y-63065000D01*
X143798102Y-63104774D01*
X143609744Y-63182795D01*
X143440226Y-63296063D01*
X143296063Y-63440226D01*
X143182795Y-63609744D01*
X143104774Y-63798102D01*
X143065000Y-63998061D01*
X143065000Y-64201939D01*
X143104774Y-64401898D01*
X143182795Y-64590256D01*
X143296063Y-64759774D01*
X143440226Y-64903937D01*
X143609744Y-65017205D01*
X143798102Y-65095226D01*
X143998061Y-65135000D01*
X144060199Y-65135000D01*
X144165199Y-65240000D01*
X142373735Y-65240000D01*
X142336410Y-65236324D01*
X142299085Y-65240000D01*
X142299077Y-65240000D01*
X142187424Y-65250997D01*
X142044163Y-65294454D01*
X141912134Y-65365026D01*
X141796409Y-65459999D01*
X141772611Y-65488997D01*
X138975599Y-68286010D01*
X135991312Y-68286010D01*
X135953989Y-68282334D01*
X135916666Y-68286010D01*
X135916657Y-68286010D01*
X135805004Y-68297007D01*
X135661743Y-68340464D01*
X135529714Y-68411036D01*
X135494000Y-68440346D01*
X135494000Y-68434967D01*
X135431168Y-68119088D01*
X135425177Y-68104624D01*
X139614802Y-63915000D01*
X140062677Y-63915000D01*
X140100000Y-63918676D01*
X140137322Y-63915000D01*
X140137333Y-63915000D01*
X140248986Y-63904003D01*
X140392247Y-63860546D01*
X140524276Y-63789974D01*
X140640001Y-63695001D01*
X140663803Y-63665998D01*
X143201781Y-61128023D01*
X143420000Y-61128023D01*
X143420000Y-61265656D01*
G36*
X139785199Y-62395000D02*
G01*
X139337323Y-62395000D01*
X139300000Y-62391324D01*
X139262677Y-62395000D01*
X139262667Y-62395000D01*
X139151014Y-62405997D01*
X139007753Y-62449454D01*
X138875724Y-62520026D01*
X138759999Y-62614999D01*
X138736201Y-62643997D01*
X134350376Y-67029823D01*
X134335912Y-67023832D01*
X134020033Y-66961000D01*
X133697967Y-66961000D01*
X133382088Y-67023832D01*
X133084537Y-67147082D01*
X132816748Y-67326013D01*
X132793999Y-67348762D01*
X132793999Y-65779238D01*
X132816748Y-65801987D01*
X133084537Y-65980918D01*
X133382088Y-66104168D01*
X133697967Y-66167000D01*
X134020033Y-66167000D01*
X134335912Y-66104168D01*
X134633463Y-65980918D01*
X134901252Y-65801987D01*
X135128987Y-65574252D01*
X135307918Y-65306463D01*
X135431168Y-65008912D01*
X135494000Y-64693033D01*
X135494000Y-64370967D01*
X135431168Y-64055088D01*
X135425177Y-64040624D01*
X138787790Y-60678012D01*
X141502187Y-60678012D01*
X139785199Y-62395000D01*
X139785199Y-62395000D01*
G37*
X139785199Y-62395000D02*
X139337323Y-62395000D01*
X139300000Y-62391324D01*
X139262677Y-62395000D01*
X139262667Y-62395000D01*
X139151014Y-62405997D01*
X139007753Y-62449454D01*
X138875724Y-62520026D01*
X138759999Y-62614999D01*
X138736201Y-62643997D01*
X134350376Y-67029823D01*
X134335912Y-67023832D01*
X134020033Y-66961000D01*
X133697967Y-66961000D01*
X133382088Y-67023832D01*
X133084537Y-67147082D01*
X132816748Y-67326013D01*
X132793999Y-67348762D01*
X132793999Y-65779238D01*
X132816748Y-65801987D01*
X133084537Y-65980918D01*
X133382088Y-66104168D01*
X133697967Y-66167000D01*
X134020033Y-66167000D01*
X134335912Y-66104168D01*
X134633463Y-65980918D01*
X134901252Y-65801987D01*
X135128987Y-65574252D01*
X135307918Y-65306463D01*
X135431168Y-65008912D01*
X135494000Y-64693033D01*
X135494000Y-64370967D01*
X135431168Y-64055088D01*
X135425177Y-64040624D01*
X138787790Y-60678012D01*
X141502187Y-60678012D01*
X139785199Y-62395000D01*
G36*
X134350376Y-62965823D02*
G01*
X134335912Y-62959832D01*
X134020033Y-62897000D01*
X133697967Y-62897000D01*
X133382088Y-62959832D01*
X133084537Y-63083082D01*
X132816748Y-63262013D01*
X132793999Y-63284762D01*
X132793999Y-62607802D01*
X133367624Y-62034177D01*
X133382088Y-62040168D01*
X133697967Y-62103000D01*
X134020033Y-62103000D01*
X134335912Y-62040168D01*
X134633463Y-61916918D01*
X134901252Y-61737987D01*
X135128987Y-61510252D01*
X135307918Y-61242463D01*
X135431168Y-60944912D01*
X135494000Y-60629033D01*
X135494000Y-60306967D01*
X135478293Y-60228001D01*
X137088197Y-60228001D01*
X134350376Y-62965823D01*
X134350376Y-62965823D01*
G37*
X134350376Y-62965823D02*
X134335912Y-62959832D01*
X134020033Y-62897000D01*
X133697967Y-62897000D01*
X133382088Y-62959832D01*
X133084537Y-63083082D01*
X132816748Y-63262013D01*
X132793999Y-63284762D01*
X132793999Y-62607802D01*
X133367624Y-62034177D01*
X133382088Y-62040168D01*
X133697967Y-62103000D01*
X134020033Y-62103000D01*
X134335912Y-62040168D01*
X134633463Y-61916918D01*
X134901252Y-61737987D01*
X135128987Y-61510252D01*
X135307918Y-61242463D01*
X135431168Y-60944912D01*
X135494000Y-60629033D01*
X135494000Y-60306967D01*
X135478293Y-60228001D01*
X137088197Y-60228001D01*
X134350376Y-62965823D01*
G36*
X157440000Y-55369807D02*
G01*
X157360000Y-55361928D01*
X157060000Y-55361928D01*
X156960000Y-55371777D01*
X156860000Y-55361928D01*
X156560000Y-55361928D01*
X156460000Y-55371777D01*
X156360000Y-55361928D01*
X156060000Y-55361928D01*
X155960000Y-55371777D01*
X155860000Y-55361928D01*
X155560000Y-55361928D01*
X155460000Y-55371777D01*
X155360000Y-55361928D01*
X155060000Y-55361928D01*
X154960000Y-55371777D01*
X154860000Y-55361928D01*
X154560000Y-55361928D01*
X154460000Y-55371777D01*
X154360000Y-55361928D01*
X154060000Y-55361928D01*
X153960000Y-55371777D01*
X153860000Y-55361928D01*
X153560000Y-55361928D01*
X153460000Y-55371777D01*
X153360000Y-55361928D01*
X153060000Y-55361928D01*
X152960000Y-55371777D01*
X152860000Y-55361928D01*
X152704074Y-55361928D01*
X152734974Y-55324276D01*
X152805546Y-55192247D01*
X152849003Y-55048986D01*
X152852748Y-55010963D01*
X152903937Y-54959774D01*
X153017205Y-54790256D01*
X153095226Y-54601898D01*
X153135000Y-54401939D01*
X153135000Y-54235023D01*
X157440001Y-54235023D01*
X157440000Y-55369807D01*
X157440000Y-55369807D01*
G37*
X157440000Y-55369807D02*
X157360000Y-55361928D01*
X157060000Y-55361928D01*
X156960000Y-55371777D01*
X156860000Y-55361928D01*
X156560000Y-55361928D01*
X156460000Y-55371777D01*
X156360000Y-55361928D01*
X156060000Y-55361928D01*
X155960000Y-55371777D01*
X155860000Y-55361928D01*
X155560000Y-55361928D01*
X155460000Y-55371777D01*
X155360000Y-55361928D01*
X155060000Y-55361928D01*
X154960000Y-55371777D01*
X154860000Y-55361928D01*
X154560000Y-55361928D01*
X154460000Y-55371777D01*
X154360000Y-55361928D01*
X154060000Y-55361928D01*
X153960000Y-55371777D01*
X153860000Y-55361928D01*
X153560000Y-55361928D01*
X153460000Y-55371777D01*
X153360000Y-55361928D01*
X153060000Y-55361928D01*
X152960000Y-55371777D01*
X152860000Y-55361928D01*
X152704074Y-55361928D01*
X152734974Y-55324276D01*
X152805546Y-55192247D01*
X152849003Y-55048986D01*
X152852748Y-55010963D01*
X152903937Y-54959774D01*
X153017205Y-54790256D01*
X153095226Y-54601898D01*
X153135000Y-54401939D01*
X153135000Y-54235023D01*
X157440001Y-54235023D01*
X157440000Y-55369807D01*
G36*
X155193748Y-51285858D02*
G01*
X155179605Y-51300000D01*
X155193748Y-51314143D01*
X155014143Y-51493748D01*
X155000000Y-51479605D01*
X154985858Y-51493748D01*
X154806253Y-51314143D01*
X154820395Y-51300000D01*
X154806253Y-51285858D01*
X154985858Y-51106253D01*
X155000000Y-51120395D01*
X155014143Y-51106253D01*
X155193748Y-51285858D01*
X155193748Y-51285858D01*
G37*
X155193748Y-51285858D02*
X155179605Y-51300000D01*
X155193748Y-51314143D01*
X155014143Y-51493748D01*
X155000000Y-51479605D01*
X154985858Y-51493748D01*
X154806253Y-51314143D01*
X154820395Y-51300000D01*
X154806253Y-51285858D01*
X154985858Y-51106253D01*
X155000000Y-51120395D01*
X155014143Y-51106253D01*
X155193748Y-51285858D01*
M02*
