M48
; DRILL file {KiCad (5.1.0)-1} date 8/21/2019 11:10:38 AM
; FORMAT={-:-/ absolute / inch / decimal}
; #@! TF.CreationDate,2019-08-21T11:10:38-04:00
; #@! TF.GenerationSoftware,Kicad,Pcbnew,(5.1.0)-1
FMAT,2
INCH
T1C0.0157
T2C0.0472
T3C0.0512
T4C0.0787
T5C0.1260
%
G90
G05
T1
X5.0472Y-2.4606
X5.3543Y-2.3819
X5.3819Y-2.5236
X5.4646Y-2.5512
X5.4646Y-2.6772
X5.4921Y-2.4055
X5.5866Y-2.5354
X5.6732Y-2.5236
X5.9882Y-2.1378
X6.0984Y-2.1575
X6.126Y-2.3071
X6.1969Y-2.7795
X7.0354Y-2.8504
T2
X5.1Y-2.3806
X5.1Y-2.5406
X5.1Y-2.7006
X5.27Y-2.2206
X5.27Y-2.3806
X5.27Y-2.5406
X5.27Y-2.7006
X6.9347Y-2.3806
X6.9347Y-2.5406
X6.9347Y-2.7006
X7.1047Y-2.2206
X7.1047Y-2.3806
X7.1047Y-2.5406
X7.1047Y-2.7006
T3
X5.8169Y-2.1496
X6.1024Y-2.0197
X6.3878Y-2.1496
X5.8169Y-2.7717
X6.1024Y-2.9016
X6.3878Y-2.7717
T4
X5.7207Y-2.4047
X5.7752Y-2.5165
X5.8297Y-2.4047
X5.8843Y-2.5165
X5.9388Y-2.4047
X5.9933Y-2.5165
X6.0478Y-2.4047
X6.1024Y-2.5165
X6.1569Y-2.4047
X6.2114Y-2.5165
X6.2659Y-2.4047
X6.3205Y-2.5165
X6.375Y-2.4047
X6.4295Y-2.5165
X6.4841Y-2.4047
T5
X6.542Y-2.1366
X6.542Y-2.7846
X5.6627Y-2.7846
X5.6627Y-2.1366
T0
M30
