G04 #@! TF.GenerationSoftware,KiCad,Pcbnew,(5.1.0)-1*
G04 #@! TF.CreationDate,2019-08-21T11:10:32-04:00*
G04 #@! TF.ProjectId,Famicom Expansion to NES Controller,46616d69-636f-46d2-9045-7870616e7369,rev?*
G04 #@! TF.SameCoordinates,Original*
G04 #@! TF.FileFunction,Copper,L1,Top*
G04 #@! TF.FilePolarity,Positive*
%FSLAX46Y46*%
G04 Gerber Fmt 4.6, Leading zero omitted, Abs format (unit mm)*
G04 Created by KiCad (PCBNEW (5.1.0)-1) date 2019-08-21 11:10:32*
%MOMM*%
%LPD*%
G04 APERTURE LIST*
%ADD10C,1.900000*%
%ADD11R,2.500000X2.500000*%
%ADD12C,2.500000*%
%ADD13C,2.000000*%
%ADD14C,0.800000*%
%ADD15C,0.250000*%
%ADD16C,0.254000*%
G04 APERTURE END LIST*
D10*
X162250000Y-70400000D03*
X147750000Y-70400000D03*
X155000000Y-73700000D03*
X155000000Y-51300000D03*
X162250000Y-54600000D03*
X147750000Y-54600000D03*
D11*
X164695000Y-61080000D03*
D12*
X161925000Y-61080000D03*
X159155000Y-61080000D03*
X156385000Y-61080000D03*
X153615000Y-61080000D03*
X150845000Y-61080000D03*
X148075000Y-61080000D03*
X145305000Y-61080000D03*
X163310000Y-63920000D03*
X160540000Y-63920000D03*
X157770000Y-63920000D03*
X155000000Y-63920000D03*
X152230000Y-63920000D03*
X149460000Y-63920000D03*
X146690000Y-63920000D03*
D13*
X176141000Y-60468000D03*
X176141000Y-64532000D03*
X176141000Y-68596000D03*
X180459000Y-68596000D03*
X180459000Y-64532000D03*
X180459000Y-60468000D03*
X180459000Y-56404000D03*
X129541000Y-60468000D03*
X129541000Y-64532000D03*
X129541000Y-68596000D03*
X133859000Y-68596000D03*
X133859000Y-64532000D03*
X133859000Y-60468000D03*
X133859000Y-56404000D03*
D14*
X128200000Y-62500000D03*
X157400000Y-70600000D03*
X138800000Y-64800000D03*
X141900000Y-64400000D03*
X154900000Y-54800000D03*
X138800000Y-68000000D03*
X136700000Y-64100000D03*
X139500000Y-61100000D03*
X136000000Y-60500000D03*
X178700000Y-72400000D03*
X155600000Y-58600000D03*
X144100000Y-64100000D03*
X152100000Y-54300000D03*
D15*
X156385000Y-59312234D02*
X155672766Y-58600000D01*
X155672766Y-58600000D02*
X155600000Y-58600000D01*
X156385000Y-61080000D02*
X156385000Y-59312234D01*
X128945000Y-68000000D02*
X129541000Y-68596000D01*
X126200000Y-65255000D02*
X128945000Y-68000000D01*
X126200000Y-60700000D02*
X126200000Y-65255000D01*
X128400000Y-58500000D02*
X126200000Y-60700000D01*
X156385000Y-61080000D02*
X153805000Y-58500000D01*
X153805000Y-58500000D02*
X128400000Y-58500000D01*
X128332000Y-64532000D02*
X129541000Y-64532000D01*
X127200000Y-63400000D02*
X128332000Y-64532000D01*
X127200000Y-60500000D02*
X127200000Y-63400000D01*
X128700000Y-59000000D02*
X127200000Y-60500000D01*
X153615000Y-61080000D02*
X151535000Y-59000000D01*
X151535000Y-59000000D02*
X128700000Y-59000000D01*
X135866000Y-62525000D02*
X133859000Y-64532000D01*
X144100000Y-63100000D02*
X143525000Y-62525000D01*
X143525000Y-62525000D02*
X135866000Y-62525000D01*
X144100000Y-63100000D02*
X144100000Y-64100000D01*
X179459001Y-65531999D02*
X180459000Y-64532000D01*
X156979978Y-65899978D02*
X179091022Y-65899978D01*
X155000000Y-63920000D02*
X156979978Y-65899978D01*
X179091022Y-65899978D02*
X179459001Y-65531999D01*
X152230000Y-63920000D02*
X154659989Y-66349989D01*
X179459001Y-67596001D02*
X180459000Y-68596000D01*
X178212989Y-66349989D02*
X179459001Y-67596001D01*
X154659989Y-66349989D02*
X178212989Y-66349989D01*
X181458999Y-61467999D02*
X180459000Y-60468000D01*
X182349989Y-62358989D02*
X181458999Y-61467999D01*
X182349989Y-68666013D02*
X182349989Y-62358989D01*
X179822999Y-69921001D02*
X181095001Y-69921001D01*
X176701998Y-66800000D02*
X179822999Y-69921001D01*
X152340000Y-66800000D02*
X176701998Y-66800000D01*
X181095001Y-69921001D02*
X182349989Y-68666013D01*
X149460000Y-63920000D02*
X152340000Y-66800000D01*
X132657001Y-66357001D02*
X131600000Y-65300000D01*
X140121629Y-66357001D02*
X132657001Y-66357001D01*
X131600000Y-62527000D02*
X129541000Y-60468000D01*
X131600000Y-65300000D02*
X131600000Y-62527000D01*
X143121629Y-66357001D02*
X140121629Y-66357001D01*
X146690000Y-63920000D02*
X145558630Y-63920000D01*
X145558630Y-63920000D02*
X143121629Y-66357001D01*
X153075001Y-53324999D02*
X152100000Y-54300000D01*
X158024999Y-53324999D02*
X153075001Y-53324999D01*
X163300000Y-58600000D02*
X158024999Y-53324999D01*
X176141000Y-60468000D02*
X174273000Y-58600000D01*
X174273000Y-58600000D02*
X163300000Y-58600000D01*
X176200000Y-60409000D02*
X176141000Y-60468000D01*
X176200000Y-56900000D02*
X176200000Y-60409000D01*
X181478999Y-54578999D02*
X178521001Y-54578999D01*
X182800000Y-55900000D02*
X181478999Y-54578999D01*
X150070000Y-67300000D02*
X172883998Y-67300000D01*
X178521001Y-54578999D02*
X176200000Y-56900000D01*
X172883998Y-67300000D02*
X175955010Y-70371012D01*
X175955010Y-70371012D02*
X182028988Y-70371012D01*
X182028988Y-70371012D02*
X182800000Y-69600000D01*
X146690000Y-63920000D02*
X150070000Y-67300000D01*
X182800000Y-69600000D02*
X182800000Y-55900000D01*
D16*
G36*
X153505065Y-50750671D02*
G01*
X153426621Y-51052873D01*
X153408641Y-51364573D01*
X153451816Y-51673791D01*
X153554487Y-51968644D01*
X153640958Y-52130421D01*
X153900248Y-52220147D01*
X154820395Y-51300000D01*
X154806253Y-51285858D01*
X154985858Y-51106253D01*
X155000000Y-51120395D01*
X155014143Y-51106253D01*
X155193748Y-51285858D01*
X155179605Y-51300000D01*
X156099752Y-52220147D01*
X156359042Y-52130421D01*
X156494935Y-51849329D01*
X156573379Y-51547127D01*
X156591359Y-51235427D01*
X156548184Y-50926209D01*
X156472898Y-50710000D01*
X183952721Y-50710000D01*
X184349545Y-50748909D01*
X184700208Y-50854780D01*
X185023625Y-51026744D01*
X185307484Y-51258254D01*
X185540965Y-51540486D01*
X185715183Y-51862695D01*
X185823502Y-52212614D01*
X185865000Y-52607443D01*
X185865001Y-72377711D01*
X185826091Y-72774545D01*
X185720220Y-73125206D01*
X185548257Y-73448623D01*
X185316748Y-73732482D01*
X185034514Y-73965965D01*
X184712304Y-74140184D01*
X184362385Y-74248502D01*
X183967557Y-74290000D01*
X156475273Y-74290000D01*
X156494935Y-74249329D01*
X156573379Y-73947127D01*
X156591359Y-73635427D01*
X156548184Y-73326209D01*
X156445513Y-73031356D01*
X156359042Y-72869579D01*
X156099752Y-72779853D01*
X155179605Y-73700000D01*
X155193748Y-73714143D01*
X155014143Y-73893748D01*
X155000000Y-73879605D01*
X154985858Y-73893748D01*
X154806253Y-73714143D01*
X154820395Y-73700000D01*
X153900248Y-72779853D01*
X153640958Y-72869579D01*
X153505065Y-73150671D01*
X153426621Y-73452873D01*
X153408641Y-73764573D01*
X153451816Y-74073791D01*
X153527102Y-74290000D01*
X126047279Y-74290000D01*
X125650455Y-74251091D01*
X125299794Y-74145220D01*
X124976377Y-73973257D01*
X124692518Y-73741748D01*
X124459035Y-73459514D01*
X124284816Y-73137304D01*
X124176498Y-72787385D01*
X124135000Y-72392557D01*
X124135000Y-70509872D01*
X141598450Y-70509872D01*
X141598450Y-70950128D01*
X141684340Y-71381925D01*
X141852819Y-71788669D01*
X142097412Y-72154729D01*
X142408721Y-72466038D01*
X142774781Y-72710631D01*
X143181525Y-72879110D01*
X143613322Y-72965000D01*
X144053578Y-72965000D01*
X144485375Y-72879110D01*
X144892119Y-72710631D01*
X145057319Y-72600248D01*
X154079853Y-72600248D01*
X155000000Y-73520395D01*
X155920147Y-72600248D01*
X155830421Y-72340958D01*
X155549329Y-72205065D01*
X155247127Y-72126621D01*
X154935427Y-72108641D01*
X154626209Y-72151816D01*
X154331356Y-72254487D01*
X154169579Y-72340958D01*
X154079853Y-72600248D01*
X145057319Y-72600248D01*
X145258179Y-72466038D01*
X145569488Y-72154729D01*
X145814081Y-71788669D01*
X145933754Y-71499752D01*
X146829853Y-71499752D01*
X146919579Y-71759042D01*
X147200671Y-71894935D01*
X147502873Y-71973379D01*
X147814573Y-71991359D01*
X148123791Y-71948184D01*
X148418644Y-71845513D01*
X148580421Y-71759042D01*
X148670147Y-71499752D01*
X161329853Y-71499752D01*
X161419579Y-71759042D01*
X161700671Y-71894935D01*
X162002873Y-71973379D01*
X162314573Y-71991359D01*
X162623791Y-71948184D01*
X162918644Y-71845513D01*
X163080421Y-71759042D01*
X163170147Y-71499752D01*
X162250000Y-70579605D01*
X161329853Y-71499752D01*
X148670147Y-71499752D01*
X147750000Y-70579605D01*
X146829853Y-71499752D01*
X145933754Y-71499752D01*
X145982560Y-71381925D01*
X146068450Y-70950128D01*
X146068450Y-70509872D01*
X146059440Y-70464573D01*
X146158641Y-70464573D01*
X146201816Y-70773791D01*
X146304487Y-71068644D01*
X146390958Y-71230421D01*
X146650248Y-71320147D01*
X147570395Y-70400000D01*
X147929605Y-70400000D01*
X148849752Y-71320147D01*
X149109042Y-71230421D01*
X149244935Y-70949329D01*
X149323379Y-70647127D01*
X149333909Y-70464573D01*
X160658641Y-70464573D01*
X160701816Y-70773791D01*
X160804487Y-71068644D01*
X160890958Y-71230421D01*
X161150248Y-71320147D01*
X162070395Y-70400000D01*
X162429605Y-70400000D01*
X163349752Y-71320147D01*
X163609042Y-71230421D01*
X163744935Y-70949329D01*
X163823379Y-70647127D01*
X163831296Y-70509872D01*
X163931550Y-70509872D01*
X163931550Y-70950128D01*
X164017440Y-71381925D01*
X164185919Y-71788669D01*
X164430512Y-72154729D01*
X164741821Y-72466038D01*
X165107881Y-72710631D01*
X165514625Y-72879110D01*
X165946422Y-72965000D01*
X166386678Y-72965000D01*
X166818475Y-72879110D01*
X167225219Y-72710631D01*
X167591279Y-72466038D01*
X167902588Y-72154729D01*
X168147181Y-71788669D01*
X168315660Y-71381925D01*
X168401550Y-70950128D01*
X168401550Y-70509872D01*
X168315660Y-70078075D01*
X168147181Y-69671331D01*
X167902588Y-69305271D01*
X167591279Y-68993962D01*
X167225219Y-68749369D01*
X166818475Y-68580890D01*
X166386678Y-68495000D01*
X165946422Y-68495000D01*
X165514625Y-68580890D01*
X165107881Y-68749369D01*
X164741821Y-68993962D01*
X164430512Y-69305271D01*
X164185919Y-69671331D01*
X164017440Y-70078075D01*
X163931550Y-70509872D01*
X163831296Y-70509872D01*
X163841359Y-70335427D01*
X163798184Y-70026209D01*
X163695513Y-69731356D01*
X163609042Y-69569579D01*
X163349752Y-69479853D01*
X162429605Y-70400000D01*
X162070395Y-70400000D01*
X161150248Y-69479853D01*
X160890958Y-69569579D01*
X160755065Y-69850671D01*
X160676621Y-70152873D01*
X160658641Y-70464573D01*
X149333909Y-70464573D01*
X149341359Y-70335427D01*
X149298184Y-70026209D01*
X149195513Y-69731356D01*
X149109042Y-69569579D01*
X148849752Y-69479853D01*
X147929605Y-70400000D01*
X147570395Y-70400000D01*
X146650248Y-69479853D01*
X146390958Y-69569579D01*
X146255065Y-69850671D01*
X146176621Y-70152873D01*
X146158641Y-70464573D01*
X146059440Y-70464573D01*
X145982560Y-70078075D01*
X145814081Y-69671331D01*
X145569488Y-69305271D01*
X145564465Y-69300248D01*
X146829853Y-69300248D01*
X147750000Y-70220395D01*
X148670147Y-69300248D01*
X161329853Y-69300248D01*
X162250000Y-70220395D01*
X163170147Y-69300248D01*
X163080421Y-69040958D01*
X162799329Y-68905065D01*
X162497127Y-68826621D01*
X162185427Y-68808641D01*
X161876209Y-68851816D01*
X161581356Y-68954487D01*
X161419579Y-69040958D01*
X161329853Y-69300248D01*
X148670147Y-69300248D01*
X148580421Y-69040958D01*
X148299329Y-68905065D01*
X147997127Y-68826621D01*
X147685427Y-68808641D01*
X147376209Y-68851816D01*
X147081356Y-68954487D01*
X146919579Y-69040958D01*
X146829853Y-69300248D01*
X145564465Y-69300248D01*
X145258179Y-68993962D01*
X144892119Y-68749369D01*
X144485375Y-68580890D01*
X144053578Y-68495000D01*
X143613322Y-68495000D01*
X143181525Y-68580890D01*
X142774781Y-68749369D01*
X142408721Y-68993962D01*
X142097412Y-69305271D01*
X141852819Y-69671331D01*
X141684340Y-70078075D01*
X141598450Y-70509872D01*
X124135000Y-70509872D01*
X124135000Y-60700000D01*
X125436324Y-60700000D01*
X125440000Y-60737323D01*
X125440001Y-65217668D01*
X125436324Y-65255000D01*
X125440001Y-65292333D01*
X125448933Y-65383014D01*
X125450998Y-65403985D01*
X125494454Y-65547246D01*
X125565026Y-65679276D01*
X125636201Y-65766002D01*
X125660000Y-65795001D01*
X125688998Y-65818799D01*
X127974823Y-68104625D01*
X127968832Y-68119088D01*
X127906000Y-68434967D01*
X127906000Y-68757033D01*
X127968832Y-69072912D01*
X128092082Y-69370463D01*
X128271013Y-69638252D01*
X128498748Y-69865987D01*
X128766537Y-70044918D01*
X129064088Y-70168168D01*
X129379967Y-70231000D01*
X129702033Y-70231000D01*
X130017912Y-70168168D01*
X130315463Y-70044918D01*
X130583252Y-69865987D01*
X130810987Y-69638252D01*
X130989918Y-69370463D01*
X131113168Y-69072912D01*
X131176000Y-68757033D01*
X131176000Y-68434967D01*
X131113168Y-68119088D01*
X130989918Y-67821537D01*
X130810987Y-67553748D01*
X130583252Y-67326013D01*
X130315463Y-67147082D01*
X130017912Y-67023832D01*
X129702033Y-66961000D01*
X129379967Y-66961000D01*
X129064088Y-67023832D01*
X129049625Y-67029823D01*
X126960000Y-64940199D01*
X126960000Y-64234801D01*
X127768201Y-65043003D01*
X127791999Y-65072001D01*
X127907724Y-65166974D01*
X128039753Y-65237546D01*
X128066953Y-65245797D01*
X128092082Y-65306463D01*
X128271013Y-65574252D01*
X128498748Y-65801987D01*
X128766537Y-65980918D01*
X129064088Y-66104168D01*
X129379967Y-66167000D01*
X129702033Y-66167000D01*
X130017912Y-66104168D01*
X130315463Y-65980918D01*
X130583252Y-65801987D01*
X130810987Y-65574252D01*
X130864639Y-65493957D01*
X130876179Y-65531999D01*
X130894454Y-65592246D01*
X130965026Y-65724276D01*
X130999270Y-65766002D01*
X131059999Y-65840001D01*
X131089002Y-65863804D01*
X132093202Y-66868004D01*
X132117000Y-66897002D01*
X132145998Y-66920800D01*
X132232724Y-66991975D01*
X132292324Y-67023832D01*
X132364754Y-67062547D01*
X132508015Y-67106004D01*
X132619668Y-67117001D01*
X132619677Y-67117001D01*
X132657000Y-67120677D01*
X132694323Y-67117001D01*
X133157159Y-67117001D01*
X133084537Y-67147082D01*
X132816748Y-67326013D01*
X132589013Y-67553748D01*
X132410082Y-67821537D01*
X132286832Y-68119088D01*
X132224000Y-68434967D01*
X132224000Y-68757033D01*
X132286832Y-69072912D01*
X132410082Y-69370463D01*
X132589013Y-69638252D01*
X132816748Y-69865987D01*
X133084537Y-70044918D01*
X133382088Y-70168168D01*
X133697967Y-70231000D01*
X134020033Y-70231000D01*
X134335912Y-70168168D01*
X134633463Y-70044918D01*
X134901252Y-69865987D01*
X135128987Y-69638252D01*
X135307918Y-69370463D01*
X135431168Y-69072912D01*
X135494000Y-68757033D01*
X135494000Y-68434967D01*
X135431168Y-68119088D01*
X135307918Y-67821537D01*
X135128987Y-67553748D01*
X134901252Y-67326013D01*
X134633463Y-67147082D01*
X134560841Y-67117001D01*
X143084307Y-67117001D01*
X143121629Y-67120677D01*
X143158951Y-67117001D01*
X143158962Y-67117001D01*
X143270615Y-67106004D01*
X143413876Y-67062547D01*
X143545905Y-66991975D01*
X143661630Y-66897002D01*
X143685433Y-66867998D01*
X145328819Y-65224612D01*
X145488382Y-65384175D01*
X145797118Y-65590466D01*
X146140166Y-65732561D01*
X146504344Y-65805000D01*
X146875656Y-65805000D01*
X147239834Y-65732561D01*
X147372718Y-65677519D01*
X149506200Y-67811002D01*
X149529999Y-67840001D01*
X149645724Y-67934974D01*
X149777753Y-68005546D01*
X149921014Y-68049003D01*
X150032667Y-68060000D01*
X150032677Y-68060000D01*
X150070000Y-68063676D01*
X150107323Y-68060000D01*
X172569197Y-68060000D01*
X175391211Y-70882015D01*
X175415009Y-70911013D01*
X175530734Y-71005986D01*
X175662763Y-71076558D01*
X175806024Y-71120015D01*
X175917677Y-71131012D01*
X175917687Y-71131012D01*
X175955010Y-71134688D01*
X175992333Y-71131012D01*
X181991666Y-71131012D01*
X182028988Y-71134688D01*
X182066310Y-71131012D01*
X182066321Y-71131012D01*
X182177974Y-71120015D01*
X182321235Y-71076558D01*
X182453264Y-71005986D01*
X182568989Y-70911013D01*
X182592791Y-70882010D01*
X183311004Y-70163798D01*
X183340001Y-70140001D01*
X183434974Y-70024276D01*
X183505546Y-69892247D01*
X183549003Y-69748986D01*
X183560000Y-69637333D01*
X183560000Y-69637332D01*
X183563677Y-69600000D01*
X183560000Y-69562667D01*
X183560000Y-55937333D01*
X183563677Y-55900000D01*
X183549003Y-55751014D01*
X183505546Y-55607753D01*
X183434974Y-55475724D01*
X183363799Y-55388997D01*
X183340001Y-55359999D01*
X183311003Y-55336201D01*
X182042803Y-54068002D01*
X182019000Y-54038998D01*
X181903275Y-53944025D01*
X181771246Y-53873453D01*
X181627985Y-53829996D01*
X181516332Y-53818999D01*
X181516321Y-53818999D01*
X181478999Y-53815323D01*
X181441677Y-53818999D01*
X178558323Y-53818999D01*
X178521000Y-53815323D01*
X178483677Y-53818999D01*
X178483668Y-53818999D01*
X178372015Y-53829996D01*
X178228754Y-53873453D01*
X178096724Y-53944025D01*
X178077292Y-53959973D01*
X177981000Y-54038998D01*
X177957202Y-54067996D01*
X175689003Y-56336196D01*
X175659999Y-56359999D01*
X175623889Y-56404000D01*
X175565026Y-56475724D01*
X175549378Y-56505000D01*
X175494454Y-56607754D01*
X175450997Y-56751015D01*
X175440000Y-56862668D01*
X175440000Y-56862678D01*
X175436324Y-56900000D01*
X175440000Y-56937323D01*
X175440001Y-58692199D01*
X174836804Y-58089003D01*
X174813001Y-58059999D01*
X174697276Y-57965026D01*
X174565247Y-57894454D01*
X174421986Y-57850997D01*
X174310333Y-57840000D01*
X174310322Y-57840000D01*
X174273000Y-57836324D01*
X174235678Y-57840000D01*
X163614802Y-57840000D01*
X161929007Y-56154205D01*
X162002873Y-56173379D01*
X162314573Y-56191359D01*
X162623791Y-56148184D01*
X162918644Y-56045513D01*
X163080421Y-55959042D01*
X163170147Y-55699752D01*
X162250000Y-54779605D01*
X162235858Y-54793748D01*
X162056253Y-54614143D01*
X162070395Y-54600000D01*
X162429605Y-54600000D01*
X163349752Y-55520147D01*
X163609042Y-55430421D01*
X163744935Y-55149329D01*
X163823379Y-54847127D01*
X163841359Y-54535427D01*
X163798184Y-54226209D01*
X163736782Y-54049872D01*
X163931550Y-54049872D01*
X163931550Y-54490128D01*
X164017440Y-54921925D01*
X164185919Y-55328669D01*
X164430512Y-55694729D01*
X164741821Y-56006038D01*
X165107881Y-56250631D01*
X165514625Y-56419110D01*
X165946422Y-56505000D01*
X166386678Y-56505000D01*
X166818475Y-56419110D01*
X167225219Y-56250631D01*
X167591279Y-56006038D01*
X167902588Y-55694729D01*
X168147181Y-55328669D01*
X168315660Y-54921925D01*
X168401550Y-54490128D01*
X168401550Y-54049872D01*
X168315660Y-53618075D01*
X168147181Y-53211331D01*
X167902588Y-52845271D01*
X167591279Y-52533962D01*
X167225219Y-52289369D01*
X166818475Y-52120890D01*
X166386678Y-52035000D01*
X165946422Y-52035000D01*
X165514625Y-52120890D01*
X165107881Y-52289369D01*
X164741821Y-52533962D01*
X164430512Y-52845271D01*
X164185919Y-53211331D01*
X164017440Y-53618075D01*
X163931550Y-54049872D01*
X163736782Y-54049872D01*
X163695513Y-53931356D01*
X163609042Y-53769579D01*
X163349752Y-53679853D01*
X162429605Y-54600000D01*
X162070395Y-54600000D01*
X161150248Y-53679853D01*
X160890958Y-53769579D01*
X160755065Y-54050671D01*
X160676621Y-54352873D01*
X160658641Y-54664573D01*
X160694225Y-54919423D01*
X159275050Y-53500248D01*
X161329853Y-53500248D01*
X162250000Y-54420395D01*
X163170147Y-53500248D01*
X163080421Y-53240958D01*
X162799329Y-53105065D01*
X162497127Y-53026621D01*
X162185427Y-53008641D01*
X161876209Y-53051816D01*
X161581356Y-53154487D01*
X161419579Y-53240958D01*
X161329853Y-53500248D01*
X159275050Y-53500248D01*
X158588803Y-52814002D01*
X158565000Y-52784998D01*
X158449275Y-52690025D01*
X158317246Y-52619453D01*
X158173985Y-52575996D01*
X158062332Y-52564999D01*
X158062321Y-52564999D01*
X158024999Y-52561323D01*
X157987677Y-52564999D01*
X155862964Y-52564999D01*
X155920147Y-52399752D01*
X155000000Y-51479605D01*
X154079853Y-52399752D01*
X154137036Y-52564999D01*
X153112326Y-52564999D01*
X153075001Y-52561323D01*
X153037676Y-52564999D01*
X153037668Y-52564999D01*
X152926015Y-52575996D01*
X152782754Y-52619453D01*
X152650725Y-52690025D01*
X152535000Y-52784998D01*
X152511202Y-52813996D01*
X152060198Y-53265000D01*
X151998061Y-53265000D01*
X151798102Y-53304774D01*
X151609744Y-53382795D01*
X151440226Y-53496063D01*
X151296063Y-53640226D01*
X151182795Y-53809744D01*
X151104774Y-53998102D01*
X151065000Y-54198061D01*
X151065000Y-54401939D01*
X151104774Y-54601898D01*
X151182795Y-54790256D01*
X151296063Y-54959774D01*
X151440226Y-55103937D01*
X151609744Y-55217205D01*
X151798102Y-55295226D01*
X151998061Y-55335000D01*
X152201939Y-55335000D01*
X152401898Y-55295226D01*
X152590256Y-55217205D01*
X152759774Y-55103937D01*
X152903937Y-54959774D01*
X153017205Y-54790256D01*
X153095226Y-54601898D01*
X153135000Y-54401939D01*
X153135000Y-54339802D01*
X153389803Y-54084999D01*
X157710198Y-54084999D01*
X162736200Y-59111002D01*
X162759999Y-59140001D01*
X162788997Y-59163799D01*
X162875723Y-59234974D01*
X162996373Y-59299463D01*
X163007753Y-59305546D01*
X163062761Y-59322232D01*
X162993815Y-59378815D01*
X162915225Y-59474577D01*
X162817882Y-59409534D01*
X162474834Y-59267439D01*
X162110656Y-59195000D01*
X161739344Y-59195000D01*
X161375166Y-59267439D01*
X161032118Y-59409534D01*
X160723382Y-59615825D01*
X160540000Y-59799207D01*
X160356618Y-59615825D01*
X160047882Y-59409534D01*
X159704834Y-59267439D01*
X159340656Y-59195000D01*
X158969344Y-59195000D01*
X158605166Y-59267439D01*
X158262118Y-59409534D01*
X157953382Y-59615825D01*
X157770000Y-59799207D01*
X157586618Y-59615825D01*
X157277882Y-59409534D01*
X157145000Y-59354493D01*
X157145000Y-59349556D01*
X157148676Y-59312234D01*
X157145000Y-59274911D01*
X157145000Y-59274901D01*
X157134003Y-59163248D01*
X157090546Y-59019987D01*
X157039387Y-58924276D01*
X157019974Y-58887957D01*
X156948799Y-58801231D01*
X156925001Y-58772233D01*
X156896002Y-58748435D01*
X156632361Y-58484793D01*
X156595226Y-58298102D01*
X156517205Y-58109744D01*
X156403937Y-57940226D01*
X156259774Y-57796063D01*
X156090256Y-57682795D01*
X155901898Y-57604774D01*
X155701939Y-57565000D01*
X155498061Y-57565000D01*
X155298102Y-57604774D01*
X155109744Y-57682795D01*
X154940226Y-57796063D01*
X154796063Y-57940226D01*
X154682795Y-58109744D01*
X154626193Y-58246392D01*
X154368804Y-57989003D01*
X154345001Y-57959999D01*
X154229276Y-57865026D01*
X154097247Y-57794454D01*
X153953986Y-57750997D01*
X153842333Y-57740000D01*
X153842322Y-57740000D01*
X153805000Y-57736324D01*
X153767678Y-57740000D01*
X134742157Y-57740000D01*
X134814808Y-57539413D01*
X133859000Y-56583605D01*
X132903192Y-57539413D01*
X132975843Y-57740000D01*
X128437323Y-57740000D01*
X128400000Y-57736324D01*
X128362677Y-57740000D01*
X128362667Y-57740000D01*
X128251014Y-57750997D01*
X128107753Y-57794454D01*
X127975724Y-57865026D01*
X127859999Y-57959999D01*
X127836201Y-57988997D01*
X125689003Y-60136196D01*
X125659999Y-60159999D01*
X125620809Y-60207753D01*
X125565026Y-60275724D01*
X125524782Y-60351015D01*
X125494454Y-60407754D01*
X125450997Y-60551015D01*
X125440000Y-60662668D01*
X125440000Y-60662678D01*
X125436324Y-60700000D01*
X124135000Y-60700000D01*
X124135000Y-56466595D01*
X132217282Y-56466595D01*
X132261039Y-56785675D01*
X132366205Y-57090088D01*
X132459186Y-57264044D01*
X132723587Y-57359808D01*
X133679395Y-56404000D01*
X134038605Y-56404000D01*
X134994413Y-57359808D01*
X135258814Y-57264044D01*
X135399704Y-56974429D01*
X135481384Y-56662892D01*
X135500718Y-56341405D01*
X135456961Y-56022325D01*
X135351795Y-55717912D01*
X135258814Y-55543956D01*
X134994413Y-55448192D01*
X134038605Y-56404000D01*
X133679395Y-56404000D01*
X132723587Y-55448192D01*
X132459186Y-55543956D01*
X132318296Y-55833571D01*
X132236616Y-56145108D01*
X132217282Y-56466595D01*
X124135000Y-56466595D01*
X124135000Y-55268587D01*
X132903192Y-55268587D01*
X133859000Y-56224395D01*
X134814808Y-55268587D01*
X134719044Y-55004186D01*
X134429429Y-54863296D01*
X134117892Y-54781616D01*
X133796405Y-54762282D01*
X133477325Y-54806039D01*
X133172912Y-54911205D01*
X132998956Y-55004186D01*
X132903192Y-55268587D01*
X124135000Y-55268587D01*
X124135000Y-54049872D01*
X141598450Y-54049872D01*
X141598450Y-54490128D01*
X141684340Y-54921925D01*
X141852819Y-55328669D01*
X142097412Y-55694729D01*
X142408721Y-56006038D01*
X142774781Y-56250631D01*
X143181525Y-56419110D01*
X143613322Y-56505000D01*
X144053578Y-56505000D01*
X144485375Y-56419110D01*
X144892119Y-56250631D01*
X145258179Y-56006038D01*
X145564465Y-55699752D01*
X146829853Y-55699752D01*
X146919579Y-55959042D01*
X147200671Y-56094935D01*
X147502873Y-56173379D01*
X147814573Y-56191359D01*
X148123791Y-56148184D01*
X148418644Y-56045513D01*
X148580421Y-55959042D01*
X148670147Y-55699752D01*
X147750000Y-54779605D01*
X146829853Y-55699752D01*
X145564465Y-55699752D01*
X145569488Y-55694729D01*
X145814081Y-55328669D01*
X145982560Y-54921925D01*
X146033750Y-54664573D01*
X146158641Y-54664573D01*
X146201816Y-54973791D01*
X146304487Y-55268644D01*
X146390958Y-55430421D01*
X146650248Y-55520147D01*
X147570395Y-54600000D01*
X147929605Y-54600000D01*
X148849752Y-55520147D01*
X149109042Y-55430421D01*
X149244935Y-55149329D01*
X149323379Y-54847127D01*
X149341359Y-54535427D01*
X149298184Y-54226209D01*
X149195513Y-53931356D01*
X149109042Y-53769579D01*
X148849752Y-53679853D01*
X147929605Y-54600000D01*
X147570395Y-54600000D01*
X146650248Y-53679853D01*
X146390958Y-53769579D01*
X146255065Y-54050671D01*
X146176621Y-54352873D01*
X146158641Y-54664573D01*
X146033750Y-54664573D01*
X146068450Y-54490128D01*
X146068450Y-54049872D01*
X145982560Y-53618075D01*
X145933755Y-53500248D01*
X146829853Y-53500248D01*
X147750000Y-54420395D01*
X148670147Y-53500248D01*
X148580421Y-53240958D01*
X148299329Y-53105065D01*
X147997127Y-53026621D01*
X147685427Y-53008641D01*
X147376209Y-53051816D01*
X147081356Y-53154487D01*
X146919579Y-53240958D01*
X146829853Y-53500248D01*
X145933755Y-53500248D01*
X145814081Y-53211331D01*
X145569488Y-52845271D01*
X145258179Y-52533962D01*
X144892119Y-52289369D01*
X144485375Y-52120890D01*
X144053578Y-52035000D01*
X143613322Y-52035000D01*
X143181525Y-52120890D01*
X142774781Y-52289369D01*
X142408721Y-52533962D01*
X142097412Y-52845271D01*
X141852819Y-53211331D01*
X141684340Y-53618075D01*
X141598450Y-54049872D01*
X124135000Y-54049872D01*
X124135000Y-52622279D01*
X124173909Y-52225455D01*
X124279780Y-51874792D01*
X124451744Y-51551375D01*
X124683254Y-51267516D01*
X124965486Y-51034035D01*
X125287695Y-50859817D01*
X125637614Y-50751498D01*
X126032443Y-50710000D01*
X153524727Y-50710000D01*
X153505065Y-50750671D01*
X153505065Y-50750671D01*
G37*
X153505065Y-50750671D02*
X153426621Y-51052873D01*
X153408641Y-51364573D01*
X153451816Y-51673791D01*
X153554487Y-51968644D01*
X153640958Y-52130421D01*
X153900248Y-52220147D01*
X154820395Y-51300000D01*
X154806253Y-51285858D01*
X154985858Y-51106253D01*
X155000000Y-51120395D01*
X155014143Y-51106253D01*
X155193748Y-51285858D01*
X155179605Y-51300000D01*
X156099752Y-52220147D01*
X156359042Y-52130421D01*
X156494935Y-51849329D01*
X156573379Y-51547127D01*
X156591359Y-51235427D01*
X156548184Y-50926209D01*
X156472898Y-50710000D01*
X183952721Y-50710000D01*
X184349545Y-50748909D01*
X184700208Y-50854780D01*
X185023625Y-51026744D01*
X185307484Y-51258254D01*
X185540965Y-51540486D01*
X185715183Y-51862695D01*
X185823502Y-52212614D01*
X185865000Y-52607443D01*
X185865001Y-72377711D01*
X185826091Y-72774545D01*
X185720220Y-73125206D01*
X185548257Y-73448623D01*
X185316748Y-73732482D01*
X185034514Y-73965965D01*
X184712304Y-74140184D01*
X184362385Y-74248502D01*
X183967557Y-74290000D01*
X156475273Y-74290000D01*
X156494935Y-74249329D01*
X156573379Y-73947127D01*
X156591359Y-73635427D01*
X156548184Y-73326209D01*
X156445513Y-73031356D01*
X156359042Y-72869579D01*
X156099752Y-72779853D01*
X155179605Y-73700000D01*
X155193748Y-73714143D01*
X155014143Y-73893748D01*
X155000000Y-73879605D01*
X154985858Y-73893748D01*
X154806253Y-73714143D01*
X154820395Y-73700000D01*
X153900248Y-72779853D01*
X153640958Y-72869579D01*
X153505065Y-73150671D01*
X153426621Y-73452873D01*
X153408641Y-73764573D01*
X153451816Y-74073791D01*
X153527102Y-74290000D01*
X126047279Y-74290000D01*
X125650455Y-74251091D01*
X125299794Y-74145220D01*
X124976377Y-73973257D01*
X124692518Y-73741748D01*
X124459035Y-73459514D01*
X124284816Y-73137304D01*
X124176498Y-72787385D01*
X124135000Y-72392557D01*
X124135000Y-70509872D01*
X141598450Y-70509872D01*
X141598450Y-70950128D01*
X141684340Y-71381925D01*
X141852819Y-71788669D01*
X142097412Y-72154729D01*
X142408721Y-72466038D01*
X142774781Y-72710631D01*
X143181525Y-72879110D01*
X143613322Y-72965000D01*
X144053578Y-72965000D01*
X144485375Y-72879110D01*
X144892119Y-72710631D01*
X145057319Y-72600248D01*
X154079853Y-72600248D01*
X155000000Y-73520395D01*
X155920147Y-72600248D01*
X155830421Y-72340958D01*
X155549329Y-72205065D01*
X155247127Y-72126621D01*
X154935427Y-72108641D01*
X154626209Y-72151816D01*
X154331356Y-72254487D01*
X154169579Y-72340958D01*
X154079853Y-72600248D01*
X145057319Y-72600248D01*
X145258179Y-72466038D01*
X145569488Y-72154729D01*
X145814081Y-71788669D01*
X145933754Y-71499752D01*
X146829853Y-71499752D01*
X146919579Y-71759042D01*
X147200671Y-71894935D01*
X147502873Y-71973379D01*
X147814573Y-71991359D01*
X148123791Y-71948184D01*
X148418644Y-71845513D01*
X148580421Y-71759042D01*
X148670147Y-71499752D01*
X161329853Y-71499752D01*
X161419579Y-71759042D01*
X161700671Y-71894935D01*
X162002873Y-71973379D01*
X162314573Y-71991359D01*
X162623791Y-71948184D01*
X162918644Y-71845513D01*
X163080421Y-71759042D01*
X163170147Y-71499752D01*
X162250000Y-70579605D01*
X161329853Y-71499752D01*
X148670147Y-71499752D01*
X147750000Y-70579605D01*
X146829853Y-71499752D01*
X145933754Y-71499752D01*
X145982560Y-71381925D01*
X146068450Y-70950128D01*
X146068450Y-70509872D01*
X146059440Y-70464573D01*
X146158641Y-70464573D01*
X146201816Y-70773791D01*
X146304487Y-71068644D01*
X146390958Y-71230421D01*
X146650248Y-71320147D01*
X147570395Y-70400000D01*
X147929605Y-70400000D01*
X148849752Y-71320147D01*
X149109042Y-71230421D01*
X149244935Y-70949329D01*
X149323379Y-70647127D01*
X149333909Y-70464573D01*
X160658641Y-70464573D01*
X160701816Y-70773791D01*
X160804487Y-71068644D01*
X160890958Y-71230421D01*
X161150248Y-71320147D01*
X162070395Y-70400000D01*
X162429605Y-70400000D01*
X163349752Y-71320147D01*
X163609042Y-71230421D01*
X163744935Y-70949329D01*
X163823379Y-70647127D01*
X163831296Y-70509872D01*
X163931550Y-70509872D01*
X163931550Y-70950128D01*
X164017440Y-71381925D01*
X164185919Y-71788669D01*
X164430512Y-72154729D01*
X164741821Y-72466038D01*
X165107881Y-72710631D01*
X165514625Y-72879110D01*
X165946422Y-72965000D01*
X166386678Y-72965000D01*
X166818475Y-72879110D01*
X167225219Y-72710631D01*
X167591279Y-72466038D01*
X167902588Y-72154729D01*
X168147181Y-71788669D01*
X168315660Y-71381925D01*
X168401550Y-70950128D01*
X168401550Y-70509872D01*
X168315660Y-70078075D01*
X168147181Y-69671331D01*
X167902588Y-69305271D01*
X167591279Y-68993962D01*
X167225219Y-68749369D01*
X166818475Y-68580890D01*
X166386678Y-68495000D01*
X165946422Y-68495000D01*
X165514625Y-68580890D01*
X165107881Y-68749369D01*
X164741821Y-68993962D01*
X164430512Y-69305271D01*
X164185919Y-69671331D01*
X164017440Y-70078075D01*
X163931550Y-70509872D01*
X163831296Y-70509872D01*
X163841359Y-70335427D01*
X163798184Y-70026209D01*
X163695513Y-69731356D01*
X163609042Y-69569579D01*
X163349752Y-69479853D01*
X162429605Y-70400000D01*
X162070395Y-70400000D01*
X161150248Y-69479853D01*
X160890958Y-69569579D01*
X160755065Y-69850671D01*
X160676621Y-70152873D01*
X160658641Y-70464573D01*
X149333909Y-70464573D01*
X149341359Y-70335427D01*
X149298184Y-70026209D01*
X149195513Y-69731356D01*
X149109042Y-69569579D01*
X148849752Y-69479853D01*
X147929605Y-70400000D01*
X147570395Y-70400000D01*
X146650248Y-69479853D01*
X146390958Y-69569579D01*
X146255065Y-69850671D01*
X146176621Y-70152873D01*
X146158641Y-70464573D01*
X146059440Y-70464573D01*
X145982560Y-70078075D01*
X145814081Y-69671331D01*
X145569488Y-69305271D01*
X145564465Y-69300248D01*
X146829853Y-69300248D01*
X147750000Y-70220395D01*
X148670147Y-69300248D01*
X161329853Y-69300248D01*
X162250000Y-70220395D01*
X163170147Y-69300248D01*
X163080421Y-69040958D01*
X162799329Y-68905065D01*
X162497127Y-68826621D01*
X162185427Y-68808641D01*
X161876209Y-68851816D01*
X161581356Y-68954487D01*
X161419579Y-69040958D01*
X161329853Y-69300248D01*
X148670147Y-69300248D01*
X148580421Y-69040958D01*
X148299329Y-68905065D01*
X147997127Y-68826621D01*
X147685427Y-68808641D01*
X147376209Y-68851816D01*
X147081356Y-68954487D01*
X146919579Y-69040958D01*
X146829853Y-69300248D01*
X145564465Y-69300248D01*
X145258179Y-68993962D01*
X144892119Y-68749369D01*
X144485375Y-68580890D01*
X144053578Y-68495000D01*
X143613322Y-68495000D01*
X143181525Y-68580890D01*
X142774781Y-68749369D01*
X142408721Y-68993962D01*
X142097412Y-69305271D01*
X141852819Y-69671331D01*
X141684340Y-70078075D01*
X141598450Y-70509872D01*
X124135000Y-70509872D01*
X124135000Y-60700000D01*
X125436324Y-60700000D01*
X125440000Y-60737323D01*
X125440001Y-65217668D01*
X125436324Y-65255000D01*
X125440001Y-65292333D01*
X125448933Y-65383014D01*
X125450998Y-65403985D01*
X125494454Y-65547246D01*
X125565026Y-65679276D01*
X125636201Y-65766002D01*
X125660000Y-65795001D01*
X125688998Y-65818799D01*
X127974823Y-68104625D01*
X127968832Y-68119088D01*
X127906000Y-68434967D01*
X127906000Y-68757033D01*
X127968832Y-69072912D01*
X128092082Y-69370463D01*
X128271013Y-69638252D01*
X128498748Y-69865987D01*
X128766537Y-70044918D01*
X129064088Y-70168168D01*
X129379967Y-70231000D01*
X129702033Y-70231000D01*
X130017912Y-70168168D01*
X130315463Y-70044918D01*
X130583252Y-69865987D01*
X130810987Y-69638252D01*
X130989918Y-69370463D01*
X131113168Y-69072912D01*
X131176000Y-68757033D01*
X131176000Y-68434967D01*
X131113168Y-68119088D01*
X130989918Y-67821537D01*
X130810987Y-67553748D01*
X130583252Y-67326013D01*
X130315463Y-67147082D01*
X130017912Y-67023832D01*
X129702033Y-66961000D01*
X129379967Y-66961000D01*
X129064088Y-67023832D01*
X129049625Y-67029823D01*
X126960000Y-64940199D01*
X126960000Y-64234801D01*
X127768201Y-65043003D01*
X127791999Y-65072001D01*
X127907724Y-65166974D01*
X128039753Y-65237546D01*
X128066953Y-65245797D01*
X128092082Y-65306463D01*
X128271013Y-65574252D01*
X128498748Y-65801987D01*
X128766537Y-65980918D01*
X129064088Y-66104168D01*
X129379967Y-66167000D01*
X129702033Y-66167000D01*
X130017912Y-66104168D01*
X130315463Y-65980918D01*
X130583252Y-65801987D01*
X130810987Y-65574252D01*
X130864639Y-65493957D01*
X130876179Y-65531999D01*
X130894454Y-65592246D01*
X130965026Y-65724276D01*
X130999270Y-65766002D01*
X131059999Y-65840001D01*
X131089002Y-65863804D01*
X132093202Y-66868004D01*
X132117000Y-66897002D01*
X132145998Y-66920800D01*
X132232724Y-66991975D01*
X132292324Y-67023832D01*
X132364754Y-67062547D01*
X132508015Y-67106004D01*
X132619668Y-67117001D01*
X132619677Y-67117001D01*
X132657000Y-67120677D01*
X132694323Y-67117001D01*
X133157159Y-67117001D01*
X133084537Y-67147082D01*
X132816748Y-67326013D01*
X132589013Y-67553748D01*
X132410082Y-67821537D01*
X132286832Y-68119088D01*
X132224000Y-68434967D01*
X132224000Y-68757033D01*
X132286832Y-69072912D01*
X132410082Y-69370463D01*
X132589013Y-69638252D01*
X132816748Y-69865987D01*
X133084537Y-70044918D01*
X133382088Y-70168168D01*
X133697967Y-70231000D01*
X134020033Y-70231000D01*
X134335912Y-70168168D01*
X134633463Y-70044918D01*
X134901252Y-69865987D01*
X135128987Y-69638252D01*
X135307918Y-69370463D01*
X135431168Y-69072912D01*
X135494000Y-68757033D01*
X135494000Y-68434967D01*
X135431168Y-68119088D01*
X135307918Y-67821537D01*
X135128987Y-67553748D01*
X134901252Y-67326013D01*
X134633463Y-67147082D01*
X134560841Y-67117001D01*
X143084307Y-67117001D01*
X143121629Y-67120677D01*
X143158951Y-67117001D01*
X143158962Y-67117001D01*
X143270615Y-67106004D01*
X143413876Y-67062547D01*
X143545905Y-66991975D01*
X143661630Y-66897002D01*
X143685433Y-66867998D01*
X145328819Y-65224612D01*
X145488382Y-65384175D01*
X145797118Y-65590466D01*
X146140166Y-65732561D01*
X146504344Y-65805000D01*
X146875656Y-65805000D01*
X147239834Y-65732561D01*
X147372718Y-65677519D01*
X149506200Y-67811002D01*
X149529999Y-67840001D01*
X149645724Y-67934974D01*
X149777753Y-68005546D01*
X149921014Y-68049003D01*
X150032667Y-68060000D01*
X150032677Y-68060000D01*
X150070000Y-68063676D01*
X150107323Y-68060000D01*
X172569197Y-68060000D01*
X175391211Y-70882015D01*
X175415009Y-70911013D01*
X175530734Y-71005986D01*
X175662763Y-71076558D01*
X175806024Y-71120015D01*
X175917677Y-71131012D01*
X175917687Y-71131012D01*
X175955010Y-71134688D01*
X175992333Y-71131012D01*
X181991666Y-71131012D01*
X182028988Y-71134688D01*
X182066310Y-71131012D01*
X182066321Y-71131012D01*
X182177974Y-71120015D01*
X182321235Y-71076558D01*
X182453264Y-71005986D01*
X182568989Y-70911013D01*
X182592791Y-70882010D01*
X183311004Y-70163798D01*
X183340001Y-70140001D01*
X183434974Y-70024276D01*
X183505546Y-69892247D01*
X183549003Y-69748986D01*
X183560000Y-69637333D01*
X183560000Y-69637332D01*
X183563677Y-69600000D01*
X183560000Y-69562667D01*
X183560000Y-55937333D01*
X183563677Y-55900000D01*
X183549003Y-55751014D01*
X183505546Y-55607753D01*
X183434974Y-55475724D01*
X183363799Y-55388997D01*
X183340001Y-55359999D01*
X183311003Y-55336201D01*
X182042803Y-54068002D01*
X182019000Y-54038998D01*
X181903275Y-53944025D01*
X181771246Y-53873453D01*
X181627985Y-53829996D01*
X181516332Y-53818999D01*
X181516321Y-53818999D01*
X181478999Y-53815323D01*
X181441677Y-53818999D01*
X178558323Y-53818999D01*
X178521000Y-53815323D01*
X178483677Y-53818999D01*
X178483668Y-53818999D01*
X178372015Y-53829996D01*
X178228754Y-53873453D01*
X178096724Y-53944025D01*
X178077292Y-53959973D01*
X177981000Y-54038998D01*
X177957202Y-54067996D01*
X175689003Y-56336196D01*
X175659999Y-56359999D01*
X175623889Y-56404000D01*
X175565026Y-56475724D01*
X175549378Y-56505000D01*
X175494454Y-56607754D01*
X175450997Y-56751015D01*
X175440000Y-56862668D01*
X175440000Y-56862678D01*
X175436324Y-56900000D01*
X175440000Y-56937323D01*
X175440001Y-58692199D01*
X174836804Y-58089003D01*
X174813001Y-58059999D01*
X174697276Y-57965026D01*
X174565247Y-57894454D01*
X174421986Y-57850997D01*
X174310333Y-57840000D01*
X174310322Y-57840000D01*
X174273000Y-57836324D01*
X174235678Y-57840000D01*
X163614802Y-57840000D01*
X161929007Y-56154205D01*
X162002873Y-56173379D01*
X162314573Y-56191359D01*
X162623791Y-56148184D01*
X162918644Y-56045513D01*
X163080421Y-55959042D01*
X163170147Y-55699752D01*
X162250000Y-54779605D01*
X162235858Y-54793748D01*
X162056253Y-54614143D01*
X162070395Y-54600000D01*
X162429605Y-54600000D01*
X163349752Y-55520147D01*
X163609042Y-55430421D01*
X163744935Y-55149329D01*
X163823379Y-54847127D01*
X163841359Y-54535427D01*
X163798184Y-54226209D01*
X163736782Y-54049872D01*
X163931550Y-54049872D01*
X163931550Y-54490128D01*
X164017440Y-54921925D01*
X164185919Y-55328669D01*
X164430512Y-55694729D01*
X164741821Y-56006038D01*
X165107881Y-56250631D01*
X165514625Y-56419110D01*
X165946422Y-56505000D01*
X166386678Y-56505000D01*
X166818475Y-56419110D01*
X167225219Y-56250631D01*
X167591279Y-56006038D01*
X167902588Y-55694729D01*
X168147181Y-55328669D01*
X168315660Y-54921925D01*
X168401550Y-54490128D01*
X168401550Y-54049872D01*
X168315660Y-53618075D01*
X168147181Y-53211331D01*
X167902588Y-52845271D01*
X167591279Y-52533962D01*
X167225219Y-52289369D01*
X166818475Y-52120890D01*
X166386678Y-52035000D01*
X165946422Y-52035000D01*
X165514625Y-52120890D01*
X165107881Y-52289369D01*
X164741821Y-52533962D01*
X164430512Y-52845271D01*
X164185919Y-53211331D01*
X164017440Y-53618075D01*
X163931550Y-54049872D01*
X163736782Y-54049872D01*
X163695513Y-53931356D01*
X163609042Y-53769579D01*
X163349752Y-53679853D01*
X162429605Y-54600000D01*
X162070395Y-54600000D01*
X161150248Y-53679853D01*
X160890958Y-53769579D01*
X160755065Y-54050671D01*
X160676621Y-54352873D01*
X160658641Y-54664573D01*
X160694225Y-54919423D01*
X159275050Y-53500248D01*
X161329853Y-53500248D01*
X162250000Y-54420395D01*
X163170147Y-53500248D01*
X163080421Y-53240958D01*
X162799329Y-53105065D01*
X162497127Y-53026621D01*
X162185427Y-53008641D01*
X161876209Y-53051816D01*
X161581356Y-53154487D01*
X161419579Y-53240958D01*
X161329853Y-53500248D01*
X159275050Y-53500248D01*
X158588803Y-52814002D01*
X158565000Y-52784998D01*
X158449275Y-52690025D01*
X158317246Y-52619453D01*
X158173985Y-52575996D01*
X158062332Y-52564999D01*
X158062321Y-52564999D01*
X158024999Y-52561323D01*
X157987677Y-52564999D01*
X155862964Y-52564999D01*
X155920147Y-52399752D01*
X155000000Y-51479605D01*
X154079853Y-52399752D01*
X154137036Y-52564999D01*
X153112326Y-52564999D01*
X153075001Y-52561323D01*
X153037676Y-52564999D01*
X153037668Y-52564999D01*
X152926015Y-52575996D01*
X152782754Y-52619453D01*
X152650725Y-52690025D01*
X152535000Y-52784998D01*
X152511202Y-52813996D01*
X152060198Y-53265000D01*
X151998061Y-53265000D01*
X151798102Y-53304774D01*
X151609744Y-53382795D01*
X151440226Y-53496063D01*
X151296063Y-53640226D01*
X151182795Y-53809744D01*
X151104774Y-53998102D01*
X151065000Y-54198061D01*
X151065000Y-54401939D01*
X151104774Y-54601898D01*
X151182795Y-54790256D01*
X151296063Y-54959774D01*
X151440226Y-55103937D01*
X151609744Y-55217205D01*
X151798102Y-55295226D01*
X151998061Y-55335000D01*
X152201939Y-55335000D01*
X152401898Y-55295226D01*
X152590256Y-55217205D01*
X152759774Y-55103937D01*
X152903937Y-54959774D01*
X153017205Y-54790256D01*
X153095226Y-54601898D01*
X153135000Y-54401939D01*
X153135000Y-54339802D01*
X153389803Y-54084999D01*
X157710198Y-54084999D01*
X162736200Y-59111002D01*
X162759999Y-59140001D01*
X162788997Y-59163799D01*
X162875723Y-59234974D01*
X162996373Y-59299463D01*
X163007753Y-59305546D01*
X163062761Y-59322232D01*
X162993815Y-59378815D01*
X162915225Y-59474577D01*
X162817882Y-59409534D01*
X162474834Y-59267439D01*
X162110656Y-59195000D01*
X161739344Y-59195000D01*
X161375166Y-59267439D01*
X161032118Y-59409534D01*
X160723382Y-59615825D01*
X160540000Y-59799207D01*
X160356618Y-59615825D01*
X160047882Y-59409534D01*
X159704834Y-59267439D01*
X159340656Y-59195000D01*
X158969344Y-59195000D01*
X158605166Y-59267439D01*
X158262118Y-59409534D01*
X157953382Y-59615825D01*
X157770000Y-59799207D01*
X157586618Y-59615825D01*
X157277882Y-59409534D01*
X157145000Y-59354493D01*
X157145000Y-59349556D01*
X157148676Y-59312234D01*
X157145000Y-59274911D01*
X157145000Y-59274901D01*
X157134003Y-59163248D01*
X157090546Y-59019987D01*
X157039387Y-58924276D01*
X157019974Y-58887957D01*
X156948799Y-58801231D01*
X156925001Y-58772233D01*
X156896002Y-58748435D01*
X156632361Y-58484793D01*
X156595226Y-58298102D01*
X156517205Y-58109744D01*
X156403937Y-57940226D01*
X156259774Y-57796063D01*
X156090256Y-57682795D01*
X155901898Y-57604774D01*
X155701939Y-57565000D01*
X155498061Y-57565000D01*
X155298102Y-57604774D01*
X155109744Y-57682795D01*
X154940226Y-57796063D01*
X154796063Y-57940226D01*
X154682795Y-58109744D01*
X154626193Y-58246392D01*
X154368804Y-57989003D01*
X154345001Y-57959999D01*
X154229276Y-57865026D01*
X154097247Y-57794454D01*
X153953986Y-57750997D01*
X153842333Y-57740000D01*
X153842322Y-57740000D01*
X153805000Y-57736324D01*
X153767678Y-57740000D01*
X134742157Y-57740000D01*
X134814808Y-57539413D01*
X133859000Y-56583605D01*
X132903192Y-57539413D01*
X132975843Y-57740000D01*
X128437323Y-57740000D01*
X128400000Y-57736324D01*
X128362677Y-57740000D01*
X128362667Y-57740000D01*
X128251014Y-57750997D01*
X128107753Y-57794454D01*
X127975724Y-57865026D01*
X127859999Y-57959999D01*
X127836201Y-57988997D01*
X125689003Y-60136196D01*
X125659999Y-60159999D01*
X125620809Y-60207753D01*
X125565026Y-60275724D01*
X125524782Y-60351015D01*
X125494454Y-60407754D01*
X125450997Y-60551015D01*
X125440000Y-60662668D01*
X125440000Y-60662678D01*
X125436324Y-60700000D01*
X124135000Y-60700000D01*
X124135000Y-56466595D01*
X132217282Y-56466595D01*
X132261039Y-56785675D01*
X132366205Y-57090088D01*
X132459186Y-57264044D01*
X132723587Y-57359808D01*
X133679395Y-56404000D01*
X134038605Y-56404000D01*
X134994413Y-57359808D01*
X135258814Y-57264044D01*
X135399704Y-56974429D01*
X135481384Y-56662892D01*
X135500718Y-56341405D01*
X135456961Y-56022325D01*
X135351795Y-55717912D01*
X135258814Y-55543956D01*
X134994413Y-55448192D01*
X134038605Y-56404000D01*
X133679395Y-56404000D01*
X132723587Y-55448192D01*
X132459186Y-55543956D01*
X132318296Y-55833571D01*
X132236616Y-56145108D01*
X132217282Y-56466595D01*
X124135000Y-56466595D01*
X124135000Y-55268587D01*
X132903192Y-55268587D01*
X133859000Y-56224395D01*
X134814808Y-55268587D01*
X134719044Y-55004186D01*
X134429429Y-54863296D01*
X134117892Y-54781616D01*
X133796405Y-54762282D01*
X133477325Y-54806039D01*
X133172912Y-54911205D01*
X132998956Y-55004186D01*
X132903192Y-55268587D01*
X124135000Y-55268587D01*
X124135000Y-54049872D01*
X141598450Y-54049872D01*
X141598450Y-54490128D01*
X141684340Y-54921925D01*
X141852819Y-55328669D01*
X142097412Y-55694729D01*
X142408721Y-56006038D01*
X142774781Y-56250631D01*
X143181525Y-56419110D01*
X143613322Y-56505000D01*
X144053578Y-56505000D01*
X144485375Y-56419110D01*
X144892119Y-56250631D01*
X145258179Y-56006038D01*
X145564465Y-55699752D01*
X146829853Y-55699752D01*
X146919579Y-55959042D01*
X147200671Y-56094935D01*
X147502873Y-56173379D01*
X147814573Y-56191359D01*
X148123791Y-56148184D01*
X148418644Y-56045513D01*
X148580421Y-55959042D01*
X148670147Y-55699752D01*
X147750000Y-54779605D01*
X146829853Y-55699752D01*
X145564465Y-55699752D01*
X145569488Y-55694729D01*
X145814081Y-55328669D01*
X145982560Y-54921925D01*
X146033750Y-54664573D01*
X146158641Y-54664573D01*
X146201816Y-54973791D01*
X146304487Y-55268644D01*
X146390958Y-55430421D01*
X146650248Y-55520147D01*
X147570395Y-54600000D01*
X147929605Y-54600000D01*
X148849752Y-55520147D01*
X149109042Y-55430421D01*
X149244935Y-55149329D01*
X149323379Y-54847127D01*
X149341359Y-54535427D01*
X149298184Y-54226209D01*
X149195513Y-53931356D01*
X149109042Y-53769579D01*
X148849752Y-53679853D01*
X147929605Y-54600000D01*
X147570395Y-54600000D01*
X146650248Y-53679853D01*
X146390958Y-53769579D01*
X146255065Y-54050671D01*
X146176621Y-54352873D01*
X146158641Y-54664573D01*
X146033750Y-54664573D01*
X146068450Y-54490128D01*
X146068450Y-54049872D01*
X145982560Y-53618075D01*
X145933755Y-53500248D01*
X146829853Y-53500248D01*
X147750000Y-54420395D01*
X148670147Y-53500248D01*
X148580421Y-53240958D01*
X148299329Y-53105065D01*
X147997127Y-53026621D01*
X147685427Y-53008641D01*
X147376209Y-53051816D01*
X147081356Y-53154487D01*
X146919579Y-53240958D01*
X146829853Y-53500248D01*
X145933755Y-53500248D01*
X145814081Y-53211331D01*
X145569488Y-52845271D01*
X145258179Y-52533962D01*
X144892119Y-52289369D01*
X144485375Y-52120890D01*
X144053578Y-52035000D01*
X143613322Y-52035000D01*
X143181525Y-52120890D01*
X142774781Y-52289369D01*
X142408721Y-52533962D01*
X142097412Y-52845271D01*
X141852819Y-53211331D01*
X141684340Y-53618075D01*
X141598450Y-54049872D01*
X124135000Y-54049872D01*
X124135000Y-52622279D01*
X124173909Y-52225455D01*
X124279780Y-51874792D01*
X124451744Y-51551375D01*
X124683254Y-51267516D01*
X124965486Y-51034035D01*
X125287695Y-50859817D01*
X125637614Y-50751498D01*
X126032443Y-50710000D01*
X153524727Y-50710000D01*
X153505065Y-50750671D01*
G36*
X143330744Y-63405545D02*
G01*
X143296063Y-63440226D01*
X143182795Y-63609744D01*
X143104774Y-63798102D01*
X143065000Y-63998061D01*
X143065000Y-64201939D01*
X143104774Y-64401898D01*
X143182795Y-64590256D01*
X143296063Y-64759774D01*
X143440226Y-64903937D01*
X143475993Y-64927836D01*
X142806828Y-65597001D01*
X135106238Y-65597001D01*
X135128987Y-65574252D01*
X135307918Y-65306463D01*
X135431168Y-65008912D01*
X135494000Y-64693033D01*
X135494000Y-64370967D01*
X135431168Y-64055088D01*
X135425177Y-64040625D01*
X136180802Y-63285000D01*
X143210199Y-63285000D01*
X143330744Y-63405545D01*
X143330744Y-63405545D01*
G37*
X143330744Y-63405545D02*
X143296063Y-63440226D01*
X143182795Y-63609744D01*
X143104774Y-63798102D01*
X143065000Y-63998061D01*
X143065000Y-64201939D01*
X143104774Y-64401898D01*
X143182795Y-64590256D01*
X143296063Y-64759774D01*
X143440226Y-64903937D01*
X143475993Y-64927836D01*
X142806828Y-65597001D01*
X135106238Y-65597001D01*
X135128987Y-65574252D01*
X135307918Y-65306463D01*
X135431168Y-65008912D01*
X135494000Y-64693033D01*
X135494000Y-64370967D01*
X135431168Y-64055088D01*
X135425177Y-64040625D01*
X136180802Y-63285000D01*
X143210199Y-63285000D01*
X143330744Y-63405545D01*
G36*
X179323585Y-55448193D02*
G01*
X179059186Y-55543956D01*
X178918296Y-55833571D01*
X178836616Y-56145108D01*
X178817282Y-56466595D01*
X178861039Y-56785675D01*
X178966205Y-57090088D01*
X179059186Y-57264044D01*
X179323587Y-57359808D01*
X180279395Y-56404000D01*
X180265253Y-56389858D01*
X180444858Y-56210253D01*
X180459000Y-56224395D01*
X180473143Y-56210253D01*
X180652748Y-56389858D01*
X180638605Y-56404000D01*
X181594413Y-57359808D01*
X181858814Y-57264044D01*
X181999704Y-56974429D01*
X182040001Y-56820732D01*
X182040001Y-60035493D01*
X182031168Y-59991088D01*
X181907918Y-59693537D01*
X181728987Y-59425748D01*
X181501252Y-59198013D01*
X181233463Y-59019082D01*
X180935912Y-58895832D01*
X180620033Y-58833000D01*
X180297967Y-58833000D01*
X179982088Y-58895832D01*
X179684537Y-59019082D01*
X179416748Y-59198013D01*
X179189013Y-59425748D01*
X179010082Y-59693537D01*
X178886832Y-59991088D01*
X178824000Y-60306967D01*
X178824000Y-60629033D01*
X178886832Y-60944912D01*
X179010082Y-61242463D01*
X179189013Y-61510252D01*
X179416748Y-61737987D01*
X179684537Y-61916918D01*
X179982088Y-62040168D01*
X180297967Y-62103000D01*
X180620033Y-62103000D01*
X180935912Y-62040168D01*
X180950376Y-62034177D01*
X181589990Y-62673792D01*
X181589990Y-63350751D01*
X181501252Y-63262013D01*
X181233463Y-63083082D01*
X180935912Y-62959832D01*
X180620033Y-62897000D01*
X180297967Y-62897000D01*
X179982088Y-62959832D01*
X179684537Y-63083082D01*
X179416748Y-63262013D01*
X179189013Y-63489748D01*
X179010082Y-63757537D01*
X178886832Y-64055088D01*
X178824000Y-64370967D01*
X178824000Y-64693033D01*
X178886832Y-65008912D01*
X178892823Y-65023376D01*
X178776221Y-65139978D01*
X177658879Y-65139978D01*
X177713168Y-65008912D01*
X177776000Y-64693033D01*
X177776000Y-64370967D01*
X177713168Y-64055088D01*
X177589918Y-63757537D01*
X177410987Y-63489748D01*
X177183252Y-63262013D01*
X176915463Y-63083082D01*
X176617912Y-62959832D01*
X176302033Y-62897000D01*
X175979967Y-62897000D01*
X175664088Y-62959832D01*
X175366537Y-63083082D01*
X175098748Y-63262013D01*
X174871013Y-63489748D01*
X174692082Y-63757537D01*
X174568832Y-64055088D01*
X174506000Y-64370967D01*
X174506000Y-64693033D01*
X174568832Y-65008912D01*
X174623121Y-65139978D01*
X164755815Y-65139978D01*
X164774175Y-65121618D01*
X164980466Y-64812882D01*
X165122561Y-64469834D01*
X165195000Y-64105656D01*
X165195000Y-63734344D01*
X165122561Y-63370166D01*
X164980466Y-63027118D01*
X164854809Y-62839059D01*
X164980750Y-62965000D01*
X165945000Y-62968072D01*
X166069482Y-62955812D01*
X166189180Y-62919502D01*
X166299494Y-62860537D01*
X166396185Y-62781185D01*
X166475537Y-62684494D01*
X166534502Y-62574180D01*
X166570812Y-62454482D01*
X166583072Y-62330000D01*
X166580000Y-61365750D01*
X166421250Y-61207000D01*
X164822000Y-61207000D01*
X164822000Y-61227000D01*
X164568000Y-61227000D01*
X164568000Y-61207000D01*
X164548000Y-61207000D01*
X164548000Y-60953000D01*
X164568000Y-60953000D01*
X164568000Y-60933000D01*
X164822000Y-60933000D01*
X164822000Y-60953000D01*
X166421250Y-60953000D01*
X166580000Y-60794250D01*
X166583072Y-59830000D01*
X166570812Y-59705518D01*
X166534502Y-59585820D01*
X166475537Y-59475506D01*
X166396185Y-59378815D01*
X166373259Y-59360000D01*
X173958199Y-59360000D01*
X174574823Y-59976624D01*
X174568832Y-59991088D01*
X174506000Y-60306967D01*
X174506000Y-60629033D01*
X174568832Y-60944912D01*
X174692082Y-61242463D01*
X174871013Y-61510252D01*
X175098748Y-61737987D01*
X175366537Y-61916918D01*
X175664088Y-62040168D01*
X175979967Y-62103000D01*
X176302033Y-62103000D01*
X176617912Y-62040168D01*
X176915463Y-61916918D01*
X177183252Y-61737987D01*
X177410987Y-61510252D01*
X177589918Y-61242463D01*
X177713168Y-60944912D01*
X177776000Y-60629033D01*
X177776000Y-60306967D01*
X177713168Y-59991088D01*
X177589918Y-59693537D01*
X177410987Y-59425748D01*
X177183252Y-59198013D01*
X176960000Y-59048841D01*
X176960000Y-57539413D01*
X179503192Y-57539413D01*
X179598956Y-57803814D01*
X179888571Y-57944704D01*
X180200108Y-58026384D01*
X180521595Y-58045718D01*
X180840675Y-58001961D01*
X181145088Y-57896795D01*
X181319044Y-57803814D01*
X181414808Y-57539413D01*
X180459000Y-56583605D01*
X179503192Y-57539413D01*
X176960000Y-57539413D01*
X176960000Y-57214801D01*
X178835803Y-55338999D01*
X179214391Y-55338999D01*
X179323585Y-55448193D01*
X179323585Y-55448193D01*
G37*
X179323585Y-55448193D02*
X179059186Y-55543956D01*
X178918296Y-55833571D01*
X178836616Y-56145108D01*
X178817282Y-56466595D01*
X178861039Y-56785675D01*
X178966205Y-57090088D01*
X179059186Y-57264044D01*
X179323587Y-57359808D01*
X180279395Y-56404000D01*
X180265253Y-56389858D01*
X180444858Y-56210253D01*
X180459000Y-56224395D01*
X180473143Y-56210253D01*
X180652748Y-56389858D01*
X180638605Y-56404000D01*
X181594413Y-57359808D01*
X181858814Y-57264044D01*
X181999704Y-56974429D01*
X182040001Y-56820732D01*
X182040001Y-60035493D01*
X182031168Y-59991088D01*
X181907918Y-59693537D01*
X181728987Y-59425748D01*
X181501252Y-59198013D01*
X181233463Y-59019082D01*
X180935912Y-58895832D01*
X180620033Y-58833000D01*
X180297967Y-58833000D01*
X179982088Y-58895832D01*
X179684537Y-59019082D01*
X179416748Y-59198013D01*
X179189013Y-59425748D01*
X179010082Y-59693537D01*
X178886832Y-59991088D01*
X178824000Y-60306967D01*
X178824000Y-60629033D01*
X178886832Y-60944912D01*
X179010082Y-61242463D01*
X179189013Y-61510252D01*
X179416748Y-61737987D01*
X179684537Y-61916918D01*
X179982088Y-62040168D01*
X180297967Y-62103000D01*
X180620033Y-62103000D01*
X180935912Y-62040168D01*
X180950376Y-62034177D01*
X181589990Y-62673792D01*
X181589990Y-63350751D01*
X181501252Y-63262013D01*
X181233463Y-63083082D01*
X180935912Y-62959832D01*
X180620033Y-62897000D01*
X180297967Y-62897000D01*
X179982088Y-62959832D01*
X179684537Y-63083082D01*
X179416748Y-63262013D01*
X179189013Y-63489748D01*
X179010082Y-63757537D01*
X178886832Y-64055088D01*
X178824000Y-64370967D01*
X178824000Y-64693033D01*
X178886832Y-65008912D01*
X178892823Y-65023376D01*
X178776221Y-65139978D01*
X177658879Y-65139978D01*
X177713168Y-65008912D01*
X177776000Y-64693033D01*
X177776000Y-64370967D01*
X177713168Y-64055088D01*
X177589918Y-63757537D01*
X177410987Y-63489748D01*
X177183252Y-63262013D01*
X176915463Y-63083082D01*
X176617912Y-62959832D01*
X176302033Y-62897000D01*
X175979967Y-62897000D01*
X175664088Y-62959832D01*
X175366537Y-63083082D01*
X175098748Y-63262013D01*
X174871013Y-63489748D01*
X174692082Y-63757537D01*
X174568832Y-64055088D01*
X174506000Y-64370967D01*
X174506000Y-64693033D01*
X174568832Y-65008912D01*
X174623121Y-65139978D01*
X164755815Y-65139978D01*
X164774175Y-65121618D01*
X164980466Y-64812882D01*
X165122561Y-64469834D01*
X165195000Y-64105656D01*
X165195000Y-63734344D01*
X165122561Y-63370166D01*
X164980466Y-63027118D01*
X164854809Y-62839059D01*
X164980750Y-62965000D01*
X165945000Y-62968072D01*
X166069482Y-62955812D01*
X166189180Y-62919502D01*
X166299494Y-62860537D01*
X166396185Y-62781185D01*
X166475537Y-62684494D01*
X166534502Y-62574180D01*
X166570812Y-62454482D01*
X166583072Y-62330000D01*
X166580000Y-61365750D01*
X166421250Y-61207000D01*
X164822000Y-61207000D01*
X164822000Y-61227000D01*
X164568000Y-61227000D01*
X164568000Y-61207000D01*
X164548000Y-61207000D01*
X164548000Y-60953000D01*
X164568000Y-60953000D01*
X164568000Y-60933000D01*
X164822000Y-60933000D01*
X164822000Y-60953000D01*
X166421250Y-60953000D01*
X166580000Y-60794250D01*
X166583072Y-59830000D01*
X166570812Y-59705518D01*
X166534502Y-59585820D01*
X166475537Y-59475506D01*
X166396185Y-59378815D01*
X166373259Y-59360000D01*
X173958199Y-59360000D01*
X174574823Y-59976624D01*
X174568832Y-59991088D01*
X174506000Y-60306967D01*
X174506000Y-60629033D01*
X174568832Y-60944912D01*
X174692082Y-61242463D01*
X174871013Y-61510252D01*
X175098748Y-61737987D01*
X175366537Y-61916918D01*
X175664088Y-62040168D01*
X175979967Y-62103000D01*
X176302033Y-62103000D01*
X176617912Y-62040168D01*
X176915463Y-61916918D01*
X177183252Y-61737987D01*
X177410987Y-61510252D01*
X177589918Y-61242463D01*
X177713168Y-60944912D01*
X177776000Y-60629033D01*
X177776000Y-60306967D01*
X177713168Y-59991088D01*
X177589918Y-59693537D01*
X177410987Y-59425748D01*
X177183252Y-59198013D01*
X176960000Y-59048841D01*
X176960000Y-57539413D01*
X179503192Y-57539413D01*
X179598956Y-57803814D01*
X179888571Y-57944704D01*
X180200108Y-58026384D01*
X180521595Y-58045718D01*
X180840675Y-58001961D01*
X181145088Y-57896795D01*
X181319044Y-57803814D01*
X181414808Y-57539413D01*
X180459000Y-56583605D01*
X179503192Y-57539413D01*
X176960000Y-57539413D01*
X176960000Y-57214801D01*
X178835803Y-55338999D01*
X179214391Y-55338999D01*
X179323585Y-55448193D01*
G36*
X132286832Y-59991088D02*
G01*
X132224000Y-60306967D01*
X132224000Y-60629033D01*
X132286832Y-60944912D01*
X132410082Y-61242463D01*
X132589013Y-61510252D01*
X132816748Y-61737987D01*
X133084537Y-61916918D01*
X133382088Y-62040168D01*
X133697967Y-62103000D01*
X134020033Y-62103000D01*
X134335912Y-62040168D01*
X134633463Y-61916918D01*
X134901252Y-61737987D01*
X135128987Y-61510252D01*
X135307918Y-61242463D01*
X135431168Y-60944912D01*
X135494000Y-60629033D01*
X135494000Y-60306967D01*
X135431168Y-59991088D01*
X135335448Y-59760000D01*
X143959207Y-59760000D01*
X143840825Y-59878382D01*
X143634534Y-60187118D01*
X143492439Y-60530166D01*
X143420000Y-60894344D01*
X143420000Y-61265656D01*
X143492439Y-61629834D01*
X143547836Y-61763573D01*
X143525000Y-61761324D01*
X143487678Y-61765000D01*
X135903333Y-61765000D01*
X135866000Y-61761323D01*
X135828667Y-61765000D01*
X135717014Y-61775997D01*
X135573753Y-61819454D01*
X135441724Y-61890026D01*
X135325999Y-61984999D01*
X135302201Y-62013997D01*
X134350375Y-62965823D01*
X134335912Y-62959832D01*
X134020033Y-62897000D01*
X133697967Y-62897000D01*
X133382088Y-62959832D01*
X133084537Y-63083082D01*
X132816748Y-63262013D01*
X132589013Y-63489748D01*
X132410082Y-63757537D01*
X132360000Y-63878445D01*
X132360000Y-62564325D01*
X132363676Y-62527000D01*
X132360000Y-62489675D01*
X132360000Y-62489667D01*
X132349003Y-62378014D01*
X132305546Y-62234753D01*
X132234974Y-62102724D01*
X132140001Y-61986999D01*
X132111003Y-61963201D01*
X131107177Y-60959376D01*
X131113168Y-60944912D01*
X131176000Y-60629033D01*
X131176000Y-60306967D01*
X131113168Y-59991088D01*
X131017448Y-59760000D01*
X132382552Y-59760000D01*
X132286832Y-59991088D01*
X132286832Y-59991088D01*
G37*
X132286832Y-59991088D02*
X132224000Y-60306967D01*
X132224000Y-60629033D01*
X132286832Y-60944912D01*
X132410082Y-61242463D01*
X132589013Y-61510252D01*
X132816748Y-61737987D01*
X133084537Y-61916918D01*
X133382088Y-62040168D01*
X133697967Y-62103000D01*
X134020033Y-62103000D01*
X134335912Y-62040168D01*
X134633463Y-61916918D01*
X134901252Y-61737987D01*
X135128987Y-61510252D01*
X135307918Y-61242463D01*
X135431168Y-60944912D01*
X135494000Y-60629033D01*
X135494000Y-60306967D01*
X135431168Y-59991088D01*
X135335448Y-59760000D01*
X143959207Y-59760000D01*
X143840825Y-59878382D01*
X143634534Y-60187118D01*
X143492439Y-60530166D01*
X143420000Y-60894344D01*
X143420000Y-61265656D01*
X143492439Y-61629834D01*
X143547836Y-61763573D01*
X143525000Y-61761324D01*
X143487678Y-61765000D01*
X135903333Y-61765000D01*
X135866000Y-61761323D01*
X135828667Y-61765000D01*
X135717014Y-61775997D01*
X135573753Y-61819454D01*
X135441724Y-61890026D01*
X135325999Y-61984999D01*
X135302201Y-62013997D01*
X134350375Y-62965823D01*
X134335912Y-62959832D01*
X134020033Y-62897000D01*
X133697967Y-62897000D01*
X133382088Y-62959832D01*
X133084537Y-63083082D01*
X132816748Y-63262013D01*
X132589013Y-63489748D01*
X132410082Y-63757537D01*
X132360000Y-63878445D01*
X132360000Y-62564325D01*
X132363676Y-62527000D01*
X132360000Y-62489675D01*
X132360000Y-62489667D01*
X132349003Y-62378014D01*
X132305546Y-62234753D01*
X132234974Y-62102724D01*
X132140001Y-61986999D01*
X132111003Y-61963201D01*
X131107177Y-60959376D01*
X131113168Y-60944912D01*
X131176000Y-60629033D01*
X131176000Y-60306967D01*
X131113168Y-59991088D01*
X131017448Y-59760000D01*
X132382552Y-59760000D01*
X132286832Y-59991088D01*
G36*
X127968832Y-60944912D02*
G01*
X128092082Y-61242463D01*
X128271013Y-61510252D01*
X128498748Y-61737987D01*
X128766537Y-61916918D01*
X129064088Y-62040168D01*
X129379967Y-62103000D01*
X129702033Y-62103000D01*
X130017912Y-62040168D01*
X130032376Y-62034177D01*
X130840001Y-62841803D01*
X130840001Y-63533170D01*
X130810987Y-63489748D01*
X130583252Y-63262013D01*
X130315463Y-63083082D01*
X130017912Y-62959832D01*
X129702033Y-62897000D01*
X129379967Y-62897000D01*
X129064088Y-62959832D01*
X128766537Y-63083082D01*
X128498748Y-63262013D01*
X128317781Y-63442980D01*
X127960000Y-63085199D01*
X127960000Y-60900510D01*
X127968832Y-60944912D01*
X127968832Y-60944912D01*
G37*
X127968832Y-60944912D02*
X128092082Y-61242463D01*
X128271013Y-61510252D01*
X128498748Y-61737987D01*
X128766537Y-61916918D01*
X129064088Y-62040168D01*
X129379967Y-62103000D01*
X129702033Y-62103000D01*
X130017912Y-62040168D01*
X130032376Y-62034177D01*
X130840001Y-62841803D01*
X130840001Y-63533170D01*
X130810987Y-63489748D01*
X130583252Y-63262013D01*
X130315463Y-63083082D01*
X130017912Y-62959832D01*
X129702033Y-62897000D01*
X129379967Y-62897000D01*
X129064088Y-62959832D01*
X128766537Y-63083082D01*
X128498748Y-63262013D01*
X128317781Y-63442980D01*
X127960000Y-63085199D01*
X127960000Y-60900510D01*
X127968832Y-60944912D01*
M02*
