G04 #@! TF.GenerationSoftware,KiCad,Pcbnew,(5.1.0)-1*
G04 #@! TF.CreationDate,2019-08-21T10:43:17-04:00*
G04 #@! TF.ProjectId,Front Plate,46726f6e-7420-4506-9c61-74652e6b6963,rev?*
G04 #@! TF.SameCoordinates,Original*
G04 #@! TF.FileFunction,Soldermask,Top*
G04 #@! TF.FilePolarity,Negative*
%FSLAX46Y46*%
G04 Gerber Fmt 4.6, Leading zero omitted, Abs format (unit mm)*
G04 Created by KiCad (PCBNEW (5.1.0)-1) date 2019-08-21 10:43:17*
%MOMM*%
%LPD*%
G04 APERTURE LIST*
%ADD10C,0.100000*%
G04 APERTURE END LIST*
D10*
G36*
X166541806Y-69121298D02*
G01*
X166648129Y-69142447D01*
X166948592Y-69266903D01*
X167219001Y-69447585D01*
X167448965Y-69677549D01*
X167629647Y-69947958D01*
X167754103Y-70248421D01*
X167817550Y-70567391D01*
X167817550Y-70892609D01*
X167754103Y-71211579D01*
X167629647Y-71512042D01*
X167448965Y-71782451D01*
X167219001Y-72012415D01*
X166948592Y-72193097D01*
X166648129Y-72317553D01*
X166541806Y-72338702D01*
X166329161Y-72381000D01*
X166003939Y-72381000D01*
X165791294Y-72338702D01*
X165684971Y-72317553D01*
X165384508Y-72193097D01*
X165114099Y-72012415D01*
X164884135Y-71782451D01*
X164703453Y-71512042D01*
X164578997Y-71211579D01*
X164515550Y-70892609D01*
X164515550Y-70567391D01*
X164578997Y-70248421D01*
X164703453Y-69947958D01*
X164884135Y-69677549D01*
X165114099Y-69447585D01*
X165384508Y-69266903D01*
X165684971Y-69142447D01*
X165791294Y-69121298D01*
X166003939Y-69079000D01*
X166329161Y-69079000D01*
X166541806Y-69121298D01*
X166541806Y-69121298D01*
G37*
G36*
X144208706Y-69121298D02*
G01*
X144315029Y-69142447D01*
X144615492Y-69266903D01*
X144885901Y-69447585D01*
X145115865Y-69677549D01*
X145296547Y-69947958D01*
X145421003Y-70248421D01*
X145484450Y-70567391D01*
X145484450Y-70892609D01*
X145421003Y-71211579D01*
X145296547Y-71512042D01*
X145115865Y-71782451D01*
X144885901Y-72012415D01*
X144615492Y-72193097D01*
X144315029Y-72317553D01*
X144208706Y-72338702D01*
X143996061Y-72381000D01*
X143670839Y-72381000D01*
X143458194Y-72338702D01*
X143351871Y-72317553D01*
X143051408Y-72193097D01*
X142780999Y-72012415D01*
X142551035Y-71782451D01*
X142370353Y-71512042D01*
X142245897Y-71211579D01*
X142182450Y-70892609D01*
X142182450Y-70567391D01*
X142245897Y-70248421D01*
X142370353Y-69947958D01*
X142551035Y-69677549D01*
X142780999Y-69447585D01*
X143051408Y-69266903D01*
X143351871Y-69142447D01*
X143458194Y-69121298D01*
X143670839Y-69079000D01*
X143996061Y-69079000D01*
X144208706Y-69121298D01*
X144208706Y-69121298D01*
G37*
G36*
X166541806Y-52661298D02*
G01*
X166648129Y-52682447D01*
X166948592Y-52806903D01*
X167219001Y-52987585D01*
X167448965Y-53217549D01*
X167629647Y-53487958D01*
X167754103Y-53788421D01*
X167817550Y-54107391D01*
X167817550Y-54432609D01*
X167754103Y-54751579D01*
X167629647Y-55052042D01*
X167448965Y-55322451D01*
X167219001Y-55552415D01*
X166948592Y-55733097D01*
X166648129Y-55857553D01*
X166541806Y-55878702D01*
X166329161Y-55921000D01*
X166003939Y-55921000D01*
X165791294Y-55878702D01*
X165684971Y-55857553D01*
X165384508Y-55733097D01*
X165114099Y-55552415D01*
X164884135Y-55322451D01*
X164703453Y-55052042D01*
X164578997Y-54751579D01*
X164515550Y-54432609D01*
X164515550Y-54107391D01*
X164578997Y-53788421D01*
X164703453Y-53487958D01*
X164884135Y-53217549D01*
X165114099Y-52987585D01*
X165384508Y-52806903D01*
X165684971Y-52682447D01*
X165791294Y-52661298D01*
X166003939Y-52619000D01*
X166329161Y-52619000D01*
X166541806Y-52661298D01*
X166541806Y-52661298D01*
G37*
G36*
X144208706Y-52661298D02*
G01*
X144315029Y-52682447D01*
X144615492Y-52806903D01*
X144885901Y-52987585D01*
X145115865Y-53217549D01*
X145296547Y-53487958D01*
X145421003Y-53788421D01*
X145484450Y-54107391D01*
X145484450Y-54432609D01*
X145421003Y-54751579D01*
X145296547Y-55052042D01*
X145115865Y-55322451D01*
X144885901Y-55552415D01*
X144615492Y-55733097D01*
X144315029Y-55857553D01*
X144208706Y-55878702D01*
X143996061Y-55921000D01*
X143670839Y-55921000D01*
X143458194Y-55878702D01*
X143351871Y-55857553D01*
X143051408Y-55733097D01*
X142780999Y-55552415D01*
X142551035Y-55322451D01*
X142370353Y-55052042D01*
X142245897Y-54751579D01*
X142182450Y-54432609D01*
X142182450Y-54107391D01*
X142245897Y-53788421D01*
X142370353Y-53487958D01*
X142551035Y-53217549D01*
X142780999Y-52987585D01*
X143051408Y-52806903D01*
X143351871Y-52682447D01*
X143458194Y-52661298D01*
X143670839Y-52619000D01*
X143996061Y-52619000D01*
X144208706Y-52661298D01*
X144208706Y-52661298D01*
G37*
M02*
