M48
; DRILL file {KiCad (5.1.0)-1} date 7/24/2019 9:39:53 PM
; FORMAT={-:-/ absolute / inch / decimal}
; #@! TF.CreationDate,2019-07-24T21:39:53-04:00
; #@! TF.GenerationSoftware,Kicad,Pcbnew,(5.1.0)-1
FMAT,2
INCH
T1C0.0157
T2C0.0472
T3C0.0787
T4C0.1260
%
G90
G05
T1
X3.5079Y-1.7441
X3.5079Y-1.7441
X3.5079Y-2.7244
X3.5079Y-2.7244
X3.5079Y-3.7047
X3.5079Y-3.7047
X3.5079Y-4.685
X3.5079Y-4.685
X3.9606Y-1.6457
X3.9606Y-1.6457
X3.9606Y-2.626
X3.9606Y-2.626
X3.9606Y-3.6063
X3.9606Y-3.6063
X3.9606Y-4.5866
X3.9606Y-4.5866
X4.0394Y-1.8268
X4.0394Y-1.8268
X4.0394Y-2.8071
X4.0394Y-2.8071
X4.0394Y-3.7874
X4.0394Y-3.7874
X4.0394Y-4.7677
X4.0394Y-4.7677
X4.1339Y-1.8071
X4.1339Y-1.8071
X4.1339Y-2.7874
X4.1339Y-2.7874
X4.1339Y-3.7677
X4.1339Y-3.7677
X4.1339Y-4.748
X4.1339Y-4.748
X4.2165Y-1.9055
X4.2165Y-1.9055
X4.2165Y-2.8858
X4.2165Y-2.8858
X4.2165Y-3.8661
X4.2165Y-3.8661
X4.2165Y-4.8465
X4.2165Y-4.8465
T2
X5.3953Y-4.605
X5.3953Y-4.765
X5.3953Y-4.925
X5.5653Y-4.445
X5.5653Y-4.605
X5.5653Y-4.765
X5.5653Y-4.925
X5.3953Y-1.6641
X5.3953Y-1.8241
X5.3953Y-1.9841
X5.5653Y-1.5041
X5.5653Y-1.6641
X5.5653Y-1.8241
X5.5653Y-1.9841
X3.5607Y-2.6444
X3.5607Y-2.8044
X3.5607Y-2.9644
X3.7307Y-2.4844
X3.7307Y-2.6444
X3.7307Y-2.8044
X3.7307Y-2.9644
X3.5607Y-3.6247
X3.5607Y-3.7847
X3.5607Y-3.9447
X3.7307Y-3.4647
X3.7307Y-3.6247
X3.7307Y-3.7847
X3.7307Y-3.9447
X5.3953Y-3.6247
X5.3953Y-3.7847
X5.3953Y-3.9447
X5.5653Y-3.4647
X5.5653Y-3.6247
X5.5653Y-3.7847
X5.5653Y-3.9447
X3.5607Y-1.6641
X3.5607Y-1.8241
X3.5607Y-1.9841
X3.7307Y-1.5041
X3.7307Y-1.6641
X3.7307Y-1.8241
X3.7307Y-1.9841
X5.3953Y-2.6444
X5.3953Y-2.8044
X5.3953Y-2.9644
X5.5653Y-2.4844
X5.5653Y-2.6444
X5.5653Y-2.8044
X5.5653Y-2.9644
X3.5607Y-4.605
X3.5607Y-4.765
X3.5607Y-4.925
X3.7307Y-4.445
X3.7307Y-4.605
X3.7307Y-4.765
X3.7307Y-4.925
T3
X4.1813Y-2.6685
X4.2358Y-2.7803
X4.2904Y-2.6685
X4.3449Y-2.7803
X4.3994Y-2.6685
X4.4539Y-2.7803
X4.5085Y-2.6685
X4.563Y-2.7803
X4.6175Y-2.6685
X4.672Y-2.7803
X4.7266Y-2.6685
X4.7811Y-2.7803
X4.8356Y-2.6685
X4.8902Y-2.7803
X4.9447Y-2.6685
X4.1813Y-3.6488
X4.2358Y-3.7606
X4.2904Y-3.6488
X4.3449Y-3.7606
X4.3994Y-3.6488
X4.4539Y-3.7606
X4.5085Y-3.6488
X4.563Y-3.7606
X4.6175Y-3.6488
X4.672Y-3.7606
X4.7266Y-3.6488
X4.7811Y-3.7606
X4.8356Y-3.6488
X4.8902Y-3.7606
X4.9447Y-3.6488
X4.1813Y-2.6685
X4.2358Y-2.7803
X4.2904Y-2.6685
X4.3449Y-2.7803
X4.3994Y-2.6685
X4.4539Y-2.7803
X4.5085Y-2.6685
X4.563Y-2.7803
X4.6175Y-2.6685
X4.672Y-2.7803
X4.7266Y-2.6685
X4.7811Y-2.7803
X4.8356Y-2.6685
X4.8902Y-2.7803
X4.9447Y-2.6685
X4.1813Y-3.6488
X4.2358Y-3.7606
X4.2904Y-3.6488
X4.3449Y-3.7606
X4.3994Y-3.6488
X4.4539Y-3.7606
X4.5085Y-3.6488
X4.563Y-3.7606
X4.6175Y-3.6488
X4.672Y-3.7606
X4.7266Y-3.6488
X4.7811Y-3.7606
X4.8356Y-3.6488
X4.8902Y-3.7606
X4.9447Y-3.6488
X4.1813Y-4.6291
X4.2358Y-4.7409
X4.2904Y-4.6291
X4.3449Y-4.7409
X4.3994Y-4.6291
X4.4539Y-4.7409
X4.5085Y-4.6291
X4.563Y-4.7409
X4.6175Y-4.6291
X4.672Y-4.7409
X4.7266Y-4.6291
X4.7811Y-4.7409
X4.8356Y-4.6291
X4.8902Y-4.7409
X4.9447Y-4.6291
X4.1813Y-1.6882
X4.2358Y-1.8
X4.2904Y-1.6882
X4.3449Y-1.8
X4.3994Y-1.6882
X4.4539Y-1.8
X4.5085Y-1.6882
X4.563Y-1.8
X4.6175Y-1.6882
X4.672Y-1.8
X4.7266Y-1.6882
X4.7811Y-1.8
X4.8356Y-1.6882
X4.8902Y-1.8
X4.9447Y-1.6882
X4.1813Y-1.6882
X4.2358Y-1.8
X4.2904Y-1.6882
X4.3449Y-1.8
X4.3994Y-1.6882
X4.4539Y-1.8
X4.5085Y-1.6882
X4.563Y-1.8
X4.6175Y-1.6882
X4.672Y-1.8
X4.7266Y-1.6882
X4.7811Y-1.8
X4.8356Y-1.6882
X4.8902Y-1.8
X4.9447Y-1.6882
X4.1813Y-4.6291
X4.2358Y-4.7409
X4.2904Y-4.6291
X4.3449Y-4.7409
X4.3994Y-4.6291
X4.4539Y-4.7409
X4.5085Y-4.6291
X4.563Y-4.7409
X4.6175Y-4.6291
X4.672Y-4.7409
X4.7266Y-4.6291
X4.7811Y-4.7409
X4.8356Y-4.6291
X4.8902Y-4.7409
X4.9447Y-4.6291
T4
X4.7609Y-5.0028
X6.2Y-4.3672
X6.5959Y-3.0421
X6.2Y-4.0224
X4.7609Y-3.3869
X6.5959Y-2.4066
X4.3651Y-2.0618
X6.5959Y-4.3672
X4.3651Y-2.0618
X4.7609Y-3.0421
X6.2Y-2.0618
X6.2Y-2.4066
X6.5959Y-1.4263
X4.7609Y-2.4066
X4.3651Y-1.4263
X4.3651Y-4.3672
X4.3651Y-5.0028
X4.3651Y-2.4066
X4.7609Y-2.0618
X4.7609Y-5.0028
X6.5959Y-2.0618
X4.7609Y-4.3672
X4.7609Y-2.4066
X4.7609Y-3.3869
X4.3651Y-1.4263
X4.3651Y-4.3672
X4.7609Y-3.0421
X6.2Y-4.0224
X6.2Y-1.4263
X6.5959Y-5.0028
X4.7609Y-4.0224
X6.2Y-1.4263
X6.5959Y-4.3672
X4.3651Y-2.4066
X6.5959Y-5.0028
X6.2Y-3.3869
X6.2Y-3.0421
X4.7609Y-4.0224
X6.5959Y-1.4263
X6.5959Y-2.4066
X6.5959Y-3.3869
X6.2Y-4.3672
X6.2Y-5.0028
X4.3651Y-3.0421
X6.5959Y-4.0224
X6.2Y-3.0421
X6.2Y-3.3869
X4.7609Y-2.0618
X4.3651Y-3.0421
X4.3651Y-5.0028
X6.5959Y-4.0224
X6.2Y-2.0618
X4.3651Y-4.0224
X4.3651Y-3.3869
X4.7609Y-1.4263
X6.5959Y-3.0421
X6.5959Y-2.0618
X6.5959Y-3.3869
X4.7609Y-1.4263
X4.7609Y-4.3672
X4.3651Y-3.3869
X6.2Y-2.4066
X6.2Y-5.0028
X4.3651Y-4.0224
T0
M30
