G04 #@! TF.GenerationSoftware,KiCad,Pcbnew,(5.1.0)-1*
G04 #@! TF.CreationDate,2019-07-24T21:39:47-04:00*
G04 #@! TF.ProjectId,Panel,50616e65-6c2e-46b6-9963-61645f706362,rev?*
G04 #@! TF.SameCoordinates,Original*
G04 #@! TF.FileFunction,Soldermask,Bot*
G04 #@! TF.FilePolarity,Negative*
%FSLAX46Y46*%
G04 Gerber Fmt 4.6, Leading zero omitted, Abs format (unit mm)*
G04 Created by KiCad (PCBNEW (5.1.0)-1) date 2019-07-24 21:39:47*
%MOMM*%
%LPD*%
G04 APERTURE LIST*
%ADD10C,0.100000*%
G04 APERTURE END LIST*
D10*
G36*
X167911056Y-125461298D02*
G01*
X168017379Y-125482447D01*
X168229837Y-125570450D01*
X168286289Y-125593833D01*
X168317842Y-125606903D01*
X168588251Y-125787585D01*
X168818215Y-126017549D01*
X168998897Y-126287958D01*
X169123353Y-126588421D01*
X169186800Y-126907391D01*
X169186800Y-127232609D01*
X169123353Y-127551579D01*
X168998897Y-127852042D01*
X168818215Y-128122451D01*
X168588251Y-128352415D01*
X168317842Y-128533097D01*
X168017379Y-128657553D01*
X167911056Y-128678702D01*
X167698411Y-128721000D01*
X167373189Y-128721000D01*
X167160544Y-128678702D01*
X167054221Y-128657553D01*
X166753758Y-128533097D01*
X166483349Y-128352415D01*
X166253385Y-128122451D01*
X166072703Y-127852042D01*
X165948247Y-127551579D01*
X165884800Y-127232609D01*
X165884800Y-126907391D01*
X165948247Y-126588421D01*
X166072703Y-126287958D01*
X166253385Y-126017549D01*
X166483349Y-125787585D01*
X166753758Y-125606903D01*
X166785312Y-125593833D01*
X166841763Y-125570450D01*
X167054221Y-125482447D01*
X167160544Y-125461298D01*
X167373189Y-125419000D01*
X167698411Y-125419000D01*
X167911056Y-125461298D01*
X167911056Y-125461298D01*
G37*
G36*
X121302956Y-125461298D02*
G01*
X121409279Y-125482447D01*
X121621737Y-125570450D01*
X121678189Y-125593833D01*
X121709742Y-125606903D01*
X121980151Y-125787585D01*
X122210115Y-126017549D01*
X122390797Y-126287958D01*
X122515253Y-126588421D01*
X122578700Y-126907391D01*
X122578700Y-127232609D01*
X122515253Y-127551579D01*
X122390797Y-127852042D01*
X122210115Y-128122451D01*
X121980151Y-128352415D01*
X121709742Y-128533097D01*
X121409279Y-128657553D01*
X121302956Y-128678702D01*
X121090311Y-128721000D01*
X120765089Y-128721000D01*
X120552444Y-128678702D01*
X120446121Y-128657553D01*
X120145658Y-128533097D01*
X119875249Y-128352415D01*
X119645285Y-128122451D01*
X119464603Y-127852042D01*
X119340147Y-127551579D01*
X119276700Y-127232609D01*
X119276700Y-126907391D01*
X119340147Y-126588421D01*
X119464603Y-126287958D01*
X119645285Y-126017549D01*
X119875249Y-125787585D01*
X120145658Y-125606903D01*
X120177212Y-125593833D01*
X120233663Y-125570450D01*
X120446121Y-125482447D01*
X120552444Y-125461298D01*
X120765089Y-125419000D01*
X121090311Y-125419000D01*
X121302956Y-125461298D01*
X121302956Y-125461298D01*
G37*
G36*
X111247556Y-125461298D02*
G01*
X111353879Y-125482447D01*
X111566337Y-125570450D01*
X111622789Y-125593833D01*
X111654342Y-125606903D01*
X111924751Y-125787585D01*
X112154715Y-126017549D01*
X112335397Y-126287958D01*
X112459853Y-126588421D01*
X112523300Y-126907391D01*
X112523300Y-127232609D01*
X112459853Y-127551579D01*
X112335397Y-127852042D01*
X112154715Y-128122451D01*
X111924751Y-128352415D01*
X111654342Y-128533097D01*
X111353879Y-128657553D01*
X111247556Y-128678702D01*
X111034911Y-128721000D01*
X110709689Y-128721000D01*
X110497044Y-128678702D01*
X110390721Y-128657553D01*
X110090258Y-128533097D01*
X109819849Y-128352415D01*
X109589885Y-128122451D01*
X109409203Y-127852042D01*
X109284747Y-127551579D01*
X109221300Y-127232609D01*
X109221300Y-126907391D01*
X109284747Y-126588421D01*
X109409203Y-126287958D01*
X109589885Y-126017549D01*
X109819849Y-125787585D01*
X110090258Y-125606903D01*
X110121812Y-125593833D01*
X110178263Y-125570450D01*
X110390721Y-125482447D01*
X110497044Y-125461298D01*
X110709689Y-125419000D01*
X111034911Y-125419000D01*
X111247556Y-125461298D01*
X111247556Y-125461298D01*
G37*
G36*
X157855656Y-125461298D02*
G01*
X157961979Y-125482447D01*
X158174437Y-125570450D01*
X158230889Y-125593833D01*
X158262442Y-125606903D01*
X158532851Y-125787585D01*
X158762815Y-126017549D01*
X158943497Y-126287958D01*
X159067953Y-126588421D01*
X159131400Y-126907391D01*
X159131400Y-127232609D01*
X159067953Y-127551579D01*
X158943497Y-127852042D01*
X158762815Y-128122451D01*
X158532851Y-128352415D01*
X158262442Y-128533097D01*
X157961979Y-128657553D01*
X157855656Y-128678702D01*
X157643011Y-128721000D01*
X157317789Y-128721000D01*
X157105144Y-128678702D01*
X156998821Y-128657553D01*
X156698358Y-128533097D01*
X156427949Y-128352415D01*
X156197985Y-128122451D01*
X156017303Y-127852042D01*
X155892847Y-127551579D01*
X155829400Y-127232609D01*
X155829400Y-126907391D01*
X155892847Y-126588421D01*
X156017303Y-126287958D01*
X156197985Y-126017549D01*
X156427949Y-125787585D01*
X156698358Y-125606903D01*
X156729912Y-125593833D01*
X156786363Y-125570450D01*
X156998821Y-125482447D01*
X157105144Y-125461298D01*
X157317789Y-125419000D01*
X157643011Y-125419000D01*
X157855656Y-125461298D01*
X157855656Y-125461298D01*
G37*
G36*
X141665564Y-124085389D02*
G01*
X141856833Y-124164615D01*
X141856835Y-124164616D01*
X142028973Y-124279635D01*
X142175365Y-124426027D01*
X142290385Y-124598167D01*
X142369611Y-124789436D01*
X142410000Y-124992484D01*
X142410000Y-125199516D01*
X142369611Y-125402564D01*
X142336522Y-125482447D01*
X142290384Y-125593835D01*
X142175365Y-125765973D01*
X142028973Y-125912365D01*
X141856835Y-126027384D01*
X141856834Y-126027385D01*
X141856833Y-126027385D01*
X141665564Y-126106611D01*
X141462516Y-126147000D01*
X141255484Y-126147000D01*
X141052436Y-126106611D01*
X140861167Y-126027385D01*
X140861166Y-126027385D01*
X140861165Y-126027384D01*
X140689027Y-125912365D01*
X140542635Y-125765973D01*
X140427616Y-125593835D01*
X140381478Y-125482447D01*
X140348389Y-125402564D01*
X140308000Y-125199516D01*
X140308000Y-124992484D01*
X140348389Y-124789436D01*
X140427615Y-124598167D01*
X140542635Y-124426027D01*
X140689027Y-124279635D01*
X140861165Y-124164616D01*
X140861167Y-124164615D01*
X141052436Y-124085389D01*
X141255484Y-124045000D01*
X141462516Y-124045000D01*
X141665564Y-124085389D01*
X141665564Y-124085389D01*
G37*
G36*
X90747564Y-124085389D02*
G01*
X90938833Y-124164615D01*
X90938835Y-124164616D01*
X91110973Y-124279635D01*
X91257365Y-124426027D01*
X91372385Y-124598167D01*
X91451611Y-124789436D01*
X91492000Y-124992484D01*
X91492000Y-125199516D01*
X91451611Y-125402564D01*
X91418522Y-125482447D01*
X91372384Y-125593835D01*
X91257365Y-125765973D01*
X91110973Y-125912365D01*
X90938835Y-126027384D01*
X90938834Y-126027385D01*
X90938833Y-126027385D01*
X90747564Y-126106611D01*
X90544516Y-126147000D01*
X90337484Y-126147000D01*
X90134436Y-126106611D01*
X89943167Y-126027385D01*
X89943166Y-126027385D01*
X89943165Y-126027384D01*
X89771027Y-125912365D01*
X89624635Y-125765973D01*
X89509616Y-125593835D01*
X89463478Y-125482447D01*
X89430389Y-125402564D01*
X89390000Y-125199516D01*
X89390000Y-124992484D01*
X89430389Y-124789436D01*
X89509615Y-124598167D01*
X89624635Y-124426027D01*
X89771027Y-124279635D01*
X89943165Y-124164616D01*
X89943167Y-124164615D01*
X90134436Y-124085389D01*
X90337484Y-124045000D01*
X90544516Y-124045000D01*
X90747564Y-124085389D01*
X90747564Y-124085389D01*
G37*
G36*
X95065564Y-124085389D02*
G01*
X95256833Y-124164615D01*
X95256835Y-124164616D01*
X95428973Y-124279635D01*
X95575365Y-124426027D01*
X95690385Y-124598167D01*
X95769611Y-124789436D01*
X95810000Y-124992484D01*
X95810000Y-125199516D01*
X95769611Y-125402564D01*
X95736522Y-125482447D01*
X95690384Y-125593835D01*
X95575365Y-125765973D01*
X95428973Y-125912365D01*
X95256835Y-126027384D01*
X95256834Y-126027385D01*
X95256833Y-126027385D01*
X95065564Y-126106611D01*
X94862516Y-126147000D01*
X94655484Y-126147000D01*
X94452436Y-126106611D01*
X94261167Y-126027385D01*
X94261166Y-126027385D01*
X94261165Y-126027384D01*
X94089027Y-125912365D01*
X93942635Y-125765973D01*
X93827616Y-125593835D01*
X93781478Y-125482447D01*
X93748389Y-125402564D01*
X93708000Y-125199516D01*
X93708000Y-124992484D01*
X93748389Y-124789436D01*
X93827615Y-124598167D01*
X93942635Y-124426027D01*
X94089027Y-124279635D01*
X94261165Y-124164616D01*
X94261167Y-124164615D01*
X94452436Y-124085389D01*
X94655484Y-124045000D01*
X94862516Y-124045000D01*
X95065564Y-124085389D01*
X95065564Y-124085389D01*
G37*
G36*
X137347564Y-124085389D02*
G01*
X137538833Y-124164615D01*
X137538835Y-124164616D01*
X137710973Y-124279635D01*
X137857365Y-124426027D01*
X137972385Y-124598167D01*
X138051611Y-124789436D01*
X138092000Y-124992484D01*
X138092000Y-125199516D01*
X138051611Y-125402564D01*
X138018522Y-125482447D01*
X137972384Y-125593835D01*
X137857365Y-125765973D01*
X137710973Y-125912365D01*
X137538835Y-126027384D01*
X137538834Y-126027385D01*
X137538833Y-126027385D01*
X137347564Y-126106611D01*
X137144516Y-126147000D01*
X136937484Y-126147000D01*
X136734436Y-126106611D01*
X136543167Y-126027385D01*
X136543166Y-126027385D01*
X136543165Y-126027384D01*
X136371027Y-125912365D01*
X136224635Y-125765973D01*
X136109616Y-125593835D01*
X136063478Y-125482447D01*
X136030389Y-125402564D01*
X135990000Y-125199516D01*
X135990000Y-124992484D01*
X136030389Y-124789436D01*
X136109615Y-124598167D01*
X136224635Y-124426027D01*
X136371027Y-124279635D01*
X136543165Y-124164616D01*
X136543167Y-124164615D01*
X136734436Y-124085389D01*
X136937484Y-124045000D01*
X137144516Y-124045000D01*
X137347564Y-124085389D01*
X137347564Y-124085389D01*
G37*
G36*
X95065564Y-120021389D02*
G01*
X95250085Y-120097820D01*
X95256835Y-120100616D01*
X95403228Y-120198433D01*
X95428973Y-120215635D01*
X95575365Y-120362027D01*
X95690385Y-120534167D01*
X95769611Y-120725436D01*
X95810000Y-120928484D01*
X95810000Y-121135516D01*
X95769611Y-121338564D01*
X95731508Y-121430553D01*
X95690384Y-121529835D01*
X95575365Y-121701973D01*
X95428973Y-121848365D01*
X95256835Y-121963384D01*
X95256834Y-121963385D01*
X95256833Y-121963385D01*
X95065564Y-122042611D01*
X94862516Y-122083000D01*
X94655484Y-122083000D01*
X94452436Y-122042611D01*
X94261167Y-121963385D01*
X94261166Y-121963385D01*
X94261165Y-121963384D01*
X94089027Y-121848365D01*
X93942635Y-121701973D01*
X93827616Y-121529835D01*
X93786492Y-121430553D01*
X93748389Y-121338564D01*
X93708000Y-121135516D01*
X93708000Y-120928484D01*
X93748389Y-120725436D01*
X93827615Y-120534167D01*
X93942635Y-120362027D01*
X94089027Y-120215635D01*
X94114772Y-120198433D01*
X94261165Y-120100616D01*
X94267915Y-120097820D01*
X94452436Y-120021389D01*
X94655484Y-119981000D01*
X94862516Y-119981000D01*
X95065564Y-120021389D01*
X95065564Y-120021389D01*
G37*
G36*
X137347564Y-120021389D02*
G01*
X137532085Y-120097820D01*
X137538835Y-120100616D01*
X137685228Y-120198433D01*
X137710973Y-120215635D01*
X137857365Y-120362027D01*
X137972385Y-120534167D01*
X138051611Y-120725436D01*
X138092000Y-120928484D01*
X138092000Y-121135516D01*
X138051611Y-121338564D01*
X138013508Y-121430553D01*
X137972384Y-121529835D01*
X137857365Y-121701973D01*
X137710973Y-121848365D01*
X137538835Y-121963384D01*
X137538834Y-121963385D01*
X137538833Y-121963385D01*
X137347564Y-122042611D01*
X137144516Y-122083000D01*
X136937484Y-122083000D01*
X136734436Y-122042611D01*
X136543167Y-121963385D01*
X136543166Y-121963385D01*
X136543165Y-121963384D01*
X136371027Y-121848365D01*
X136224635Y-121701973D01*
X136109616Y-121529835D01*
X136068492Y-121430553D01*
X136030389Y-121338564D01*
X135990000Y-121135516D01*
X135990000Y-120928484D01*
X136030389Y-120725436D01*
X136109615Y-120534167D01*
X136224635Y-120362027D01*
X136371027Y-120215635D01*
X136396772Y-120198433D01*
X136543165Y-120100616D01*
X136549915Y-120097820D01*
X136734436Y-120021389D01*
X136937484Y-119981000D01*
X137144516Y-119981000D01*
X137347564Y-120021389D01*
X137347564Y-120021389D01*
G37*
G36*
X141665564Y-120021389D02*
G01*
X141850085Y-120097820D01*
X141856835Y-120100616D01*
X142003228Y-120198433D01*
X142028973Y-120215635D01*
X142175365Y-120362027D01*
X142290385Y-120534167D01*
X142369611Y-120725436D01*
X142410000Y-120928484D01*
X142410000Y-121135516D01*
X142369611Y-121338564D01*
X142331508Y-121430553D01*
X142290384Y-121529835D01*
X142175365Y-121701973D01*
X142028973Y-121848365D01*
X141856835Y-121963384D01*
X141856834Y-121963385D01*
X141856833Y-121963385D01*
X141665564Y-122042611D01*
X141462516Y-122083000D01*
X141255484Y-122083000D01*
X141052436Y-122042611D01*
X140861167Y-121963385D01*
X140861166Y-121963385D01*
X140861165Y-121963384D01*
X140689027Y-121848365D01*
X140542635Y-121701973D01*
X140427616Y-121529835D01*
X140386492Y-121430553D01*
X140348389Y-121338564D01*
X140308000Y-121135516D01*
X140308000Y-120928484D01*
X140348389Y-120725436D01*
X140427615Y-120534167D01*
X140542635Y-120362027D01*
X140689027Y-120215635D01*
X140714772Y-120198433D01*
X140861165Y-120100616D01*
X140867915Y-120097820D01*
X141052436Y-120021389D01*
X141255484Y-119981000D01*
X141462516Y-119981000D01*
X141665564Y-120021389D01*
X141665564Y-120021389D01*
G37*
G36*
X90747564Y-120021389D02*
G01*
X90932085Y-120097820D01*
X90938835Y-120100616D01*
X91085228Y-120198433D01*
X91110973Y-120215635D01*
X91257365Y-120362027D01*
X91372385Y-120534167D01*
X91451611Y-120725436D01*
X91492000Y-120928484D01*
X91492000Y-121135516D01*
X91451611Y-121338564D01*
X91413508Y-121430553D01*
X91372384Y-121529835D01*
X91257365Y-121701973D01*
X91110973Y-121848365D01*
X90938835Y-121963384D01*
X90938834Y-121963385D01*
X90938833Y-121963385D01*
X90747564Y-122042611D01*
X90544516Y-122083000D01*
X90337484Y-122083000D01*
X90134436Y-122042611D01*
X89943167Y-121963385D01*
X89943166Y-121963385D01*
X89943165Y-121963384D01*
X89771027Y-121848365D01*
X89624635Y-121701973D01*
X89509616Y-121529835D01*
X89468492Y-121430553D01*
X89430389Y-121338564D01*
X89390000Y-121135516D01*
X89390000Y-120928484D01*
X89430389Y-120725436D01*
X89509615Y-120534167D01*
X89624635Y-120362027D01*
X89771027Y-120215635D01*
X89796772Y-120198433D01*
X89943165Y-120100616D01*
X89949915Y-120097820D01*
X90134436Y-120021389D01*
X90337484Y-119981000D01*
X90544516Y-119981000D01*
X90747564Y-120021389D01*
X90747564Y-120021389D01*
G37*
G36*
X124288170Y-119030385D02*
G01*
X124295283Y-119053834D01*
X124306834Y-119075445D01*
X124322379Y-119094387D01*
X124341321Y-119109932D01*
X124362932Y-119121483D01*
X124386381Y-119128596D01*
X124589487Y-119168996D01*
X124826253Y-119267068D01*
X124826255Y-119267069D01*
X125039339Y-119409447D01*
X125220553Y-119590661D01*
X125362932Y-119803747D01*
X125461004Y-120040513D01*
X125511000Y-120291861D01*
X125511000Y-120548139D01*
X125461004Y-120799487D01*
X125362932Y-121036253D01*
X125362931Y-121036255D01*
X125220553Y-121249339D01*
X125039339Y-121430553D01*
X124826255Y-121572931D01*
X124826254Y-121572932D01*
X124826253Y-121572932D01*
X124589487Y-121671004D01*
X124338139Y-121721000D01*
X124081861Y-121721000D01*
X123830513Y-121671004D01*
X123593747Y-121572932D01*
X123593746Y-121572932D01*
X123593745Y-121572931D01*
X123380661Y-121430553D01*
X123199447Y-121249339D01*
X123057069Y-121036255D01*
X123057068Y-121036253D01*
X122958996Y-120799487D01*
X122947597Y-120742180D01*
X122940484Y-120718731D01*
X122928933Y-120697120D01*
X122913388Y-120678179D01*
X122894446Y-120662633D01*
X122872835Y-120651082D01*
X122849386Y-120643969D01*
X122825000Y-120641567D01*
X122800614Y-120643969D01*
X122777165Y-120651082D01*
X122755554Y-120662633D01*
X122736613Y-120678178D01*
X122721067Y-120697120D01*
X122709516Y-120718731D01*
X122702403Y-120742180D01*
X122691004Y-120799487D01*
X122592932Y-121036253D01*
X122592931Y-121036255D01*
X122450553Y-121249339D01*
X122269339Y-121430553D01*
X122056255Y-121572931D01*
X122056254Y-121572932D01*
X122056253Y-121572932D01*
X121819487Y-121671004D01*
X121568139Y-121721000D01*
X121311861Y-121721000D01*
X121060513Y-121671004D01*
X120823747Y-121572932D01*
X120823746Y-121572932D01*
X120823745Y-121572931D01*
X120610661Y-121430553D01*
X120429447Y-121249339D01*
X120287069Y-121036255D01*
X120287068Y-121036253D01*
X120188996Y-120799487D01*
X120177597Y-120742180D01*
X120170484Y-120718731D01*
X120158933Y-120697120D01*
X120143388Y-120678179D01*
X120124446Y-120662633D01*
X120102835Y-120651082D01*
X120079386Y-120643969D01*
X120055000Y-120641567D01*
X120030614Y-120643969D01*
X120007165Y-120651082D01*
X119985554Y-120662633D01*
X119966613Y-120678178D01*
X119951067Y-120697120D01*
X119939516Y-120718731D01*
X119932403Y-120742180D01*
X119921004Y-120799487D01*
X119822932Y-121036253D01*
X119822931Y-121036255D01*
X119680553Y-121249339D01*
X119499339Y-121430553D01*
X119286255Y-121572931D01*
X119286254Y-121572932D01*
X119286253Y-121572932D01*
X119049487Y-121671004D01*
X118798139Y-121721000D01*
X118541861Y-121721000D01*
X118290513Y-121671004D01*
X118053747Y-121572932D01*
X118053746Y-121572932D01*
X118053745Y-121572931D01*
X117840661Y-121430553D01*
X117659447Y-121249339D01*
X117517069Y-121036255D01*
X117517068Y-121036253D01*
X117418996Y-120799487D01*
X117407597Y-120742180D01*
X117400484Y-120718731D01*
X117388933Y-120697120D01*
X117373388Y-120678179D01*
X117354446Y-120662633D01*
X117332835Y-120651082D01*
X117309386Y-120643969D01*
X117285000Y-120641567D01*
X117260614Y-120643969D01*
X117237165Y-120651082D01*
X117215554Y-120662633D01*
X117196613Y-120678178D01*
X117181067Y-120697120D01*
X117169516Y-120718731D01*
X117162403Y-120742180D01*
X117151004Y-120799487D01*
X117052932Y-121036253D01*
X117052931Y-121036255D01*
X116910553Y-121249339D01*
X116729339Y-121430553D01*
X116516255Y-121572931D01*
X116516254Y-121572932D01*
X116516253Y-121572932D01*
X116279487Y-121671004D01*
X116028139Y-121721000D01*
X115771861Y-121721000D01*
X115520513Y-121671004D01*
X115283747Y-121572932D01*
X115283746Y-121572932D01*
X115283745Y-121572931D01*
X115070661Y-121430553D01*
X114889447Y-121249339D01*
X114747069Y-121036255D01*
X114747068Y-121036253D01*
X114648996Y-120799487D01*
X114637597Y-120742180D01*
X114630484Y-120718731D01*
X114618933Y-120697120D01*
X114603388Y-120678179D01*
X114584446Y-120662633D01*
X114562835Y-120651082D01*
X114539386Y-120643969D01*
X114515000Y-120641567D01*
X114490614Y-120643969D01*
X114467165Y-120651082D01*
X114445554Y-120662633D01*
X114426613Y-120678178D01*
X114411067Y-120697120D01*
X114399516Y-120718731D01*
X114392403Y-120742180D01*
X114381004Y-120799487D01*
X114282932Y-121036253D01*
X114282931Y-121036255D01*
X114140553Y-121249339D01*
X113959339Y-121430553D01*
X113746255Y-121572931D01*
X113746254Y-121572932D01*
X113746253Y-121572932D01*
X113509487Y-121671004D01*
X113258139Y-121721000D01*
X113001861Y-121721000D01*
X112750513Y-121671004D01*
X112513747Y-121572932D01*
X112513746Y-121572932D01*
X112513745Y-121572931D01*
X112300661Y-121430553D01*
X112119447Y-121249339D01*
X111977069Y-121036255D01*
X111977068Y-121036253D01*
X111878996Y-120799487D01*
X111867597Y-120742180D01*
X111860484Y-120718731D01*
X111848933Y-120697120D01*
X111833388Y-120678179D01*
X111814446Y-120662633D01*
X111792835Y-120651082D01*
X111769386Y-120643969D01*
X111745000Y-120641567D01*
X111720614Y-120643969D01*
X111697165Y-120651082D01*
X111675554Y-120662633D01*
X111656613Y-120678178D01*
X111641067Y-120697120D01*
X111629516Y-120718731D01*
X111622403Y-120742180D01*
X111611004Y-120799487D01*
X111512932Y-121036253D01*
X111512931Y-121036255D01*
X111370553Y-121249339D01*
X111189339Y-121430553D01*
X110976255Y-121572931D01*
X110976254Y-121572932D01*
X110976253Y-121572932D01*
X110739487Y-121671004D01*
X110488139Y-121721000D01*
X110231861Y-121721000D01*
X109980513Y-121671004D01*
X109743747Y-121572932D01*
X109743746Y-121572932D01*
X109743745Y-121572931D01*
X109530661Y-121430553D01*
X109349447Y-121249339D01*
X109207069Y-121036255D01*
X109207068Y-121036253D01*
X109108996Y-120799487D01*
X109097597Y-120742180D01*
X109090484Y-120718731D01*
X109078933Y-120697120D01*
X109063388Y-120678179D01*
X109044446Y-120662633D01*
X109022835Y-120651082D01*
X108999386Y-120643969D01*
X108975000Y-120641567D01*
X108950614Y-120643969D01*
X108927165Y-120651082D01*
X108905554Y-120662633D01*
X108886613Y-120678178D01*
X108871067Y-120697120D01*
X108859516Y-120718731D01*
X108852403Y-120742180D01*
X108841004Y-120799487D01*
X108742932Y-121036253D01*
X108742931Y-121036255D01*
X108600553Y-121249339D01*
X108419339Y-121430553D01*
X108206255Y-121572931D01*
X108206254Y-121572932D01*
X108206253Y-121572932D01*
X107969487Y-121671004D01*
X107718139Y-121721000D01*
X107461861Y-121721000D01*
X107210513Y-121671004D01*
X106973747Y-121572932D01*
X106973746Y-121572932D01*
X106973745Y-121572931D01*
X106760661Y-121430553D01*
X106579447Y-121249339D01*
X106437069Y-121036255D01*
X106437068Y-121036253D01*
X106338996Y-120799487D01*
X106289000Y-120548139D01*
X106289000Y-120291861D01*
X106338996Y-120040513D01*
X106437068Y-119803747D01*
X106579447Y-119590661D01*
X106760661Y-119409447D01*
X106973745Y-119267069D01*
X106973747Y-119267068D01*
X107210513Y-119168996D01*
X107461861Y-119119000D01*
X107718139Y-119119000D01*
X107969487Y-119168996D01*
X108206253Y-119267068D01*
X108206255Y-119267069D01*
X108419339Y-119409447D01*
X108600553Y-119590661D01*
X108742932Y-119803747D01*
X108841004Y-120040513D01*
X108852403Y-120097820D01*
X108859516Y-120121269D01*
X108871067Y-120142880D01*
X108886612Y-120161821D01*
X108905554Y-120177367D01*
X108927165Y-120188918D01*
X108950614Y-120196031D01*
X108975000Y-120198433D01*
X108999386Y-120196031D01*
X109022835Y-120188918D01*
X109044446Y-120177367D01*
X109063387Y-120161822D01*
X109078933Y-120142880D01*
X109090484Y-120121269D01*
X109097597Y-120097820D01*
X109108996Y-120040513D01*
X109207068Y-119803747D01*
X109349447Y-119590661D01*
X109530661Y-119409447D01*
X109743745Y-119267069D01*
X109743747Y-119267068D01*
X109980513Y-119168996D01*
X110231861Y-119119000D01*
X110488139Y-119119000D01*
X110739487Y-119168996D01*
X110976253Y-119267068D01*
X110976255Y-119267069D01*
X111189339Y-119409447D01*
X111370553Y-119590661D01*
X111512932Y-119803747D01*
X111611004Y-120040513D01*
X111622403Y-120097820D01*
X111629516Y-120121269D01*
X111641067Y-120142880D01*
X111656612Y-120161821D01*
X111675554Y-120177367D01*
X111697165Y-120188918D01*
X111720614Y-120196031D01*
X111745000Y-120198433D01*
X111769386Y-120196031D01*
X111792835Y-120188918D01*
X111814446Y-120177367D01*
X111833387Y-120161822D01*
X111848933Y-120142880D01*
X111860484Y-120121269D01*
X111867597Y-120097820D01*
X111878996Y-120040513D01*
X111977068Y-119803747D01*
X112119447Y-119590661D01*
X112300661Y-119409447D01*
X112513745Y-119267069D01*
X112513747Y-119267068D01*
X112750513Y-119168996D01*
X113001861Y-119119000D01*
X113258139Y-119119000D01*
X113509487Y-119168996D01*
X113746253Y-119267068D01*
X113746255Y-119267069D01*
X113959339Y-119409447D01*
X114140553Y-119590661D01*
X114282932Y-119803747D01*
X114381004Y-120040513D01*
X114392403Y-120097820D01*
X114399516Y-120121269D01*
X114411067Y-120142880D01*
X114426612Y-120161821D01*
X114445554Y-120177367D01*
X114467165Y-120188918D01*
X114490614Y-120196031D01*
X114515000Y-120198433D01*
X114539386Y-120196031D01*
X114562835Y-120188918D01*
X114584446Y-120177367D01*
X114603387Y-120161822D01*
X114618933Y-120142880D01*
X114630484Y-120121269D01*
X114637597Y-120097820D01*
X114648996Y-120040513D01*
X114747068Y-119803747D01*
X114889447Y-119590661D01*
X115070661Y-119409447D01*
X115283745Y-119267069D01*
X115283747Y-119267068D01*
X115520513Y-119168996D01*
X115771861Y-119119000D01*
X116028139Y-119119000D01*
X116279487Y-119168996D01*
X116516253Y-119267068D01*
X116516255Y-119267069D01*
X116729339Y-119409447D01*
X116910553Y-119590661D01*
X117052932Y-119803747D01*
X117151004Y-120040513D01*
X117162403Y-120097820D01*
X117169516Y-120121269D01*
X117181067Y-120142880D01*
X117196612Y-120161821D01*
X117215554Y-120177367D01*
X117237165Y-120188918D01*
X117260614Y-120196031D01*
X117285000Y-120198433D01*
X117309386Y-120196031D01*
X117332835Y-120188918D01*
X117354446Y-120177367D01*
X117373387Y-120161822D01*
X117388933Y-120142880D01*
X117400484Y-120121269D01*
X117407597Y-120097820D01*
X117418996Y-120040513D01*
X117517068Y-119803747D01*
X117659447Y-119590661D01*
X117840661Y-119409447D01*
X118053745Y-119267069D01*
X118053747Y-119267068D01*
X118290513Y-119168996D01*
X118541861Y-119119000D01*
X118798139Y-119119000D01*
X119049487Y-119168996D01*
X119286253Y-119267068D01*
X119286255Y-119267069D01*
X119499339Y-119409447D01*
X119680553Y-119590661D01*
X119822932Y-119803747D01*
X119921004Y-120040513D01*
X119932403Y-120097820D01*
X119939516Y-120121269D01*
X119951067Y-120142880D01*
X119966612Y-120161821D01*
X119985554Y-120177367D01*
X120007165Y-120188918D01*
X120030614Y-120196031D01*
X120055000Y-120198433D01*
X120079386Y-120196031D01*
X120102835Y-120188918D01*
X120124446Y-120177367D01*
X120143387Y-120161822D01*
X120158933Y-120142880D01*
X120170484Y-120121269D01*
X120177597Y-120097820D01*
X120188996Y-120040513D01*
X120287068Y-119803747D01*
X120429447Y-119590661D01*
X120610661Y-119409447D01*
X120823745Y-119267069D01*
X120823747Y-119267068D01*
X121060513Y-119168996D01*
X121311861Y-119119000D01*
X121568139Y-119119000D01*
X121819487Y-119168996D01*
X122056253Y-119267068D01*
X122056255Y-119267069D01*
X122269339Y-119409447D01*
X122450553Y-119590661D01*
X122592932Y-119803747D01*
X122691004Y-120040513D01*
X122702403Y-120097820D01*
X122709516Y-120121269D01*
X122721067Y-120142880D01*
X122736612Y-120161821D01*
X122755554Y-120177367D01*
X122777165Y-120188918D01*
X122800614Y-120196031D01*
X122825000Y-120198433D01*
X122849386Y-120196031D01*
X122872835Y-120188918D01*
X122894446Y-120177367D01*
X122913387Y-120161822D01*
X122928933Y-120142880D01*
X122940484Y-120121269D01*
X122947597Y-120097820D01*
X122958996Y-120040513D01*
X123057068Y-119803747D01*
X123199447Y-119590661D01*
X123380661Y-119409447D01*
X123593745Y-119267069D01*
X123593747Y-119267068D01*
X123830513Y-119168996D01*
X124081861Y-119119000D01*
X124169001Y-119119000D01*
X124193387Y-119116598D01*
X124216836Y-119109485D01*
X124238447Y-119097934D01*
X124257389Y-119082389D01*
X124272934Y-119063447D01*
X124284485Y-119041836D01*
X124288118Y-119029859D01*
X124288170Y-119030385D01*
X124288170Y-119030385D01*
G37*
G36*
X106584487Y-116328996D02*
G01*
X106821253Y-116427068D01*
X106821255Y-116427069D01*
X107034339Y-116569447D01*
X107215553Y-116750661D01*
X107357932Y-116963747D01*
X107456004Y-117200513D01*
X107467403Y-117257820D01*
X107474516Y-117281269D01*
X107486067Y-117302880D01*
X107501612Y-117321821D01*
X107520554Y-117337367D01*
X107542165Y-117348918D01*
X107565614Y-117356031D01*
X107590000Y-117358433D01*
X107614386Y-117356031D01*
X107637835Y-117348918D01*
X107659446Y-117337367D01*
X107678387Y-117321822D01*
X107693933Y-117302880D01*
X107705484Y-117281269D01*
X107712597Y-117257820D01*
X107723996Y-117200513D01*
X107822068Y-116963747D01*
X107964447Y-116750661D01*
X108145661Y-116569447D01*
X108358745Y-116427069D01*
X108358747Y-116427068D01*
X108595513Y-116328996D01*
X108846861Y-116279000D01*
X109103139Y-116279000D01*
X109354487Y-116328996D01*
X109591253Y-116427068D01*
X109591255Y-116427069D01*
X109804339Y-116569447D01*
X109985553Y-116750661D01*
X110127932Y-116963747D01*
X110226004Y-117200513D01*
X110237403Y-117257820D01*
X110244516Y-117281269D01*
X110256067Y-117302880D01*
X110271612Y-117321821D01*
X110290554Y-117337367D01*
X110312165Y-117348918D01*
X110335614Y-117356031D01*
X110360000Y-117358433D01*
X110384386Y-117356031D01*
X110407835Y-117348918D01*
X110429446Y-117337367D01*
X110448387Y-117321822D01*
X110463933Y-117302880D01*
X110475484Y-117281269D01*
X110482597Y-117257820D01*
X110493996Y-117200513D01*
X110592068Y-116963747D01*
X110734447Y-116750661D01*
X110915661Y-116569447D01*
X111128745Y-116427069D01*
X111128747Y-116427068D01*
X111365513Y-116328996D01*
X111616861Y-116279000D01*
X111873139Y-116279000D01*
X112124487Y-116328996D01*
X112361253Y-116427068D01*
X112361255Y-116427069D01*
X112574339Y-116569447D01*
X112755553Y-116750661D01*
X112897932Y-116963747D01*
X112996004Y-117200513D01*
X113007403Y-117257820D01*
X113014516Y-117281269D01*
X113026067Y-117302880D01*
X113041612Y-117321821D01*
X113060554Y-117337367D01*
X113082165Y-117348918D01*
X113105614Y-117356031D01*
X113130000Y-117358433D01*
X113154386Y-117356031D01*
X113177835Y-117348918D01*
X113199446Y-117337367D01*
X113218387Y-117321822D01*
X113233933Y-117302880D01*
X113245484Y-117281269D01*
X113252597Y-117257820D01*
X113263996Y-117200513D01*
X113362068Y-116963747D01*
X113504447Y-116750661D01*
X113685661Y-116569447D01*
X113898745Y-116427069D01*
X113898747Y-116427068D01*
X114135513Y-116328996D01*
X114386861Y-116279000D01*
X114643139Y-116279000D01*
X114894487Y-116328996D01*
X115131253Y-116427068D01*
X115131255Y-116427069D01*
X115344339Y-116569447D01*
X115525553Y-116750661D01*
X115667932Y-116963747D01*
X115766004Y-117200513D01*
X115777403Y-117257820D01*
X115784516Y-117281269D01*
X115796067Y-117302880D01*
X115811612Y-117321821D01*
X115830554Y-117337367D01*
X115852165Y-117348918D01*
X115875614Y-117356031D01*
X115900000Y-117358433D01*
X115924386Y-117356031D01*
X115947835Y-117348918D01*
X115969446Y-117337367D01*
X115988387Y-117321822D01*
X116003933Y-117302880D01*
X116015484Y-117281269D01*
X116022597Y-117257820D01*
X116033996Y-117200513D01*
X116132068Y-116963747D01*
X116274447Y-116750661D01*
X116455661Y-116569447D01*
X116668745Y-116427069D01*
X116668747Y-116427068D01*
X116905513Y-116328996D01*
X117156861Y-116279000D01*
X117413139Y-116279000D01*
X117664487Y-116328996D01*
X117901253Y-116427068D01*
X117901255Y-116427069D01*
X118114339Y-116569447D01*
X118295553Y-116750661D01*
X118437932Y-116963747D01*
X118536004Y-117200513D01*
X118547403Y-117257820D01*
X118554516Y-117281269D01*
X118566067Y-117302880D01*
X118581612Y-117321821D01*
X118600554Y-117337367D01*
X118622165Y-117348918D01*
X118645614Y-117356031D01*
X118670000Y-117358433D01*
X118694386Y-117356031D01*
X118717835Y-117348918D01*
X118739446Y-117337367D01*
X118758387Y-117321822D01*
X118773933Y-117302880D01*
X118785484Y-117281269D01*
X118792597Y-117257820D01*
X118803996Y-117200513D01*
X118902068Y-116963747D01*
X119044447Y-116750661D01*
X119225661Y-116569447D01*
X119438745Y-116427069D01*
X119438747Y-116427068D01*
X119675513Y-116328996D01*
X119926861Y-116279000D01*
X120183139Y-116279000D01*
X120434487Y-116328996D01*
X120671253Y-116427068D01*
X120671255Y-116427069D01*
X120884339Y-116569447D01*
X121065553Y-116750661D01*
X121207932Y-116963747D01*
X121306004Y-117200513D01*
X121317403Y-117257820D01*
X121324516Y-117281269D01*
X121336067Y-117302880D01*
X121351612Y-117321821D01*
X121370554Y-117337367D01*
X121392165Y-117348918D01*
X121415614Y-117356031D01*
X121440000Y-117358433D01*
X121464386Y-117356031D01*
X121487835Y-117348918D01*
X121509446Y-117337367D01*
X121528387Y-117321822D01*
X121543933Y-117302880D01*
X121555484Y-117281269D01*
X121562597Y-117257820D01*
X121573996Y-117200513D01*
X121672068Y-116963747D01*
X121814447Y-116750661D01*
X121995661Y-116569447D01*
X122208745Y-116427069D01*
X122208747Y-116427068D01*
X122445513Y-116328996D01*
X122696861Y-116279000D01*
X122953139Y-116279000D01*
X123204487Y-116328996D01*
X123441253Y-116427068D01*
X123441255Y-116427069D01*
X123654339Y-116569447D01*
X123835553Y-116750661D01*
X123977932Y-116963747D01*
X124053517Y-117146224D01*
X124065068Y-117167835D01*
X124080614Y-117186777D01*
X124099555Y-117202322D01*
X124121166Y-117213873D01*
X124144615Y-117220986D01*
X124169001Y-117223388D01*
X124193387Y-117220986D01*
X124216836Y-117213873D01*
X124238447Y-117202322D01*
X124257389Y-117186776D01*
X124272934Y-117167835D01*
X124284485Y-117146224D01*
X124291598Y-117122775D01*
X124294000Y-117098389D01*
X124294000Y-116279000D01*
X126896000Y-116279000D01*
X126896000Y-118881000D01*
X124410767Y-118881000D01*
X124386381Y-118883402D01*
X124362932Y-118890515D01*
X124341321Y-118902066D01*
X124322379Y-118917611D01*
X124306834Y-118936553D01*
X124295283Y-118958164D01*
X124294000Y-118962394D01*
X124294000Y-118061611D01*
X124291598Y-118037225D01*
X124284485Y-118013776D01*
X124272934Y-117992165D01*
X124257389Y-117973223D01*
X124238447Y-117957678D01*
X124216836Y-117946127D01*
X124193387Y-117939014D01*
X124169001Y-117936612D01*
X124144615Y-117939014D01*
X124121166Y-117946127D01*
X124099555Y-117957678D01*
X124080613Y-117973223D01*
X124065068Y-117992165D01*
X124053517Y-118013776D01*
X123977932Y-118196253D01*
X123977931Y-118196255D01*
X123835553Y-118409339D01*
X123654339Y-118590553D01*
X123441255Y-118732931D01*
X123441254Y-118732932D01*
X123441253Y-118732932D01*
X123204487Y-118831004D01*
X122953139Y-118881000D01*
X122696861Y-118881000D01*
X122445513Y-118831004D01*
X122208747Y-118732932D01*
X122208746Y-118732932D01*
X122208745Y-118732931D01*
X121995661Y-118590553D01*
X121814447Y-118409339D01*
X121672069Y-118196255D01*
X121672068Y-118196253D01*
X121573996Y-117959487D01*
X121562597Y-117902180D01*
X121555484Y-117878731D01*
X121543933Y-117857120D01*
X121528388Y-117838179D01*
X121509446Y-117822633D01*
X121487835Y-117811082D01*
X121464386Y-117803969D01*
X121440000Y-117801567D01*
X121415614Y-117803969D01*
X121392165Y-117811082D01*
X121370554Y-117822633D01*
X121351613Y-117838178D01*
X121336067Y-117857120D01*
X121324516Y-117878731D01*
X121317403Y-117902180D01*
X121306004Y-117959487D01*
X121207932Y-118196253D01*
X121207931Y-118196255D01*
X121065553Y-118409339D01*
X120884339Y-118590553D01*
X120671255Y-118732931D01*
X120671254Y-118732932D01*
X120671253Y-118732932D01*
X120434487Y-118831004D01*
X120183139Y-118881000D01*
X119926861Y-118881000D01*
X119675513Y-118831004D01*
X119438747Y-118732932D01*
X119438746Y-118732932D01*
X119438745Y-118732931D01*
X119225661Y-118590553D01*
X119044447Y-118409339D01*
X118902069Y-118196255D01*
X118902068Y-118196253D01*
X118803996Y-117959487D01*
X118792597Y-117902180D01*
X118785484Y-117878731D01*
X118773933Y-117857120D01*
X118758388Y-117838179D01*
X118739446Y-117822633D01*
X118717835Y-117811082D01*
X118694386Y-117803969D01*
X118670000Y-117801567D01*
X118645614Y-117803969D01*
X118622165Y-117811082D01*
X118600554Y-117822633D01*
X118581613Y-117838178D01*
X118566067Y-117857120D01*
X118554516Y-117878731D01*
X118547403Y-117902180D01*
X118536004Y-117959487D01*
X118437932Y-118196253D01*
X118437931Y-118196255D01*
X118295553Y-118409339D01*
X118114339Y-118590553D01*
X117901255Y-118732931D01*
X117901254Y-118732932D01*
X117901253Y-118732932D01*
X117664487Y-118831004D01*
X117413139Y-118881000D01*
X117156861Y-118881000D01*
X116905513Y-118831004D01*
X116668747Y-118732932D01*
X116668746Y-118732932D01*
X116668745Y-118732931D01*
X116455661Y-118590553D01*
X116274447Y-118409339D01*
X116132069Y-118196255D01*
X116132068Y-118196253D01*
X116033996Y-117959487D01*
X116022597Y-117902180D01*
X116015484Y-117878731D01*
X116003933Y-117857120D01*
X115988388Y-117838179D01*
X115969446Y-117822633D01*
X115947835Y-117811082D01*
X115924386Y-117803969D01*
X115900000Y-117801567D01*
X115875614Y-117803969D01*
X115852165Y-117811082D01*
X115830554Y-117822633D01*
X115811613Y-117838178D01*
X115796067Y-117857120D01*
X115784516Y-117878731D01*
X115777403Y-117902180D01*
X115766004Y-117959487D01*
X115667932Y-118196253D01*
X115667931Y-118196255D01*
X115525553Y-118409339D01*
X115344339Y-118590553D01*
X115131255Y-118732931D01*
X115131254Y-118732932D01*
X115131253Y-118732932D01*
X114894487Y-118831004D01*
X114643139Y-118881000D01*
X114386861Y-118881000D01*
X114135513Y-118831004D01*
X113898747Y-118732932D01*
X113898746Y-118732932D01*
X113898745Y-118732931D01*
X113685661Y-118590553D01*
X113504447Y-118409339D01*
X113362069Y-118196255D01*
X113362068Y-118196253D01*
X113263996Y-117959487D01*
X113252597Y-117902180D01*
X113245484Y-117878731D01*
X113233933Y-117857120D01*
X113218388Y-117838179D01*
X113199446Y-117822633D01*
X113177835Y-117811082D01*
X113154386Y-117803969D01*
X113130000Y-117801567D01*
X113105614Y-117803969D01*
X113082165Y-117811082D01*
X113060554Y-117822633D01*
X113041613Y-117838178D01*
X113026067Y-117857120D01*
X113014516Y-117878731D01*
X113007403Y-117902180D01*
X112996004Y-117959487D01*
X112897932Y-118196253D01*
X112897931Y-118196255D01*
X112755553Y-118409339D01*
X112574339Y-118590553D01*
X112361255Y-118732931D01*
X112361254Y-118732932D01*
X112361253Y-118732932D01*
X112124487Y-118831004D01*
X111873139Y-118881000D01*
X111616861Y-118881000D01*
X111365513Y-118831004D01*
X111128747Y-118732932D01*
X111128746Y-118732932D01*
X111128745Y-118732931D01*
X110915661Y-118590553D01*
X110734447Y-118409339D01*
X110592069Y-118196255D01*
X110592068Y-118196253D01*
X110493996Y-117959487D01*
X110482597Y-117902180D01*
X110475484Y-117878731D01*
X110463933Y-117857120D01*
X110448388Y-117838179D01*
X110429446Y-117822633D01*
X110407835Y-117811082D01*
X110384386Y-117803969D01*
X110360000Y-117801567D01*
X110335614Y-117803969D01*
X110312165Y-117811082D01*
X110290554Y-117822633D01*
X110271613Y-117838178D01*
X110256067Y-117857120D01*
X110244516Y-117878731D01*
X110237403Y-117902180D01*
X110226004Y-117959487D01*
X110127932Y-118196253D01*
X110127931Y-118196255D01*
X109985553Y-118409339D01*
X109804339Y-118590553D01*
X109591255Y-118732931D01*
X109591254Y-118732932D01*
X109591253Y-118732932D01*
X109354487Y-118831004D01*
X109103139Y-118881000D01*
X108846861Y-118881000D01*
X108595513Y-118831004D01*
X108358747Y-118732932D01*
X108358746Y-118732932D01*
X108358745Y-118732931D01*
X108145661Y-118590553D01*
X107964447Y-118409339D01*
X107822069Y-118196255D01*
X107822068Y-118196253D01*
X107723996Y-117959487D01*
X107712597Y-117902180D01*
X107705484Y-117878731D01*
X107693933Y-117857120D01*
X107678388Y-117838179D01*
X107659446Y-117822633D01*
X107637835Y-117811082D01*
X107614386Y-117803969D01*
X107590000Y-117801567D01*
X107565614Y-117803969D01*
X107542165Y-117811082D01*
X107520554Y-117822633D01*
X107501613Y-117838178D01*
X107486067Y-117857120D01*
X107474516Y-117878731D01*
X107467403Y-117902180D01*
X107456004Y-117959487D01*
X107357932Y-118196253D01*
X107357931Y-118196255D01*
X107215553Y-118409339D01*
X107034339Y-118590553D01*
X106821255Y-118732931D01*
X106821254Y-118732932D01*
X106821253Y-118732932D01*
X106584487Y-118831004D01*
X106333139Y-118881000D01*
X106076861Y-118881000D01*
X105825513Y-118831004D01*
X105588747Y-118732932D01*
X105588746Y-118732932D01*
X105588745Y-118732931D01*
X105375661Y-118590553D01*
X105194447Y-118409339D01*
X105052069Y-118196255D01*
X105052068Y-118196253D01*
X104953996Y-117959487D01*
X104904000Y-117708139D01*
X104904000Y-117451861D01*
X104953996Y-117200513D01*
X105052068Y-116963747D01*
X105194447Y-116750661D01*
X105375661Y-116569447D01*
X105588745Y-116427069D01*
X105588747Y-116427068D01*
X105825513Y-116328996D01*
X106076861Y-116279000D01*
X106333139Y-116279000D01*
X106584487Y-116328996D01*
X106584487Y-116328996D01*
G37*
G36*
X90747564Y-115957389D02*
G01*
X90938833Y-116036615D01*
X90938835Y-116036616D01*
X91110973Y-116151635D01*
X91257365Y-116298027D01*
X91278059Y-116328997D01*
X91372385Y-116470167D01*
X91451611Y-116661436D01*
X91492000Y-116864484D01*
X91492000Y-117071516D01*
X91451611Y-117274564D01*
X91372385Y-117465833D01*
X91372384Y-117465835D01*
X91257365Y-117637973D01*
X91110973Y-117784365D01*
X90938835Y-117899384D01*
X90938834Y-117899385D01*
X90938833Y-117899385D01*
X90747564Y-117978611D01*
X90544516Y-118019000D01*
X90337484Y-118019000D01*
X90134436Y-117978611D01*
X89943167Y-117899385D01*
X89943166Y-117899385D01*
X89943165Y-117899384D01*
X89771027Y-117784365D01*
X89624635Y-117637973D01*
X89509616Y-117465835D01*
X89509615Y-117465833D01*
X89430389Y-117274564D01*
X89390000Y-117071516D01*
X89390000Y-116864484D01*
X89430389Y-116661436D01*
X89509615Y-116470167D01*
X89603942Y-116328997D01*
X89624635Y-116298027D01*
X89771027Y-116151635D01*
X89943165Y-116036616D01*
X89943167Y-116036615D01*
X90134436Y-115957389D01*
X90337484Y-115917000D01*
X90544516Y-115917000D01*
X90747564Y-115957389D01*
X90747564Y-115957389D01*
G37*
G36*
X137347564Y-115957389D02*
G01*
X137538833Y-116036615D01*
X137538835Y-116036616D01*
X137710973Y-116151635D01*
X137857365Y-116298027D01*
X137878059Y-116328997D01*
X137972385Y-116470167D01*
X138051611Y-116661436D01*
X138092000Y-116864484D01*
X138092000Y-117071516D01*
X138051611Y-117274564D01*
X137972385Y-117465833D01*
X137972384Y-117465835D01*
X137857365Y-117637973D01*
X137710973Y-117784365D01*
X137538835Y-117899384D01*
X137538834Y-117899385D01*
X137538833Y-117899385D01*
X137347564Y-117978611D01*
X137144516Y-118019000D01*
X136937484Y-118019000D01*
X136734436Y-117978611D01*
X136543167Y-117899385D01*
X136543166Y-117899385D01*
X136543165Y-117899384D01*
X136371027Y-117784365D01*
X136224635Y-117637973D01*
X136109616Y-117465835D01*
X136109615Y-117465833D01*
X136030389Y-117274564D01*
X135990000Y-117071516D01*
X135990000Y-116864484D01*
X136030389Y-116661436D01*
X136109615Y-116470167D01*
X136203942Y-116328997D01*
X136224635Y-116298027D01*
X136371027Y-116151635D01*
X136543165Y-116036616D01*
X136543167Y-116036615D01*
X136734436Y-115957389D01*
X136937484Y-115917000D01*
X137144516Y-115917000D01*
X137347564Y-115957389D01*
X137347564Y-115957389D01*
G37*
G36*
X141665564Y-115957389D02*
G01*
X141856833Y-116036615D01*
X141856835Y-116036616D01*
X142028973Y-116151635D01*
X142175365Y-116298027D01*
X142196059Y-116328997D01*
X142290385Y-116470167D01*
X142369611Y-116661436D01*
X142410000Y-116864484D01*
X142410000Y-117071516D01*
X142369611Y-117274564D01*
X142290385Y-117465833D01*
X142290384Y-117465835D01*
X142175365Y-117637973D01*
X142028973Y-117784365D01*
X141856835Y-117899384D01*
X141856834Y-117899385D01*
X141856833Y-117899385D01*
X141665564Y-117978611D01*
X141462516Y-118019000D01*
X141255484Y-118019000D01*
X141052436Y-117978611D01*
X140861167Y-117899385D01*
X140861166Y-117899385D01*
X140861165Y-117899384D01*
X140689027Y-117784365D01*
X140542635Y-117637973D01*
X140427616Y-117465835D01*
X140427615Y-117465833D01*
X140348389Y-117274564D01*
X140308000Y-117071516D01*
X140308000Y-116864484D01*
X140348389Y-116661436D01*
X140427615Y-116470167D01*
X140521942Y-116328997D01*
X140542635Y-116298027D01*
X140689027Y-116151635D01*
X140861165Y-116036616D01*
X140861167Y-116036615D01*
X141052436Y-115957389D01*
X141255484Y-115917000D01*
X141462516Y-115917000D01*
X141665564Y-115957389D01*
X141665564Y-115957389D01*
G37*
G36*
X95065564Y-115957389D02*
G01*
X95256833Y-116036615D01*
X95256835Y-116036616D01*
X95428973Y-116151635D01*
X95575365Y-116298027D01*
X95596059Y-116328997D01*
X95690385Y-116470167D01*
X95769611Y-116661436D01*
X95810000Y-116864484D01*
X95810000Y-117071516D01*
X95769611Y-117274564D01*
X95690385Y-117465833D01*
X95690384Y-117465835D01*
X95575365Y-117637973D01*
X95428973Y-117784365D01*
X95256835Y-117899384D01*
X95256834Y-117899385D01*
X95256833Y-117899385D01*
X95065564Y-117978611D01*
X94862516Y-118019000D01*
X94655484Y-118019000D01*
X94452436Y-117978611D01*
X94261167Y-117899385D01*
X94261166Y-117899385D01*
X94261165Y-117899384D01*
X94089027Y-117784365D01*
X93942635Y-117637973D01*
X93827616Y-117465835D01*
X93827615Y-117465833D01*
X93748389Y-117274564D01*
X93708000Y-117071516D01*
X93708000Y-116864484D01*
X93748389Y-116661436D01*
X93827615Y-116470167D01*
X93921942Y-116328997D01*
X93942635Y-116298027D01*
X94089027Y-116151635D01*
X94261165Y-116036616D01*
X94261167Y-116036615D01*
X94452436Y-115957389D01*
X94655484Y-115917000D01*
X94862516Y-115917000D01*
X95065564Y-115957389D01*
X95065564Y-115957389D01*
G37*
G36*
X95065564Y-111893389D02*
G01*
X95256833Y-111972615D01*
X95256835Y-111972616D01*
X95428973Y-112087635D01*
X95575365Y-112234027D01*
X95679982Y-112390597D01*
X95690385Y-112406167D01*
X95769611Y-112597436D01*
X95810000Y-112800484D01*
X95810000Y-113007516D01*
X95769611Y-113210564D01*
X95690385Y-113401833D01*
X95690384Y-113401835D01*
X95575365Y-113573973D01*
X95428973Y-113720365D01*
X95256835Y-113835384D01*
X95256834Y-113835385D01*
X95256833Y-113835385D01*
X95065564Y-113914611D01*
X94862516Y-113955000D01*
X94655484Y-113955000D01*
X94452436Y-113914611D01*
X94261167Y-113835385D01*
X94261166Y-113835385D01*
X94261165Y-113835384D01*
X94089027Y-113720365D01*
X93942635Y-113573973D01*
X93827616Y-113401835D01*
X93827615Y-113401833D01*
X93748389Y-113210564D01*
X93708000Y-113007516D01*
X93708000Y-112800484D01*
X93748389Y-112597436D01*
X93827615Y-112406167D01*
X93838019Y-112390597D01*
X93942635Y-112234027D01*
X94089027Y-112087635D01*
X94261165Y-111972616D01*
X94261167Y-111972615D01*
X94452436Y-111893389D01*
X94655484Y-111853000D01*
X94862516Y-111853000D01*
X95065564Y-111893389D01*
X95065564Y-111893389D01*
G37*
G36*
X141665564Y-111893389D02*
G01*
X141856833Y-111972615D01*
X141856835Y-111972616D01*
X142028973Y-112087635D01*
X142175365Y-112234027D01*
X142279982Y-112390597D01*
X142290385Y-112406167D01*
X142369611Y-112597436D01*
X142410000Y-112800484D01*
X142410000Y-113007516D01*
X142369611Y-113210564D01*
X142290385Y-113401833D01*
X142290384Y-113401835D01*
X142175365Y-113573973D01*
X142028973Y-113720365D01*
X141856835Y-113835384D01*
X141856834Y-113835385D01*
X141856833Y-113835385D01*
X141665564Y-113914611D01*
X141462516Y-113955000D01*
X141255484Y-113955000D01*
X141052436Y-113914611D01*
X140861167Y-113835385D01*
X140861166Y-113835385D01*
X140861165Y-113835384D01*
X140689027Y-113720365D01*
X140542635Y-113573973D01*
X140427616Y-113401835D01*
X140427615Y-113401833D01*
X140348389Y-113210564D01*
X140308000Y-113007516D01*
X140308000Y-112800484D01*
X140348389Y-112597436D01*
X140427615Y-112406167D01*
X140438019Y-112390597D01*
X140542635Y-112234027D01*
X140689027Y-112087635D01*
X140861165Y-111972616D01*
X140861167Y-111972615D01*
X141052436Y-111893389D01*
X141255484Y-111853000D01*
X141462516Y-111853000D01*
X141665564Y-111893389D01*
X141665564Y-111893389D01*
G37*
G36*
X111247556Y-109318798D02*
G01*
X111353879Y-109339947D01*
X111654342Y-109464403D01*
X111924751Y-109645085D01*
X112154715Y-109875049D01*
X112335397Y-110145458D01*
X112459853Y-110445921D01*
X112523300Y-110764891D01*
X112523300Y-111090109D01*
X112459853Y-111409079D01*
X112335397Y-111709542D01*
X112154715Y-111979951D01*
X111924751Y-112209915D01*
X111654342Y-112390597D01*
X111353879Y-112515053D01*
X111247556Y-112536202D01*
X111034911Y-112578500D01*
X110709689Y-112578500D01*
X110497044Y-112536202D01*
X110390721Y-112515053D01*
X110090258Y-112390597D01*
X109819849Y-112209915D01*
X109589885Y-111979951D01*
X109409203Y-111709542D01*
X109284747Y-111409079D01*
X109221300Y-111090109D01*
X109221300Y-110764891D01*
X109284747Y-110445921D01*
X109409203Y-110145458D01*
X109589885Y-109875049D01*
X109819849Y-109645085D01*
X110090258Y-109464403D01*
X110390721Y-109339947D01*
X110497044Y-109318798D01*
X110709689Y-109276500D01*
X111034911Y-109276500D01*
X111247556Y-109318798D01*
X111247556Y-109318798D01*
G37*
G36*
X167911056Y-109318798D02*
G01*
X168017379Y-109339947D01*
X168317842Y-109464403D01*
X168588251Y-109645085D01*
X168818215Y-109875049D01*
X168998897Y-110145458D01*
X169123353Y-110445921D01*
X169186800Y-110764891D01*
X169186800Y-111090109D01*
X169123353Y-111409079D01*
X168998897Y-111709542D01*
X168818215Y-111979951D01*
X168588251Y-112209915D01*
X168317842Y-112390597D01*
X168017379Y-112515053D01*
X167911056Y-112536202D01*
X167698411Y-112578500D01*
X167373189Y-112578500D01*
X167160544Y-112536202D01*
X167054221Y-112515053D01*
X166753758Y-112390597D01*
X166483349Y-112209915D01*
X166253385Y-111979951D01*
X166072703Y-111709542D01*
X165948247Y-111409079D01*
X165884800Y-111090109D01*
X165884800Y-110764891D01*
X165948247Y-110445921D01*
X166072703Y-110145458D01*
X166253385Y-109875049D01*
X166483349Y-109645085D01*
X166753758Y-109464403D01*
X167054221Y-109339947D01*
X167160544Y-109318798D01*
X167373189Y-109276500D01*
X167698411Y-109276500D01*
X167911056Y-109318798D01*
X167911056Y-109318798D01*
G37*
G36*
X121302956Y-109318798D02*
G01*
X121409279Y-109339947D01*
X121709742Y-109464403D01*
X121980151Y-109645085D01*
X122210115Y-109875049D01*
X122390797Y-110145458D01*
X122515253Y-110445921D01*
X122578700Y-110764891D01*
X122578700Y-111090109D01*
X122515253Y-111409079D01*
X122390797Y-111709542D01*
X122210115Y-111979951D01*
X121980151Y-112209915D01*
X121709742Y-112390597D01*
X121409279Y-112515053D01*
X121302956Y-112536202D01*
X121090311Y-112578500D01*
X120765089Y-112578500D01*
X120552444Y-112536202D01*
X120446121Y-112515053D01*
X120145658Y-112390597D01*
X119875249Y-112209915D01*
X119645285Y-111979951D01*
X119464603Y-111709542D01*
X119340147Y-111409079D01*
X119276700Y-111090109D01*
X119276700Y-110764891D01*
X119340147Y-110445921D01*
X119464603Y-110145458D01*
X119645285Y-109875049D01*
X119875249Y-109645085D01*
X120145658Y-109464403D01*
X120446121Y-109339947D01*
X120552444Y-109318798D01*
X120765089Y-109276500D01*
X121090311Y-109276500D01*
X121302956Y-109318798D01*
X121302956Y-109318798D01*
G37*
G36*
X157855656Y-109318798D02*
G01*
X157961979Y-109339947D01*
X158262442Y-109464403D01*
X158532851Y-109645085D01*
X158762815Y-109875049D01*
X158943497Y-110145458D01*
X159067953Y-110445921D01*
X159131400Y-110764891D01*
X159131400Y-111090109D01*
X159067953Y-111409079D01*
X158943497Y-111709542D01*
X158762815Y-111979951D01*
X158532851Y-112209915D01*
X158262442Y-112390597D01*
X157961979Y-112515053D01*
X157855656Y-112536202D01*
X157643011Y-112578500D01*
X157317789Y-112578500D01*
X157105144Y-112536202D01*
X156998821Y-112515053D01*
X156698358Y-112390597D01*
X156427949Y-112209915D01*
X156197985Y-111979951D01*
X156017303Y-111709542D01*
X155892847Y-111409079D01*
X155829400Y-111090109D01*
X155829400Y-110764891D01*
X155892847Y-110445921D01*
X156017303Y-110145458D01*
X156197985Y-109875049D01*
X156427949Y-109645085D01*
X156698358Y-109464403D01*
X156998821Y-109339947D01*
X157105144Y-109318798D01*
X157317789Y-109276500D01*
X157643011Y-109276500D01*
X157855656Y-109318798D01*
X157855656Y-109318798D01*
G37*
G36*
X157855656Y-100561298D02*
G01*
X157961979Y-100582447D01*
X158174437Y-100670450D01*
X158230889Y-100693833D01*
X158262442Y-100706903D01*
X158532851Y-100887585D01*
X158762815Y-101117549D01*
X158943497Y-101387958D01*
X159067953Y-101688421D01*
X159131400Y-102007391D01*
X159131400Y-102332609D01*
X159067953Y-102651579D01*
X158943497Y-102952042D01*
X158762815Y-103222451D01*
X158532851Y-103452415D01*
X158262442Y-103633097D01*
X157961979Y-103757553D01*
X157855656Y-103778702D01*
X157643011Y-103821000D01*
X157317789Y-103821000D01*
X157105144Y-103778702D01*
X156998821Y-103757553D01*
X156698358Y-103633097D01*
X156427949Y-103452415D01*
X156197985Y-103222451D01*
X156017303Y-102952042D01*
X155892847Y-102651579D01*
X155829400Y-102332609D01*
X155829400Y-102007391D01*
X155892847Y-101688421D01*
X156017303Y-101387958D01*
X156197985Y-101117549D01*
X156427949Y-100887585D01*
X156698358Y-100706903D01*
X156729912Y-100693833D01*
X156786363Y-100670450D01*
X156998821Y-100582447D01*
X157105144Y-100561298D01*
X157317789Y-100519000D01*
X157643011Y-100519000D01*
X157855656Y-100561298D01*
X157855656Y-100561298D01*
G37*
G36*
X167911056Y-100561298D02*
G01*
X168017379Y-100582447D01*
X168229837Y-100670450D01*
X168286289Y-100693833D01*
X168317842Y-100706903D01*
X168588251Y-100887585D01*
X168818215Y-101117549D01*
X168998897Y-101387958D01*
X169123353Y-101688421D01*
X169186800Y-102007391D01*
X169186800Y-102332609D01*
X169123353Y-102651579D01*
X168998897Y-102952042D01*
X168818215Y-103222451D01*
X168588251Y-103452415D01*
X168317842Y-103633097D01*
X168017379Y-103757553D01*
X167911056Y-103778702D01*
X167698411Y-103821000D01*
X167373189Y-103821000D01*
X167160544Y-103778702D01*
X167054221Y-103757553D01*
X166753758Y-103633097D01*
X166483349Y-103452415D01*
X166253385Y-103222451D01*
X166072703Y-102952042D01*
X165948247Y-102651579D01*
X165884800Y-102332609D01*
X165884800Y-102007391D01*
X165948247Y-101688421D01*
X166072703Y-101387958D01*
X166253385Y-101117549D01*
X166483349Y-100887585D01*
X166753758Y-100706903D01*
X166785312Y-100693833D01*
X166841763Y-100670450D01*
X167054221Y-100582447D01*
X167160544Y-100561298D01*
X167373189Y-100519000D01*
X167698411Y-100519000D01*
X167911056Y-100561298D01*
X167911056Y-100561298D01*
G37*
G36*
X111247556Y-100561298D02*
G01*
X111353879Y-100582447D01*
X111566337Y-100670450D01*
X111622789Y-100693833D01*
X111654342Y-100706903D01*
X111924751Y-100887585D01*
X112154715Y-101117549D01*
X112335397Y-101387958D01*
X112459853Y-101688421D01*
X112523300Y-102007391D01*
X112523300Y-102332609D01*
X112459853Y-102651579D01*
X112335397Y-102952042D01*
X112154715Y-103222451D01*
X111924751Y-103452415D01*
X111654342Y-103633097D01*
X111353879Y-103757553D01*
X111247556Y-103778702D01*
X111034911Y-103821000D01*
X110709689Y-103821000D01*
X110497044Y-103778702D01*
X110390721Y-103757553D01*
X110090258Y-103633097D01*
X109819849Y-103452415D01*
X109589885Y-103222451D01*
X109409203Y-102952042D01*
X109284747Y-102651579D01*
X109221300Y-102332609D01*
X109221300Y-102007391D01*
X109284747Y-101688421D01*
X109409203Y-101387958D01*
X109589885Y-101117549D01*
X109819849Y-100887585D01*
X110090258Y-100706903D01*
X110121812Y-100693833D01*
X110178263Y-100670450D01*
X110390721Y-100582447D01*
X110497044Y-100561298D01*
X110709689Y-100519000D01*
X111034911Y-100519000D01*
X111247556Y-100561298D01*
X111247556Y-100561298D01*
G37*
G36*
X121302956Y-100561298D02*
G01*
X121409279Y-100582447D01*
X121621737Y-100670450D01*
X121678189Y-100693833D01*
X121709742Y-100706903D01*
X121980151Y-100887585D01*
X122210115Y-101117549D01*
X122390797Y-101387958D01*
X122515253Y-101688421D01*
X122578700Y-102007391D01*
X122578700Y-102332609D01*
X122515253Y-102651579D01*
X122390797Y-102952042D01*
X122210115Y-103222451D01*
X121980151Y-103452415D01*
X121709742Y-103633097D01*
X121409279Y-103757553D01*
X121302956Y-103778702D01*
X121090311Y-103821000D01*
X120765089Y-103821000D01*
X120552444Y-103778702D01*
X120446121Y-103757553D01*
X120145658Y-103633097D01*
X119875249Y-103452415D01*
X119645285Y-103222451D01*
X119464603Y-102952042D01*
X119340147Y-102651579D01*
X119276700Y-102332609D01*
X119276700Y-102007391D01*
X119340147Y-101688421D01*
X119464603Y-101387958D01*
X119645285Y-101117549D01*
X119875249Y-100887585D01*
X120145658Y-100706903D01*
X120177212Y-100693833D01*
X120233663Y-100670450D01*
X120446121Y-100582447D01*
X120552444Y-100561298D01*
X120765089Y-100519000D01*
X121090311Y-100519000D01*
X121302956Y-100561298D01*
X121302956Y-100561298D01*
G37*
G36*
X141665564Y-99185389D02*
G01*
X141856833Y-99264615D01*
X141856835Y-99264616D01*
X142028973Y-99379635D01*
X142175365Y-99526027D01*
X142290385Y-99698167D01*
X142369611Y-99889436D01*
X142410000Y-100092484D01*
X142410000Y-100299516D01*
X142369611Y-100502564D01*
X142336522Y-100582447D01*
X142290384Y-100693835D01*
X142175365Y-100865973D01*
X142028973Y-101012365D01*
X141856835Y-101127384D01*
X141856834Y-101127385D01*
X141856833Y-101127385D01*
X141665564Y-101206611D01*
X141462516Y-101247000D01*
X141255484Y-101247000D01*
X141052436Y-101206611D01*
X140861167Y-101127385D01*
X140861166Y-101127385D01*
X140861165Y-101127384D01*
X140689027Y-101012365D01*
X140542635Y-100865973D01*
X140427616Y-100693835D01*
X140381478Y-100582447D01*
X140348389Y-100502564D01*
X140308000Y-100299516D01*
X140308000Y-100092484D01*
X140348389Y-99889436D01*
X140427615Y-99698167D01*
X140542635Y-99526027D01*
X140689027Y-99379635D01*
X140861165Y-99264616D01*
X140861167Y-99264615D01*
X141052436Y-99185389D01*
X141255484Y-99145000D01*
X141462516Y-99145000D01*
X141665564Y-99185389D01*
X141665564Y-99185389D01*
G37*
G36*
X137347564Y-99185389D02*
G01*
X137538833Y-99264615D01*
X137538835Y-99264616D01*
X137710973Y-99379635D01*
X137857365Y-99526027D01*
X137972385Y-99698167D01*
X138051611Y-99889436D01*
X138092000Y-100092484D01*
X138092000Y-100299516D01*
X138051611Y-100502564D01*
X138018522Y-100582447D01*
X137972384Y-100693835D01*
X137857365Y-100865973D01*
X137710973Y-101012365D01*
X137538835Y-101127384D01*
X137538834Y-101127385D01*
X137538833Y-101127385D01*
X137347564Y-101206611D01*
X137144516Y-101247000D01*
X136937484Y-101247000D01*
X136734436Y-101206611D01*
X136543167Y-101127385D01*
X136543166Y-101127385D01*
X136543165Y-101127384D01*
X136371027Y-101012365D01*
X136224635Y-100865973D01*
X136109616Y-100693835D01*
X136063478Y-100582447D01*
X136030389Y-100502564D01*
X135990000Y-100299516D01*
X135990000Y-100092484D01*
X136030389Y-99889436D01*
X136109615Y-99698167D01*
X136224635Y-99526027D01*
X136371027Y-99379635D01*
X136543165Y-99264616D01*
X136543167Y-99264615D01*
X136734436Y-99185389D01*
X136937484Y-99145000D01*
X137144516Y-99145000D01*
X137347564Y-99185389D01*
X137347564Y-99185389D01*
G37*
G36*
X95065564Y-99185389D02*
G01*
X95256833Y-99264615D01*
X95256835Y-99264616D01*
X95428973Y-99379635D01*
X95575365Y-99526027D01*
X95690385Y-99698167D01*
X95769611Y-99889436D01*
X95810000Y-100092484D01*
X95810000Y-100299516D01*
X95769611Y-100502564D01*
X95736522Y-100582447D01*
X95690384Y-100693835D01*
X95575365Y-100865973D01*
X95428973Y-101012365D01*
X95256835Y-101127384D01*
X95256834Y-101127385D01*
X95256833Y-101127385D01*
X95065564Y-101206611D01*
X94862516Y-101247000D01*
X94655484Y-101247000D01*
X94452436Y-101206611D01*
X94261167Y-101127385D01*
X94261166Y-101127385D01*
X94261165Y-101127384D01*
X94089027Y-101012365D01*
X93942635Y-100865973D01*
X93827616Y-100693835D01*
X93781478Y-100582447D01*
X93748389Y-100502564D01*
X93708000Y-100299516D01*
X93708000Y-100092484D01*
X93748389Y-99889436D01*
X93827615Y-99698167D01*
X93942635Y-99526027D01*
X94089027Y-99379635D01*
X94261165Y-99264616D01*
X94261167Y-99264615D01*
X94452436Y-99185389D01*
X94655484Y-99145000D01*
X94862516Y-99145000D01*
X95065564Y-99185389D01*
X95065564Y-99185389D01*
G37*
G36*
X90747564Y-99185389D02*
G01*
X90938833Y-99264615D01*
X90938835Y-99264616D01*
X91110973Y-99379635D01*
X91257365Y-99526027D01*
X91372385Y-99698167D01*
X91451611Y-99889436D01*
X91492000Y-100092484D01*
X91492000Y-100299516D01*
X91451611Y-100502564D01*
X91418522Y-100582447D01*
X91372384Y-100693835D01*
X91257365Y-100865973D01*
X91110973Y-101012365D01*
X90938835Y-101127384D01*
X90938834Y-101127385D01*
X90938833Y-101127385D01*
X90747564Y-101206611D01*
X90544516Y-101247000D01*
X90337484Y-101247000D01*
X90134436Y-101206611D01*
X89943167Y-101127385D01*
X89943166Y-101127385D01*
X89943165Y-101127384D01*
X89771027Y-101012365D01*
X89624635Y-100865973D01*
X89509616Y-100693835D01*
X89463478Y-100582447D01*
X89430389Y-100502564D01*
X89390000Y-100299516D01*
X89390000Y-100092484D01*
X89430389Y-99889436D01*
X89509615Y-99698167D01*
X89624635Y-99526027D01*
X89771027Y-99379635D01*
X89943165Y-99264616D01*
X89943167Y-99264615D01*
X90134436Y-99185389D01*
X90337484Y-99145000D01*
X90544516Y-99145000D01*
X90747564Y-99185389D01*
X90747564Y-99185389D01*
G37*
G36*
X90747564Y-95121389D02*
G01*
X90932085Y-95197820D01*
X90938835Y-95200616D01*
X91085228Y-95298433D01*
X91110973Y-95315635D01*
X91257365Y-95462027D01*
X91372385Y-95634167D01*
X91451611Y-95825436D01*
X91492000Y-96028484D01*
X91492000Y-96235516D01*
X91451611Y-96438564D01*
X91413508Y-96530553D01*
X91372384Y-96629835D01*
X91257365Y-96801973D01*
X91110973Y-96948365D01*
X90938835Y-97063384D01*
X90938834Y-97063385D01*
X90938833Y-97063385D01*
X90747564Y-97142611D01*
X90544516Y-97183000D01*
X90337484Y-97183000D01*
X90134436Y-97142611D01*
X89943167Y-97063385D01*
X89943166Y-97063385D01*
X89943165Y-97063384D01*
X89771027Y-96948365D01*
X89624635Y-96801973D01*
X89509616Y-96629835D01*
X89468492Y-96530553D01*
X89430389Y-96438564D01*
X89390000Y-96235516D01*
X89390000Y-96028484D01*
X89430389Y-95825436D01*
X89509615Y-95634167D01*
X89624635Y-95462027D01*
X89771027Y-95315635D01*
X89796772Y-95298433D01*
X89943165Y-95200616D01*
X89949915Y-95197820D01*
X90134436Y-95121389D01*
X90337484Y-95081000D01*
X90544516Y-95081000D01*
X90747564Y-95121389D01*
X90747564Y-95121389D01*
G37*
G36*
X95065564Y-95121389D02*
G01*
X95250085Y-95197820D01*
X95256835Y-95200616D01*
X95403228Y-95298433D01*
X95428973Y-95315635D01*
X95575365Y-95462027D01*
X95690385Y-95634167D01*
X95769611Y-95825436D01*
X95810000Y-96028484D01*
X95810000Y-96235516D01*
X95769611Y-96438564D01*
X95731508Y-96530553D01*
X95690384Y-96629835D01*
X95575365Y-96801973D01*
X95428973Y-96948365D01*
X95256835Y-97063384D01*
X95256834Y-97063385D01*
X95256833Y-97063385D01*
X95065564Y-97142611D01*
X94862516Y-97183000D01*
X94655484Y-97183000D01*
X94452436Y-97142611D01*
X94261167Y-97063385D01*
X94261166Y-97063385D01*
X94261165Y-97063384D01*
X94089027Y-96948365D01*
X93942635Y-96801973D01*
X93827616Y-96629835D01*
X93786492Y-96530553D01*
X93748389Y-96438564D01*
X93708000Y-96235516D01*
X93708000Y-96028484D01*
X93748389Y-95825436D01*
X93827615Y-95634167D01*
X93942635Y-95462027D01*
X94089027Y-95315635D01*
X94114772Y-95298433D01*
X94261165Y-95200616D01*
X94267915Y-95197820D01*
X94452436Y-95121389D01*
X94655484Y-95081000D01*
X94862516Y-95081000D01*
X95065564Y-95121389D01*
X95065564Y-95121389D01*
G37*
G36*
X141665564Y-95121389D02*
G01*
X141850085Y-95197820D01*
X141856835Y-95200616D01*
X142003228Y-95298433D01*
X142028973Y-95315635D01*
X142175365Y-95462027D01*
X142290385Y-95634167D01*
X142369611Y-95825436D01*
X142410000Y-96028484D01*
X142410000Y-96235516D01*
X142369611Y-96438564D01*
X142331508Y-96530553D01*
X142290384Y-96629835D01*
X142175365Y-96801973D01*
X142028973Y-96948365D01*
X141856835Y-97063384D01*
X141856834Y-97063385D01*
X141856833Y-97063385D01*
X141665564Y-97142611D01*
X141462516Y-97183000D01*
X141255484Y-97183000D01*
X141052436Y-97142611D01*
X140861167Y-97063385D01*
X140861166Y-97063385D01*
X140861165Y-97063384D01*
X140689027Y-96948365D01*
X140542635Y-96801973D01*
X140427616Y-96629835D01*
X140386492Y-96530553D01*
X140348389Y-96438564D01*
X140308000Y-96235516D01*
X140308000Y-96028484D01*
X140348389Y-95825436D01*
X140427615Y-95634167D01*
X140542635Y-95462027D01*
X140689027Y-95315635D01*
X140714772Y-95298433D01*
X140861165Y-95200616D01*
X140867915Y-95197820D01*
X141052436Y-95121389D01*
X141255484Y-95081000D01*
X141462516Y-95081000D01*
X141665564Y-95121389D01*
X141665564Y-95121389D01*
G37*
G36*
X137347564Y-95121389D02*
G01*
X137532085Y-95197820D01*
X137538835Y-95200616D01*
X137685228Y-95298433D01*
X137710973Y-95315635D01*
X137857365Y-95462027D01*
X137972385Y-95634167D01*
X138051611Y-95825436D01*
X138092000Y-96028484D01*
X138092000Y-96235516D01*
X138051611Y-96438564D01*
X138013508Y-96530553D01*
X137972384Y-96629835D01*
X137857365Y-96801973D01*
X137710973Y-96948365D01*
X137538835Y-97063384D01*
X137538834Y-97063385D01*
X137538833Y-97063385D01*
X137347564Y-97142611D01*
X137144516Y-97183000D01*
X136937484Y-97183000D01*
X136734436Y-97142611D01*
X136543167Y-97063385D01*
X136543166Y-97063385D01*
X136543165Y-97063384D01*
X136371027Y-96948365D01*
X136224635Y-96801973D01*
X136109616Y-96629835D01*
X136068492Y-96530553D01*
X136030389Y-96438564D01*
X135990000Y-96235516D01*
X135990000Y-96028484D01*
X136030389Y-95825436D01*
X136109615Y-95634167D01*
X136224635Y-95462027D01*
X136371027Y-95315635D01*
X136396772Y-95298433D01*
X136543165Y-95200616D01*
X136549915Y-95197820D01*
X136734436Y-95121389D01*
X136937484Y-95081000D01*
X137144516Y-95081000D01*
X137347564Y-95121389D01*
X137347564Y-95121389D01*
G37*
G36*
X124288170Y-94130385D02*
G01*
X124295283Y-94153834D01*
X124306834Y-94175445D01*
X124322379Y-94194387D01*
X124341321Y-94209932D01*
X124362932Y-94221483D01*
X124386381Y-94228596D01*
X124589487Y-94268996D01*
X124826253Y-94367068D01*
X124826255Y-94367069D01*
X125039339Y-94509447D01*
X125220553Y-94690661D01*
X125362932Y-94903747D01*
X125461004Y-95140513D01*
X125511000Y-95391861D01*
X125511000Y-95648139D01*
X125461004Y-95899487D01*
X125362932Y-96136253D01*
X125362931Y-96136255D01*
X125220553Y-96349339D01*
X125039339Y-96530553D01*
X124826255Y-96672931D01*
X124826254Y-96672932D01*
X124826253Y-96672932D01*
X124589487Y-96771004D01*
X124338139Y-96821000D01*
X124081861Y-96821000D01*
X123830513Y-96771004D01*
X123593747Y-96672932D01*
X123593746Y-96672932D01*
X123593745Y-96672931D01*
X123380661Y-96530553D01*
X123199447Y-96349339D01*
X123057069Y-96136255D01*
X123057068Y-96136253D01*
X122958996Y-95899487D01*
X122947597Y-95842180D01*
X122940484Y-95818731D01*
X122928933Y-95797120D01*
X122913388Y-95778179D01*
X122894446Y-95762633D01*
X122872835Y-95751082D01*
X122849386Y-95743969D01*
X122825000Y-95741567D01*
X122800614Y-95743969D01*
X122777165Y-95751082D01*
X122755554Y-95762633D01*
X122736613Y-95778178D01*
X122721067Y-95797120D01*
X122709516Y-95818731D01*
X122702403Y-95842180D01*
X122691004Y-95899487D01*
X122592932Y-96136253D01*
X122592931Y-96136255D01*
X122450553Y-96349339D01*
X122269339Y-96530553D01*
X122056255Y-96672931D01*
X122056254Y-96672932D01*
X122056253Y-96672932D01*
X121819487Y-96771004D01*
X121568139Y-96821000D01*
X121311861Y-96821000D01*
X121060513Y-96771004D01*
X120823747Y-96672932D01*
X120823746Y-96672932D01*
X120823745Y-96672931D01*
X120610661Y-96530553D01*
X120429447Y-96349339D01*
X120287069Y-96136255D01*
X120287068Y-96136253D01*
X120188996Y-95899487D01*
X120177597Y-95842180D01*
X120170484Y-95818731D01*
X120158933Y-95797120D01*
X120143388Y-95778179D01*
X120124446Y-95762633D01*
X120102835Y-95751082D01*
X120079386Y-95743969D01*
X120055000Y-95741567D01*
X120030614Y-95743969D01*
X120007165Y-95751082D01*
X119985554Y-95762633D01*
X119966613Y-95778178D01*
X119951067Y-95797120D01*
X119939516Y-95818731D01*
X119932403Y-95842180D01*
X119921004Y-95899487D01*
X119822932Y-96136253D01*
X119822931Y-96136255D01*
X119680553Y-96349339D01*
X119499339Y-96530553D01*
X119286255Y-96672931D01*
X119286254Y-96672932D01*
X119286253Y-96672932D01*
X119049487Y-96771004D01*
X118798139Y-96821000D01*
X118541861Y-96821000D01*
X118290513Y-96771004D01*
X118053747Y-96672932D01*
X118053746Y-96672932D01*
X118053745Y-96672931D01*
X117840661Y-96530553D01*
X117659447Y-96349339D01*
X117517069Y-96136255D01*
X117517068Y-96136253D01*
X117418996Y-95899487D01*
X117407597Y-95842180D01*
X117400484Y-95818731D01*
X117388933Y-95797120D01*
X117373388Y-95778179D01*
X117354446Y-95762633D01*
X117332835Y-95751082D01*
X117309386Y-95743969D01*
X117285000Y-95741567D01*
X117260614Y-95743969D01*
X117237165Y-95751082D01*
X117215554Y-95762633D01*
X117196613Y-95778178D01*
X117181067Y-95797120D01*
X117169516Y-95818731D01*
X117162403Y-95842180D01*
X117151004Y-95899487D01*
X117052932Y-96136253D01*
X117052931Y-96136255D01*
X116910553Y-96349339D01*
X116729339Y-96530553D01*
X116516255Y-96672931D01*
X116516254Y-96672932D01*
X116516253Y-96672932D01*
X116279487Y-96771004D01*
X116028139Y-96821000D01*
X115771861Y-96821000D01*
X115520513Y-96771004D01*
X115283747Y-96672932D01*
X115283746Y-96672932D01*
X115283745Y-96672931D01*
X115070661Y-96530553D01*
X114889447Y-96349339D01*
X114747069Y-96136255D01*
X114747068Y-96136253D01*
X114648996Y-95899487D01*
X114637597Y-95842180D01*
X114630484Y-95818731D01*
X114618933Y-95797120D01*
X114603388Y-95778179D01*
X114584446Y-95762633D01*
X114562835Y-95751082D01*
X114539386Y-95743969D01*
X114515000Y-95741567D01*
X114490614Y-95743969D01*
X114467165Y-95751082D01*
X114445554Y-95762633D01*
X114426613Y-95778178D01*
X114411067Y-95797120D01*
X114399516Y-95818731D01*
X114392403Y-95842180D01*
X114381004Y-95899487D01*
X114282932Y-96136253D01*
X114282931Y-96136255D01*
X114140553Y-96349339D01*
X113959339Y-96530553D01*
X113746255Y-96672931D01*
X113746254Y-96672932D01*
X113746253Y-96672932D01*
X113509487Y-96771004D01*
X113258139Y-96821000D01*
X113001861Y-96821000D01*
X112750513Y-96771004D01*
X112513747Y-96672932D01*
X112513746Y-96672932D01*
X112513745Y-96672931D01*
X112300661Y-96530553D01*
X112119447Y-96349339D01*
X111977069Y-96136255D01*
X111977068Y-96136253D01*
X111878996Y-95899487D01*
X111867597Y-95842180D01*
X111860484Y-95818731D01*
X111848933Y-95797120D01*
X111833388Y-95778179D01*
X111814446Y-95762633D01*
X111792835Y-95751082D01*
X111769386Y-95743969D01*
X111745000Y-95741567D01*
X111720614Y-95743969D01*
X111697165Y-95751082D01*
X111675554Y-95762633D01*
X111656613Y-95778178D01*
X111641067Y-95797120D01*
X111629516Y-95818731D01*
X111622403Y-95842180D01*
X111611004Y-95899487D01*
X111512932Y-96136253D01*
X111512931Y-96136255D01*
X111370553Y-96349339D01*
X111189339Y-96530553D01*
X110976255Y-96672931D01*
X110976254Y-96672932D01*
X110976253Y-96672932D01*
X110739487Y-96771004D01*
X110488139Y-96821000D01*
X110231861Y-96821000D01*
X109980513Y-96771004D01*
X109743747Y-96672932D01*
X109743746Y-96672932D01*
X109743745Y-96672931D01*
X109530661Y-96530553D01*
X109349447Y-96349339D01*
X109207069Y-96136255D01*
X109207068Y-96136253D01*
X109108996Y-95899487D01*
X109097597Y-95842180D01*
X109090484Y-95818731D01*
X109078933Y-95797120D01*
X109063388Y-95778179D01*
X109044446Y-95762633D01*
X109022835Y-95751082D01*
X108999386Y-95743969D01*
X108975000Y-95741567D01*
X108950614Y-95743969D01*
X108927165Y-95751082D01*
X108905554Y-95762633D01*
X108886613Y-95778178D01*
X108871067Y-95797120D01*
X108859516Y-95818731D01*
X108852403Y-95842180D01*
X108841004Y-95899487D01*
X108742932Y-96136253D01*
X108742931Y-96136255D01*
X108600553Y-96349339D01*
X108419339Y-96530553D01*
X108206255Y-96672931D01*
X108206254Y-96672932D01*
X108206253Y-96672932D01*
X107969487Y-96771004D01*
X107718139Y-96821000D01*
X107461861Y-96821000D01*
X107210513Y-96771004D01*
X106973747Y-96672932D01*
X106973746Y-96672932D01*
X106973745Y-96672931D01*
X106760661Y-96530553D01*
X106579447Y-96349339D01*
X106437069Y-96136255D01*
X106437068Y-96136253D01*
X106338996Y-95899487D01*
X106289000Y-95648139D01*
X106289000Y-95391861D01*
X106338996Y-95140513D01*
X106437068Y-94903747D01*
X106579447Y-94690661D01*
X106760661Y-94509447D01*
X106973745Y-94367069D01*
X106973747Y-94367068D01*
X107210513Y-94268996D01*
X107461861Y-94219000D01*
X107718139Y-94219000D01*
X107969487Y-94268996D01*
X108206253Y-94367068D01*
X108206255Y-94367069D01*
X108419339Y-94509447D01*
X108600553Y-94690661D01*
X108742932Y-94903747D01*
X108841004Y-95140513D01*
X108852403Y-95197820D01*
X108859516Y-95221269D01*
X108871067Y-95242880D01*
X108886612Y-95261821D01*
X108905554Y-95277367D01*
X108927165Y-95288918D01*
X108950614Y-95296031D01*
X108975000Y-95298433D01*
X108999386Y-95296031D01*
X109022835Y-95288918D01*
X109044446Y-95277367D01*
X109063387Y-95261822D01*
X109078933Y-95242880D01*
X109090484Y-95221269D01*
X109097597Y-95197820D01*
X109108996Y-95140513D01*
X109207068Y-94903747D01*
X109349447Y-94690661D01*
X109530661Y-94509447D01*
X109743745Y-94367069D01*
X109743747Y-94367068D01*
X109980513Y-94268996D01*
X110231861Y-94219000D01*
X110488139Y-94219000D01*
X110739487Y-94268996D01*
X110976253Y-94367068D01*
X110976255Y-94367069D01*
X111189339Y-94509447D01*
X111370553Y-94690661D01*
X111512932Y-94903747D01*
X111611004Y-95140513D01*
X111622403Y-95197820D01*
X111629516Y-95221269D01*
X111641067Y-95242880D01*
X111656612Y-95261821D01*
X111675554Y-95277367D01*
X111697165Y-95288918D01*
X111720614Y-95296031D01*
X111745000Y-95298433D01*
X111769386Y-95296031D01*
X111792835Y-95288918D01*
X111814446Y-95277367D01*
X111833387Y-95261822D01*
X111848933Y-95242880D01*
X111860484Y-95221269D01*
X111867597Y-95197820D01*
X111878996Y-95140513D01*
X111977068Y-94903747D01*
X112119447Y-94690661D01*
X112300661Y-94509447D01*
X112513745Y-94367069D01*
X112513747Y-94367068D01*
X112750513Y-94268996D01*
X113001861Y-94219000D01*
X113258139Y-94219000D01*
X113509487Y-94268996D01*
X113746253Y-94367068D01*
X113746255Y-94367069D01*
X113959339Y-94509447D01*
X114140553Y-94690661D01*
X114282932Y-94903747D01*
X114381004Y-95140513D01*
X114392403Y-95197820D01*
X114399516Y-95221269D01*
X114411067Y-95242880D01*
X114426612Y-95261821D01*
X114445554Y-95277367D01*
X114467165Y-95288918D01*
X114490614Y-95296031D01*
X114515000Y-95298433D01*
X114539386Y-95296031D01*
X114562835Y-95288918D01*
X114584446Y-95277367D01*
X114603387Y-95261822D01*
X114618933Y-95242880D01*
X114630484Y-95221269D01*
X114637597Y-95197820D01*
X114648996Y-95140513D01*
X114747068Y-94903747D01*
X114889447Y-94690661D01*
X115070661Y-94509447D01*
X115283745Y-94367069D01*
X115283747Y-94367068D01*
X115520513Y-94268996D01*
X115771861Y-94219000D01*
X116028139Y-94219000D01*
X116279487Y-94268996D01*
X116516253Y-94367068D01*
X116516255Y-94367069D01*
X116729339Y-94509447D01*
X116910553Y-94690661D01*
X117052932Y-94903747D01*
X117151004Y-95140513D01*
X117162403Y-95197820D01*
X117169516Y-95221269D01*
X117181067Y-95242880D01*
X117196612Y-95261821D01*
X117215554Y-95277367D01*
X117237165Y-95288918D01*
X117260614Y-95296031D01*
X117285000Y-95298433D01*
X117309386Y-95296031D01*
X117332835Y-95288918D01*
X117354446Y-95277367D01*
X117373387Y-95261822D01*
X117388933Y-95242880D01*
X117400484Y-95221269D01*
X117407597Y-95197820D01*
X117418996Y-95140513D01*
X117517068Y-94903747D01*
X117659447Y-94690661D01*
X117840661Y-94509447D01*
X118053745Y-94367069D01*
X118053747Y-94367068D01*
X118290513Y-94268996D01*
X118541861Y-94219000D01*
X118798139Y-94219000D01*
X119049487Y-94268996D01*
X119286253Y-94367068D01*
X119286255Y-94367069D01*
X119499339Y-94509447D01*
X119680553Y-94690661D01*
X119822932Y-94903747D01*
X119921004Y-95140513D01*
X119932403Y-95197820D01*
X119939516Y-95221269D01*
X119951067Y-95242880D01*
X119966612Y-95261821D01*
X119985554Y-95277367D01*
X120007165Y-95288918D01*
X120030614Y-95296031D01*
X120055000Y-95298433D01*
X120079386Y-95296031D01*
X120102835Y-95288918D01*
X120124446Y-95277367D01*
X120143387Y-95261822D01*
X120158933Y-95242880D01*
X120170484Y-95221269D01*
X120177597Y-95197820D01*
X120188996Y-95140513D01*
X120287068Y-94903747D01*
X120429447Y-94690661D01*
X120610661Y-94509447D01*
X120823745Y-94367069D01*
X120823747Y-94367068D01*
X121060513Y-94268996D01*
X121311861Y-94219000D01*
X121568139Y-94219000D01*
X121819487Y-94268996D01*
X122056253Y-94367068D01*
X122056255Y-94367069D01*
X122269339Y-94509447D01*
X122450553Y-94690661D01*
X122592932Y-94903747D01*
X122691004Y-95140513D01*
X122702403Y-95197820D01*
X122709516Y-95221269D01*
X122721067Y-95242880D01*
X122736612Y-95261821D01*
X122755554Y-95277367D01*
X122777165Y-95288918D01*
X122800614Y-95296031D01*
X122825000Y-95298433D01*
X122849386Y-95296031D01*
X122872835Y-95288918D01*
X122894446Y-95277367D01*
X122913387Y-95261822D01*
X122928933Y-95242880D01*
X122940484Y-95221269D01*
X122947597Y-95197820D01*
X122958996Y-95140513D01*
X123057068Y-94903747D01*
X123199447Y-94690661D01*
X123380661Y-94509447D01*
X123593745Y-94367069D01*
X123593747Y-94367068D01*
X123830513Y-94268996D01*
X124081861Y-94219000D01*
X124169001Y-94219000D01*
X124193387Y-94216598D01*
X124216836Y-94209485D01*
X124238447Y-94197934D01*
X124257389Y-94182389D01*
X124272934Y-94163447D01*
X124284485Y-94141836D01*
X124288118Y-94129859D01*
X124288170Y-94130385D01*
X124288170Y-94130385D01*
G37*
G36*
X106584487Y-91428996D02*
G01*
X106821253Y-91527068D01*
X106821255Y-91527069D01*
X107034339Y-91669447D01*
X107215553Y-91850661D01*
X107357932Y-92063747D01*
X107456004Y-92300513D01*
X107467403Y-92357820D01*
X107474516Y-92381269D01*
X107486067Y-92402880D01*
X107501612Y-92421821D01*
X107520554Y-92437367D01*
X107542165Y-92448918D01*
X107565614Y-92456031D01*
X107590000Y-92458433D01*
X107614386Y-92456031D01*
X107637835Y-92448918D01*
X107659446Y-92437367D01*
X107678387Y-92421822D01*
X107693933Y-92402880D01*
X107705484Y-92381269D01*
X107712597Y-92357820D01*
X107723996Y-92300513D01*
X107822068Y-92063747D01*
X107964447Y-91850661D01*
X108145661Y-91669447D01*
X108358745Y-91527069D01*
X108358747Y-91527068D01*
X108595513Y-91428996D01*
X108846861Y-91379000D01*
X109103139Y-91379000D01*
X109354487Y-91428996D01*
X109591253Y-91527068D01*
X109591255Y-91527069D01*
X109804339Y-91669447D01*
X109985553Y-91850661D01*
X110127932Y-92063747D01*
X110226004Y-92300513D01*
X110237403Y-92357820D01*
X110244516Y-92381269D01*
X110256067Y-92402880D01*
X110271612Y-92421821D01*
X110290554Y-92437367D01*
X110312165Y-92448918D01*
X110335614Y-92456031D01*
X110360000Y-92458433D01*
X110384386Y-92456031D01*
X110407835Y-92448918D01*
X110429446Y-92437367D01*
X110448387Y-92421822D01*
X110463933Y-92402880D01*
X110475484Y-92381269D01*
X110482597Y-92357820D01*
X110493996Y-92300513D01*
X110592068Y-92063747D01*
X110734447Y-91850661D01*
X110915661Y-91669447D01*
X111128745Y-91527069D01*
X111128747Y-91527068D01*
X111365513Y-91428996D01*
X111616861Y-91379000D01*
X111873139Y-91379000D01*
X112124487Y-91428996D01*
X112361253Y-91527068D01*
X112361255Y-91527069D01*
X112574339Y-91669447D01*
X112755553Y-91850661D01*
X112897932Y-92063747D01*
X112996004Y-92300513D01*
X113007403Y-92357820D01*
X113014516Y-92381269D01*
X113026067Y-92402880D01*
X113041612Y-92421821D01*
X113060554Y-92437367D01*
X113082165Y-92448918D01*
X113105614Y-92456031D01*
X113130000Y-92458433D01*
X113154386Y-92456031D01*
X113177835Y-92448918D01*
X113199446Y-92437367D01*
X113218387Y-92421822D01*
X113233933Y-92402880D01*
X113245484Y-92381269D01*
X113252597Y-92357820D01*
X113263996Y-92300513D01*
X113362068Y-92063747D01*
X113504447Y-91850661D01*
X113685661Y-91669447D01*
X113898745Y-91527069D01*
X113898747Y-91527068D01*
X114135513Y-91428996D01*
X114386861Y-91379000D01*
X114643139Y-91379000D01*
X114894487Y-91428996D01*
X115131253Y-91527068D01*
X115131255Y-91527069D01*
X115344339Y-91669447D01*
X115525553Y-91850661D01*
X115667932Y-92063747D01*
X115766004Y-92300513D01*
X115777403Y-92357820D01*
X115784516Y-92381269D01*
X115796067Y-92402880D01*
X115811612Y-92421821D01*
X115830554Y-92437367D01*
X115852165Y-92448918D01*
X115875614Y-92456031D01*
X115900000Y-92458433D01*
X115924386Y-92456031D01*
X115947835Y-92448918D01*
X115969446Y-92437367D01*
X115988387Y-92421822D01*
X116003933Y-92402880D01*
X116015484Y-92381269D01*
X116022597Y-92357820D01*
X116033996Y-92300513D01*
X116132068Y-92063747D01*
X116274447Y-91850661D01*
X116455661Y-91669447D01*
X116668745Y-91527069D01*
X116668747Y-91527068D01*
X116905513Y-91428996D01*
X117156861Y-91379000D01*
X117413139Y-91379000D01*
X117664487Y-91428996D01*
X117901253Y-91527068D01*
X117901255Y-91527069D01*
X118114339Y-91669447D01*
X118295553Y-91850661D01*
X118437932Y-92063747D01*
X118536004Y-92300513D01*
X118547403Y-92357820D01*
X118554516Y-92381269D01*
X118566067Y-92402880D01*
X118581612Y-92421821D01*
X118600554Y-92437367D01*
X118622165Y-92448918D01*
X118645614Y-92456031D01*
X118670000Y-92458433D01*
X118694386Y-92456031D01*
X118717835Y-92448918D01*
X118739446Y-92437367D01*
X118758387Y-92421822D01*
X118773933Y-92402880D01*
X118785484Y-92381269D01*
X118792597Y-92357820D01*
X118803996Y-92300513D01*
X118902068Y-92063747D01*
X119044447Y-91850661D01*
X119225661Y-91669447D01*
X119438745Y-91527069D01*
X119438747Y-91527068D01*
X119675513Y-91428996D01*
X119926861Y-91379000D01*
X120183139Y-91379000D01*
X120434487Y-91428996D01*
X120671253Y-91527068D01*
X120671255Y-91527069D01*
X120884339Y-91669447D01*
X121065553Y-91850661D01*
X121207932Y-92063747D01*
X121306004Y-92300513D01*
X121317403Y-92357820D01*
X121324516Y-92381269D01*
X121336067Y-92402880D01*
X121351612Y-92421821D01*
X121370554Y-92437367D01*
X121392165Y-92448918D01*
X121415614Y-92456031D01*
X121440000Y-92458433D01*
X121464386Y-92456031D01*
X121487835Y-92448918D01*
X121509446Y-92437367D01*
X121528387Y-92421822D01*
X121543933Y-92402880D01*
X121555484Y-92381269D01*
X121562597Y-92357820D01*
X121573996Y-92300513D01*
X121672068Y-92063747D01*
X121814447Y-91850661D01*
X121995661Y-91669447D01*
X122208745Y-91527069D01*
X122208747Y-91527068D01*
X122445513Y-91428996D01*
X122696861Y-91379000D01*
X122953139Y-91379000D01*
X123204487Y-91428996D01*
X123441253Y-91527068D01*
X123441255Y-91527069D01*
X123654339Y-91669447D01*
X123835553Y-91850661D01*
X123977932Y-92063747D01*
X124053517Y-92246224D01*
X124065068Y-92267835D01*
X124080614Y-92286777D01*
X124099555Y-92302322D01*
X124121166Y-92313873D01*
X124144615Y-92320986D01*
X124169001Y-92323388D01*
X124193387Y-92320986D01*
X124216836Y-92313873D01*
X124238447Y-92302322D01*
X124257389Y-92286776D01*
X124272934Y-92267835D01*
X124284485Y-92246224D01*
X124291598Y-92222775D01*
X124294000Y-92198389D01*
X124294000Y-91379000D01*
X126896000Y-91379000D01*
X126896000Y-93981000D01*
X124410767Y-93981000D01*
X124386381Y-93983402D01*
X124362932Y-93990515D01*
X124341321Y-94002066D01*
X124322379Y-94017611D01*
X124306834Y-94036553D01*
X124295283Y-94058164D01*
X124294000Y-94062394D01*
X124294000Y-93161611D01*
X124291598Y-93137225D01*
X124284485Y-93113776D01*
X124272934Y-93092165D01*
X124257389Y-93073223D01*
X124238447Y-93057678D01*
X124216836Y-93046127D01*
X124193387Y-93039014D01*
X124169001Y-93036612D01*
X124144615Y-93039014D01*
X124121166Y-93046127D01*
X124099555Y-93057678D01*
X124080613Y-93073223D01*
X124065068Y-93092165D01*
X124053517Y-93113776D01*
X123977932Y-93296253D01*
X123977931Y-93296255D01*
X123835553Y-93509339D01*
X123654339Y-93690553D01*
X123441255Y-93832931D01*
X123441254Y-93832932D01*
X123441253Y-93832932D01*
X123204487Y-93931004D01*
X122953139Y-93981000D01*
X122696861Y-93981000D01*
X122445513Y-93931004D01*
X122208747Y-93832932D01*
X122208746Y-93832932D01*
X122208745Y-93832931D01*
X121995661Y-93690553D01*
X121814447Y-93509339D01*
X121672069Y-93296255D01*
X121672068Y-93296253D01*
X121573996Y-93059487D01*
X121562597Y-93002180D01*
X121555484Y-92978731D01*
X121543933Y-92957120D01*
X121528388Y-92938179D01*
X121509446Y-92922633D01*
X121487835Y-92911082D01*
X121464386Y-92903969D01*
X121440000Y-92901567D01*
X121415614Y-92903969D01*
X121392165Y-92911082D01*
X121370554Y-92922633D01*
X121351613Y-92938178D01*
X121336067Y-92957120D01*
X121324516Y-92978731D01*
X121317403Y-93002180D01*
X121306004Y-93059487D01*
X121207932Y-93296253D01*
X121207931Y-93296255D01*
X121065553Y-93509339D01*
X120884339Y-93690553D01*
X120671255Y-93832931D01*
X120671254Y-93832932D01*
X120671253Y-93832932D01*
X120434487Y-93931004D01*
X120183139Y-93981000D01*
X119926861Y-93981000D01*
X119675513Y-93931004D01*
X119438747Y-93832932D01*
X119438746Y-93832932D01*
X119438745Y-93832931D01*
X119225661Y-93690553D01*
X119044447Y-93509339D01*
X118902069Y-93296255D01*
X118902068Y-93296253D01*
X118803996Y-93059487D01*
X118792597Y-93002180D01*
X118785484Y-92978731D01*
X118773933Y-92957120D01*
X118758388Y-92938179D01*
X118739446Y-92922633D01*
X118717835Y-92911082D01*
X118694386Y-92903969D01*
X118670000Y-92901567D01*
X118645614Y-92903969D01*
X118622165Y-92911082D01*
X118600554Y-92922633D01*
X118581613Y-92938178D01*
X118566067Y-92957120D01*
X118554516Y-92978731D01*
X118547403Y-93002180D01*
X118536004Y-93059487D01*
X118437932Y-93296253D01*
X118437931Y-93296255D01*
X118295553Y-93509339D01*
X118114339Y-93690553D01*
X117901255Y-93832931D01*
X117901254Y-93832932D01*
X117901253Y-93832932D01*
X117664487Y-93931004D01*
X117413139Y-93981000D01*
X117156861Y-93981000D01*
X116905513Y-93931004D01*
X116668747Y-93832932D01*
X116668746Y-93832932D01*
X116668745Y-93832931D01*
X116455661Y-93690553D01*
X116274447Y-93509339D01*
X116132069Y-93296255D01*
X116132068Y-93296253D01*
X116033996Y-93059487D01*
X116022597Y-93002180D01*
X116015484Y-92978731D01*
X116003933Y-92957120D01*
X115988388Y-92938179D01*
X115969446Y-92922633D01*
X115947835Y-92911082D01*
X115924386Y-92903969D01*
X115900000Y-92901567D01*
X115875614Y-92903969D01*
X115852165Y-92911082D01*
X115830554Y-92922633D01*
X115811613Y-92938178D01*
X115796067Y-92957120D01*
X115784516Y-92978731D01*
X115777403Y-93002180D01*
X115766004Y-93059487D01*
X115667932Y-93296253D01*
X115667931Y-93296255D01*
X115525553Y-93509339D01*
X115344339Y-93690553D01*
X115131255Y-93832931D01*
X115131254Y-93832932D01*
X115131253Y-93832932D01*
X114894487Y-93931004D01*
X114643139Y-93981000D01*
X114386861Y-93981000D01*
X114135513Y-93931004D01*
X113898747Y-93832932D01*
X113898746Y-93832932D01*
X113898745Y-93832931D01*
X113685661Y-93690553D01*
X113504447Y-93509339D01*
X113362069Y-93296255D01*
X113362068Y-93296253D01*
X113263996Y-93059487D01*
X113252597Y-93002180D01*
X113245484Y-92978731D01*
X113233933Y-92957120D01*
X113218388Y-92938179D01*
X113199446Y-92922633D01*
X113177835Y-92911082D01*
X113154386Y-92903969D01*
X113130000Y-92901567D01*
X113105614Y-92903969D01*
X113082165Y-92911082D01*
X113060554Y-92922633D01*
X113041613Y-92938178D01*
X113026067Y-92957120D01*
X113014516Y-92978731D01*
X113007403Y-93002180D01*
X112996004Y-93059487D01*
X112897932Y-93296253D01*
X112897931Y-93296255D01*
X112755553Y-93509339D01*
X112574339Y-93690553D01*
X112361255Y-93832931D01*
X112361254Y-93832932D01*
X112361253Y-93832932D01*
X112124487Y-93931004D01*
X111873139Y-93981000D01*
X111616861Y-93981000D01*
X111365513Y-93931004D01*
X111128747Y-93832932D01*
X111128746Y-93832932D01*
X111128745Y-93832931D01*
X110915661Y-93690553D01*
X110734447Y-93509339D01*
X110592069Y-93296255D01*
X110592068Y-93296253D01*
X110493996Y-93059487D01*
X110482597Y-93002180D01*
X110475484Y-92978731D01*
X110463933Y-92957120D01*
X110448388Y-92938179D01*
X110429446Y-92922633D01*
X110407835Y-92911082D01*
X110384386Y-92903969D01*
X110360000Y-92901567D01*
X110335614Y-92903969D01*
X110312165Y-92911082D01*
X110290554Y-92922633D01*
X110271613Y-92938178D01*
X110256067Y-92957120D01*
X110244516Y-92978731D01*
X110237403Y-93002180D01*
X110226004Y-93059487D01*
X110127932Y-93296253D01*
X110127931Y-93296255D01*
X109985553Y-93509339D01*
X109804339Y-93690553D01*
X109591255Y-93832931D01*
X109591254Y-93832932D01*
X109591253Y-93832932D01*
X109354487Y-93931004D01*
X109103139Y-93981000D01*
X108846861Y-93981000D01*
X108595513Y-93931004D01*
X108358747Y-93832932D01*
X108358746Y-93832932D01*
X108358745Y-93832931D01*
X108145661Y-93690553D01*
X107964447Y-93509339D01*
X107822069Y-93296255D01*
X107822068Y-93296253D01*
X107723996Y-93059487D01*
X107712597Y-93002180D01*
X107705484Y-92978731D01*
X107693933Y-92957120D01*
X107678388Y-92938179D01*
X107659446Y-92922633D01*
X107637835Y-92911082D01*
X107614386Y-92903969D01*
X107590000Y-92901567D01*
X107565614Y-92903969D01*
X107542165Y-92911082D01*
X107520554Y-92922633D01*
X107501613Y-92938178D01*
X107486067Y-92957120D01*
X107474516Y-92978731D01*
X107467403Y-93002180D01*
X107456004Y-93059487D01*
X107357932Y-93296253D01*
X107357931Y-93296255D01*
X107215553Y-93509339D01*
X107034339Y-93690553D01*
X106821255Y-93832931D01*
X106821254Y-93832932D01*
X106821253Y-93832932D01*
X106584487Y-93931004D01*
X106333139Y-93981000D01*
X106076861Y-93981000D01*
X105825513Y-93931004D01*
X105588747Y-93832932D01*
X105588746Y-93832932D01*
X105588745Y-93832931D01*
X105375661Y-93690553D01*
X105194447Y-93509339D01*
X105052069Y-93296255D01*
X105052068Y-93296253D01*
X104953996Y-93059487D01*
X104904000Y-92808139D01*
X104904000Y-92551861D01*
X104953996Y-92300513D01*
X105052068Y-92063747D01*
X105194447Y-91850661D01*
X105375661Y-91669447D01*
X105588745Y-91527069D01*
X105588747Y-91527068D01*
X105825513Y-91428996D01*
X106076861Y-91379000D01*
X106333139Y-91379000D01*
X106584487Y-91428996D01*
X106584487Y-91428996D01*
G37*
G36*
X95065564Y-91057389D02*
G01*
X95256833Y-91136615D01*
X95256835Y-91136616D01*
X95428973Y-91251635D01*
X95575365Y-91398027D01*
X95596059Y-91428997D01*
X95690385Y-91570167D01*
X95769611Y-91761436D01*
X95810000Y-91964484D01*
X95810000Y-92171516D01*
X95769611Y-92374564D01*
X95690385Y-92565833D01*
X95690384Y-92565835D01*
X95575365Y-92737973D01*
X95428973Y-92884365D01*
X95256835Y-92999384D01*
X95256834Y-92999385D01*
X95256833Y-92999385D01*
X95065564Y-93078611D01*
X94862516Y-93119000D01*
X94655484Y-93119000D01*
X94452436Y-93078611D01*
X94261167Y-92999385D01*
X94261166Y-92999385D01*
X94261165Y-92999384D01*
X94089027Y-92884365D01*
X93942635Y-92737973D01*
X93827616Y-92565835D01*
X93827615Y-92565833D01*
X93748389Y-92374564D01*
X93708000Y-92171516D01*
X93708000Y-91964484D01*
X93748389Y-91761436D01*
X93827615Y-91570167D01*
X93921942Y-91428997D01*
X93942635Y-91398027D01*
X94089027Y-91251635D01*
X94261165Y-91136616D01*
X94261167Y-91136615D01*
X94452436Y-91057389D01*
X94655484Y-91017000D01*
X94862516Y-91017000D01*
X95065564Y-91057389D01*
X95065564Y-91057389D01*
G37*
G36*
X137347564Y-91057389D02*
G01*
X137538833Y-91136615D01*
X137538835Y-91136616D01*
X137710973Y-91251635D01*
X137857365Y-91398027D01*
X137878059Y-91428997D01*
X137972385Y-91570167D01*
X138051611Y-91761436D01*
X138092000Y-91964484D01*
X138092000Y-92171516D01*
X138051611Y-92374564D01*
X137972385Y-92565833D01*
X137972384Y-92565835D01*
X137857365Y-92737973D01*
X137710973Y-92884365D01*
X137538835Y-92999384D01*
X137538834Y-92999385D01*
X137538833Y-92999385D01*
X137347564Y-93078611D01*
X137144516Y-93119000D01*
X136937484Y-93119000D01*
X136734436Y-93078611D01*
X136543167Y-92999385D01*
X136543166Y-92999385D01*
X136543165Y-92999384D01*
X136371027Y-92884365D01*
X136224635Y-92737973D01*
X136109616Y-92565835D01*
X136109615Y-92565833D01*
X136030389Y-92374564D01*
X135990000Y-92171516D01*
X135990000Y-91964484D01*
X136030389Y-91761436D01*
X136109615Y-91570167D01*
X136203942Y-91428997D01*
X136224635Y-91398027D01*
X136371027Y-91251635D01*
X136543165Y-91136616D01*
X136543167Y-91136615D01*
X136734436Y-91057389D01*
X136937484Y-91017000D01*
X137144516Y-91017000D01*
X137347564Y-91057389D01*
X137347564Y-91057389D01*
G37*
G36*
X90747564Y-91057389D02*
G01*
X90938833Y-91136615D01*
X90938835Y-91136616D01*
X91110973Y-91251635D01*
X91257365Y-91398027D01*
X91278059Y-91428997D01*
X91372385Y-91570167D01*
X91451611Y-91761436D01*
X91492000Y-91964484D01*
X91492000Y-92171516D01*
X91451611Y-92374564D01*
X91372385Y-92565833D01*
X91372384Y-92565835D01*
X91257365Y-92737973D01*
X91110973Y-92884365D01*
X90938835Y-92999384D01*
X90938834Y-92999385D01*
X90938833Y-92999385D01*
X90747564Y-93078611D01*
X90544516Y-93119000D01*
X90337484Y-93119000D01*
X90134436Y-93078611D01*
X89943167Y-92999385D01*
X89943166Y-92999385D01*
X89943165Y-92999384D01*
X89771027Y-92884365D01*
X89624635Y-92737973D01*
X89509616Y-92565835D01*
X89509615Y-92565833D01*
X89430389Y-92374564D01*
X89390000Y-92171516D01*
X89390000Y-91964484D01*
X89430389Y-91761436D01*
X89509615Y-91570167D01*
X89603942Y-91428997D01*
X89624635Y-91398027D01*
X89771027Y-91251635D01*
X89943165Y-91136616D01*
X89943167Y-91136615D01*
X90134436Y-91057389D01*
X90337484Y-91017000D01*
X90544516Y-91017000D01*
X90747564Y-91057389D01*
X90747564Y-91057389D01*
G37*
G36*
X141665564Y-91057389D02*
G01*
X141856833Y-91136615D01*
X141856835Y-91136616D01*
X142028973Y-91251635D01*
X142175365Y-91398027D01*
X142196059Y-91428997D01*
X142290385Y-91570167D01*
X142369611Y-91761436D01*
X142410000Y-91964484D01*
X142410000Y-92171516D01*
X142369611Y-92374564D01*
X142290385Y-92565833D01*
X142290384Y-92565835D01*
X142175365Y-92737973D01*
X142028973Y-92884365D01*
X141856835Y-92999384D01*
X141856834Y-92999385D01*
X141856833Y-92999385D01*
X141665564Y-93078611D01*
X141462516Y-93119000D01*
X141255484Y-93119000D01*
X141052436Y-93078611D01*
X140861167Y-92999385D01*
X140861166Y-92999385D01*
X140861165Y-92999384D01*
X140689027Y-92884365D01*
X140542635Y-92737973D01*
X140427616Y-92565835D01*
X140427615Y-92565833D01*
X140348389Y-92374564D01*
X140308000Y-92171516D01*
X140308000Y-91964484D01*
X140348389Y-91761436D01*
X140427615Y-91570167D01*
X140521942Y-91428997D01*
X140542635Y-91398027D01*
X140689027Y-91251635D01*
X140861165Y-91136616D01*
X140861167Y-91136615D01*
X141052436Y-91057389D01*
X141255484Y-91017000D01*
X141462516Y-91017000D01*
X141665564Y-91057389D01*
X141665564Y-91057389D01*
G37*
G36*
X141665564Y-86993389D02*
G01*
X141856833Y-87072615D01*
X141856835Y-87072616D01*
X142028973Y-87187635D01*
X142175365Y-87334027D01*
X142279982Y-87490597D01*
X142290385Y-87506167D01*
X142369611Y-87697436D01*
X142410000Y-87900484D01*
X142410000Y-88107516D01*
X142369611Y-88310564D01*
X142290385Y-88501833D01*
X142290384Y-88501835D01*
X142175365Y-88673973D01*
X142028973Y-88820365D01*
X141856835Y-88935384D01*
X141856834Y-88935385D01*
X141856833Y-88935385D01*
X141665564Y-89014611D01*
X141462516Y-89055000D01*
X141255484Y-89055000D01*
X141052436Y-89014611D01*
X140861167Y-88935385D01*
X140861166Y-88935385D01*
X140861165Y-88935384D01*
X140689027Y-88820365D01*
X140542635Y-88673973D01*
X140427616Y-88501835D01*
X140427615Y-88501833D01*
X140348389Y-88310564D01*
X140308000Y-88107516D01*
X140308000Y-87900484D01*
X140348389Y-87697436D01*
X140427615Y-87506167D01*
X140438019Y-87490597D01*
X140542635Y-87334027D01*
X140689027Y-87187635D01*
X140861165Y-87072616D01*
X140861167Y-87072615D01*
X141052436Y-86993389D01*
X141255484Y-86953000D01*
X141462516Y-86953000D01*
X141665564Y-86993389D01*
X141665564Y-86993389D01*
G37*
G36*
X95065564Y-86993389D02*
G01*
X95256833Y-87072615D01*
X95256835Y-87072616D01*
X95428973Y-87187635D01*
X95575365Y-87334027D01*
X95679982Y-87490597D01*
X95690385Y-87506167D01*
X95769611Y-87697436D01*
X95810000Y-87900484D01*
X95810000Y-88107516D01*
X95769611Y-88310564D01*
X95690385Y-88501833D01*
X95690384Y-88501835D01*
X95575365Y-88673973D01*
X95428973Y-88820365D01*
X95256835Y-88935384D01*
X95256834Y-88935385D01*
X95256833Y-88935385D01*
X95065564Y-89014611D01*
X94862516Y-89055000D01*
X94655484Y-89055000D01*
X94452436Y-89014611D01*
X94261167Y-88935385D01*
X94261166Y-88935385D01*
X94261165Y-88935384D01*
X94089027Y-88820365D01*
X93942635Y-88673973D01*
X93827616Y-88501835D01*
X93827615Y-88501833D01*
X93748389Y-88310564D01*
X93708000Y-88107516D01*
X93708000Y-87900484D01*
X93748389Y-87697436D01*
X93827615Y-87506167D01*
X93838019Y-87490597D01*
X93942635Y-87334027D01*
X94089027Y-87187635D01*
X94261165Y-87072616D01*
X94261167Y-87072615D01*
X94452436Y-86993389D01*
X94655484Y-86953000D01*
X94862516Y-86953000D01*
X95065564Y-86993389D01*
X95065564Y-86993389D01*
G37*
G36*
X157855656Y-84418798D02*
G01*
X157961979Y-84439947D01*
X158262442Y-84564403D01*
X158532851Y-84745085D01*
X158762815Y-84975049D01*
X158943497Y-85245458D01*
X159067953Y-85545921D01*
X159131400Y-85864891D01*
X159131400Y-86190109D01*
X159067953Y-86509079D01*
X158943497Y-86809542D01*
X158762815Y-87079951D01*
X158532851Y-87309915D01*
X158262442Y-87490597D01*
X157961979Y-87615053D01*
X157855656Y-87636202D01*
X157643011Y-87678500D01*
X157317789Y-87678500D01*
X157105144Y-87636202D01*
X156998821Y-87615053D01*
X156698358Y-87490597D01*
X156427949Y-87309915D01*
X156197985Y-87079951D01*
X156017303Y-86809542D01*
X155892847Y-86509079D01*
X155829400Y-86190109D01*
X155829400Y-85864891D01*
X155892847Y-85545921D01*
X156017303Y-85245458D01*
X156197985Y-84975049D01*
X156427949Y-84745085D01*
X156698358Y-84564403D01*
X156998821Y-84439947D01*
X157105144Y-84418798D01*
X157317789Y-84376500D01*
X157643011Y-84376500D01*
X157855656Y-84418798D01*
X157855656Y-84418798D01*
G37*
G36*
X167911056Y-84418798D02*
G01*
X168017379Y-84439947D01*
X168317842Y-84564403D01*
X168588251Y-84745085D01*
X168818215Y-84975049D01*
X168998897Y-85245458D01*
X169123353Y-85545921D01*
X169186800Y-85864891D01*
X169186800Y-86190109D01*
X169123353Y-86509079D01*
X168998897Y-86809542D01*
X168818215Y-87079951D01*
X168588251Y-87309915D01*
X168317842Y-87490597D01*
X168017379Y-87615053D01*
X167911056Y-87636202D01*
X167698411Y-87678500D01*
X167373189Y-87678500D01*
X167160544Y-87636202D01*
X167054221Y-87615053D01*
X166753758Y-87490597D01*
X166483349Y-87309915D01*
X166253385Y-87079951D01*
X166072703Y-86809542D01*
X165948247Y-86509079D01*
X165884800Y-86190109D01*
X165884800Y-85864891D01*
X165948247Y-85545921D01*
X166072703Y-85245458D01*
X166253385Y-84975049D01*
X166483349Y-84745085D01*
X166753758Y-84564403D01*
X167054221Y-84439947D01*
X167160544Y-84418798D01*
X167373189Y-84376500D01*
X167698411Y-84376500D01*
X167911056Y-84418798D01*
X167911056Y-84418798D01*
G37*
G36*
X111247556Y-84418798D02*
G01*
X111353879Y-84439947D01*
X111654342Y-84564403D01*
X111924751Y-84745085D01*
X112154715Y-84975049D01*
X112335397Y-85245458D01*
X112459853Y-85545921D01*
X112523300Y-85864891D01*
X112523300Y-86190109D01*
X112459853Y-86509079D01*
X112335397Y-86809542D01*
X112154715Y-87079951D01*
X111924751Y-87309915D01*
X111654342Y-87490597D01*
X111353879Y-87615053D01*
X111247556Y-87636202D01*
X111034911Y-87678500D01*
X110709689Y-87678500D01*
X110497044Y-87636202D01*
X110390721Y-87615053D01*
X110090258Y-87490597D01*
X109819849Y-87309915D01*
X109589885Y-87079951D01*
X109409203Y-86809542D01*
X109284747Y-86509079D01*
X109221300Y-86190109D01*
X109221300Y-85864891D01*
X109284747Y-85545921D01*
X109409203Y-85245458D01*
X109589885Y-84975049D01*
X109819849Y-84745085D01*
X110090258Y-84564403D01*
X110390721Y-84439947D01*
X110497044Y-84418798D01*
X110709689Y-84376500D01*
X111034911Y-84376500D01*
X111247556Y-84418798D01*
X111247556Y-84418798D01*
G37*
G36*
X121302956Y-84418798D02*
G01*
X121409279Y-84439947D01*
X121709742Y-84564403D01*
X121980151Y-84745085D01*
X122210115Y-84975049D01*
X122390797Y-85245458D01*
X122515253Y-85545921D01*
X122578700Y-85864891D01*
X122578700Y-86190109D01*
X122515253Y-86509079D01*
X122390797Y-86809542D01*
X122210115Y-87079951D01*
X121980151Y-87309915D01*
X121709742Y-87490597D01*
X121409279Y-87615053D01*
X121302956Y-87636202D01*
X121090311Y-87678500D01*
X120765089Y-87678500D01*
X120552444Y-87636202D01*
X120446121Y-87615053D01*
X120145658Y-87490597D01*
X119875249Y-87309915D01*
X119645285Y-87079951D01*
X119464603Y-86809542D01*
X119340147Y-86509079D01*
X119276700Y-86190109D01*
X119276700Y-85864891D01*
X119340147Y-85545921D01*
X119464603Y-85245458D01*
X119645285Y-84975049D01*
X119875249Y-84745085D01*
X120145658Y-84564403D01*
X120446121Y-84439947D01*
X120552444Y-84418798D01*
X120765089Y-84376500D01*
X121090311Y-84376500D01*
X121302956Y-84418798D01*
X121302956Y-84418798D01*
G37*
G36*
X121302956Y-75661298D02*
G01*
X121409279Y-75682447D01*
X121621737Y-75770450D01*
X121678189Y-75793833D01*
X121709742Y-75806903D01*
X121980151Y-75987585D01*
X122210115Y-76217549D01*
X122390797Y-76487958D01*
X122515253Y-76788421D01*
X122578700Y-77107391D01*
X122578700Y-77432609D01*
X122515253Y-77751579D01*
X122390797Y-78052042D01*
X122210115Y-78322451D01*
X121980151Y-78552415D01*
X121709742Y-78733097D01*
X121409279Y-78857553D01*
X121302956Y-78878702D01*
X121090311Y-78921000D01*
X120765089Y-78921000D01*
X120552444Y-78878702D01*
X120446121Y-78857553D01*
X120145658Y-78733097D01*
X119875249Y-78552415D01*
X119645285Y-78322451D01*
X119464603Y-78052042D01*
X119340147Y-77751579D01*
X119276700Y-77432609D01*
X119276700Y-77107391D01*
X119340147Y-76788421D01*
X119464603Y-76487958D01*
X119645285Y-76217549D01*
X119875249Y-75987585D01*
X120145658Y-75806903D01*
X120177212Y-75793833D01*
X120233663Y-75770450D01*
X120446121Y-75682447D01*
X120552444Y-75661298D01*
X120765089Y-75619000D01*
X121090311Y-75619000D01*
X121302956Y-75661298D01*
X121302956Y-75661298D01*
G37*
G36*
X157855656Y-75661298D02*
G01*
X157961979Y-75682447D01*
X158174437Y-75770450D01*
X158230889Y-75793833D01*
X158262442Y-75806903D01*
X158532851Y-75987585D01*
X158762815Y-76217549D01*
X158943497Y-76487958D01*
X159067953Y-76788421D01*
X159131400Y-77107391D01*
X159131400Y-77432609D01*
X159067953Y-77751579D01*
X158943497Y-78052042D01*
X158762815Y-78322451D01*
X158532851Y-78552415D01*
X158262442Y-78733097D01*
X157961979Y-78857553D01*
X157855656Y-78878702D01*
X157643011Y-78921000D01*
X157317789Y-78921000D01*
X157105144Y-78878702D01*
X156998821Y-78857553D01*
X156698358Y-78733097D01*
X156427949Y-78552415D01*
X156197985Y-78322451D01*
X156017303Y-78052042D01*
X155892847Y-77751579D01*
X155829400Y-77432609D01*
X155829400Y-77107391D01*
X155892847Y-76788421D01*
X156017303Y-76487958D01*
X156197985Y-76217549D01*
X156427949Y-75987585D01*
X156698358Y-75806903D01*
X156729912Y-75793833D01*
X156786363Y-75770450D01*
X156998821Y-75682447D01*
X157105144Y-75661298D01*
X157317789Y-75619000D01*
X157643011Y-75619000D01*
X157855656Y-75661298D01*
X157855656Y-75661298D01*
G37*
G36*
X167911056Y-75661298D02*
G01*
X168017379Y-75682447D01*
X168229837Y-75770450D01*
X168286289Y-75793833D01*
X168317842Y-75806903D01*
X168588251Y-75987585D01*
X168818215Y-76217549D01*
X168998897Y-76487958D01*
X169123353Y-76788421D01*
X169186800Y-77107391D01*
X169186800Y-77432609D01*
X169123353Y-77751579D01*
X168998897Y-78052042D01*
X168818215Y-78322451D01*
X168588251Y-78552415D01*
X168317842Y-78733097D01*
X168017379Y-78857553D01*
X167911056Y-78878702D01*
X167698411Y-78921000D01*
X167373189Y-78921000D01*
X167160544Y-78878702D01*
X167054221Y-78857553D01*
X166753758Y-78733097D01*
X166483349Y-78552415D01*
X166253385Y-78322451D01*
X166072703Y-78052042D01*
X165948247Y-77751579D01*
X165884800Y-77432609D01*
X165884800Y-77107391D01*
X165948247Y-76788421D01*
X166072703Y-76487958D01*
X166253385Y-76217549D01*
X166483349Y-75987585D01*
X166753758Y-75806903D01*
X166785312Y-75793833D01*
X166841763Y-75770450D01*
X167054221Y-75682447D01*
X167160544Y-75661298D01*
X167373189Y-75619000D01*
X167698411Y-75619000D01*
X167911056Y-75661298D01*
X167911056Y-75661298D01*
G37*
G36*
X111247556Y-75661298D02*
G01*
X111353879Y-75682447D01*
X111566337Y-75770450D01*
X111622789Y-75793833D01*
X111654342Y-75806903D01*
X111924751Y-75987585D01*
X112154715Y-76217549D01*
X112335397Y-76487958D01*
X112459853Y-76788421D01*
X112523300Y-77107391D01*
X112523300Y-77432609D01*
X112459853Y-77751579D01*
X112335397Y-78052042D01*
X112154715Y-78322451D01*
X111924751Y-78552415D01*
X111654342Y-78733097D01*
X111353879Y-78857553D01*
X111247556Y-78878702D01*
X111034911Y-78921000D01*
X110709689Y-78921000D01*
X110497044Y-78878702D01*
X110390721Y-78857553D01*
X110090258Y-78733097D01*
X109819849Y-78552415D01*
X109589885Y-78322451D01*
X109409203Y-78052042D01*
X109284747Y-77751579D01*
X109221300Y-77432609D01*
X109221300Y-77107391D01*
X109284747Y-76788421D01*
X109409203Y-76487958D01*
X109589885Y-76217549D01*
X109819849Y-75987585D01*
X110090258Y-75806903D01*
X110121812Y-75793833D01*
X110178263Y-75770450D01*
X110390721Y-75682447D01*
X110497044Y-75661298D01*
X110709689Y-75619000D01*
X111034911Y-75619000D01*
X111247556Y-75661298D01*
X111247556Y-75661298D01*
G37*
G36*
X141665564Y-74285389D02*
G01*
X141856833Y-74364615D01*
X141856835Y-74364616D01*
X142028973Y-74479635D01*
X142175365Y-74626027D01*
X142290385Y-74798167D01*
X142369611Y-74989436D01*
X142410000Y-75192484D01*
X142410000Y-75399516D01*
X142369611Y-75602564D01*
X142336522Y-75682447D01*
X142290384Y-75793835D01*
X142175365Y-75965973D01*
X142028973Y-76112365D01*
X141856835Y-76227384D01*
X141856834Y-76227385D01*
X141856833Y-76227385D01*
X141665564Y-76306611D01*
X141462516Y-76347000D01*
X141255484Y-76347000D01*
X141052436Y-76306611D01*
X140861167Y-76227385D01*
X140861166Y-76227385D01*
X140861165Y-76227384D01*
X140689027Y-76112365D01*
X140542635Y-75965973D01*
X140427616Y-75793835D01*
X140381478Y-75682447D01*
X140348389Y-75602564D01*
X140308000Y-75399516D01*
X140308000Y-75192484D01*
X140348389Y-74989436D01*
X140427615Y-74798167D01*
X140542635Y-74626027D01*
X140689027Y-74479635D01*
X140861165Y-74364616D01*
X140861167Y-74364615D01*
X141052436Y-74285389D01*
X141255484Y-74245000D01*
X141462516Y-74245000D01*
X141665564Y-74285389D01*
X141665564Y-74285389D01*
G37*
G36*
X95065564Y-74285389D02*
G01*
X95256833Y-74364615D01*
X95256835Y-74364616D01*
X95428973Y-74479635D01*
X95575365Y-74626027D01*
X95690385Y-74798167D01*
X95769611Y-74989436D01*
X95810000Y-75192484D01*
X95810000Y-75399516D01*
X95769611Y-75602564D01*
X95736522Y-75682447D01*
X95690384Y-75793835D01*
X95575365Y-75965973D01*
X95428973Y-76112365D01*
X95256835Y-76227384D01*
X95256834Y-76227385D01*
X95256833Y-76227385D01*
X95065564Y-76306611D01*
X94862516Y-76347000D01*
X94655484Y-76347000D01*
X94452436Y-76306611D01*
X94261167Y-76227385D01*
X94261166Y-76227385D01*
X94261165Y-76227384D01*
X94089027Y-76112365D01*
X93942635Y-75965973D01*
X93827616Y-75793835D01*
X93781478Y-75682447D01*
X93748389Y-75602564D01*
X93708000Y-75399516D01*
X93708000Y-75192484D01*
X93748389Y-74989436D01*
X93827615Y-74798167D01*
X93942635Y-74626027D01*
X94089027Y-74479635D01*
X94261165Y-74364616D01*
X94261167Y-74364615D01*
X94452436Y-74285389D01*
X94655484Y-74245000D01*
X94862516Y-74245000D01*
X95065564Y-74285389D01*
X95065564Y-74285389D01*
G37*
G36*
X137347564Y-74285389D02*
G01*
X137538833Y-74364615D01*
X137538835Y-74364616D01*
X137710973Y-74479635D01*
X137857365Y-74626027D01*
X137972385Y-74798167D01*
X138051611Y-74989436D01*
X138092000Y-75192484D01*
X138092000Y-75399516D01*
X138051611Y-75602564D01*
X138018522Y-75682447D01*
X137972384Y-75793835D01*
X137857365Y-75965973D01*
X137710973Y-76112365D01*
X137538835Y-76227384D01*
X137538834Y-76227385D01*
X137538833Y-76227385D01*
X137347564Y-76306611D01*
X137144516Y-76347000D01*
X136937484Y-76347000D01*
X136734436Y-76306611D01*
X136543167Y-76227385D01*
X136543166Y-76227385D01*
X136543165Y-76227384D01*
X136371027Y-76112365D01*
X136224635Y-75965973D01*
X136109616Y-75793835D01*
X136063478Y-75682447D01*
X136030389Y-75602564D01*
X135990000Y-75399516D01*
X135990000Y-75192484D01*
X136030389Y-74989436D01*
X136109615Y-74798167D01*
X136224635Y-74626027D01*
X136371027Y-74479635D01*
X136543165Y-74364616D01*
X136543167Y-74364615D01*
X136734436Y-74285389D01*
X136937484Y-74245000D01*
X137144516Y-74245000D01*
X137347564Y-74285389D01*
X137347564Y-74285389D01*
G37*
G36*
X90747564Y-74285389D02*
G01*
X90938833Y-74364615D01*
X90938835Y-74364616D01*
X91110973Y-74479635D01*
X91257365Y-74626027D01*
X91372385Y-74798167D01*
X91451611Y-74989436D01*
X91492000Y-75192484D01*
X91492000Y-75399516D01*
X91451611Y-75602564D01*
X91418522Y-75682447D01*
X91372384Y-75793835D01*
X91257365Y-75965973D01*
X91110973Y-76112365D01*
X90938835Y-76227384D01*
X90938834Y-76227385D01*
X90938833Y-76227385D01*
X90747564Y-76306611D01*
X90544516Y-76347000D01*
X90337484Y-76347000D01*
X90134436Y-76306611D01*
X89943167Y-76227385D01*
X89943166Y-76227385D01*
X89943165Y-76227384D01*
X89771027Y-76112365D01*
X89624635Y-75965973D01*
X89509616Y-75793835D01*
X89463478Y-75682447D01*
X89430389Y-75602564D01*
X89390000Y-75399516D01*
X89390000Y-75192484D01*
X89430389Y-74989436D01*
X89509615Y-74798167D01*
X89624635Y-74626027D01*
X89771027Y-74479635D01*
X89943165Y-74364616D01*
X89943167Y-74364615D01*
X90134436Y-74285389D01*
X90337484Y-74245000D01*
X90544516Y-74245000D01*
X90747564Y-74285389D01*
X90747564Y-74285389D01*
G37*
G36*
X141665564Y-70221389D02*
G01*
X141850085Y-70297820D01*
X141856835Y-70300616D01*
X142003228Y-70398433D01*
X142028973Y-70415635D01*
X142175365Y-70562027D01*
X142290385Y-70734167D01*
X142369611Y-70925436D01*
X142410000Y-71128484D01*
X142410000Y-71335516D01*
X142369611Y-71538564D01*
X142331508Y-71630553D01*
X142290384Y-71729835D01*
X142175365Y-71901973D01*
X142028973Y-72048365D01*
X141856835Y-72163384D01*
X141856834Y-72163385D01*
X141856833Y-72163385D01*
X141665564Y-72242611D01*
X141462516Y-72283000D01*
X141255484Y-72283000D01*
X141052436Y-72242611D01*
X140861167Y-72163385D01*
X140861166Y-72163385D01*
X140861165Y-72163384D01*
X140689027Y-72048365D01*
X140542635Y-71901973D01*
X140427616Y-71729835D01*
X140386492Y-71630553D01*
X140348389Y-71538564D01*
X140308000Y-71335516D01*
X140308000Y-71128484D01*
X140348389Y-70925436D01*
X140427615Y-70734167D01*
X140542635Y-70562027D01*
X140689027Y-70415635D01*
X140714772Y-70398433D01*
X140861165Y-70300616D01*
X140867915Y-70297820D01*
X141052436Y-70221389D01*
X141255484Y-70181000D01*
X141462516Y-70181000D01*
X141665564Y-70221389D01*
X141665564Y-70221389D01*
G37*
G36*
X90747564Y-70221389D02*
G01*
X90932085Y-70297820D01*
X90938835Y-70300616D01*
X91085228Y-70398433D01*
X91110973Y-70415635D01*
X91257365Y-70562027D01*
X91372385Y-70734167D01*
X91451611Y-70925436D01*
X91492000Y-71128484D01*
X91492000Y-71335516D01*
X91451611Y-71538564D01*
X91413508Y-71630553D01*
X91372384Y-71729835D01*
X91257365Y-71901973D01*
X91110973Y-72048365D01*
X90938835Y-72163384D01*
X90938834Y-72163385D01*
X90938833Y-72163385D01*
X90747564Y-72242611D01*
X90544516Y-72283000D01*
X90337484Y-72283000D01*
X90134436Y-72242611D01*
X89943167Y-72163385D01*
X89943166Y-72163385D01*
X89943165Y-72163384D01*
X89771027Y-72048365D01*
X89624635Y-71901973D01*
X89509616Y-71729835D01*
X89468492Y-71630553D01*
X89430389Y-71538564D01*
X89390000Y-71335516D01*
X89390000Y-71128484D01*
X89430389Y-70925436D01*
X89509615Y-70734167D01*
X89624635Y-70562027D01*
X89771027Y-70415635D01*
X89796772Y-70398433D01*
X89943165Y-70300616D01*
X89949915Y-70297820D01*
X90134436Y-70221389D01*
X90337484Y-70181000D01*
X90544516Y-70181000D01*
X90747564Y-70221389D01*
X90747564Y-70221389D01*
G37*
G36*
X95065564Y-70221389D02*
G01*
X95250085Y-70297820D01*
X95256835Y-70300616D01*
X95403228Y-70398433D01*
X95428973Y-70415635D01*
X95575365Y-70562027D01*
X95690385Y-70734167D01*
X95769611Y-70925436D01*
X95810000Y-71128484D01*
X95810000Y-71335516D01*
X95769611Y-71538564D01*
X95731508Y-71630553D01*
X95690384Y-71729835D01*
X95575365Y-71901973D01*
X95428973Y-72048365D01*
X95256835Y-72163384D01*
X95256834Y-72163385D01*
X95256833Y-72163385D01*
X95065564Y-72242611D01*
X94862516Y-72283000D01*
X94655484Y-72283000D01*
X94452436Y-72242611D01*
X94261167Y-72163385D01*
X94261166Y-72163385D01*
X94261165Y-72163384D01*
X94089027Y-72048365D01*
X93942635Y-71901973D01*
X93827616Y-71729835D01*
X93786492Y-71630553D01*
X93748389Y-71538564D01*
X93708000Y-71335516D01*
X93708000Y-71128484D01*
X93748389Y-70925436D01*
X93827615Y-70734167D01*
X93942635Y-70562027D01*
X94089027Y-70415635D01*
X94114772Y-70398433D01*
X94261165Y-70300616D01*
X94267915Y-70297820D01*
X94452436Y-70221389D01*
X94655484Y-70181000D01*
X94862516Y-70181000D01*
X95065564Y-70221389D01*
X95065564Y-70221389D01*
G37*
G36*
X137347564Y-70221389D02*
G01*
X137532085Y-70297820D01*
X137538835Y-70300616D01*
X137685228Y-70398433D01*
X137710973Y-70415635D01*
X137857365Y-70562027D01*
X137972385Y-70734167D01*
X138051611Y-70925436D01*
X138092000Y-71128484D01*
X138092000Y-71335516D01*
X138051611Y-71538564D01*
X138013508Y-71630553D01*
X137972384Y-71729835D01*
X137857365Y-71901973D01*
X137710973Y-72048365D01*
X137538835Y-72163384D01*
X137538834Y-72163385D01*
X137538833Y-72163385D01*
X137347564Y-72242611D01*
X137144516Y-72283000D01*
X136937484Y-72283000D01*
X136734436Y-72242611D01*
X136543167Y-72163385D01*
X136543166Y-72163385D01*
X136543165Y-72163384D01*
X136371027Y-72048365D01*
X136224635Y-71901973D01*
X136109616Y-71729835D01*
X136068492Y-71630553D01*
X136030389Y-71538564D01*
X135990000Y-71335516D01*
X135990000Y-71128484D01*
X136030389Y-70925436D01*
X136109615Y-70734167D01*
X136224635Y-70562027D01*
X136371027Y-70415635D01*
X136396772Y-70398433D01*
X136543165Y-70300616D01*
X136549915Y-70297820D01*
X136734436Y-70221389D01*
X136937484Y-70181000D01*
X137144516Y-70181000D01*
X137347564Y-70221389D01*
X137347564Y-70221389D01*
G37*
G36*
X124288170Y-69230385D02*
G01*
X124295283Y-69253834D01*
X124306834Y-69275445D01*
X124322379Y-69294387D01*
X124341321Y-69309932D01*
X124362932Y-69321483D01*
X124386381Y-69328596D01*
X124589487Y-69368996D01*
X124826253Y-69467068D01*
X124826255Y-69467069D01*
X125039339Y-69609447D01*
X125220553Y-69790661D01*
X125362932Y-70003747D01*
X125461004Y-70240513D01*
X125511000Y-70491861D01*
X125511000Y-70748139D01*
X125461004Y-70999487D01*
X125362932Y-71236253D01*
X125362931Y-71236255D01*
X125220553Y-71449339D01*
X125039339Y-71630553D01*
X124826255Y-71772931D01*
X124826254Y-71772932D01*
X124826253Y-71772932D01*
X124589487Y-71871004D01*
X124338139Y-71921000D01*
X124081861Y-71921000D01*
X123830513Y-71871004D01*
X123593747Y-71772932D01*
X123593746Y-71772932D01*
X123593745Y-71772931D01*
X123380661Y-71630553D01*
X123199447Y-71449339D01*
X123057069Y-71236255D01*
X123057068Y-71236253D01*
X122958996Y-70999487D01*
X122947597Y-70942180D01*
X122940484Y-70918731D01*
X122928933Y-70897120D01*
X122913388Y-70878179D01*
X122894446Y-70862633D01*
X122872835Y-70851082D01*
X122849386Y-70843969D01*
X122825000Y-70841567D01*
X122800614Y-70843969D01*
X122777165Y-70851082D01*
X122755554Y-70862633D01*
X122736613Y-70878178D01*
X122721067Y-70897120D01*
X122709516Y-70918731D01*
X122702403Y-70942180D01*
X122691004Y-70999487D01*
X122592932Y-71236253D01*
X122592931Y-71236255D01*
X122450553Y-71449339D01*
X122269339Y-71630553D01*
X122056255Y-71772931D01*
X122056254Y-71772932D01*
X122056253Y-71772932D01*
X121819487Y-71871004D01*
X121568139Y-71921000D01*
X121311861Y-71921000D01*
X121060513Y-71871004D01*
X120823747Y-71772932D01*
X120823746Y-71772932D01*
X120823745Y-71772931D01*
X120610661Y-71630553D01*
X120429447Y-71449339D01*
X120287069Y-71236255D01*
X120287068Y-71236253D01*
X120188996Y-70999487D01*
X120177597Y-70942180D01*
X120170484Y-70918731D01*
X120158933Y-70897120D01*
X120143388Y-70878179D01*
X120124446Y-70862633D01*
X120102835Y-70851082D01*
X120079386Y-70843969D01*
X120055000Y-70841567D01*
X120030614Y-70843969D01*
X120007165Y-70851082D01*
X119985554Y-70862633D01*
X119966613Y-70878178D01*
X119951067Y-70897120D01*
X119939516Y-70918731D01*
X119932403Y-70942180D01*
X119921004Y-70999487D01*
X119822932Y-71236253D01*
X119822931Y-71236255D01*
X119680553Y-71449339D01*
X119499339Y-71630553D01*
X119286255Y-71772931D01*
X119286254Y-71772932D01*
X119286253Y-71772932D01*
X119049487Y-71871004D01*
X118798139Y-71921000D01*
X118541861Y-71921000D01*
X118290513Y-71871004D01*
X118053747Y-71772932D01*
X118053746Y-71772932D01*
X118053745Y-71772931D01*
X117840661Y-71630553D01*
X117659447Y-71449339D01*
X117517069Y-71236255D01*
X117517068Y-71236253D01*
X117418996Y-70999487D01*
X117407597Y-70942180D01*
X117400484Y-70918731D01*
X117388933Y-70897120D01*
X117373388Y-70878179D01*
X117354446Y-70862633D01*
X117332835Y-70851082D01*
X117309386Y-70843969D01*
X117285000Y-70841567D01*
X117260614Y-70843969D01*
X117237165Y-70851082D01*
X117215554Y-70862633D01*
X117196613Y-70878178D01*
X117181067Y-70897120D01*
X117169516Y-70918731D01*
X117162403Y-70942180D01*
X117151004Y-70999487D01*
X117052932Y-71236253D01*
X117052931Y-71236255D01*
X116910553Y-71449339D01*
X116729339Y-71630553D01*
X116516255Y-71772931D01*
X116516254Y-71772932D01*
X116516253Y-71772932D01*
X116279487Y-71871004D01*
X116028139Y-71921000D01*
X115771861Y-71921000D01*
X115520513Y-71871004D01*
X115283747Y-71772932D01*
X115283746Y-71772932D01*
X115283745Y-71772931D01*
X115070661Y-71630553D01*
X114889447Y-71449339D01*
X114747069Y-71236255D01*
X114747068Y-71236253D01*
X114648996Y-70999487D01*
X114637597Y-70942180D01*
X114630484Y-70918731D01*
X114618933Y-70897120D01*
X114603388Y-70878179D01*
X114584446Y-70862633D01*
X114562835Y-70851082D01*
X114539386Y-70843969D01*
X114515000Y-70841567D01*
X114490614Y-70843969D01*
X114467165Y-70851082D01*
X114445554Y-70862633D01*
X114426613Y-70878178D01*
X114411067Y-70897120D01*
X114399516Y-70918731D01*
X114392403Y-70942180D01*
X114381004Y-70999487D01*
X114282932Y-71236253D01*
X114282931Y-71236255D01*
X114140553Y-71449339D01*
X113959339Y-71630553D01*
X113746255Y-71772931D01*
X113746254Y-71772932D01*
X113746253Y-71772932D01*
X113509487Y-71871004D01*
X113258139Y-71921000D01*
X113001861Y-71921000D01*
X112750513Y-71871004D01*
X112513747Y-71772932D01*
X112513746Y-71772932D01*
X112513745Y-71772931D01*
X112300661Y-71630553D01*
X112119447Y-71449339D01*
X111977069Y-71236255D01*
X111977068Y-71236253D01*
X111878996Y-70999487D01*
X111867597Y-70942180D01*
X111860484Y-70918731D01*
X111848933Y-70897120D01*
X111833388Y-70878179D01*
X111814446Y-70862633D01*
X111792835Y-70851082D01*
X111769386Y-70843969D01*
X111745000Y-70841567D01*
X111720614Y-70843969D01*
X111697165Y-70851082D01*
X111675554Y-70862633D01*
X111656613Y-70878178D01*
X111641067Y-70897120D01*
X111629516Y-70918731D01*
X111622403Y-70942180D01*
X111611004Y-70999487D01*
X111512932Y-71236253D01*
X111512931Y-71236255D01*
X111370553Y-71449339D01*
X111189339Y-71630553D01*
X110976255Y-71772931D01*
X110976254Y-71772932D01*
X110976253Y-71772932D01*
X110739487Y-71871004D01*
X110488139Y-71921000D01*
X110231861Y-71921000D01*
X109980513Y-71871004D01*
X109743747Y-71772932D01*
X109743746Y-71772932D01*
X109743745Y-71772931D01*
X109530661Y-71630553D01*
X109349447Y-71449339D01*
X109207069Y-71236255D01*
X109207068Y-71236253D01*
X109108996Y-70999487D01*
X109097597Y-70942180D01*
X109090484Y-70918731D01*
X109078933Y-70897120D01*
X109063388Y-70878179D01*
X109044446Y-70862633D01*
X109022835Y-70851082D01*
X108999386Y-70843969D01*
X108975000Y-70841567D01*
X108950614Y-70843969D01*
X108927165Y-70851082D01*
X108905554Y-70862633D01*
X108886613Y-70878178D01*
X108871067Y-70897120D01*
X108859516Y-70918731D01*
X108852403Y-70942180D01*
X108841004Y-70999487D01*
X108742932Y-71236253D01*
X108742931Y-71236255D01*
X108600553Y-71449339D01*
X108419339Y-71630553D01*
X108206255Y-71772931D01*
X108206254Y-71772932D01*
X108206253Y-71772932D01*
X107969487Y-71871004D01*
X107718139Y-71921000D01*
X107461861Y-71921000D01*
X107210513Y-71871004D01*
X106973747Y-71772932D01*
X106973746Y-71772932D01*
X106973745Y-71772931D01*
X106760661Y-71630553D01*
X106579447Y-71449339D01*
X106437069Y-71236255D01*
X106437068Y-71236253D01*
X106338996Y-70999487D01*
X106289000Y-70748139D01*
X106289000Y-70491861D01*
X106338996Y-70240513D01*
X106437068Y-70003747D01*
X106579447Y-69790661D01*
X106760661Y-69609447D01*
X106973745Y-69467069D01*
X106973747Y-69467068D01*
X107210513Y-69368996D01*
X107461861Y-69319000D01*
X107718139Y-69319000D01*
X107969487Y-69368996D01*
X108206253Y-69467068D01*
X108206255Y-69467069D01*
X108419339Y-69609447D01*
X108600553Y-69790661D01*
X108742932Y-70003747D01*
X108841004Y-70240513D01*
X108852403Y-70297820D01*
X108859516Y-70321269D01*
X108871067Y-70342880D01*
X108886612Y-70361821D01*
X108905554Y-70377367D01*
X108927165Y-70388918D01*
X108950614Y-70396031D01*
X108975000Y-70398433D01*
X108999386Y-70396031D01*
X109022835Y-70388918D01*
X109044446Y-70377367D01*
X109063387Y-70361822D01*
X109078933Y-70342880D01*
X109090484Y-70321269D01*
X109097597Y-70297820D01*
X109108996Y-70240513D01*
X109207068Y-70003747D01*
X109349447Y-69790661D01*
X109530661Y-69609447D01*
X109743745Y-69467069D01*
X109743747Y-69467068D01*
X109980513Y-69368996D01*
X110231861Y-69319000D01*
X110488139Y-69319000D01*
X110739487Y-69368996D01*
X110976253Y-69467068D01*
X110976255Y-69467069D01*
X111189339Y-69609447D01*
X111370553Y-69790661D01*
X111512932Y-70003747D01*
X111611004Y-70240513D01*
X111622403Y-70297820D01*
X111629516Y-70321269D01*
X111641067Y-70342880D01*
X111656612Y-70361821D01*
X111675554Y-70377367D01*
X111697165Y-70388918D01*
X111720614Y-70396031D01*
X111745000Y-70398433D01*
X111769386Y-70396031D01*
X111792835Y-70388918D01*
X111814446Y-70377367D01*
X111833387Y-70361822D01*
X111848933Y-70342880D01*
X111860484Y-70321269D01*
X111867597Y-70297820D01*
X111878996Y-70240513D01*
X111977068Y-70003747D01*
X112119447Y-69790661D01*
X112300661Y-69609447D01*
X112513745Y-69467069D01*
X112513747Y-69467068D01*
X112750513Y-69368996D01*
X113001861Y-69319000D01*
X113258139Y-69319000D01*
X113509487Y-69368996D01*
X113746253Y-69467068D01*
X113746255Y-69467069D01*
X113959339Y-69609447D01*
X114140553Y-69790661D01*
X114282932Y-70003747D01*
X114381004Y-70240513D01*
X114392403Y-70297820D01*
X114399516Y-70321269D01*
X114411067Y-70342880D01*
X114426612Y-70361821D01*
X114445554Y-70377367D01*
X114467165Y-70388918D01*
X114490614Y-70396031D01*
X114515000Y-70398433D01*
X114539386Y-70396031D01*
X114562835Y-70388918D01*
X114584446Y-70377367D01*
X114603387Y-70361822D01*
X114618933Y-70342880D01*
X114630484Y-70321269D01*
X114637597Y-70297820D01*
X114648996Y-70240513D01*
X114747068Y-70003747D01*
X114889447Y-69790661D01*
X115070661Y-69609447D01*
X115283745Y-69467069D01*
X115283747Y-69467068D01*
X115520513Y-69368996D01*
X115771861Y-69319000D01*
X116028139Y-69319000D01*
X116279487Y-69368996D01*
X116516253Y-69467068D01*
X116516255Y-69467069D01*
X116729339Y-69609447D01*
X116910553Y-69790661D01*
X117052932Y-70003747D01*
X117151004Y-70240513D01*
X117162403Y-70297820D01*
X117169516Y-70321269D01*
X117181067Y-70342880D01*
X117196612Y-70361821D01*
X117215554Y-70377367D01*
X117237165Y-70388918D01*
X117260614Y-70396031D01*
X117285000Y-70398433D01*
X117309386Y-70396031D01*
X117332835Y-70388918D01*
X117354446Y-70377367D01*
X117373387Y-70361822D01*
X117388933Y-70342880D01*
X117400484Y-70321269D01*
X117407597Y-70297820D01*
X117418996Y-70240513D01*
X117517068Y-70003747D01*
X117659447Y-69790661D01*
X117840661Y-69609447D01*
X118053745Y-69467069D01*
X118053747Y-69467068D01*
X118290513Y-69368996D01*
X118541861Y-69319000D01*
X118798139Y-69319000D01*
X119049487Y-69368996D01*
X119286253Y-69467068D01*
X119286255Y-69467069D01*
X119499339Y-69609447D01*
X119680553Y-69790661D01*
X119822932Y-70003747D01*
X119921004Y-70240513D01*
X119932403Y-70297820D01*
X119939516Y-70321269D01*
X119951067Y-70342880D01*
X119966612Y-70361821D01*
X119985554Y-70377367D01*
X120007165Y-70388918D01*
X120030614Y-70396031D01*
X120055000Y-70398433D01*
X120079386Y-70396031D01*
X120102835Y-70388918D01*
X120124446Y-70377367D01*
X120143387Y-70361822D01*
X120158933Y-70342880D01*
X120170484Y-70321269D01*
X120177597Y-70297820D01*
X120188996Y-70240513D01*
X120287068Y-70003747D01*
X120429447Y-69790661D01*
X120610661Y-69609447D01*
X120823745Y-69467069D01*
X120823747Y-69467068D01*
X121060513Y-69368996D01*
X121311861Y-69319000D01*
X121568139Y-69319000D01*
X121819487Y-69368996D01*
X122056253Y-69467068D01*
X122056255Y-69467069D01*
X122269339Y-69609447D01*
X122450553Y-69790661D01*
X122592932Y-70003747D01*
X122691004Y-70240513D01*
X122702403Y-70297820D01*
X122709516Y-70321269D01*
X122721067Y-70342880D01*
X122736612Y-70361821D01*
X122755554Y-70377367D01*
X122777165Y-70388918D01*
X122800614Y-70396031D01*
X122825000Y-70398433D01*
X122849386Y-70396031D01*
X122872835Y-70388918D01*
X122894446Y-70377367D01*
X122913387Y-70361822D01*
X122928933Y-70342880D01*
X122940484Y-70321269D01*
X122947597Y-70297820D01*
X122958996Y-70240513D01*
X123057068Y-70003747D01*
X123199447Y-69790661D01*
X123380661Y-69609447D01*
X123593745Y-69467069D01*
X123593747Y-69467068D01*
X123830513Y-69368996D01*
X124081861Y-69319000D01*
X124169001Y-69319000D01*
X124193387Y-69316598D01*
X124216836Y-69309485D01*
X124238447Y-69297934D01*
X124257389Y-69282389D01*
X124272934Y-69263447D01*
X124284485Y-69241836D01*
X124288118Y-69229859D01*
X124288170Y-69230385D01*
X124288170Y-69230385D01*
G37*
G36*
X106584487Y-66528996D02*
G01*
X106821253Y-66627068D01*
X106821255Y-66627069D01*
X107034339Y-66769447D01*
X107215553Y-66950661D01*
X107357932Y-67163747D01*
X107456004Y-67400513D01*
X107467403Y-67457820D01*
X107474516Y-67481269D01*
X107486067Y-67502880D01*
X107501612Y-67521821D01*
X107520554Y-67537367D01*
X107542165Y-67548918D01*
X107565614Y-67556031D01*
X107590000Y-67558433D01*
X107614386Y-67556031D01*
X107637835Y-67548918D01*
X107659446Y-67537367D01*
X107678387Y-67521822D01*
X107693933Y-67502880D01*
X107705484Y-67481269D01*
X107712597Y-67457820D01*
X107723996Y-67400513D01*
X107822068Y-67163747D01*
X107964447Y-66950661D01*
X108145661Y-66769447D01*
X108358745Y-66627069D01*
X108358747Y-66627068D01*
X108595513Y-66528996D01*
X108846861Y-66479000D01*
X109103139Y-66479000D01*
X109354487Y-66528996D01*
X109591253Y-66627068D01*
X109591255Y-66627069D01*
X109804339Y-66769447D01*
X109985553Y-66950661D01*
X110127932Y-67163747D01*
X110226004Y-67400513D01*
X110237403Y-67457820D01*
X110244516Y-67481269D01*
X110256067Y-67502880D01*
X110271612Y-67521821D01*
X110290554Y-67537367D01*
X110312165Y-67548918D01*
X110335614Y-67556031D01*
X110360000Y-67558433D01*
X110384386Y-67556031D01*
X110407835Y-67548918D01*
X110429446Y-67537367D01*
X110448387Y-67521822D01*
X110463933Y-67502880D01*
X110475484Y-67481269D01*
X110482597Y-67457820D01*
X110493996Y-67400513D01*
X110592068Y-67163747D01*
X110734447Y-66950661D01*
X110915661Y-66769447D01*
X111128745Y-66627069D01*
X111128747Y-66627068D01*
X111365513Y-66528996D01*
X111616861Y-66479000D01*
X111873139Y-66479000D01*
X112124487Y-66528996D01*
X112361253Y-66627068D01*
X112361255Y-66627069D01*
X112574339Y-66769447D01*
X112755553Y-66950661D01*
X112897932Y-67163747D01*
X112996004Y-67400513D01*
X113007403Y-67457820D01*
X113014516Y-67481269D01*
X113026067Y-67502880D01*
X113041612Y-67521821D01*
X113060554Y-67537367D01*
X113082165Y-67548918D01*
X113105614Y-67556031D01*
X113130000Y-67558433D01*
X113154386Y-67556031D01*
X113177835Y-67548918D01*
X113199446Y-67537367D01*
X113218387Y-67521822D01*
X113233933Y-67502880D01*
X113245484Y-67481269D01*
X113252597Y-67457820D01*
X113263996Y-67400513D01*
X113362068Y-67163747D01*
X113504447Y-66950661D01*
X113685661Y-66769447D01*
X113898745Y-66627069D01*
X113898747Y-66627068D01*
X114135513Y-66528996D01*
X114386861Y-66479000D01*
X114643139Y-66479000D01*
X114894487Y-66528996D01*
X115131253Y-66627068D01*
X115131255Y-66627069D01*
X115344339Y-66769447D01*
X115525553Y-66950661D01*
X115667932Y-67163747D01*
X115766004Y-67400513D01*
X115777403Y-67457820D01*
X115784516Y-67481269D01*
X115796067Y-67502880D01*
X115811612Y-67521821D01*
X115830554Y-67537367D01*
X115852165Y-67548918D01*
X115875614Y-67556031D01*
X115900000Y-67558433D01*
X115924386Y-67556031D01*
X115947835Y-67548918D01*
X115969446Y-67537367D01*
X115988387Y-67521822D01*
X116003933Y-67502880D01*
X116015484Y-67481269D01*
X116022597Y-67457820D01*
X116033996Y-67400513D01*
X116132068Y-67163747D01*
X116274447Y-66950661D01*
X116455661Y-66769447D01*
X116668745Y-66627069D01*
X116668747Y-66627068D01*
X116905513Y-66528996D01*
X117156861Y-66479000D01*
X117413139Y-66479000D01*
X117664487Y-66528996D01*
X117901253Y-66627068D01*
X117901255Y-66627069D01*
X118114339Y-66769447D01*
X118295553Y-66950661D01*
X118437932Y-67163747D01*
X118536004Y-67400513D01*
X118547403Y-67457820D01*
X118554516Y-67481269D01*
X118566067Y-67502880D01*
X118581612Y-67521821D01*
X118600554Y-67537367D01*
X118622165Y-67548918D01*
X118645614Y-67556031D01*
X118670000Y-67558433D01*
X118694386Y-67556031D01*
X118717835Y-67548918D01*
X118739446Y-67537367D01*
X118758387Y-67521822D01*
X118773933Y-67502880D01*
X118785484Y-67481269D01*
X118792597Y-67457820D01*
X118803996Y-67400513D01*
X118902068Y-67163747D01*
X119044447Y-66950661D01*
X119225661Y-66769447D01*
X119438745Y-66627069D01*
X119438747Y-66627068D01*
X119675513Y-66528996D01*
X119926861Y-66479000D01*
X120183139Y-66479000D01*
X120434487Y-66528996D01*
X120671253Y-66627068D01*
X120671255Y-66627069D01*
X120884339Y-66769447D01*
X121065553Y-66950661D01*
X121207932Y-67163747D01*
X121306004Y-67400513D01*
X121317403Y-67457820D01*
X121324516Y-67481269D01*
X121336067Y-67502880D01*
X121351612Y-67521821D01*
X121370554Y-67537367D01*
X121392165Y-67548918D01*
X121415614Y-67556031D01*
X121440000Y-67558433D01*
X121464386Y-67556031D01*
X121487835Y-67548918D01*
X121509446Y-67537367D01*
X121528387Y-67521822D01*
X121543933Y-67502880D01*
X121555484Y-67481269D01*
X121562597Y-67457820D01*
X121573996Y-67400513D01*
X121672068Y-67163747D01*
X121814447Y-66950661D01*
X121995661Y-66769447D01*
X122208745Y-66627069D01*
X122208747Y-66627068D01*
X122445513Y-66528996D01*
X122696861Y-66479000D01*
X122953139Y-66479000D01*
X123204487Y-66528996D01*
X123441253Y-66627068D01*
X123441255Y-66627069D01*
X123654339Y-66769447D01*
X123835553Y-66950661D01*
X123977932Y-67163747D01*
X124053517Y-67346224D01*
X124065068Y-67367835D01*
X124080614Y-67386777D01*
X124099555Y-67402322D01*
X124121166Y-67413873D01*
X124144615Y-67420986D01*
X124169001Y-67423388D01*
X124193387Y-67420986D01*
X124216836Y-67413873D01*
X124238447Y-67402322D01*
X124257389Y-67386776D01*
X124272934Y-67367835D01*
X124284485Y-67346224D01*
X124291598Y-67322775D01*
X124294000Y-67298389D01*
X124294000Y-66479000D01*
X126896000Y-66479000D01*
X126896000Y-69081000D01*
X124410767Y-69081000D01*
X124386381Y-69083402D01*
X124362932Y-69090515D01*
X124341321Y-69102066D01*
X124322379Y-69117611D01*
X124306834Y-69136553D01*
X124295283Y-69158164D01*
X124294000Y-69162394D01*
X124294000Y-68261611D01*
X124291598Y-68237225D01*
X124284485Y-68213776D01*
X124272934Y-68192165D01*
X124257389Y-68173223D01*
X124238447Y-68157678D01*
X124216836Y-68146127D01*
X124193387Y-68139014D01*
X124169001Y-68136612D01*
X124144615Y-68139014D01*
X124121166Y-68146127D01*
X124099555Y-68157678D01*
X124080613Y-68173223D01*
X124065068Y-68192165D01*
X124053517Y-68213776D01*
X123977932Y-68396253D01*
X123977931Y-68396255D01*
X123835553Y-68609339D01*
X123654339Y-68790553D01*
X123441255Y-68932931D01*
X123441254Y-68932932D01*
X123441253Y-68932932D01*
X123204487Y-69031004D01*
X122953139Y-69081000D01*
X122696861Y-69081000D01*
X122445513Y-69031004D01*
X122208747Y-68932932D01*
X122208746Y-68932932D01*
X122208745Y-68932931D01*
X121995661Y-68790553D01*
X121814447Y-68609339D01*
X121672069Y-68396255D01*
X121672068Y-68396253D01*
X121573996Y-68159487D01*
X121562597Y-68102180D01*
X121555484Y-68078731D01*
X121543933Y-68057120D01*
X121528388Y-68038179D01*
X121509446Y-68022633D01*
X121487835Y-68011082D01*
X121464386Y-68003969D01*
X121440000Y-68001567D01*
X121415614Y-68003969D01*
X121392165Y-68011082D01*
X121370554Y-68022633D01*
X121351613Y-68038178D01*
X121336067Y-68057120D01*
X121324516Y-68078731D01*
X121317403Y-68102180D01*
X121306004Y-68159487D01*
X121207932Y-68396253D01*
X121207931Y-68396255D01*
X121065553Y-68609339D01*
X120884339Y-68790553D01*
X120671255Y-68932931D01*
X120671254Y-68932932D01*
X120671253Y-68932932D01*
X120434487Y-69031004D01*
X120183139Y-69081000D01*
X119926861Y-69081000D01*
X119675513Y-69031004D01*
X119438747Y-68932932D01*
X119438746Y-68932932D01*
X119438745Y-68932931D01*
X119225661Y-68790553D01*
X119044447Y-68609339D01*
X118902069Y-68396255D01*
X118902068Y-68396253D01*
X118803996Y-68159487D01*
X118792597Y-68102180D01*
X118785484Y-68078731D01*
X118773933Y-68057120D01*
X118758388Y-68038179D01*
X118739446Y-68022633D01*
X118717835Y-68011082D01*
X118694386Y-68003969D01*
X118670000Y-68001567D01*
X118645614Y-68003969D01*
X118622165Y-68011082D01*
X118600554Y-68022633D01*
X118581613Y-68038178D01*
X118566067Y-68057120D01*
X118554516Y-68078731D01*
X118547403Y-68102180D01*
X118536004Y-68159487D01*
X118437932Y-68396253D01*
X118437931Y-68396255D01*
X118295553Y-68609339D01*
X118114339Y-68790553D01*
X117901255Y-68932931D01*
X117901254Y-68932932D01*
X117901253Y-68932932D01*
X117664487Y-69031004D01*
X117413139Y-69081000D01*
X117156861Y-69081000D01*
X116905513Y-69031004D01*
X116668747Y-68932932D01*
X116668746Y-68932932D01*
X116668745Y-68932931D01*
X116455661Y-68790553D01*
X116274447Y-68609339D01*
X116132069Y-68396255D01*
X116132068Y-68396253D01*
X116033996Y-68159487D01*
X116022597Y-68102180D01*
X116015484Y-68078731D01*
X116003933Y-68057120D01*
X115988388Y-68038179D01*
X115969446Y-68022633D01*
X115947835Y-68011082D01*
X115924386Y-68003969D01*
X115900000Y-68001567D01*
X115875614Y-68003969D01*
X115852165Y-68011082D01*
X115830554Y-68022633D01*
X115811613Y-68038178D01*
X115796067Y-68057120D01*
X115784516Y-68078731D01*
X115777403Y-68102180D01*
X115766004Y-68159487D01*
X115667932Y-68396253D01*
X115667931Y-68396255D01*
X115525553Y-68609339D01*
X115344339Y-68790553D01*
X115131255Y-68932931D01*
X115131254Y-68932932D01*
X115131253Y-68932932D01*
X114894487Y-69031004D01*
X114643139Y-69081000D01*
X114386861Y-69081000D01*
X114135513Y-69031004D01*
X113898747Y-68932932D01*
X113898746Y-68932932D01*
X113898745Y-68932931D01*
X113685661Y-68790553D01*
X113504447Y-68609339D01*
X113362069Y-68396255D01*
X113362068Y-68396253D01*
X113263996Y-68159487D01*
X113252597Y-68102180D01*
X113245484Y-68078731D01*
X113233933Y-68057120D01*
X113218388Y-68038179D01*
X113199446Y-68022633D01*
X113177835Y-68011082D01*
X113154386Y-68003969D01*
X113130000Y-68001567D01*
X113105614Y-68003969D01*
X113082165Y-68011082D01*
X113060554Y-68022633D01*
X113041613Y-68038178D01*
X113026067Y-68057120D01*
X113014516Y-68078731D01*
X113007403Y-68102180D01*
X112996004Y-68159487D01*
X112897932Y-68396253D01*
X112897931Y-68396255D01*
X112755553Y-68609339D01*
X112574339Y-68790553D01*
X112361255Y-68932931D01*
X112361254Y-68932932D01*
X112361253Y-68932932D01*
X112124487Y-69031004D01*
X111873139Y-69081000D01*
X111616861Y-69081000D01*
X111365513Y-69031004D01*
X111128747Y-68932932D01*
X111128746Y-68932932D01*
X111128745Y-68932931D01*
X110915661Y-68790553D01*
X110734447Y-68609339D01*
X110592069Y-68396255D01*
X110592068Y-68396253D01*
X110493996Y-68159487D01*
X110482597Y-68102180D01*
X110475484Y-68078731D01*
X110463933Y-68057120D01*
X110448388Y-68038179D01*
X110429446Y-68022633D01*
X110407835Y-68011082D01*
X110384386Y-68003969D01*
X110360000Y-68001567D01*
X110335614Y-68003969D01*
X110312165Y-68011082D01*
X110290554Y-68022633D01*
X110271613Y-68038178D01*
X110256067Y-68057120D01*
X110244516Y-68078731D01*
X110237403Y-68102180D01*
X110226004Y-68159487D01*
X110127932Y-68396253D01*
X110127931Y-68396255D01*
X109985553Y-68609339D01*
X109804339Y-68790553D01*
X109591255Y-68932931D01*
X109591254Y-68932932D01*
X109591253Y-68932932D01*
X109354487Y-69031004D01*
X109103139Y-69081000D01*
X108846861Y-69081000D01*
X108595513Y-69031004D01*
X108358747Y-68932932D01*
X108358746Y-68932932D01*
X108358745Y-68932931D01*
X108145661Y-68790553D01*
X107964447Y-68609339D01*
X107822069Y-68396255D01*
X107822068Y-68396253D01*
X107723996Y-68159487D01*
X107712597Y-68102180D01*
X107705484Y-68078731D01*
X107693933Y-68057120D01*
X107678388Y-68038179D01*
X107659446Y-68022633D01*
X107637835Y-68011082D01*
X107614386Y-68003969D01*
X107590000Y-68001567D01*
X107565614Y-68003969D01*
X107542165Y-68011082D01*
X107520554Y-68022633D01*
X107501613Y-68038178D01*
X107486067Y-68057120D01*
X107474516Y-68078731D01*
X107467403Y-68102180D01*
X107456004Y-68159487D01*
X107357932Y-68396253D01*
X107357931Y-68396255D01*
X107215553Y-68609339D01*
X107034339Y-68790553D01*
X106821255Y-68932931D01*
X106821254Y-68932932D01*
X106821253Y-68932932D01*
X106584487Y-69031004D01*
X106333139Y-69081000D01*
X106076861Y-69081000D01*
X105825513Y-69031004D01*
X105588747Y-68932932D01*
X105588746Y-68932932D01*
X105588745Y-68932931D01*
X105375661Y-68790553D01*
X105194447Y-68609339D01*
X105052069Y-68396255D01*
X105052068Y-68396253D01*
X104953996Y-68159487D01*
X104904000Y-67908139D01*
X104904000Y-67651861D01*
X104953996Y-67400513D01*
X105052068Y-67163747D01*
X105194447Y-66950661D01*
X105375661Y-66769447D01*
X105588745Y-66627069D01*
X105588747Y-66627068D01*
X105825513Y-66528996D01*
X106076861Y-66479000D01*
X106333139Y-66479000D01*
X106584487Y-66528996D01*
X106584487Y-66528996D01*
G37*
G36*
X141665564Y-66157389D02*
G01*
X141856833Y-66236615D01*
X141856835Y-66236616D01*
X142028973Y-66351635D01*
X142175365Y-66498027D01*
X142196059Y-66528997D01*
X142290385Y-66670167D01*
X142369611Y-66861436D01*
X142410000Y-67064484D01*
X142410000Y-67271516D01*
X142369611Y-67474564D01*
X142290385Y-67665833D01*
X142290384Y-67665835D01*
X142175365Y-67837973D01*
X142028973Y-67984365D01*
X141856835Y-68099384D01*
X141856834Y-68099385D01*
X141856833Y-68099385D01*
X141665564Y-68178611D01*
X141462516Y-68219000D01*
X141255484Y-68219000D01*
X141052436Y-68178611D01*
X140861167Y-68099385D01*
X140861166Y-68099385D01*
X140861165Y-68099384D01*
X140689027Y-67984365D01*
X140542635Y-67837973D01*
X140427616Y-67665835D01*
X140427615Y-67665833D01*
X140348389Y-67474564D01*
X140308000Y-67271516D01*
X140308000Y-67064484D01*
X140348389Y-66861436D01*
X140427615Y-66670167D01*
X140521942Y-66528997D01*
X140542635Y-66498027D01*
X140689027Y-66351635D01*
X140861165Y-66236616D01*
X140861167Y-66236615D01*
X141052436Y-66157389D01*
X141255484Y-66117000D01*
X141462516Y-66117000D01*
X141665564Y-66157389D01*
X141665564Y-66157389D01*
G37*
G36*
X95065564Y-66157389D02*
G01*
X95256833Y-66236615D01*
X95256835Y-66236616D01*
X95428973Y-66351635D01*
X95575365Y-66498027D01*
X95596059Y-66528997D01*
X95690385Y-66670167D01*
X95769611Y-66861436D01*
X95810000Y-67064484D01*
X95810000Y-67271516D01*
X95769611Y-67474564D01*
X95690385Y-67665833D01*
X95690384Y-67665835D01*
X95575365Y-67837973D01*
X95428973Y-67984365D01*
X95256835Y-68099384D01*
X95256834Y-68099385D01*
X95256833Y-68099385D01*
X95065564Y-68178611D01*
X94862516Y-68219000D01*
X94655484Y-68219000D01*
X94452436Y-68178611D01*
X94261167Y-68099385D01*
X94261166Y-68099385D01*
X94261165Y-68099384D01*
X94089027Y-67984365D01*
X93942635Y-67837973D01*
X93827616Y-67665835D01*
X93827615Y-67665833D01*
X93748389Y-67474564D01*
X93708000Y-67271516D01*
X93708000Y-67064484D01*
X93748389Y-66861436D01*
X93827615Y-66670167D01*
X93921942Y-66528997D01*
X93942635Y-66498027D01*
X94089027Y-66351635D01*
X94261165Y-66236616D01*
X94261167Y-66236615D01*
X94452436Y-66157389D01*
X94655484Y-66117000D01*
X94862516Y-66117000D01*
X95065564Y-66157389D01*
X95065564Y-66157389D01*
G37*
G36*
X90747564Y-66157389D02*
G01*
X90938833Y-66236615D01*
X90938835Y-66236616D01*
X91110973Y-66351635D01*
X91257365Y-66498027D01*
X91278059Y-66528997D01*
X91372385Y-66670167D01*
X91451611Y-66861436D01*
X91492000Y-67064484D01*
X91492000Y-67271516D01*
X91451611Y-67474564D01*
X91372385Y-67665833D01*
X91372384Y-67665835D01*
X91257365Y-67837973D01*
X91110973Y-67984365D01*
X90938835Y-68099384D01*
X90938834Y-68099385D01*
X90938833Y-68099385D01*
X90747564Y-68178611D01*
X90544516Y-68219000D01*
X90337484Y-68219000D01*
X90134436Y-68178611D01*
X89943167Y-68099385D01*
X89943166Y-68099385D01*
X89943165Y-68099384D01*
X89771027Y-67984365D01*
X89624635Y-67837973D01*
X89509616Y-67665835D01*
X89509615Y-67665833D01*
X89430389Y-67474564D01*
X89390000Y-67271516D01*
X89390000Y-67064484D01*
X89430389Y-66861436D01*
X89509615Y-66670167D01*
X89603942Y-66528997D01*
X89624635Y-66498027D01*
X89771027Y-66351635D01*
X89943165Y-66236616D01*
X89943167Y-66236615D01*
X90134436Y-66157389D01*
X90337484Y-66117000D01*
X90544516Y-66117000D01*
X90747564Y-66157389D01*
X90747564Y-66157389D01*
G37*
G36*
X137347564Y-66157389D02*
G01*
X137538833Y-66236615D01*
X137538835Y-66236616D01*
X137710973Y-66351635D01*
X137857365Y-66498027D01*
X137878059Y-66528997D01*
X137972385Y-66670167D01*
X138051611Y-66861436D01*
X138092000Y-67064484D01*
X138092000Y-67271516D01*
X138051611Y-67474564D01*
X137972385Y-67665833D01*
X137972384Y-67665835D01*
X137857365Y-67837973D01*
X137710973Y-67984365D01*
X137538835Y-68099384D01*
X137538834Y-68099385D01*
X137538833Y-68099385D01*
X137347564Y-68178611D01*
X137144516Y-68219000D01*
X136937484Y-68219000D01*
X136734436Y-68178611D01*
X136543167Y-68099385D01*
X136543166Y-68099385D01*
X136543165Y-68099384D01*
X136371027Y-67984365D01*
X136224635Y-67837973D01*
X136109616Y-67665835D01*
X136109615Y-67665833D01*
X136030389Y-67474564D01*
X135990000Y-67271516D01*
X135990000Y-67064484D01*
X136030389Y-66861436D01*
X136109615Y-66670167D01*
X136203942Y-66528997D01*
X136224635Y-66498027D01*
X136371027Y-66351635D01*
X136543165Y-66236616D01*
X136543167Y-66236615D01*
X136734436Y-66157389D01*
X136937484Y-66117000D01*
X137144516Y-66117000D01*
X137347564Y-66157389D01*
X137347564Y-66157389D01*
G37*
G36*
X95065564Y-62093389D02*
G01*
X95256833Y-62172615D01*
X95256835Y-62172616D01*
X95428973Y-62287635D01*
X95575365Y-62434027D01*
X95679982Y-62590597D01*
X95690385Y-62606167D01*
X95769611Y-62797436D01*
X95810000Y-63000484D01*
X95810000Y-63207516D01*
X95769611Y-63410564D01*
X95690385Y-63601833D01*
X95690384Y-63601835D01*
X95575365Y-63773973D01*
X95428973Y-63920365D01*
X95256835Y-64035384D01*
X95256834Y-64035385D01*
X95256833Y-64035385D01*
X95065564Y-64114611D01*
X94862516Y-64155000D01*
X94655484Y-64155000D01*
X94452436Y-64114611D01*
X94261167Y-64035385D01*
X94261166Y-64035385D01*
X94261165Y-64035384D01*
X94089027Y-63920365D01*
X93942635Y-63773973D01*
X93827616Y-63601835D01*
X93827615Y-63601833D01*
X93748389Y-63410564D01*
X93708000Y-63207516D01*
X93708000Y-63000484D01*
X93748389Y-62797436D01*
X93827615Y-62606167D01*
X93838019Y-62590597D01*
X93942635Y-62434027D01*
X94089027Y-62287635D01*
X94261165Y-62172616D01*
X94261167Y-62172615D01*
X94452436Y-62093389D01*
X94655484Y-62053000D01*
X94862516Y-62053000D01*
X95065564Y-62093389D01*
X95065564Y-62093389D01*
G37*
G36*
X141665564Y-62093389D02*
G01*
X141856833Y-62172615D01*
X141856835Y-62172616D01*
X142028973Y-62287635D01*
X142175365Y-62434027D01*
X142279982Y-62590597D01*
X142290385Y-62606167D01*
X142369611Y-62797436D01*
X142410000Y-63000484D01*
X142410000Y-63207516D01*
X142369611Y-63410564D01*
X142290385Y-63601833D01*
X142290384Y-63601835D01*
X142175365Y-63773973D01*
X142028973Y-63920365D01*
X141856835Y-64035384D01*
X141856834Y-64035385D01*
X141856833Y-64035385D01*
X141665564Y-64114611D01*
X141462516Y-64155000D01*
X141255484Y-64155000D01*
X141052436Y-64114611D01*
X140861167Y-64035385D01*
X140861166Y-64035385D01*
X140861165Y-64035384D01*
X140689027Y-63920365D01*
X140542635Y-63773973D01*
X140427616Y-63601835D01*
X140427615Y-63601833D01*
X140348389Y-63410564D01*
X140308000Y-63207516D01*
X140308000Y-63000484D01*
X140348389Y-62797436D01*
X140427615Y-62606167D01*
X140438019Y-62590597D01*
X140542635Y-62434027D01*
X140689027Y-62287635D01*
X140861165Y-62172616D01*
X140861167Y-62172615D01*
X141052436Y-62093389D01*
X141255484Y-62053000D01*
X141462516Y-62053000D01*
X141665564Y-62093389D01*
X141665564Y-62093389D01*
G37*
G36*
X167911056Y-59518798D02*
G01*
X168017379Y-59539947D01*
X168317842Y-59664403D01*
X168588251Y-59845085D01*
X168818215Y-60075049D01*
X168998897Y-60345458D01*
X169123353Y-60645921D01*
X169186800Y-60964891D01*
X169186800Y-61290109D01*
X169123353Y-61609079D01*
X168998897Y-61909542D01*
X168818215Y-62179951D01*
X168588251Y-62409915D01*
X168317842Y-62590597D01*
X168017379Y-62715053D01*
X167911056Y-62736202D01*
X167698411Y-62778500D01*
X167373189Y-62778500D01*
X167160544Y-62736202D01*
X167054221Y-62715053D01*
X166753758Y-62590597D01*
X166483349Y-62409915D01*
X166253385Y-62179951D01*
X166072703Y-61909542D01*
X165948247Y-61609079D01*
X165884800Y-61290109D01*
X165884800Y-60964891D01*
X165948247Y-60645921D01*
X166072703Y-60345458D01*
X166253385Y-60075049D01*
X166483349Y-59845085D01*
X166753758Y-59664403D01*
X167054221Y-59539947D01*
X167160544Y-59518798D01*
X167373189Y-59476500D01*
X167698411Y-59476500D01*
X167911056Y-59518798D01*
X167911056Y-59518798D01*
G37*
G36*
X111247556Y-59518798D02*
G01*
X111353879Y-59539947D01*
X111654342Y-59664403D01*
X111924751Y-59845085D01*
X112154715Y-60075049D01*
X112335397Y-60345458D01*
X112459853Y-60645921D01*
X112523300Y-60964891D01*
X112523300Y-61290109D01*
X112459853Y-61609079D01*
X112335397Y-61909542D01*
X112154715Y-62179951D01*
X111924751Y-62409915D01*
X111654342Y-62590597D01*
X111353879Y-62715053D01*
X111247556Y-62736202D01*
X111034911Y-62778500D01*
X110709689Y-62778500D01*
X110497044Y-62736202D01*
X110390721Y-62715053D01*
X110090258Y-62590597D01*
X109819849Y-62409915D01*
X109589885Y-62179951D01*
X109409203Y-61909542D01*
X109284747Y-61609079D01*
X109221300Y-61290109D01*
X109221300Y-60964891D01*
X109284747Y-60645921D01*
X109409203Y-60345458D01*
X109589885Y-60075049D01*
X109819849Y-59845085D01*
X110090258Y-59664403D01*
X110390721Y-59539947D01*
X110497044Y-59518798D01*
X110709689Y-59476500D01*
X111034911Y-59476500D01*
X111247556Y-59518798D01*
X111247556Y-59518798D01*
G37*
G36*
X121302956Y-59518798D02*
G01*
X121409279Y-59539947D01*
X121709742Y-59664403D01*
X121980151Y-59845085D01*
X122210115Y-60075049D01*
X122390797Y-60345458D01*
X122515253Y-60645921D01*
X122578700Y-60964891D01*
X122578700Y-61290109D01*
X122515253Y-61609079D01*
X122390797Y-61909542D01*
X122210115Y-62179951D01*
X121980151Y-62409915D01*
X121709742Y-62590597D01*
X121409279Y-62715053D01*
X121302956Y-62736202D01*
X121090311Y-62778500D01*
X120765089Y-62778500D01*
X120552444Y-62736202D01*
X120446121Y-62715053D01*
X120145658Y-62590597D01*
X119875249Y-62409915D01*
X119645285Y-62179951D01*
X119464603Y-61909542D01*
X119340147Y-61609079D01*
X119276700Y-61290109D01*
X119276700Y-60964891D01*
X119340147Y-60645921D01*
X119464603Y-60345458D01*
X119645285Y-60075049D01*
X119875249Y-59845085D01*
X120145658Y-59664403D01*
X120446121Y-59539947D01*
X120552444Y-59518798D01*
X120765089Y-59476500D01*
X121090311Y-59476500D01*
X121302956Y-59518798D01*
X121302956Y-59518798D01*
G37*
G36*
X157855656Y-59518798D02*
G01*
X157961979Y-59539947D01*
X158262442Y-59664403D01*
X158532851Y-59845085D01*
X158762815Y-60075049D01*
X158943497Y-60345458D01*
X159067953Y-60645921D01*
X159131400Y-60964891D01*
X159131400Y-61290109D01*
X159067953Y-61609079D01*
X158943497Y-61909542D01*
X158762815Y-62179951D01*
X158532851Y-62409915D01*
X158262442Y-62590597D01*
X157961979Y-62715053D01*
X157855656Y-62736202D01*
X157643011Y-62778500D01*
X157317789Y-62778500D01*
X157105144Y-62736202D01*
X156998821Y-62715053D01*
X156698358Y-62590597D01*
X156427949Y-62409915D01*
X156197985Y-62179951D01*
X156017303Y-61909542D01*
X155892847Y-61609079D01*
X155829400Y-61290109D01*
X155829400Y-60964891D01*
X155892847Y-60645921D01*
X156017303Y-60345458D01*
X156197985Y-60075049D01*
X156427949Y-59845085D01*
X156698358Y-59664403D01*
X156998821Y-59539947D01*
X157105144Y-59518798D01*
X157317789Y-59476500D01*
X157643011Y-59476500D01*
X157855656Y-59518798D01*
X157855656Y-59518798D01*
G37*
G36*
X121302956Y-50761298D02*
G01*
X121409279Y-50782447D01*
X121621737Y-50870450D01*
X121678189Y-50893833D01*
X121709742Y-50906903D01*
X121980151Y-51087585D01*
X122210115Y-51317549D01*
X122390797Y-51587958D01*
X122515253Y-51888421D01*
X122578700Y-52207391D01*
X122578700Y-52532609D01*
X122515253Y-52851579D01*
X122390797Y-53152042D01*
X122210115Y-53422451D01*
X121980151Y-53652415D01*
X121709742Y-53833097D01*
X121409279Y-53957553D01*
X121302956Y-53978702D01*
X121090311Y-54021000D01*
X120765089Y-54021000D01*
X120552444Y-53978702D01*
X120446121Y-53957553D01*
X120145658Y-53833097D01*
X119875249Y-53652415D01*
X119645285Y-53422451D01*
X119464603Y-53152042D01*
X119340147Y-52851579D01*
X119276700Y-52532609D01*
X119276700Y-52207391D01*
X119340147Y-51888421D01*
X119464603Y-51587958D01*
X119645285Y-51317549D01*
X119875249Y-51087585D01*
X120145658Y-50906903D01*
X120177212Y-50893833D01*
X120233663Y-50870450D01*
X120446121Y-50782447D01*
X120552444Y-50761298D01*
X120765089Y-50719000D01*
X121090311Y-50719000D01*
X121302956Y-50761298D01*
X121302956Y-50761298D01*
G37*
G36*
X157855656Y-50761298D02*
G01*
X157961979Y-50782447D01*
X158174437Y-50870450D01*
X158230889Y-50893833D01*
X158262442Y-50906903D01*
X158532851Y-51087585D01*
X158762815Y-51317549D01*
X158943497Y-51587958D01*
X159067953Y-51888421D01*
X159131400Y-52207391D01*
X159131400Y-52532609D01*
X159067953Y-52851579D01*
X158943497Y-53152042D01*
X158762815Y-53422451D01*
X158532851Y-53652415D01*
X158262442Y-53833097D01*
X157961979Y-53957553D01*
X157855656Y-53978702D01*
X157643011Y-54021000D01*
X157317789Y-54021000D01*
X157105144Y-53978702D01*
X156998821Y-53957553D01*
X156698358Y-53833097D01*
X156427949Y-53652415D01*
X156197985Y-53422451D01*
X156017303Y-53152042D01*
X155892847Y-52851579D01*
X155829400Y-52532609D01*
X155829400Y-52207391D01*
X155892847Y-51888421D01*
X156017303Y-51587958D01*
X156197985Y-51317549D01*
X156427949Y-51087585D01*
X156698358Y-50906903D01*
X156729912Y-50893833D01*
X156786363Y-50870450D01*
X156998821Y-50782447D01*
X157105144Y-50761298D01*
X157317789Y-50719000D01*
X157643011Y-50719000D01*
X157855656Y-50761298D01*
X157855656Y-50761298D01*
G37*
G36*
X111247556Y-50761298D02*
G01*
X111353879Y-50782447D01*
X111566337Y-50870450D01*
X111622789Y-50893833D01*
X111654342Y-50906903D01*
X111924751Y-51087585D01*
X112154715Y-51317549D01*
X112335397Y-51587958D01*
X112459853Y-51888421D01*
X112523300Y-52207391D01*
X112523300Y-52532609D01*
X112459853Y-52851579D01*
X112335397Y-53152042D01*
X112154715Y-53422451D01*
X111924751Y-53652415D01*
X111654342Y-53833097D01*
X111353879Y-53957553D01*
X111247556Y-53978702D01*
X111034911Y-54021000D01*
X110709689Y-54021000D01*
X110497044Y-53978702D01*
X110390721Y-53957553D01*
X110090258Y-53833097D01*
X109819849Y-53652415D01*
X109589885Y-53422451D01*
X109409203Y-53152042D01*
X109284747Y-52851579D01*
X109221300Y-52532609D01*
X109221300Y-52207391D01*
X109284747Y-51888421D01*
X109409203Y-51587958D01*
X109589885Y-51317549D01*
X109819849Y-51087585D01*
X110090258Y-50906903D01*
X110121812Y-50893833D01*
X110178263Y-50870450D01*
X110390721Y-50782447D01*
X110497044Y-50761298D01*
X110709689Y-50719000D01*
X111034911Y-50719000D01*
X111247556Y-50761298D01*
X111247556Y-50761298D01*
G37*
G36*
X167911056Y-50761298D02*
G01*
X168017379Y-50782447D01*
X168229837Y-50870450D01*
X168286289Y-50893833D01*
X168317842Y-50906903D01*
X168588251Y-51087585D01*
X168818215Y-51317549D01*
X168998897Y-51587958D01*
X169123353Y-51888421D01*
X169186800Y-52207391D01*
X169186800Y-52532609D01*
X169123353Y-52851579D01*
X168998897Y-53152042D01*
X168818215Y-53422451D01*
X168588251Y-53652415D01*
X168317842Y-53833097D01*
X168017379Y-53957553D01*
X167911056Y-53978702D01*
X167698411Y-54021000D01*
X167373189Y-54021000D01*
X167160544Y-53978702D01*
X167054221Y-53957553D01*
X166753758Y-53833097D01*
X166483349Y-53652415D01*
X166253385Y-53422451D01*
X166072703Y-53152042D01*
X165948247Y-52851579D01*
X165884800Y-52532609D01*
X165884800Y-52207391D01*
X165948247Y-51888421D01*
X166072703Y-51587958D01*
X166253385Y-51317549D01*
X166483349Y-51087585D01*
X166753758Y-50906903D01*
X166785312Y-50893833D01*
X166841763Y-50870450D01*
X167054221Y-50782447D01*
X167160544Y-50761298D01*
X167373189Y-50719000D01*
X167698411Y-50719000D01*
X167911056Y-50761298D01*
X167911056Y-50761298D01*
G37*
G36*
X141665564Y-49385389D02*
G01*
X141856833Y-49464615D01*
X141856835Y-49464616D01*
X142028973Y-49579635D01*
X142175365Y-49726027D01*
X142290385Y-49898167D01*
X142369611Y-50089436D01*
X142410000Y-50292484D01*
X142410000Y-50499516D01*
X142369611Y-50702564D01*
X142336522Y-50782447D01*
X142290384Y-50893835D01*
X142175365Y-51065973D01*
X142028973Y-51212365D01*
X141856835Y-51327384D01*
X141856834Y-51327385D01*
X141856833Y-51327385D01*
X141665564Y-51406611D01*
X141462516Y-51447000D01*
X141255484Y-51447000D01*
X141052436Y-51406611D01*
X140861167Y-51327385D01*
X140861166Y-51327385D01*
X140861165Y-51327384D01*
X140689027Y-51212365D01*
X140542635Y-51065973D01*
X140427616Y-50893835D01*
X140381478Y-50782447D01*
X140348389Y-50702564D01*
X140308000Y-50499516D01*
X140308000Y-50292484D01*
X140348389Y-50089436D01*
X140427615Y-49898167D01*
X140542635Y-49726027D01*
X140689027Y-49579635D01*
X140861165Y-49464616D01*
X140861167Y-49464615D01*
X141052436Y-49385389D01*
X141255484Y-49345000D01*
X141462516Y-49345000D01*
X141665564Y-49385389D01*
X141665564Y-49385389D01*
G37*
G36*
X137347564Y-49385389D02*
G01*
X137538833Y-49464615D01*
X137538835Y-49464616D01*
X137710973Y-49579635D01*
X137857365Y-49726027D01*
X137972385Y-49898167D01*
X138051611Y-50089436D01*
X138092000Y-50292484D01*
X138092000Y-50499516D01*
X138051611Y-50702564D01*
X138018522Y-50782447D01*
X137972384Y-50893835D01*
X137857365Y-51065973D01*
X137710973Y-51212365D01*
X137538835Y-51327384D01*
X137538834Y-51327385D01*
X137538833Y-51327385D01*
X137347564Y-51406611D01*
X137144516Y-51447000D01*
X136937484Y-51447000D01*
X136734436Y-51406611D01*
X136543167Y-51327385D01*
X136543166Y-51327385D01*
X136543165Y-51327384D01*
X136371027Y-51212365D01*
X136224635Y-51065973D01*
X136109616Y-50893835D01*
X136063478Y-50782447D01*
X136030389Y-50702564D01*
X135990000Y-50499516D01*
X135990000Y-50292484D01*
X136030389Y-50089436D01*
X136109615Y-49898167D01*
X136224635Y-49726027D01*
X136371027Y-49579635D01*
X136543165Y-49464616D01*
X136543167Y-49464615D01*
X136734436Y-49385389D01*
X136937484Y-49345000D01*
X137144516Y-49345000D01*
X137347564Y-49385389D01*
X137347564Y-49385389D01*
G37*
G36*
X90747564Y-49385389D02*
G01*
X90938833Y-49464615D01*
X90938835Y-49464616D01*
X91110973Y-49579635D01*
X91257365Y-49726027D01*
X91372385Y-49898167D01*
X91451611Y-50089436D01*
X91492000Y-50292484D01*
X91492000Y-50499516D01*
X91451611Y-50702564D01*
X91418522Y-50782447D01*
X91372384Y-50893835D01*
X91257365Y-51065973D01*
X91110973Y-51212365D01*
X90938835Y-51327384D01*
X90938834Y-51327385D01*
X90938833Y-51327385D01*
X90747564Y-51406611D01*
X90544516Y-51447000D01*
X90337484Y-51447000D01*
X90134436Y-51406611D01*
X89943167Y-51327385D01*
X89943166Y-51327385D01*
X89943165Y-51327384D01*
X89771027Y-51212365D01*
X89624635Y-51065973D01*
X89509616Y-50893835D01*
X89463478Y-50782447D01*
X89430389Y-50702564D01*
X89390000Y-50499516D01*
X89390000Y-50292484D01*
X89430389Y-50089436D01*
X89509615Y-49898167D01*
X89624635Y-49726027D01*
X89771027Y-49579635D01*
X89943165Y-49464616D01*
X89943167Y-49464615D01*
X90134436Y-49385389D01*
X90337484Y-49345000D01*
X90544516Y-49345000D01*
X90747564Y-49385389D01*
X90747564Y-49385389D01*
G37*
G36*
X95065564Y-49385389D02*
G01*
X95256833Y-49464615D01*
X95256835Y-49464616D01*
X95428973Y-49579635D01*
X95575365Y-49726027D01*
X95690385Y-49898167D01*
X95769611Y-50089436D01*
X95810000Y-50292484D01*
X95810000Y-50499516D01*
X95769611Y-50702564D01*
X95736522Y-50782447D01*
X95690384Y-50893835D01*
X95575365Y-51065973D01*
X95428973Y-51212365D01*
X95256835Y-51327384D01*
X95256834Y-51327385D01*
X95256833Y-51327385D01*
X95065564Y-51406611D01*
X94862516Y-51447000D01*
X94655484Y-51447000D01*
X94452436Y-51406611D01*
X94261167Y-51327385D01*
X94261166Y-51327385D01*
X94261165Y-51327384D01*
X94089027Y-51212365D01*
X93942635Y-51065973D01*
X93827616Y-50893835D01*
X93781478Y-50782447D01*
X93748389Y-50702564D01*
X93708000Y-50499516D01*
X93708000Y-50292484D01*
X93748389Y-50089436D01*
X93827615Y-49898167D01*
X93942635Y-49726027D01*
X94089027Y-49579635D01*
X94261165Y-49464616D01*
X94261167Y-49464615D01*
X94452436Y-49385389D01*
X94655484Y-49345000D01*
X94862516Y-49345000D01*
X95065564Y-49385389D01*
X95065564Y-49385389D01*
G37*
G36*
X90747564Y-45321389D02*
G01*
X90932085Y-45397820D01*
X90938835Y-45400616D01*
X91085228Y-45498433D01*
X91110973Y-45515635D01*
X91257365Y-45662027D01*
X91372385Y-45834167D01*
X91451611Y-46025436D01*
X91492000Y-46228484D01*
X91492000Y-46435516D01*
X91451611Y-46638564D01*
X91413508Y-46730553D01*
X91372384Y-46829835D01*
X91257365Y-47001973D01*
X91110973Y-47148365D01*
X90938835Y-47263384D01*
X90938834Y-47263385D01*
X90938833Y-47263385D01*
X90747564Y-47342611D01*
X90544516Y-47383000D01*
X90337484Y-47383000D01*
X90134436Y-47342611D01*
X89943167Y-47263385D01*
X89943166Y-47263385D01*
X89943165Y-47263384D01*
X89771027Y-47148365D01*
X89624635Y-47001973D01*
X89509616Y-46829835D01*
X89468492Y-46730553D01*
X89430389Y-46638564D01*
X89390000Y-46435516D01*
X89390000Y-46228484D01*
X89430389Y-46025436D01*
X89509615Y-45834167D01*
X89624635Y-45662027D01*
X89771027Y-45515635D01*
X89796772Y-45498433D01*
X89943165Y-45400616D01*
X89949915Y-45397820D01*
X90134436Y-45321389D01*
X90337484Y-45281000D01*
X90544516Y-45281000D01*
X90747564Y-45321389D01*
X90747564Y-45321389D01*
G37*
G36*
X141665564Y-45321389D02*
G01*
X141850085Y-45397820D01*
X141856835Y-45400616D01*
X142003228Y-45498433D01*
X142028973Y-45515635D01*
X142175365Y-45662027D01*
X142290385Y-45834167D01*
X142369611Y-46025436D01*
X142410000Y-46228484D01*
X142410000Y-46435516D01*
X142369611Y-46638564D01*
X142331508Y-46730553D01*
X142290384Y-46829835D01*
X142175365Y-47001973D01*
X142028973Y-47148365D01*
X141856835Y-47263384D01*
X141856834Y-47263385D01*
X141856833Y-47263385D01*
X141665564Y-47342611D01*
X141462516Y-47383000D01*
X141255484Y-47383000D01*
X141052436Y-47342611D01*
X140861167Y-47263385D01*
X140861166Y-47263385D01*
X140861165Y-47263384D01*
X140689027Y-47148365D01*
X140542635Y-47001973D01*
X140427616Y-46829835D01*
X140386492Y-46730553D01*
X140348389Y-46638564D01*
X140308000Y-46435516D01*
X140308000Y-46228484D01*
X140348389Y-46025436D01*
X140427615Y-45834167D01*
X140542635Y-45662027D01*
X140689027Y-45515635D01*
X140714772Y-45498433D01*
X140861165Y-45400616D01*
X140867915Y-45397820D01*
X141052436Y-45321389D01*
X141255484Y-45281000D01*
X141462516Y-45281000D01*
X141665564Y-45321389D01*
X141665564Y-45321389D01*
G37*
G36*
X137347564Y-45321389D02*
G01*
X137532085Y-45397820D01*
X137538835Y-45400616D01*
X137685228Y-45498433D01*
X137710973Y-45515635D01*
X137857365Y-45662027D01*
X137972385Y-45834167D01*
X138051611Y-46025436D01*
X138092000Y-46228484D01*
X138092000Y-46435516D01*
X138051611Y-46638564D01*
X138013508Y-46730553D01*
X137972384Y-46829835D01*
X137857365Y-47001973D01*
X137710973Y-47148365D01*
X137538835Y-47263384D01*
X137538834Y-47263385D01*
X137538833Y-47263385D01*
X137347564Y-47342611D01*
X137144516Y-47383000D01*
X136937484Y-47383000D01*
X136734436Y-47342611D01*
X136543167Y-47263385D01*
X136543166Y-47263385D01*
X136543165Y-47263384D01*
X136371027Y-47148365D01*
X136224635Y-47001973D01*
X136109616Y-46829835D01*
X136068492Y-46730553D01*
X136030389Y-46638564D01*
X135990000Y-46435516D01*
X135990000Y-46228484D01*
X136030389Y-46025436D01*
X136109615Y-45834167D01*
X136224635Y-45662027D01*
X136371027Y-45515635D01*
X136396772Y-45498433D01*
X136543165Y-45400616D01*
X136549915Y-45397820D01*
X136734436Y-45321389D01*
X136937484Y-45281000D01*
X137144516Y-45281000D01*
X137347564Y-45321389D01*
X137347564Y-45321389D01*
G37*
G36*
X95065564Y-45321389D02*
G01*
X95250085Y-45397820D01*
X95256835Y-45400616D01*
X95403228Y-45498433D01*
X95428973Y-45515635D01*
X95575365Y-45662027D01*
X95690385Y-45834167D01*
X95769611Y-46025436D01*
X95810000Y-46228484D01*
X95810000Y-46435516D01*
X95769611Y-46638564D01*
X95731508Y-46730553D01*
X95690384Y-46829835D01*
X95575365Y-47001973D01*
X95428973Y-47148365D01*
X95256835Y-47263384D01*
X95256834Y-47263385D01*
X95256833Y-47263385D01*
X95065564Y-47342611D01*
X94862516Y-47383000D01*
X94655484Y-47383000D01*
X94452436Y-47342611D01*
X94261167Y-47263385D01*
X94261166Y-47263385D01*
X94261165Y-47263384D01*
X94089027Y-47148365D01*
X93942635Y-47001973D01*
X93827616Y-46829835D01*
X93786492Y-46730553D01*
X93748389Y-46638564D01*
X93708000Y-46435516D01*
X93708000Y-46228484D01*
X93748389Y-46025436D01*
X93827615Y-45834167D01*
X93942635Y-45662027D01*
X94089027Y-45515635D01*
X94114772Y-45498433D01*
X94261165Y-45400616D01*
X94267915Y-45397820D01*
X94452436Y-45321389D01*
X94655484Y-45281000D01*
X94862516Y-45281000D01*
X95065564Y-45321389D01*
X95065564Y-45321389D01*
G37*
G36*
X124288170Y-44330385D02*
G01*
X124295283Y-44353834D01*
X124306834Y-44375445D01*
X124322379Y-44394387D01*
X124341321Y-44409932D01*
X124362932Y-44421483D01*
X124386381Y-44428596D01*
X124589487Y-44468996D01*
X124826253Y-44567068D01*
X124826255Y-44567069D01*
X125039339Y-44709447D01*
X125220553Y-44890661D01*
X125362932Y-45103747D01*
X125461004Y-45340513D01*
X125511000Y-45591861D01*
X125511000Y-45848139D01*
X125461004Y-46099487D01*
X125362932Y-46336253D01*
X125362931Y-46336255D01*
X125220553Y-46549339D01*
X125039339Y-46730553D01*
X124826255Y-46872931D01*
X124826254Y-46872932D01*
X124826253Y-46872932D01*
X124589487Y-46971004D01*
X124338139Y-47021000D01*
X124081861Y-47021000D01*
X123830513Y-46971004D01*
X123593747Y-46872932D01*
X123593746Y-46872932D01*
X123593745Y-46872931D01*
X123380661Y-46730553D01*
X123199447Y-46549339D01*
X123057069Y-46336255D01*
X123057068Y-46336253D01*
X122958996Y-46099487D01*
X122947597Y-46042180D01*
X122940484Y-46018731D01*
X122928933Y-45997120D01*
X122913388Y-45978179D01*
X122894446Y-45962633D01*
X122872835Y-45951082D01*
X122849386Y-45943969D01*
X122825000Y-45941567D01*
X122800614Y-45943969D01*
X122777165Y-45951082D01*
X122755554Y-45962633D01*
X122736613Y-45978178D01*
X122721067Y-45997120D01*
X122709516Y-46018731D01*
X122702403Y-46042180D01*
X122691004Y-46099487D01*
X122592932Y-46336253D01*
X122592931Y-46336255D01*
X122450553Y-46549339D01*
X122269339Y-46730553D01*
X122056255Y-46872931D01*
X122056254Y-46872932D01*
X122056253Y-46872932D01*
X121819487Y-46971004D01*
X121568139Y-47021000D01*
X121311861Y-47021000D01*
X121060513Y-46971004D01*
X120823747Y-46872932D01*
X120823746Y-46872932D01*
X120823745Y-46872931D01*
X120610661Y-46730553D01*
X120429447Y-46549339D01*
X120287069Y-46336255D01*
X120287068Y-46336253D01*
X120188996Y-46099487D01*
X120177597Y-46042180D01*
X120170484Y-46018731D01*
X120158933Y-45997120D01*
X120143388Y-45978179D01*
X120124446Y-45962633D01*
X120102835Y-45951082D01*
X120079386Y-45943969D01*
X120055000Y-45941567D01*
X120030614Y-45943969D01*
X120007165Y-45951082D01*
X119985554Y-45962633D01*
X119966613Y-45978178D01*
X119951067Y-45997120D01*
X119939516Y-46018731D01*
X119932403Y-46042180D01*
X119921004Y-46099487D01*
X119822932Y-46336253D01*
X119822931Y-46336255D01*
X119680553Y-46549339D01*
X119499339Y-46730553D01*
X119286255Y-46872931D01*
X119286254Y-46872932D01*
X119286253Y-46872932D01*
X119049487Y-46971004D01*
X118798139Y-47021000D01*
X118541861Y-47021000D01*
X118290513Y-46971004D01*
X118053747Y-46872932D01*
X118053746Y-46872932D01*
X118053745Y-46872931D01*
X117840661Y-46730553D01*
X117659447Y-46549339D01*
X117517069Y-46336255D01*
X117517068Y-46336253D01*
X117418996Y-46099487D01*
X117407597Y-46042180D01*
X117400484Y-46018731D01*
X117388933Y-45997120D01*
X117373388Y-45978179D01*
X117354446Y-45962633D01*
X117332835Y-45951082D01*
X117309386Y-45943969D01*
X117285000Y-45941567D01*
X117260614Y-45943969D01*
X117237165Y-45951082D01*
X117215554Y-45962633D01*
X117196613Y-45978178D01*
X117181067Y-45997120D01*
X117169516Y-46018731D01*
X117162403Y-46042180D01*
X117151004Y-46099487D01*
X117052932Y-46336253D01*
X117052931Y-46336255D01*
X116910553Y-46549339D01*
X116729339Y-46730553D01*
X116516255Y-46872931D01*
X116516254Y-46872932D01*
X116516253Y-46872932D01*
X116279487Y-46971004D01*
X116028139Y-47021000D01*
X115771861Y-47021000D01*
X115520513Y-46971004D01*
X115283747Y-46872932D01*
X115283746Y-46872932D01*
X115283745Y-46872931D01*
X115070661Y-46730553D01*
X114889447Y-46549339D01*
X114747069Y-46336255D01*
X114747068Y-46336253D01*
X114648996Y-46099487D01*
X114637597Y-46042180D01*
X114630484Y-46018731D01*
X114618933Y-45997120D01*
X114603388Y-45978179D01*
X114584446Y-45962633D01*
X114562835Y-45951082D01*
X114539386Y-45943969D01*
X114515000Y-45941567D01*
X114490614Y-45943969D01*
X114467165Y-45951082D01*
X114445554Y-45962633D01*
X114426613Y-45978178D01*
X114411067Y-45997120D01*
X114399516Y-46018731D01*
X114392403Y-46042180D01*
X114381004Y-46099487D01*
X114282932Y-46336253D01*
X114282931Y-46336255D01*
X114140553Y-46549339D01*
X113959339Y-46730553D01*
X113746255Y-46872931D01*
X113746254Y-46872932D01*
X113746253Y-46872932D01*
X113509487Y-46971004D01*
X113258139Y-47021000D01*
X113001861Y-47021000D01*
X112750513Y-46971004D01*
X112513747Y-46872932D01*
X112513746Y-46872932D01*
X112513745Y-46872931D01*
X112300661Y-46730553D01*
X112119447Y-46549339D01*
X111977069Y-46336255D01*
X111977068Y-46336253D01*
X111878996Y-46099487D01*
X111867597Y-46042180D01*
X111860484Y-46018731D01*
X111848933Y-45997120D01*
X111833388Y-45978179D01*
X111814446Y-45962633D01*
X111792835Y-45951082D01*
X111769386Y-45943969D01*
X111745000Y-45941567D01*
X111720614Y-45943969D01*
X111697165Y-45951082D01*
X111675554Y-45962633D01*
X111656613Y-45978178D01*
X111641067Y-45997120D01*
X111629516Y-46018731D01*
X111622403Y-46042180D01*
X111611004Y-46099487D01*
X111512932Y-46336253D01*
X111512931Y-46336255D01*
X111370553Y-46549339D01*
X111189339Y-46730553D01*
X110976255Y-46872931D01*
X110976254Y-46872932D01*
X110976253Y-46872932D01*
X110739487Y-46971004D01*
X110488139Y-47021000D01*
X110231861Y-47021000D01*
X109980513Y-46971004D01*
X109743747Y-46872932D01*
X109743746Y-46872932D01*
X109743745Y-46872931D01*
X109530661Y-46730553D01*
X109349447Y-46549339D01*
X109207069Y-46336255D01*
X109207068Y-46336253D01*
X109108996Y-46099487D01*
X109097597Y-46042180D01*
X109090484Y-46018731D01*
X109078933Y-45997120D01*
X109063388Y-45978179D01*
X109044446Y-45962633D01*
X109022835Y-45951082D01*
X108999386Y-45943969D01*
X108975000Y-45941567D01*
X108950614Y-45943969D01*
X108927165Y-45951082D01*
X108905554Y-45962633D01*
X108886613Y-45978178D01*
X108871067Y-45997120D01*
X108859516Y-46018731D01*
X108852403Y-46042180D01*
X108841004Y-46099487D01*
X108742932Y-46336253D01*
X108742931Y-46336255D01*
X108600553Y-46549339D01*
X108419339Y-46730553D01*
X108206255Y-46872931D01*
X108206254Y-46872932D01*
X108206253Y-46872932D01*
X107969487Y-46971004D01*
X107718139Y-47021000D01*
X107461861Y-47021000D01*
X107210513Y-46971004D01*
X106973747Y-46872932D01*
X106973746Y-46872932D01*
X106973745Y-46872931D01*
X106760661Y-46730553D01*
X106579447Y-46549339D01*
X106437069Y-46336255D01*
X106437068Y-46336253D01*
X106338996Y-46099487D01*
X106289000Y-45848139D01*
X106289000Y-45591861D01*
X106338996Y-45340513D01*
X106437068Y-45103747D01*
X106579447Y-44890661D01*
X106760661Y-44709447D01*
X106973745Y-44567069D01*
X106973747Y-44567068D01*
X107210513Y-44468996D01*
X107461861Y-44419000D01*
X107718139Y-44419000D01*
X107969487Y-44468996D01*
X108206253Y-44567068D01*
X108206255Y-44567069D01*
X108419339Y-44709447D01*
X108600553Y-44890661D01*
X108742932Y-45103747D01*
X108841004Y-45340513D01*
X108852403Y-45397820D01*
X108859516Y-45421269D01*
X108871067Y-45442880D01*
X108886612Y-45461821D01*
X108905554Y-45477367D01*
X108927165Y-45488918D01*
X108950614Y-45496031D01*
X108975000Y-45498433D01*
X108999386Y-45496031D01*
X109022835Y-45488918D01*
X109044446Y-45477367D01*
X109063387Y-45461822D01*
X109078933Y-45442880D01*
X109090484Y-45421269D01*
X109097597Y-45397820D01*
X109108996Y-45340513D01*
X109207068Y-45103747D01*
X109349447Y-44890661D01*
X109530661Y-44709447D01*
X109743745Y-44567069D01*
X109743747Y-44567068D01*
X109980513Y-44468996D01*
X110231861Y-44419000D01*
X110488139Y-44419000D01*
X110739487Y-44468996D01*
X110976253Y-44567068D01*
X110976255Y-44567069D01*
X111189339Y-44709447D01*
X111370553Y-44890661D01*
X111512932Y-45103747D01*
X111611004Y-45340513D01*
X111622403Y-45397820D01*
X111629516Y-45421269D01*
X111641067Y-45442880D01*
X111656612Y-45461821D01*
X111675554Y-45477367D01*
X111697165Y-45488918D01*
X111720614Y-45496031D01*
X111745000Y-45498433D01*
X111769386Y-45496031D01*
X111792835Y-45488918D01*
X111814446Y-45477367D01*
X111833387Y-45461822D01*
X111848933Y-45442880D01*
X111860484Y-45421269D01*
X111867597Y-45397820D01*
X111878996Y-45340513D01*
X111977068Y-45103747D01*
X112119447Y-44890661D01*
X112300661Y-44709447D01*
X112513745Y-44567069D01*
X112513747Y-44567068D01*
X112750513Y-44468996D01*
X113001861Y-44419000D01*
X113258139Y-44419000D01*
X113509487Y-44468996D01*
X113746253Y-44567068D01*
X113746255Y-44567069D01*
X113959339Y-44709447D01*
X114140553Y-44890661D01*
X114282932Y-45103747D01*
X114381004Y-45340513D01*
X114392403Y-45397820D01*
X114399516Y-45421269D01*
X114411067Y-45442880D01*
X114426612Y-45461821D01*
X114445554Y-45477367D01*
X114467165Y-45488918D01*
X114490614Y-45496031D01*
X114515000Y-45498433D01*
X114539386Y-45496031D01*
X114562835Y-45488918D01*
X114584446Y-45477367D01*
X114603387Y-45461822D01*
X114618933Y-45442880D01*
X114630484Y-45421269D01*
X114637597Y-45397820D01*
X114648996Y-45340513D01*
X114747068Y-45103747D01*
X114889447Y-44890661D01*
X115070661Y-44709447D01*
X115283745Y-44567069D01*
X115283747Y-44567068D01*
X115520513Y-44468996D01*
X115771861Y-44419000D01*
X116028139Y-44419000D01*
X116279487Y-44468996D01*
X116516253Y-44567068D01*
X116516255Y-44567069D01*
X116729339Y-44709447D01*
X116910553Y-44890661D01*
X117052932Y-45103747D01*
X117151004Y-45340513D01*
X117162403Y-45397820D01*
X117169516Y-45421269D01*
X117181067Y-45442880D01*
X117196612Y-45461821D01*
X117215554Y-45477367D01*
X117237165Y-45488918D01*
X117260614Y-45496031D01*
X117285000Y-45498433D01*
X117309386Y-45496031D01*
X117332835Y-45488918D01*
X117354446Y-45477367D01*
X117373387Y-45461822D01*
X117388933Y-45442880D01*
X117400484Y-45421269D01*
X117407597Y-45397820D01*
X117418996Y-45340513D01*
X117517068Y-45103747D01*
X117659447Y-44890661D01*
X117840661Y-44709447D01*
X118053745Y-44567069D01*
X118053747Y-44567068D01*
X118290513Y-44468996D01*
X118541861Y-44419000D01*
X118798139Y-44419000D01*
X119049487Y-44468996D01*
X119286253Y-44567068D01*
X119286255Y-44567069D01*
X119499339Y-44709447D01*
X119680553Y-44890661D01*
X119822932Y-45103747D01*
X119921004Y-45340513D01*
X119932403Y-45397820D01*
X119939516Y-45421269D01*
X119951067Y-45442880D01*
X119966612Y-45461821D01*
X119985554Y-45477367D01*
X120007165Y-45488918D01*
X120030614Y-45496031D01*
X120055000Y-45498433D01*
X120079386Y-45496031D01*
X120102835Y-45488918D01*
X120124446Y-45477367D01*
X120143387Y-45461822D01*
X120158933Y-45442880D01*
X120170484Y-45421269D01*
X120177597Y-45397820D01*
X120188996Y-45340513D01*
X120287068Y-45103747D01*
X120429447Y-44890661D01*
X120610661Y-44709447D01*
X120823745Y-44567069D01*
X120823747Y-44567068D01*
X121060513Y-44468996D01*
X121311861Y-44419000D01*
X121568139Y-44419000D01*
X121819487Y-44468996D01*
X122056253Y-44567068D01*
X122056255Y-44567069D01*
X122269339Y-44709447D01*
X122450553Y-44890661D01*
X122592932Y-45103747D01*
X122691004Y-45340513D01*
X122702403Y-45397820D01*
X122709516Y-45421269D01*
X122721067Y-45442880D01*
X122736612Y-45461821D01*
X122755554Y-45477367D01*
X122777165Y-45488918D01*
X122800614Y-45496031D01*
X122825000Y-45498433D01*
X122849386Y-45496031D01*
X122872835Y-45488918D01*
X122894446Y-45477367D01*
X122913387Y-45461822D01*
X122928933Y-45442880D01*
X122940484Y-45421269D01*
X122947597Y-45397820D01*
X122958996Y-45340513D01*
X123057068Y-45103747D01*
X123199447Y-44890661D01*
X123380661Y-44709447D01*
X123593745Y-44567069D01*
X123593747Y-44567068D01*
X123830513Y-44468996D01*
X124081861Y-44419000D01*
X124169001Y-44419000D01*
X124193387Y-44416598D01*
X124216836Y-44409485D01*
X124238447Y-44397934D01*
X124257389Y-44382389D01*
X124272934Y-44363447D01*
X124284485Y-44341836D01*
X124288118Y-44329859D01*
X124288170Y-44330385D01*
X124288170Y-44330385D01*
G37*
G36*
X106584487Y-41628996D02*
G01*
X106821253Y-41727068D01*
X106821255Y-41727069D01*
X107034339Y-41869447D01*
X107215553Y-42050661D01*
X107357932Y-42263747D01*
X107456004Y-42500513D01*
X107467403Y-42557820D01*
X107474516Y-42581269D01*
X107486067Y-42602880D01*
X107501612Y-42621821D01*
X107520554Y-42637367D01*
X107542165Y-42648918D01*
X107565614Y-42656031D01*
X107590000Y-42658433D01*
X107614386Y-42656031D01*
X107637835Y-42648918D01*
X107659446Y-42637367D01*
X107678387Y-42621822D01*
X107693933Y-42602880D01*
X107705484Y-42581269D01*
X107712597Y-42557820D01*
X107723996Y-42500513D01*
X107822068Y-42263747D01*
X107964447Y-42050661D01*
X108145661Y-41869447D01*
X108358745Y-41727069D01*
X108358747Y-41727068D01*
X108595513Y-41628996D01*
X108846861Y-41579000D01*
X109103139Y-41579000D01*
X109354487Y-41628996D01*
X109591253Y-41727068D01*
X109591255Y-41727069D01*
X109804339Y-41869447D01*
X109985553Y-42050661D01*
X110127932Y-42263747D01*
X110226004Y-42500513D01*
X110237403Y-42557820D01*
X110244516Y-42581269D01*
X110256067Y-42602880D01*
X110271612Y-42621821D01*
X110290554Y-42637367D01*
X110312165Y-42648918D01*
X110335614Y-42656031D01*
X110360000Y-42658433D01*
X110384386Y-42656031D01*
X110407835Y-42648918D01*
X110429446Y-42637367D01*
X110448387Y-42621822D01*
X110463933Y-42602880D01*
X110475484Y-42581269D01*
X110482597Y-42557820D01*
X110493996Y-42500513D01*
X110592068Y-42263747D01*
X110734447Y-42050661D01*
X110915661Y-41869447D01*
X111128745Y-41727069D01*
X111128747Y-41727068D01*
X111365513Y-41628996D01*
X111616861Y-41579000D01*
X111873139Y-41579000D01*
X112124487Y-41628996D01*
X112361253Y-41727068D01*
X112361255Y-41727069D01*
X112574339Y-41869447D01*
X112755553Y-42050661D01*
X112897932Y-42263747D01*
X112996004Y-42500513D01*
X113007403Y-42557820D01*
X113014516Y-42581269D01*
X113026067Y-42602880D01*
X113041612Y-42621821D01*
X113060554Y-42637367D01*
X113082165Y-42648918D01*
X113105614Y-42656031D01*
X113130000Y-42658433D01*
X113154386Y-42656031D01*
X113177835Y-42648918D01*
X113199446Y-42637367D01*
X113218387Y-42621822D01*
X113233933Y-42602880D01*
X113245484Y-42581269D01*
X113252597Y-42557820D01*
X113263996Y-42500513D01*
X113362068Y-42263747D01*
X113504447Y-42050661D01*
X113685661Y-41869447D01*
X113898745Y-41727069D01*
X113898747Y-41727068D01*
X114135513Y-41628996D01*
X114386861Y-41579000D01*
X114643139Y-41579000D01*
X114894487Y-41628996D01*
X115131253Y-41727068D01*
X115131255Y-41727069D01*
X115344339Y-41869447D01*
X115525553Y-42050661D01*
X115667932Y-42263747D01*
X115766004Y-42500513D01*
X115777403Y-42557820D01*
X115784516Y-42581269D01*
X115796067Y-42602880D01*
X115811612Y-42621821D01*
X115830554Y-42637367D01*
X115852165Y-42648918D01*
X115875614Y-42656031D01*
X115900000Y-42658433D01*
X115924386Y-42656031D01*
X115947835Y-42648918D01*
X115969446Y-42637367D01*
X115988387Y-42621822D01*
X116003933Y-42602880D01*
X116015484Y-42581269D01*
X116022597Y-42557820D01*
X116033996Y-42500513D01*
X116132068Y-42263747D01*
X116274447Y-42050661D01*
X116455661Y-41869447D01*
X116668745Y-41727069D01*
X116668747Y-41727068D01*
X116905513Y-41628996D01*
X117156861Y-41579000D01*
X117413139Y-41579000D01*
X117664487Y-41628996D01*
X117901253Y-41727068D01*
X117901255Y-41727069D01*
X118114339Y-41869447D01*
X118295553Y-42050661D01*
X118437932Y-42263747D01*
X118536004Y-42500513D01*
X118547403Y-42557820D01*
X118554516Y-42581269D01*
X118566067Y-42602880D01*
X118581612Y-42621821D01*
X118600554Y-42637367D01*
X118622165Y-42648918D01*
X118645614Y-42656031D01*
X118670000Y-42658433D01*
X118694386Y-42656031D01*
X118717835Y-42648918D01*
X118739446Y-42637367D01*
X118758387Y-42621822D01*
X118773933Y-42602880D01*
X118785484Y-42581269D01*
X118792597Y-42557820D01*
X118803996Y-42500513D01*
X118902068Y-42263747D01*
X119044447Y-42050661D01*
X119225661Y-41869447D01*
X119438745Y-41727069D01*
X119438747Y-41727068D01*
X119675513Y-41628996D01*
X119926861Y-41579000D01*
X120183139Y-41579000D01*
X120434487Y-41628996D01*
X120671253Y-41727068D01*
X120671255Y-41727069D01*
X120884339Y-41869447D01*
X121065553Y-42050661D01*
X121207932Y-42263747D01*
X121306004Y-42500513D01*
X121317403Y-42557820D01*
X121324516Y-42581269D01*
X121336067Y-42602880D01*
X121351612Y-42621821D01*
X121370554Y-42637367D01*
X121392165Y-42648918D01*
X121415614Y-42656031D01*
X121440000Y-42658433D01*
X121464386Y-42656031D01*
X121487835Y-42648918D01*
X121509446Y-42637367D01*
X121528387Y-42621822D01*
X121543933Y-42602880D01*
X121555484Y-42581269D01*
X121562597Y-42557820D01*
X121573996Y-42500513D01*
X121672068Y-42263747D01*
X121814447Y-42050661D01*
X121995661Y-41869447D01*
X122208745Y-41727069D01*
X122208747Y-41727068D01*
X122445513Y-41628996D01*
X122696861Y-41579000D01*
X122953139Y-41579000D01*
X123204487Y-41628996D01*
X123441253Y-41727068D01*
X123441255Y-41727069D01*
X123654339Y-41869447D01*
X123835553Y-42050661D01*
X123977932Y-42263747D01*
X124053517Y-42446224D01*
X124065068Y-42467835D01*
X124080614Y-42486777D01*
X124099555Y-42502322D01*
X124121166Y-42513873D01*
X124144615Y-42520986D01*
X124169001Y-42523388D01*
X124193387Y-42520986D01*
X124216836Y-42513873D01*
X124238447Y-42502322D01*
X124257389Y-42486776D01*
X124272934Y-42467835D01*
X124284485Y-42446224D01*
X124291598Y-42422775D01*
X124294000Y-42398389D01*
X124294000Y-41579000D01*
X126896000Y-41579000D01*
X126896000Y-44181000D01*
X124410767Y-44181000D01*
X124386381Y-44183402D01*
X124362932Y-44190515D01*
X124341321Y-44202066D01*
X124322379Y-44217611D01*
X124306834Y-44236553D01*
X124295283Y-44258164D01*
X124294000Y-44262394D01*
X124294000Y-43361611D01*
X124291598Y-43337225D01*
X124284485Y-43313776D01*
X124272934Y-43292165D01*
X124257389Y-43273223D01*
X124238447Y-43257678D01*
X124216836Y-43246127D01*
X124193387Y-43239014D01*
X124169001Y-43236612D01*
X124144615Y-43239014D01*
X124121166Y-43246127D01*
X124099555Y-43257678D01*
X124080613Y-43273223D01*
X124065068Y-43292165D01*
X124053517Y-43313776D01*
X123977932Y-43496253D01*
X123977931Y-43496255D01*
X123835553Y-43709339D01*
X123654339Y-43890553D01*
X123441255Y-44032931D01*
X123441254Y-44032932D01*
X123441253Y-44032932D01*
X123204487Y-44131004D01*
X122953139Y-44181000D01*
X122696861Y-44181000D01*
X122445513Y-44131004D01*
X122208747Y-44032932D01*
X122208746Y-44032932D01*
X122208745Y-44032931D01*
X121995661Y-43890553D01*
X121814447Y-43709339D01*
X121672069Y-43496255D01*
X121672068Y-43496253D01*
X121573996Y-43259487D01*
X121562597Y-43202180D01*
X121555484Y-43178731D01*
X121543933Y-43157120D01*
X121528388Y-43138179D01*
X121509446Y-43122633D01*
X121487835Y-43111082D01*
X121464386Y-43103969D01*
X121440000Y-43101567D01*
X121415614Y-43103969D01*
X121392165Y-43111082D01*
X121370554Y-43122633D01*
X121351613Y-43138178D01*
X121336067Y-43157120D01*
X121324516Y-43178731D01*
X121317403Y-43202180D01*
X121306004Y-43259487D01*
X121207932Y-43496253D01*
X121207931Y-43496255D01*
X121065553Y-43709339D01*
X120884339Y-43890553D01*
X120671255Y-44032931D01*
X120671254Y-44032932D01*
X120671253Y-44032932D01*
X120434487Y-44131004D01*
X120183139Y-44181000D01*
X119926861Y-44181000D01*
X119675513Y-44131004D01*
X119438747Y-44032932D01*
X119438746Y-44032932D01*
X119438745Y-44032931D01*
X119225661Y-43890553D01*
X119044447Y-43709339D01*
X118902069Y-43496255D01*
X118902068Y-43496253D01*
X118803996Y-43259487D01*
X118792597Y-43202180D01*
X118785484Y-43178731D01*
X118773933Y-43157120D01*
X118758388Y-43138179D01*
X118739446Y-43122633D01*
X118717835Y-43111082D01*
X118694386Y-43103969D01*
X118670000Y-43101567D01*
X118645614Y-43103969D01*
X118622165Y-43111082D01*
X118600554Y-43122633D01*
X118581613Y-43138178D01*
X118566067Y-43157120D01*
X118554516Y-43178731D01*
X118547403Y-43202180D01*
X118536004Y-43259487D01*
X118437932Y-43496253D01*
X118437931Y-43496255D01*
X118295553Y-43709339D01*
X118114339Y-43890553D01*
X117901255Y-44032931D01*
X117901254Y-44032932D01*
X117901253Y-44032932D01*
X117664487Y-44131004D01*
X117413139Y-44181000D01*
X117156861Y-44181000D01*
X116905513Y-44131004D01*
X116668747Y-44032932D01*
X116668746Y-44032932D01*
X116668745Y-44032931D01*
X116455661Y-43890553D01*
X116274447Y-43709339D01*
X116132069Y-43496255D01*
X116132068Y-43496253D01*
X116033996Y-43259487D01*
X116022597Y-43202180D01*
X116015484Y-43178731D01*
X116003933Y-43157120D01*
X115988388Y-43138179D01*
X115969446Y-43122633D01*
X115947835Y-43111082D01*
X115924386Y-43103969D01*
X115900000Y-43101567D01*
X115875614Y-43103969D01*
X115852165Y-43111082D01*
X115830554Y-43122633D01*
X115811613Y-43138178D01*
X115796067Y-43157120D01*
X115784516Y-43178731D01*
X115777403Y-43202180D01*
X115766004Y-43259487D01*
X115667932Y-43496253D01*
X115667931Y-43496255D01*
X115525553Y-43709339D01*
X115344339Y-43890553D01*
X115131255Y-44032931D01*
X115131254Y-44032932D01*
X115131253Y-44032932D01*
X114894487Y-44131004D01*
X114643139Y-44181000D01*
X114386861Y-44181000D01*
X114135513Y-44131004D01*
X113898747Y-44032932D01*
X113898746Y-44032932D01*
X113898745Y-44032931D01*
X113685661Y-43890553D01*
X113504447Y-43709339D01*
X113362069Y-43496255D01*
X113362068Y-43496253D01*
X113263996Y-43259487D01*
X113252597Y-43202180D01*
X113245484Y-43178731D01*
X113233933Y-43157120D01*
X113218388Y-43138179D01*
X113199446Y-43122633D01*
X113177835Y-43111082D01*
X113154386Y-43103969D01*
X113130000Y-43101567D01*
X113105614Y-43103969D01*
X113082165Y-43111082D01*
X113060554Y-43122633D01*
X113041613Y-43138178D01*
X113026067Y-43157120D01*
X113014516Y-43178731D01*
X113007403Y-43202180D01*
X112996004Y-43259487D01*
X112897932Y-43496253D01*
X112897931Y-43496255D01*
X112755553Y-43709339D01*
X112574339Y-43890553D01*
X112361255Y-44032931D01*
X112361254Y-44032932D01*
X112361253Y-44032932D01*
X112124487Y-44131004D01*
X111873139Y-44181000D01*
X111616861Y-44181000D01*
X111365513Y-44131004D01*
X111128747Y-44032932D01*
X111128746Y-44032932D01*
X111128745Y-44032931D01*
X110915661Y-43890553D01*
X110734447Y-43709339D01*
X110592069Y-43496255D01*
X110592068Y-43496253D01*
X110493996Y-43259487D01*
X110482597Y-43202180D01*
X110475484Y-43178731D01*
X110463933Y-43157120D01*
X110448388Y-43138179D01*
X110429446Y-43122633D01*
X110407835Y-43111082D01*
X110384386Y-43103969D01*
X110360000Y-43101567D01*
X110335614Y-43103969D01*
X110312165Y-43111082D01*
X110290554Y-43122633D01*
X110271613Y-43138178D01*
X110256067Y-43157120D01*
X110244516Y-43178731D01*
X110237403Y-43202180D01*
X110226004Y-43259487D01*
X110127932Y-43496253D01*
X110127931Y-43496255D01*
X109985553Y-43709339D01*
X109804339Y-43890553D01*
X109591255Y-44032931D01*
X109591254Y-44032932D01*
X109591253Y-44032932D01*
X109354487Y-44131004D01*
X109103139Y-44181000D01*
X108846861Y-44181000D01*
X108595513Y-44131004D01*
X108358747Y-44032932D01*
X108358746Y-44032932D01*
X108358745Y-44032931D01*
X108145661Y-43890553D01*
X107964447Y-43709339D01*
X107822069Y-43496255D01*
X107822068Y-43496253D01*
X107723996Y-43259487D01*
X107712597Y-43202180D01*
X107705484Y-43178731D01*
X107693933Y-43157120D01*
X107678388Y-43138179D01*
X107659446Y-43122633D01*
X107637835Y-43111082D01*
X107614386Y-43103969D01*
X107590000Y-43101567D01*
X107565614Y-43103969D01*
X107542165Y-43111082D01*
X107520554Y-43122633D01*
X107501613Y-43138178D01*
X107486067Y-43157120D01*
X107474516Y-43178731D01*
X107467403Y-43202180D01*
X107456004Y-43259487D01*
X107357932Y-43496253D01*
X107357931Y-43496255D01*
X107215553Y-43709339D01*
X107034339Y-43890553D01*
X106821255Y-44032931D01*
X106821254Y-44032932D01*
X106821253Y-44032932D01*
X106584487Y-44131004D01*
X106333139Y-44181000D01*
X106076861Y-44181000D01*
X105825513Y-44131004D01*
X105588747Y-44032932D01*
X105588746Y-44032932D01*
X105588745Y-44032931D01*
X105375661Y-43890553D01*
X105194447Y-43709339D01*
X105052069Y-43496255D01*
X105052068Y-43496253D01*
X104953996Y-43259487D01*
X104904000Y-43008139D01*
X104904000Y-42751861D01*
X104953996Y-42500513D01*
X105052068Y-42263747D01*
X105194447Y-42050661D01*
X105375661Y-41869447D01*
X105588745Y-41727069D01*
X105588747Y-41727068D01*
X105825513Y-41628996D01*
X106076861Y-41579000D01*
X106333139Y-41579000D01*
X106584487Y-41628996D01*
X106584487Y-41628996D01*
G37*
G36*
X90747564Y-41257389D02*
G01*
X90938833Y-41336615D01*
X90938835Y-41336616D01*
X91110973Y-41451635D01*
X91257365Y-41598027D01*
X91278059Y-41628997D01*
X91372385Y-41770167D01*
X91451611Y-41961436D01*
X91492000Y-42164484D01*
X91492000Y-42371516D01*
X91451611Y-42574564D01*
X91372385Y-42765833D01*
X91372384Y-42765835D01*
X91257365Y-42937973D01*
X91110973Y-43084365D01*
X90938835Y-43199384D01*
X90938834Y-43199385D01*
X90938833Y-43199385D01*
X90747564Y-43278611D01*
X90544516Y-43319000D01*
X90337484Y-43319000D01*
X90134436Y-43278611D01*
X89943167Y-43199385D01*
X89943166Y-43199385D01*
X89943165Y-43199384D01*
X89771027Y-43084365D01*
X89624635Y-42937973D01*
X89509616Y-42765835D01*
X89509615Y-42765833D01*
X89430389Y-42574564D01*
X89390000Y-42371516D01*
X89390000Y-42164484D01*
X89430389Y-41961436D01*
X89509615Y-41770167D01*
X89603942Y-41628997D01*
X89624635Y-41598027D01*
X89771027Y-41451635D01*
X89943165Y-41336616D01*
X89943167Y-41336615D01*
X90134436Y-41257389D01*
X90337484Y-41217000D01*
X90544516Y-41217000D01*
X90747564Y-41257389D01*
X90747564Y-41257389D01*
G37*
G36*
X141665564Y-41257389D02*
G01*
X141856833Y-41336615D01*
X141856835Y-41336616D01*
X142028973Y-41451635D01*
X142175365Y-41598027D01*
X142196059Y-41628997D01*
X142290385Y-41770167D01*
X142369611Y-41961436D01*
X142410000Y-42164484D01*
X142410000Y-42371516D01*
X142369611Y-42574564D01*
X142290385Y-42765833D01*
X142290384Y-42765835D01*
X142175365Y-42937973D01*
X142028973Y-43084365D01*
X141856835Y-43199384D01*
X141856834Y-43199385D01*
X141856833Y-43199385D01*
X141665564Y-43278611D01*
X141462516Y-43319000D01*
X141255484Y-43319000D01*
X141052436Y-43278611D01*
X140861167Y-43199385D01*
X140861166Y-43199385D01*
X140861165Y-43199384D01*
X140689027Y-43084365D01*
X140542635Y-42937973D01*
X140427616Y-42765835D01*
X140427615Y-42765833D01*
X140348389Y-42574564D01*
X140308000Y-42371516D01*
X140308000Y-42164484D01*
X140348389Y-41961436D01*
X140427615Y-41770167D01*
X140521942Y-41628997D01*
X140542635Y-41598027D01*
X140689027Y-41451635D01*
X140861165Y-41336616D01*
X140861167Y-41336615D01*
X141052436Y-41257389D01*
X141255484Y-41217000D01*
X141462516Y-41217000D01*
X141665564Y-41257389D01*
X141665564Y-41257389D01*
G37*
G36*
X137347564Y-41257389D02*
G01*
X137538833Y-41336615D01*
X137538835Y-41336616D01*
X137710973Y-41451635D01*
X137857365Y-41598027D01*
X137878059Y-41628997D01*
X137972385Y-41770167D01*
X138051611Y-41961436D01*
X138092000Y-42164484D01*
X138092000Y-42371516D01*
X138051611Y-42574564D01*
X137972385Y-42765833D01*
X137972384Y-42765835D01*
X137857365Y-42937973D01*
X137710973Y-43084365D01*
X137538835Y-43199384D01*
X137538834Y-43199385D01*
X137538833Y-43199385D01*
X137347564Y-43278611D01*
X137144516Y-43319000D01*
X136937484Y-43319000D01*
X136734436Y-43278611D01*
X136543167Y-43199385D01*
X136543166Y-43199385D01*
X136543165Y-43199384D01*
X136371027Y-43084365D01*
X136224635Y-42937973D01*
X136109616Y-42765835D01*
X136109615Y-42765833D01*
X136030389Y-42574564D01*
X135990000Y-42371516D01*
X135990000Y-42164484D01*
X136030389Y-41961436D01*
X136109615Y-41770167D01*
X136203942Y-41628997D01*
X136224635Y-41598027D01*
X136371027Y-41451635D01*
X136543165Y-41336616D01*
X136543167Y-41336615D01*
X136734436Y-41257389D01*
X136937484Y-41217000D01*
X137144516Y-41217000D01*
X137347564Y-41257389D01*
X137347564Y-41257389D01*
G37*
G36*
X95065564Y-41257389D02*
G01*
X95256833Y-41336615D01*
X95256835Y-41336616D01*
X95428973Y-41451635D01*
X95575365Y-41598027D01*
X95596059Y-41628997D01*
X95690385Y-41770167D01*
X95769611Y-41961436D01*
X95810000Y-42164484D01*
X95810000Y-42371516D01*
X95769611Y-42574564D01*
X95690385Y-42765833D01*
X95690384Y-42765835D01*
X95575365Y-42937973D01*
X95428973Y-43084365D01*
X95256835Y-43199384D01*
X95256834Y-43199385D01*
X95256833Y-43199385D01*
X95065564Y-43278611D01*
X94862516Y-43319000D01*
X94655484Y-43319000D01*
X94452436Y-43278611D01*
X94261167Y-43199385D01*
X94261166Y-43199385D01*
X94261165Y-43199384D01*
X94089027Y-43084365D01*
X93942635Y-42937973D01*
X93827616Y-42765835D01*
X93827615Y-42765833D01*
X93748389Y-42574564D01*
X93708000Y-42371516D01*
X93708000Y-42164484D01*
X93748389Y-41961436D01*
X93827615Y-41770167D01*
X93921942Y-41628997D01*
X93942635Y-41598027D01*
X94089027Y-41451635D01*
X94261165Y-41336616D01*
X94261167Y-41336615D01*
X94452436Y-41257389D01*
X94655484Y-41217000D01*
X94862516Y-41217000D01*
X95065564Y-41257389D01*
X95065564Y-41257389D01*
G37*
G36*
X141665564Y-37193389D02*
G01*
X141856833Y-37272615D01*
X141856835Y-37272616D01*
X142028973Y-37387635D01*
X142175365Y-37534027D01*
X142279982Y-37690597D01*
X142290385Y-37706167D01*
X142369611Y-37897436D01*
X142410000Y-38100484D01*
X142410000Y-38307516D01*
X142369611Y-38510564D01*
X142290385Y-38701833D01*
X142290384Y-38701835D01*
X142175365Y-38873973D01*
X142028973Y-39020365D01*
X141856835Y-39135384D01*
X141856834Y-39135385D01*
X141856833Y-39135385D01*
X141665564Y-39214611D01*
X141462516Y-39255000D01*
X141255484Y-39255000D01*
X141052436Y-39214611D01*
X140861167Y-39135385D01*
X140861166Y-39135385D01*
X140861165Y-39135384D01*
X140689027Y-39020365D01*
X140542635Y-38873973D01*
X140427616Y-38701835D01*
X140427615Y-38701833D01*
X140348389Y-38510564D01*
X140308000Y-38307516D01*
X140308000Y-38100484D01*
X140348389Y-37897436D01*
X140427615Y-37706167D01*
X140438019Y-37690597D01*
X140542635Y-37534027D01*
X140689027Y-37387635D01*
X140861165Y-37272616D01*
X140861167Y-37272615D01*
X141052436Y-37193389D01*
X141255484Y-37153000D01*
X141462516Y-37153000D01*
X141665564Y-37193389D01*
X141665564Y-37193389D01*
G37*
G36*
X95065564Y-37193389D02*
G01*
X95256833Y-37272615D01*
X95256835Y-37272616D01*
X95428973Y-37387635D01*
X95575365Y-37534027D01*
X95679982Y-37690597D01*
X95690385Y-37706167D01*
X95769611Y-37897436D01*
X95810000Y-38100484D01*
X95810000Y-38307516D01*
X95769611Y-38510564D01*
X95690385Y-38701833D01*
X95690384Y-38701835D01*
X95575365Y-38873973D01*
X95428973Y-39020365D01*
X95256835Y-39135384D01*
X95256834Y-39135385D01*
X95256833Y-39135385D01*
X95065564Y-39214611D01*
X94862516Y-39255000D01*
X94655484Y-39255000D01*
X94452436Y-39214611D01*
X94261167Y-39135385D01*
X94261166Y-39135385D01*
X94261165Y-39135384D01*
X94089027Y-39020365D01*
X93942635Y-38873973D01*
X93827616Y-38701835D01*
X93827615Y-38701833D01*
X93748389Y-38510564D01*
X93708000Y-38307516D01*
X93708000Y-38100484D01*
X93748389Y-37897436D01*
X93827615Y-37706167D01*
X93838019Y-37690597D01*
X93942635Y-37534027D01*
X94089027Y-37387635D01*
X94261165Y-37272616D01*
X94261167Y-37272615D01*
X94452436Y-37193389D01*
X94655484Y-37153000D01*
X94862516Y-37153000D01*
X95065564Y-37193389D01*
X95065564Y-37193389D01*
G37*
G36*
X111247556Y-34618798D02*
G01*
X111353879Y-34639947D01*
X111654342Y-34764403D01*
X111924751Y-34945085D01*
X112154715Y-35175049D01*
X112335397Y-35445458D01*
X112459853Y-35745921D01*
X112523300Y-36064891D01*
X112523300Y-36390109D01*
X112459853Y-36709079D01*
X112335397Y-37009542D01*
X112154715Y-37279951D01*
X111924751Y-37509915D01*
X111654342Y-37690597D01*
X111353879Y-37815053D01*
X111247556Y-37836202D01*
X111034911Y-37878500D01*
X110709689Y-37878500D01*
X110497044Y-37836202D01*
X110390721Y-37815053D01*
X110090258Y-37690597D01*
X109819849Y-37509915D01*
X109589885Y-37279951D01*
X109409203Y-37009542D01*
X109284747Y-36709079D01*
X109221300Y-36390109D01*
X109221300Y-36064891D01*
X109284747Y-35745921D01*
X109409203Y-35445458D01*
X109589885Y-35175049D01*
X109819849Y-34945085D01*
X110090258Y-34764403D01*
X110390721Y-34639947D01*
X110497044Y-34618798D01*
X110709689Y-34576500D01*
X111034911Y-34576500D01*
X111247556Y-34618798D01*
X111247556Y-34618798D01*
G37*
G36*
X157855656Y-34618798D02*
G01*
X157961979Y-34639947D01*
X158262442Y-34764403D01*
X158532851Y-34945085D01*
X158762815Y-35175049D01*
X158943497Y-35445458D01*
X159067953Y-35745921D01*
X159131400Y-36064891D01*
X159131400Y-36390109D01*
X159067953Y-36709079D01*
X158943497Y-37009542D01*
X158762815Y-37279951D01*
X158532851Y-37509915D01*
X158262442Y-37690597D01*
X157961979Y-37815053D01*
X157855656Y-37836202D01*
X157643011Y-37878500D01*
X157317789Y-37878500D01*
X157105144Y-37836202D01*
X156998821Y-37815053D01*
X156698358Y-37690597D01*
X156427949Y-37509915D01*
X156197985Y-37279951D01*
X156017303Y-37009542D01*
X155892847Y-36709079D01*
X155829400Y-36390109D01*
X155829400Y-36064891D01*
X155892847Y-35745921D01*
X156017303Y-35445458D01*
X156197985Y-35175049D01*
X156427949Y-34945085D01*
X156698358Y-34764403D01*
X156998821Y-34639947D01*
X157105144Y-34618798D01*
X157317789Y-34576500D01*
X157643011Y-34576500D01*
X157855656Y-34618798D01*
X157855656Y-34618798D01*
G37*
G36*
X167911056Y-34618798D02*
G01*
X168017379Y-34639947D01*
X168317842Y-34764403D01*
X168588251Y-34945085D01*
X168818215Y-35175049D01*
X168998897Y-35445458D01*
X169123353Y-35745921D01*
X169186800Y-36064891D01*
X169186800Y-36390109D01*
X169123353Y-36709079D01*
X168998897Y-37009542D01*
X168818215Y-37279951D01*
X168588251Y-37509915D01*
X168317842Y-37690597D01*
X168017379Y-37815053D01*
X167911056Y-37836202D01*
X167698411Y-37878500D01*
X167373189Y-37878500D01*
X167160544Y-37836202D01*
X167054221Y-37815053D01*
X166753758Y-37690597D01*
X166483349Y-37509915D01*
X166253385Y-37279951D01*
X166072703Y-37009542D01*
X165948247Y-36709079D01*
X165884800Y-36390109D01*
X165884800Y-36064891D01*
X165948247Y-35745921D01*
X166072703Y-35445458D01*
X166253385Y-35175049D01*
X166483349Y-34945085D01*
X166753758Y-34764403D01*
X167054221Y-34639947D01*
X167160544Y-34618798D01*
X167373189Y-34576500D01*
X167698411Y-34576500D01*
X167911056Y-34618798D01*
X167911056Y-34618798D01*
G37*
G36*
X121302956Y-34618798D02*
G01*
X121409279Y-34639947D01*
X121709742Y-34764403D01*
X121980151Y-34945085D01*
X122210115Y-35175049D01*
X122390797Y-35445458D01*
X122515253Y-35745921D01*
X122578700Y-36064891D01*
X122578700Y-36390109D01*
X122515253Y-36709079D01*
X122390797Y-37009542D01*
X122210115Y-37279951D01*
X121980151Y-37509915D01*
X121709742Y-37690597D01*
X121409279Y-37815053D01*
X121302956Y-37836202D01*
X121090311Y-37878500D01*
X120765089Y-37878500D01*
X120552444Y-37836202D01*
X120446121Y-37815053D01*
X120145658Y-37690597D01*
X119875249Y-37509915D01*
X119645285Y-37279951D01*
X119464603Y-37009542D01*
X119340147Y-36709079D01*
X119276700Y-36390109D01*
X119276700Y-36064891D01*
X119340147Y-35745921D01*
X119464603Y-35445458D01*
X119645285Y-35175049D01*
X119875249Y-34945085D01*
X120145658Y-34764403D01*
X120446121Y-34639947D01*
X120552444Y-34618798D01*
X120765089Y-34576500D01*
X121090311Y-34576500D01*
X121302956Y-34618798D01*
X121302956Y-34618798D01*
G37*
M02*
