G04 #@! TF.GenerationSoftware,KiCad,Pcbnew,(5.1.0)-1*
G04 #@! TF.CreationDate,2019-07-24T21:39:48-04:00*
G04 #@! TF.ProjectId,Panel,50616e65-6c2e-46b6-9963-61645f706362,rev?*
G04 #@! TF.SameCoordinates,Original*
G04 #@! TF.FileFunction,Profile,NP*
%FSLAX46Y46*%
G04 Gerber Fmt 4.6, Leading zero omitted, Abs format (unit mm)*
G04 Created by KiCad (PCBNEW (5.1.0)-1) date 2019-07-24 21:39:48*
%MOMM*%
%LPD*%
G04 APERTURE LIST*
%ADD10C,0.050000*%
G04 APERTURE END LIST*
D10*
X147425000Y-34390000D02*
G75*
G03X144885000Y-31850000I-2540000J0D01*
G01*
X147425000Y-53750000D02*
X147425000Y-34390000D01*
X177591200Y-34390000D02*
X177591200Y-54210000D01*
X174133100Y-42969470D02*
X174133100Y-45625530D01*
X177591200Y-34390000D02*
X177591200Y-54210000D01*
X174133100Y-42969470D02*
X174133100Y-45625530D01*
X150883100Y-45625530D02*
X150883100Y-42969470D01*
X150883100Y-45625530D02*
X150883100Y-42969470D01*
X175051200Y-31850000D02*
X149965000Y-31850000D01*
X153347570Y-48090000D02*
G75*
G02X150883100Y-45625530I0J2464470D01*
G01*
X144885000Y-56750000D02*
G75*
G03X147425000Y-54210000I0J2540000D01*
G01*
X153347570Y-48090000D02*
X171668630Y-48090000D01*
X147425000Y-54210000D02*
X147425000Y-53750000D01*
X149965000Y-31850000D02*
G75*
G03X147425000Y-34390000I0J-2540000D01*
G01*
X171668630Y-40505000D02*
G75*
G02X174133100Y-42969470I0J-2464470D01*
G01*
X153347570Y-48090000D02*
G75*
G02X150883100Y-45625530I0J2464470D01*
G01*
X144885000Y-56750000D02*
X86915000Y-56750000D01*
X153347570Y-48090000D02*
X171668630Y-48090000D01*
X175051200Y-56750000D02*
X149965000Y-56750000D01*
X84375000Y-53750000D02*
X84375000Y-34390000D01*
X84375000Y-54210000D02*
G75*
G03X86915000Y-56750000I2540000J0D01*
G01*
X86915000Y-31850000D02*
G75*
G03X84375000Y-34390000I0J-2540000D01*
G01*
X150883100Y-42969470D02*
G75*
G02X153347570Y-40505000I2464470J0D01*
G01*
X147425000Y-34390000D02*
G75*
G03X144885000Y-31850000I-2540000J0D01*
G01*
X84375000Y-54210000D02*
X84375000Y-53750000D01*
X177591200Y-34390000D02*
G75*
G03X175051200Y-31850000I-2540000J0D01*
G01*
X86915000Y-31850000D02*
G75*
G03X84375000Y-34390000I0J-2540000D01*
G01*
X147425000Y-34390000D02*
X147425000Y-54210000D01*
X84375000Y-53750000D02*
X84375000Y-34390000D01*
X84375000Y-54210000D02*
G75*
G03X86915000Y-56750000I2540000J0D01*
G01*
X177591200Y-34390000D02*
G75*
G03X175051200Y-31850000I-2540000J0D01*
G01*
X174133100Y-45625530D02*
G75*
G02X171668630Y-48090000I-2464470J0D01*
G01*
X147425000Y-34390000D02*
X147425000Y-54210000D01*
X86915000Y-31850000D02*
X144885000Y-31850000D01*
X144885000Y-56750000D02*
G75*
G03X147425000Y-54210000I0J2540000D01*
G01*
X175051200Y-31850000D02*
X149965000Y-31850000D01*
X175051200Y-56750000D02*
G75*
G03X177591200Y-54210000I0J2540000D01*
G01*
X147425000Y-54210000D02*
G75*
G03X149965000Y-56750000I2540000J0D01*
G01*
X150883100Y-42969470D02*
G75*
G02X153347570Y-40505000I2464470J0D01*
G01*
X174133100Y-45625530D02*
G75*
G02X171668630Y-48090000I-2464470J0D01*
G01*
X175051200Y-56750000D02*
G75*
G03X177591200Y-54210000I0J2540000D01*
G01*
X147425000Y-54210000D02*
X147425000Y-53750000D01*
X153347570Y-40505000D02*
X171668630Y-40505000D01*
X144885000Y-56750000D02*
X86915000Y-56750000D01*
X147425000Y-53750000D02*
X147425000Y-34390000D01*
X86915000Y-31850000D02*
X144885000Y-31850000D01*
X147425000Y-54210000D02*
G75*
G03X149965000Y-56750000I2540000J0D01*
G01*
X171668630Y-40505000D02*
G75*
G02X174133100Y-42969470I0J-2464470D01*
G01*
X153347570Y-40505000D02*
X171668630Y-40505000D01*
X84375000Y-54210000D02*
X84375000Y-53750000D01*
X175051200Y-56750000D02*
X149965000Y-56750000D01*
X149965000Y-31850000D02*
G75*
G03X147425000Y-34390000I0J-2540000D01*
G01*
X174133100Y-70525530D02*
G75*
G02X171668630Y-72990000I-2464470J0D01*
G01*
X147425000Y-79110000D02*
G75*
G03X149965000Y-81650000I2540000J0D01*
G01*
X150883100Y-67869470D02*
G75*
G02X153347570Y-65405000I2464470J0D01*
G01*
X175051200Y-81650000D02*
G75*
G03X177591200Y-79110000I0J2540000D01*
G01*
X177591200Y-59290000D02*
G75*
G03X175051200Y-56750000I-2540000J0D01*
G01*
X86915000Y-56750000D02*
G75*
G03X84375000Y-59290000I0J-2540000D01*
G01*
X147425000Y-59290000D02*
G75*
G03X144885000Y-56750000I-2540000J0D01*
G01*
X84375000Y-79110000D02*
X84375000Y-78650000D01*
X150883100Y-67869470D02*
G75*
G02X153347570Y-65405000I2464470J0D01*
G01*
X86915000Y-56750000D02*
X144885000Y-56750000D01*
X144885000Y-81650000D02*
G75*
G03X147425000Y-79110000I0J2540000D01*
G01*
X175051200Y-56750000D02*
X149965000Y-56750000D01*
X175051200Y-81650000D02*
G75*
G03X177591200Y-79110000I0J2540000D01*
G01*
X147425000Y-59290000D02*
X147425000Y-79110000D01*
X147425000Y-59290000D02*
X147425000Y-79110000D01*
X84375000Y-78650000D02*
X84375000Y-59290000D01*
X84375000Y-79110000D02*
G75*
G03X86915000Y-81650000I2540000J0D01*
G01*
X177591200Y-59290000D02*
G75*
G03X175051200Y-56750000I-2540000J0D01*
G01*
X174133100Y-70525530D02*
G75*
G02X171668630Y-72990000I-2464470J0D01*
G01*
X147425000Y-78650000D02*
X147425000Y-59290000D01*
X153347570Y-65405000D02*
X171668630Y-65405000D01*
X147425000Y-79110000D02*
G75*
G03X149965000Y-81650000I2540000J0D01*
G01*
X149965000Y-56750000D02*
G75*
G03X147425000Y-59290000I0J-2540000D01*
G01*
X147425000Y-79110000D02*
X147425000Y-78650000D01*
X175051200Y-81650000D02*
X149965000Y-81650000D01*
X171668630Y-65405000D02*
G75*
G02X174133100Y-67869470I0J-2464470D01*
G01*
X144885000Y-81650000D02*
X86915000Y-81650000D01*
X153347570Y-65405000D02*
X171668630Y-65405000D01*
X86915000Y-56750000D02*
X144885000Y-56750000D01*
X84375000Y-79110000D02*
X84375000Y-78650000D01*
X147425000Y-78650000D02*
X147425000Y-59290000D01*
X147425000Y-59290000D02*
G75*
G03X144885000Y-56750000I-2540000J0D01*
G01*
X177591200Y-59290000D02*
X177591200Y-79110000D01*
X174133100Y-67869470D02*
X174133100Y-70525530D01*
X153347570Y-72990000D02*
G75*
G02X150883100Y-70525530I0J2464470D01*
G01*
X175051200Y-56750000D02*
X149965000Y-56750000D01*
X144885000Y-81650000D02*
G75*
G03X147425000Y-79110000I0J2540000D01*
G01*
X150883100Y-70525530D02*
X150883100Y-67869470D01*
X153347570Y-72990000D02*
X171668630Y-72990000D01*
X147425000Y-79110000D02*
X147425000Y-78650000D01*
X171668630Y-65405000D02*
G75*
G02X174133100Y-67869470I0J-2464470D01*
G01*
X144885000Y-81650000D02*
X86915000Y-81650000D01*
X175051200Y-81650000D02*
X149965000Y-81650000D01*
X86915000Y-56750000D02*
G75*
G03X84375000Y-59290000I0J-2540000D01*
G01*
X84375000Y-78650000D02*
X84375000Y-59290000D01*
X84375000Y-79110000D02*
G75*
G03X86915000Y-81650000I2540000J0D01*
G01*
X149965000Y-56750000D02*
G75*
G03X147425000Y-59290000I0J-2540000D01*
G01*
X177591200Y-59290000D02*
X177591200Y-79110000D01*
X174133100Y-67869470D02*
X174133100Y-70525530D01*
X150883100Y-70525530D02*
X150883100Y-67869470D01*
X153347570Y-72990000D02*
G75*
G02X150883100Y-70525530I0J2464470D01*
G01*
X153347570Y-72990000D02*
X171668630Y-72990000D01*
X175051200Y-106550000D02*
X149965000Y-106550000D01*
X171668630Y-90305000D02*
G75*
G02X174133100Y-92769470I0J-2464470D01*
G01*
X149965000Y-81650000D02*
G75*
G03X147425000Y-84190000I0J-2540000D01*
G01*
X147425000Y-104010000D02*
X147425000Y-103550000D01*
X144885000Y-106550000D02*
X86915000Y-106550000D01*
X147425000Y-103550000D02*
X147425000Y-84190000D01*
X153347570Y-90305000D02*
X171668630Y-90305000D01*
X147425000Y-104010000D02*
G75*
G03X149965000Y-106550000I2540000J0D01*
G01*
X177591200Y-84190000D02*
G75*
G03X175051200Y-81650000I-2540000J0D01*
G01*
X174133100Y-95425530D02*
G75*
G02X171668630Y-97890000I-2464470J0D01*
G01*
X177591200Y-84190000D02*
X177591200Y-104010000D01*
X174133100Y-92769470D02*
X174133100Y-95425530D01*
X153347570Y-97890000D02*
G75*
G02X150883100Y-95425530I0J2464470D01*
G01*
X153347570Y-97890000D02*
X171668630Y-97890000D01*
X150883100Y-95425530D02*
X150883100Y-92769470D01*
X150883100Y-92769470D02*
G75*
G02X153347570Y-90305000I2464470J0D01*
G01*
X175051200Y-106550000D02*
G75*
G03X177591200Y-104010000I0J2540000D01*
G01*
X174133100Y-95425530D02*
G75*
G02X171668630Y-97890000I-2464470J0D01*
G01*
X177591200Y-84190000D02*
G75*
G03X175051200Y-81650000I-2540000J0D01*
G01*
X147425000Y-104010000D02*
G75*
G03X149965000Y-106550000I2540000J0D01*
G01*
X147425000Y-103550000D02*
X147425000Y-84190000D01*
X153347570Y-90305000D02*
X171668630Y-90305000D01*
X147425000Y-84190000D02*
G75*
G03X144885000Y-81650000I-2540000J0D01*
G01*
X86915000Y-81650000D02*
X144885000Y-81650000D01*
X84375000Y-104010000D02*
X84375000Y-103550000D01*
X86915000Y-81650000D02*
G75*
G03X84375000Y-84190000I0J-2540000D01*
G01*
X84375000Y-103550000D02*
X84375000Y-84190000D01*
X84375000Y-104010000D02*
G75*
G03X86915000Y-106550000I2540000J0D01*
G01*
X149965000Y-81650000D02*
G75*
G03X147425000Y-84190000I0J-2540000D01*
G01*
X175051200Y-106550000D02*
X149965000Y-106550000D01*
X171668630Y-90305000D02*
G75*
G02X174133100Y-92769470I0J-2464470D01*
G01*
X147425000Y-104010000D02*
X147425000Y-103550000D01*
X144885000Y-106550000D02*
X86915000Y-106550000D01*
X150883100Y-95425530D02*
X150883100Y-92769470D01*
X153347570Y-97890000D02*
X171668630Y-97890000D01*
X174133100Y-92769470D02*
X174133100Y-95425530D01*
X153347570Y-97890000D02*
G75*
G02X150883100Y-95425530I0J2464470D01*
G01*
X177591200Y-84190000D02*
X177591200Y-104010000D01*
X175051200Y-81650000D02*
X149965000Y-81650000D01*
X144885000Y-106550000D02*
G75*
G03X147425000Y-104010000I0J2540000D01*
G01*
X150883100Y-92769470D02*
G75*
G02X153347570Y-90305000I2464470J0D01*
G01*
X175051200Y-81650000D02*
X149965000Y-81650000D01*
X175051200Y-106550000D02*
G75*
G03X177591200Y-104010000I0J2540000D01*
G01*
X147425000Y-84190000D02*
X147425000Y-104010000D01*
X147425000Y-84190000D02*
X147425000Y-104010000D01*
X144885000Y-106550000D02*
G75*
G03X147425000Y-104010000I0J2540000D01*
G01*
X84375000Y-103550000D02*
X84375000Y-84190000D01*
X84375000Y-104010000D02*
X84375000Y-103550000D01*
X147425000Y-84190000D02*
G75*
G03X144885000Y-81650000I-2540000J0D01*
G01*
X84375000Y-104010000D02*
G75*
G03X86915000Y-106550000I2540000J0D01*
G01*
X86915000Y-81650000D02*
X144885000Y-81650000D01*
X86915000Y-81650000D02*
G75*
G03X84375000Y-84190000I0J-2540000D01*
G01*
X175051200Y-131450000D02*
X149965000Y-131450000D01*
X171668630Y-115205000D02*
G75*
G02X174133100Y-117669470I0J-2464470D01*
G01*
X149965000Y-106550000D02*
G75*
G03X147425000Y-109090000I0J-2540000D01*
G01*
X147425000Y-128910000D02*
X147425000Y-128450000D01*
X144885000Y-131450000D02*
X86915000Y-131450000D01*
X147425000Y-128450000D02*
X147425000Y-109090000D01*
X153347570Y-115205000D02*
X171668630Y-115205000D01*
X147425000Y-128910000D02*
G75*
G03X149965000Y-131450000I2540000J0D01*
G01*
X177591200Y-109090000D02*
G75*
G03X175051200Y-106550000I-2540000J0D01*
G01*
X174133100Y-120325530D02*
G75*
G02X171668630Y-122790000I-2464470J0D01*
G01*
X177591200Y-109090000D02*
X177591200Y-128910000D01*
X174133100Y-117669470D02*
X174133100Y-120325530D01*
X153347570Y-122790000D02*
G75*
G02X150883100Y-120325530I0J2464470D01*
G01*
X153347570Y-122790000D02*
X171668630Y-122790000D01*
X150883100Y-120325530D02*
X150883100Y-117669470D01*
X150883100Y-117669470D02*
G75*
G02X153347570Y-115205000I2464470J0D01*
G01*
X175051200Y-131450000D02*
G75*
G03X177591200Y-128910000I0J2540000D01*
G01*
X175051200Y-106550000D02*
X149965000Y-106550000D01*
X147425000Y-109090000D02*
X147425000Y-128910000D01*
X144885000Y-131450000D02*
G75*
G03X147425000Y-128910000I0J2540000D01*
G01*
X84375000Y-128450000D02*
X84375000Y-109090000D01*
X84375000Y-128910000D02*
X84375000Y-128450000D01*
X147425000Y-109090000D02*
G75*
G03X144885000Y-106550000I-2540000J0D01*
G01*
X84375000Y-128910000D02*
G75*
G03X86915000Y-131450000I2540000J0D01*
G01*
X86915000Y-106550000D02*
X144885000Y-106550000D01*
X86915000Y-106550000D02*
G75*
G03X84375000Y-109090000I0J-2540000D01*
G01*
X147425000Y-109090000D02*
X147425000Y-128910000D01*
X86915000Y-106550000D02*
X144885000Y-106550000D01*
X84375000Y-128450000D02*
X84375000Y-109090000D01*
X86915000Y-106550000D02*
G75*
G03X84375000Y-109090000I0J-2540000D01*
G01*
X147425000Y-109090000D02*
G75*
G03X144885000Y-106550000I-2540000J0D01*
G01*
X144885000Y-131450000D02*
G75*
G03X147425000Y-128910000I0J2540000D01*
G01*
X84375000Y-128910000D02*
G75*
G03X86915000Y-131450000I2540000J0D01*
G01*
X84375000Y-128910000D02*
X84375000Y-128450000D01*
X144885000Y-131450000D02*
X86915000Y-131450000D01*
X153347570Y-122790000D02*
G75*
G02X150883100Y-120325530I0J2464470D01*
G01*
X174133100Y-120325530D02*
G75*
G02X171668630Y-122790000I-2464470J0D01*
G01*
X171668630Y-115205000D02*
G75*
G02X174133100Y-117669470I0J-2464470D01*
G01*
X150883100Y-117669470D02*
G75*
G02X153347570Y-115205000I2464470J0D01*
G01*
X174133100Y-117669470D02*
X174133100Y-120325530D01*
X150883100Y-120325530D02*
X150883100Y-117669470D01*
X153347570Y-122790000D02*
X171668630Y-122790000D01*
X153347570Y-115205000D02*
X171668630Y-115205000D01*
X177591200Y-109090000D02*
X177591200Y-128910000D01*
X147425000Y-128450000D02*
X147425000Y-109090000D01*
X149965000Y-106550000D02*
G75*
G03X147425000Y-109090000I0J-2540000D01*
G01*
X177591200Y-109090000D02*
G75*
G03X175051200Y-106550000I-2540000J0D01*
G01*
X175051200Y-131450000D02*
G75*
G03X177591200Y-128910000I0J2540000D01*
G01*
X147425000Y-128910000D02*
G75*
G03X149965000Y-131450000I2540000J0D01*
G01*
X147425000Y-128910000D02*
X147425000Y-128450000D01*
X175051200Y-131450000D02*
X149965000Y-131450000D01*
X175051200Y-106550000D02*
X149965000Y-106550000D01*
M02*
