G04 #@! TF.GenerationSoftware,KiCad,Pcbnew,(5.1.0)-1*
G04 #@! TF.CreationDate,2019-07-24T21:39:47-04:00*
G04 #@! TF.ProjectId,Panel,50616e65-6c2e-46b6-9963-61645f706362,rev?*
G04 #@! TF.SameCoordinates,Original*
G04 #@! TF.FileFunction,Legend,Bot*
G04 #@! TF.FilePolarity,Positive*
%FSLAX46Y46*%
G04 Gerber Fmt 4.6, Leading zero omitted, Abs format (unit mm)*
G04 Created by KiCad (PCBNEW (5.1.0)-1) date 2019-07-24 21:39:47*
%MOMM*%
%LPD*%
G04 APERTURE LIST*
%ADD10C,0.500000*%
%ADD11C,0.120000*%
%ADD12C,0.150000*%
G04 APERTURE END LIST*
D10*
X108423809Y-55295238D02*
X108423809Y-53095238D01*
X107585714Y-53095238D01*
X107376190Y-53200000D01*
X107271428Y-53304761D01*
X107166666Y-53514285D01*
X107166666Y-53828571D01*
X107271428Y-54038095D01*
X107376190Y-54142857D01*
X107585714Y-54247619D01*
X108423809Y-54247619D01*
X106328571Y-53304761D02*
X106223809Y-53200000D01*
X106014285Y-53095238D01*
X105490476Y-53095238D01*
X105280952Y-53200000D01*
X105176190Y-53304761D01*
X105071428Y-53514285D01*
X105071428Y-53723809D01*
X105176190Y-54038095D01*
X106433333Y-55295238D01*
X105071428Y-55295238D01*
X108423809Y-55295238D02*
X108423809Y-53095238D01*
X107585714Y-53095238D01*
X107376190Y-53200000D01*
X107271428Y-53304761D01*
X107166666Y-53514285D01*
X107166666Y-53828571D01*
X107271428Y-54038095D01*
X107376190Y-54142857D01*
X107585714Y-54247619D01*
X108423809Y-54247619D01*
X106328571Y-53304761D02*
X106223809Y-53200000D01*
X106014285Y-53095238D01*
X105490476Y-53095238D01*
X105280952Y-53200000D01*
X105176190Y-53304761D01*
X105071428Y-53514285D01*
X105071428Y-53723809D01*
X105176190Y-54038095D01*
X106433333Y-55295238D01*
X105071428Y-55295238D01*
X126623809Y-55295238D02*
X126623809Y-53095238D01*
X125785714Y-53095238D01*
X125576190Y-53200000D01*
X125471428Y-53304761D01*
X125366666Y-53514285D01*
X125366666Y-53828571D01*
X125471428Y-54038095D01*
X125576190Y-54142857D01*
X125785714Y-54247619D01*
X126623809Y-54247619D01*
X123271428Y-55295238D02*
X124528571Y-55295238D01*
X123900000Y-55295238D02*
X123900000Y-53095238D01*
X124109523Y-53409523D01*
X124319047Y-53619047D01*
X124528571Y-53723809D01*
X126623809Y-55295238D02*
X126623809Y-53095238D01*
X125785714Y-53095238D01*
X125576190Y-53200000D01*
X125471428Y-53304761D01*
X125366666Y-53514285D01*
X125366666Y-53828571D01*
X125471428Y-54038095D01*
X125576190Y-54142857D01*
X125785714Y-54247619D01*
X126623809Y-54247619D01*
X123271428Y-55295238D02*
X124528571Y-55295238D01*
X123900000Y-55295238D02*
X123900000Y-53095238D01*
X124109523Y-53409523D01*
X124319047Y-53619047D01*
X124528571Y-53723809D01*
X108423809Y-80195238D02*
X108423809Y-77995238D01*
X107585714Y-77995238D01*
X107376190Y-78100000D01*
X107271428Y-78204761D01*
X107166666Y-78414285D01*
X107166666Y-78728571D01*
X107271428Y-78938095D01*
X107376190Y-79042857D01*
X107585714Y-79147619D01*
X108423809Y-79147619D01*
X106328571Y-78204761D02*
X106223809Y-78100000D01*
X106014285Y-77995238D01*
X105490476Y-77995238D01*
X105280952Y-78100000D01*
X105176190Y-78204761D01*
X105071428Y-78414285D01*
X105071428Y-78623809D01*
X105176190Y-78938095D01*
X106433333Y-80195238D01*
X105071428Y-80195238D01*
X108423809Y-80195238D02*
X108423809Y-77995238D01*
X107585714Y-77995238D01*
X107376190Y-78100000D01*
X107271428Y-78204761D01*
X107166666Y-78414285D01*
X107166666Y-78728571D01*
X107271428Y-78938095D01*
X107376190Y-79042857D01*
X107585714Y-79147619D01*
X108423809Y-79147619D01*
X106328571Y-78204761D02*
X106223809Y-78100000D01*
X106014285Y-77995238D01*
X105490476Y-77995238D01*
X105280952Y-78100000D01*
X105176190Y-78204761D01*
X105071428Y-78414285D01*
X105071428Y-78623809D01*
X105176190Y-78938095D01*
X106433333Y-80195238D01*
X105071428Y-80195238D01*
X126623809Y-80195238D02*
X126623809Y-77995238D01*
X125785714Y-77995238D01*
X125576190Y-78100000D01*
X125471428Y-78204761D01*
X125366666Y-78414285D01*
X125366666Y-78728571D01*
X125471428Y-78938095D01*
X125576190Y-79042857D01*
X125785714Y-79147619D01*
X126623809Y-79147619D01*
X123271428Y-80195238D02*
X124528571Y-80195238D01*
X123900000Y-80195238D02*
X123900000Y-77995238D01*
X124109523Y-78309523D01*
X124319047Y-78519047D01*
X124528571Y-78623809D01*
X126623809Y-80195238D02*
X126623809Y-77995238D01*
X125785714Y-77995238D01*
X125576190Y-78100000D01*
X125471428Y-78204761D01*
X125366666Y-78414285D01*
X125366666Y-78728571D01*
X125471428Y-78938095D01*
X125576190Y-79042857D01*
X125785714Y-79147619D01*
X126623809Y-79147619D01*
X123271428Y-80195238D02*
X124528571Y-80195238D01*
X123900000Y-80195238D02*
X123900000Y-77995238D01*
X124109523Y-78309523D01*
X124319047Y-78519047D01*
X124528571Y-78623809D01*
X126623809Y-105095238D02*
X126623809Y-102895238D01*
X125785714Y-102895238D01*
X125576190Y-103000000D01*
X125471428Y-103104761D01*
X125366666Y-103314285D01*
X125366666Y-103628571D01*
X125471428Y-103838095D01*
X125576190Y-103942857D01*
X125785714Y-104047619D01*
X126623809Y-104047619D01*
X123271428Y-105095238D02*
X124528571Y-105095238D01*
X123900000Y-105095238D02*
X123900000Y-102895238D01*
X124109523Y-103209523D01*
X124319047Y-103419047D01*
X124528571Y-103523809D01*
X108423809Y-105095238D02*
X108423809Y-102895238D01*
X107585714Y-102895238D01*
X107376190Y-103000000D01*
X107271428Y-103104761D01*
X107166666Y-103314285D01*
X107166666Y-103628571D01*
X107271428Y-103838095D01*
X107376190Y-103942857D01*
X107585714Y-104047619D01*
X108423809Y-104047619D01*
X106328571Y-103104761D02*
X106223809Y-103000000D01*
X106014285Y-102895238D01*
X105490476Y-102895238D01*
X105280952Y-103000000D01*
X105176190Y-103104761D01*
X105071428Y-103314285D01*
X105071428Y-103523809D01*
X105176190Y-103838095D01*
X106433333Y-105095238D01*
X105071428Y-105095238D01*
X108423809Y-105095238D02*
X108423809Y-102895238D01*
X107585714Y-102895238D01*
X107376190Y-103000000D01*
X107271428Y-103104761D01*
X107166666Y-103314285D01*
X107166666Y-103628571D01*
X107271428Y-103838095D01*
X107376190Y-103942857D01*
X107585714Y-104047619D01*
X108423809Y-104047619D01*
X106328571Y-103104761D02*
X106223809Y-103000000D01*
X106014285Y-102895238D01*
X105490476Y-102895238D01*
X105280952Y-103000000D01*
X105176190Y-103104761D01*
X105071428Y-103314285D01*
X105071428Y-103523809D01*
X105176190Y-103838095D01*
X106433333Y-105095238D01*
X105071428Y-105095238D01*
X126623809Y-105095238D02*
X126623809Y-102895238D01*
X125785714Y-102895238D01*
X125576190Y-103000000D01*
X125471428Y-103104761D01*
X125366666Y-103314285D01*
X125366666Y-103628571D01*
X125471428Y-103838095D01*
X125576190Y-103942857D01*
X125785714Y-104047619D01*
X126623809Y-104047619D01*
X123271428Y-105095238D02*
X124528571Y-105095238D01*
X123900000Y-105095238D02*
X123900000Y-102895238D01*
X124109523Y-103209523D01*
X124319047Y-103419047D01*
X124528571Y-103523809D01*
X126623809Y-129995238D02*
X126623809Y-127795238D01*
X125785714Y-127795238D01*
X125576190Y-127900000D01*
X125471428Y-128004761D01*
X125366666Y-128214285D01*
X125366666Y-128528571D01*
X125471428Y-128738095D01*
X125576190Y-128842857D01*
X125785714Y-128947619D01*
X126623809Y-128947619D01*
X123271428Y-129995238D02*
X124528571Y-129995238D01*
X123900000Y-129995238D02*
X123900000Y-127795238D01*
X124109523Y-128109523D01*
X124319047Y-128319047D01*
X124528571Y-128423809D01*
X108423809Y-129995238D02*
X108423809Y-127795238D01*
X107585714Y-127795238D01*
X107376190Y-127900000D01*
X107271428Y-128004761D01*
X107166666Y-128214285D01*
X107166666Y-128528571D01*
X107271428Y-128738095D01*
X107376190Y-128842857D01*
X107585714Y-128947619D01*
X108423809Y-128947619D01*
X106328571Y-128004761D02*
X106223809Y-127900000D01*
X106014285Y-127795238D01*
X105490476Y-127795238D01*
X105280952Y-127900000D01*
X105176190Y-128004761D01*
X105071428Y-128214285D01*
X105071428Y-128423809D01*
X105176190Y-128738095D01*
X106433333Y-129995238D01*
X105071428Y-129995238D01*
X108423809Y-129995238D02*
X108423809Y-127795238D01*
X107585714Y-127795238D01*
X107376190Y-127900000D01*
X107271428Y-128004761D01*
X107166666Y-128214285D01*
X107166666Y-128528571D01*
X107271428Y-128738095D01*
X107376190Y-128842857D01*
X107585714Y-128947619D01*
X108423809Y-128947619D01*
X106328571Y-128004761D02*
X106223809Y-127900000D01*
X106014285Y-127795238D01*
X105490476Y-127795238D01*
X105280952Y-127900000D01*
X105176190Y-128004761D01*
X105071428Y-128214285D01*
X105071428Y-128423809D01*
X105176190Y-128738095D01*
X106433333Y-129995238D01*
X105071428Y-129995238D01*
X126623809Y-129995238D02*
X126623809Y-127795238D01*
X125785714Y-127795238D01*
X125576190Y-127900000D01*
X125471428Y-128004761D01*
X125366666Y-128214285D01*
X125366666Y-128528571D01*
X125471428Y-128738095D01*
X125576190Y-128842857D01*
X125785714Y-128947619D01*
X126623809Y-128947619D01*
X123271428Y-129995238D02*
X124528571Y-129995238D01*
X123900000Y-129995238D02*
X123900000Y-127795238D01*
X124109523Y-128109523D01*
X124319047Y-128319047D01*
X124528571Y-128423809D01*
D11*
X147416900Y-34394000D02*
X147416900Y-54206000D01*
X144876900Y-56746000D02*
X133523100Y-56746000D01*
X130983100Y-54206000D02*
X130983100Y-34394000D01*
X133523100Y-31854000D02*
X144876900Y-31854000D01*
X144876900Y-31854000D02*
G75*
G02X147416900Y-34394000I0J-2540000D01*
G01*
X130983100Y-34394000D02*
G75*
G02X133523100Y-31854000I2540000J0D01*
G01*
X133523100Y-56746000D02*
G75*
G02X130983100Y-54206000I0J2540000D01*
G01*
X147416900Y-54206000D02*
G75*
G02X144876900Y-56746000I-2540000J0D01*
G01*
X136152000Y-59146300D02*
X140978000Y-59146300D01*
X136152000Y-29453700D02*
X140978000Y-29453700D01*
X142248000Y-57876300D02*
X142248000Y-56746000D01*
X136152000Y-59146300D02*
X136152000Y-56746000D01*
X142248000Y-30723700D02*
X142248000Y-31854000D01*
X136152000Y-29453700D02*
X136152000Y-31854000D01*
X142248000Y-57876300D02*
G75*
G02X140978000Y-59146300I-1270000J0D01*
G01*
X140978000Y-29453700D02*
G75*
G02X142248000Y-30723700I0J-1270000D01*
G01*
X100816900Y-34394000D02*
X100816900Y-54206000D01*
X98276900Y-56746000D02*
X86923100Y-56746000D01*
X84383100Y-54206000D02*
X84383100Y-34394000D01*
X86923100Y-31854000D02*
X98276900Y-31854000D01*
X98276900Y-31854000D02*
G75*
G02X100816900Y-34394000I0J-2540000D01*
G01*
X84383100Y-34394000D02*
G75*
G02X86923100Y-31854000I2540000J0D01*
G01*
X86923100Y-56746000D02*
G75*
G02X84383100Y-54206000I0J2540000D01*
G01*
X100816900Y-54206000D02*
G75*
G02X98276900Y-56746000I-2540000J0D01*
G01*
X89552000Y-59146300D02*
X94378000Y-59146300D01*
X89552000Y-29453700D02*
X94378000Y-29453700D01*
X95648000Y-57876300D02*
X95648000Y-56746000D01*
X89552000Y-59146300D02*
X89552000Y-56746000D01*
X95648000Y-30723700D02*
X95648000Y-31854000D01*
X89552000Y-29453700D02*
X89552000Y-31854000D01*
X95648000Y-57876300D02*
G75*
G02X94378000Y-59146300I-1270000J0D01*
G01*
X94378000Y-29453700D02*
G75*
G02X95648000Y-30723700I0J-1270000D01*
G01*
X140978000Y-54353700D02*
G75*
G02X142248000Y-55623700I0J-1270000D01*
G01*
X142248000Y-82776300D02*
G75*
G02X140978000Y-84046300I-1270000J0D01*
G01*
X136152000Y-54353700D02*
X136152000Y-56754000D01*
X142248000Y-55623700D02*
X142248000Y-56754000D01*
X136152000Y-84046300D02*
X136152000Y-81646000D01*
X142248000Y-82776300D02*
X142248000Y-81646000D01*
X136152000Y-54353700D02*
X140978000Y-54353700D01*
X136152000Y-84046300D02*
X140978000Y-84046300D01*
X147416900Y-79106000D02*
G75*
G02X144876900Y-81646000I-2540000J0D01*
G01*
X133523100Y-81646000D02*
G75*
G02X130983100Y-79106000I0J2540000D01*
G01*
X130983100Y-59294000D02*
G75*
G02X133523100Y-56754000I2540000J0D01*
G01*
X144876900Y-56754000D02*
G75*
G02X147416900Y-59294000I0J-2540000D01*
G01*
X133523100Y-56754000D02*
X144876900Y-56754000D01*
X130983100Y-79106000D02*
X130983100Y-59294000D01*
X144876900Y-81646000D02*
X133523100Y-81646000D01*
X147416900Y-59294000D02*
X147416900Y-79106000D01*
X94378000Y-54353700D02*
G75*
G02X95648000Y-55623700I0J-1270000D01*
G01*
X95648000Y-82776300D02*
G75*
G02X94378000Y-84046300I-1270000J0D01*
G01*
X89552000Y-54353700D02*
X89552000Y-56754000D01*
X95648000Y-55623700D02*
X95648000Y-56754000D01*
X89552000Y-84046300D02*
X89552000Y-81646000D01*
X95648000Y-82776300D02*
X95648000Y-81646000D01*
X89552000Y-54353700D02*
X94378000Y-54353700D01*
X89552000Y-84046300D02*
X94378000Y-84046300D01*
X100816900Y-79106000D02*
G75*
G02X98276900Y-81646000I-2540000J0D01*
G01*
X86923100Y-81646000D02*
G75*
G02X84383100Y-79106000I0J2540000D01*
G01*
X84383100Y-59294000D02*
G75*
G02X86923100Y-56754000I2540000J0D01*
G01*
X98276900Y-56754000D02*
G75*
G02X100816900Y-59294000I0J-2540000D01*
G01*
X86923100Y-56754000D02*
X98276900Y-56754000D01*
X84383100Y-79106000D02*
X84383100Y-59294000D01*
X98276900Y-81646000D02*
X86923100Y-81646000D01*
X100816900Y-59294000D02*
X100816900Y-79106000D01*
X147416900Y-84194000D02*
X147416900Y-104006000D01*
X144876900Y-106546000D02*
X133523100Y-106546000D01*
X130983100Y-104006000D02*
X130983100Y-84194000D01*
X133523100Y-81654000D02*
X144876900Y-81654000D01*
X144876900Y-81654000D02*
G75*
G02X147416900Y-84194000I0J-2540000D01*
G01*
X130983100Y-84194000D02*
G75*
G02X133523100Y-81654000I2540000J0D01*
G01*
X133523100Y-106546000D02*
G75*
G02X130983100Y-104006000I0J2540000D01*
G01*
X147416900Y-104006000D02*
G75*
G02X144876900Y-106546000I-2540000J0D01*
G01*
X136152000Y-108946300D02*
X140978000Y-108946300D01*
X136152000Y-79253700D02*
X140978000Y-79253700D01*
X142248000Y-107676300D02*
X142248000Y-106546000D01*
X136152000Y-108946300D02*
X136152000Y-106546000D01*
X142248000Y-80523700D02*
X142248000Y-81654000D01*
X136152000Y-79253700D02*
X136152000Y-81654000D01*
X142248000Y-107676300D02*
G75*
G02X140978000Y-108946300I-1270000J0D01*
G01*
X140978000Y-79253700D02*
G75*
G02X142248000Y-80523700I0J-1270000D01*
G01*
X100816900Y-84194000D02*
X100816900Y-104006000D01*
X98276900Y-106546000D02*
X86923100Y-106546000D01*
X84383100Y-104006000D02*
X84383100Y-84194000D01*
X86923100Y-81654000D02*
X98276900Y-81654000D01*
X98276900Y-81654000D02*
G75*
G02X100816900Y-84194000I0J-2540000D01*
G01*
X84383100Y-84194000D02*
G75*
G02X86923100Y-81654000I2540000J0D01*
G01*
X86923100Y-106546000D02*
G75*
G02X84383100Y-104006000I0J2540000D01*
G01*
X100816900Y-104006000D02*
G75*
G02X98276900Y-106546000I-2540000J0D01*
G01*
X89552000Y-108946300D02*
X94378000Y-108946300D01*
X89552000Y-79253700D02*
X94378000Y-79253700D01*
X95648000Y-107676300D02*
X95648000Y-106546000D01*
X89552000Y-108946300D02*
X89552000Y-106546000D01*
X95648000Y-80523700D02*
X95648000Y-81654000D01*
X89552000Y-79253700D02*
X89552000Y-81654000D01*
X95648000Y-107676300D02*
G75*
G02X94378000Y-108946300I-1270000J0D01*
G01*
X94378000Y-79253700D02*
G75*
G02X95648000Y-80523700I0J-1270000D01*
G01*
X140978000Y-104153700D02*
G75*
G02X142248000Y-105423700I0J-1270000D01*
G01*
X142248000Y-132576300D02*
G75*
G02X140978000Y-133846300I-1270000J0D01*
G01*
X136152000Y-104153700D02*
X136152000Y-106554000D01*
X142248000Y-105423700D02*
X142248000Y-106554000D01*
X136152000Y-133846300D02*
X136152000Y-131446000D01*
X142248000Y-132576300D02*
X142248000Y-131446000D01*
X136152000Y-104153700D02*
X140978000Y-104153700D01*
X136152000Y-133846300D02*
X140978000Y-133846300D01*
X147416900Y-128906000D02*
G75*
G02X144876900Y-131446000I-2540000J0D01*
G01*
X133523100Y-131446000D02*
G75*
G02X130983100Y-128906000I0J2540000D01*
G01*
X130983100Y-109094000D02*
G75*
G02X133523100Y-106554000I2540000J0D01*
G01*
X144876900Y-106554000D02*
G75*
G02X147416900Y-109094000I0J-2540000D01*
G01*
X133523100Y-106554000D02*
X144876900Y-106554000D01*
X130983100Y-128906000D02*
X130983100Y-109094000D01*
X144876900Y-131446000D02*
X133523100Y-131446000D01*
X147416900Y-109094000D02*
X147416900Y-128906000D01*
X94378000Y-104153700D02*
G75*
G02X95648000Y-105423700I0J-1270000D01*
G01*
X95648000Y-132576300D02*
G75*
G02X94378000Y-133846300I-1270000J0D01*
G01*
X89552000Y-104153700D02*
X89552000Y-106554000D01*
X95648000Y-105423700D02*
X95648000Y-106554000D01*
X89552000Y-133846300D02*
X89552000Y-131446000D01*
X95648000Y-132576300D02*
X95648000Y-131446000D01*
X89552000Y-104153700D02*
X94378000Y-104153700D01*
X89552000Y-133846300D02*
X94378000Y-133846300D01*
X100816900Y-128906000D02*
G75*
G02X98276900Y-131446000I-2540000J0D01*
G01*
X86923100Y-131446000D02*
G75*
G02X84383100Y-128906000I0J2540000D01*
G01*
X84383100Y-109094000D02*
G75*
G02X86923100Y-106554000I2540000J0D01*
G01*
X98276900Y-106554000D02*
G75*
G02X100816900Y-109094000I0J-2540000D01*
G01*
X86923100Y-106554000D02*
X98276900Y-106554000D01*
X84383100Y-128906000D02*
X84383100Y-109094000D01*
X98276900Y-131446000D02*
X86923100Y-131446000D01*
X100816900Y-109094000D02*
X100816900Y-128906000D01*
D12*
X132291380Y-37870666D02*
X133005666Y-37870666D01*
X133148523Y-37823047D01*
X133243761Y-37727809D01*
X133291380Y-37584952D01*
X133291380Y-37489714D01*
X132386619Y-38299238D02*
X132339000Y-38346857D01*
X132291380Y-38442095D01*
X132291380Y-38680190D01*
X132339000Y-38775428D01*
X132386619Y-38823047D01*
X132481857Y-38870666D01*
X132577095Y-38870666D01*
X132719952Y-38823047D01*
X133291380Y-38251619D01*
X133291380Y-38870666D01*
X85691380Y-37870666D02*
X86405666Y-37870666D01*
X86548523Y-37823047D01*
X86643761Y-37727809D01*
X86691380Y-37584952D01*
X86691380Y-37489714D01*
X85691380Y-38251619D02*
X85691380Y-38870666D01*
X86072333Y-38537333D01*
X86072333Y-38680190D01*
X86119952Y-38775428D01*
X86167571Y-38823047D01*
X86262809Y-38870666D01*
X86500904Y-38870666D01*
X86596142Y-38823047D01*
X86643761Y-38775428D01*
X86691380Y-38680190D01*
X86691380Y-38394476D01*
X86643761Y-38299238D01*
X86596142Y-38251619D01*
X132291380Y-62770666D02*
X133005666Y-62770666D01*
X133148523Y-62723047D01*
X133243761Y-62627809D01*
X133291380Y-62484952D01*
X133291380Y-62389714D01*
X132386619Y-63199238D02*
X132339000Y-63246857D01*
X132291380Y-63342095D01*
X132291380Y-63580190D01*
X132339000Y-63675428D01*
X132386619Y-63723047D01*
X132481857Y-63770666D01*
X132577095Y-63770666D01*
X132719952Y-63723047D01*
X133291380Y-63151619D01*
X133291380Y-63770666D01*
X85691380Y-62770666D02*
X86405666Y-62770666D01*
X86548523Y-62723047D01*
X86643761Y-62627809D01*
X86691380Y-62484952D01*
X86691380Y-62389714D01*
X85691380Y-63151619D02*
X85691380Y-63770666D01*
X86072333Y-63437333D01*
X86072333Y-63580190D01*
X86119952Y-63675428D01*
X86167571Y-63723047D01*
X86262809Y-63770666D01*
X86500904Y-63770666D01*
X86596142Y-63723047D01*
X86643761Y-63675428D01*
X86691380Y-63580190D01*
X86691380Y-63294476D01*
X86643761Y-63199238D01*
X86596142Y-63151619D01*
X132291380Y-87670666D02*
X133005666Y-87670666D01*
X133148523Y-87623047D01*
X133243761Y-87527809D01*
X133291380Y-87384952D01*
X133291380Y-87289714D01*
X132386619Y-88099238D02*
X132339000Y-88146857D01*
X132291380Y-88242095D01*
X132291380Y-88480190D01*
X132339000Y-88575428D01*
X132386619Y-88623047D01*
X132481857Y-88670666D01*
X132577095Y-88670666D01*
X132719952Y-88623047D01*
X133291380Y-88051619D01*
X133291380Y-88670666D01*
X85691380Y-87670666D02*
X86405666Y-87670666D01*
X86548523Y-87623047D01*
X86643761Y-87527809D01*
X86691380Y-87384952D01*
X86691380Y-87289714D01*
X85691380Y-88051619D02*
X85691380Y-88670666D01*
X86072333Y-88337333D01*
X86072333Y-88480190D01*
X86119952Y-88575428D01*
X86167571Y-88623047D01*
X86262809Y-88670666D01*
X86500904Y-88670666D01*
X86596142Y-88623047D01*
X86643761Y-88575428D01*
X86691380Y-88480190D01*
X86691380Y-88194476D01*
X86643761Y-88099238D01*
X86596142Y-88051619D01*
X132291380Y-112570666D02*
X133005666Y-112570666D01*
X133148523Y-112523047D01*
X133243761Y-112427809D01*
X133291380Y-112284952D01*
X133291380Y-112189714D01*
X132386619Y-112999238D02*
X132339000Y-113046857D01*
X132291380Y-113142095D01*
X132291380Y-113380190D01*
X132339000Y-113475428D01*
X132386619Y-113523047D01*
X132481857Y-113570666D01*
X132577095Y-113570666D01*
X132719952Y-113523047D01*
X133291380Y-112951619D01*
X133291380Y-113570666D01*
X85691380Y-112570666D02*
X86405666Y-112570666D01*
X86548523Y-112523047D01*
X86643761Y-112427809D01*
X86691380Y-112284952D01*
X86691380Y-112189714D01*
X85691380Y-112951619D02*
X85691380Y-113570666D01*
X86072333Y-113237333D01*
X86072333Y-113380190D01*
X86119952Y-113475428D01*
X86167571Y-113523047D01*
X86262809Y-113570666D01*
X86500904Y-113570666D01*
X86596142Y-113523047D01*
X86643761Y-113475428D01*
X86691380Y-113380190D01*
X86691380Y-113094476D01*
X86643761Y-112999238D01*
X86596142Y-112951619D01*
M02*
